<svg xmlns="http://www.w3.org/2000/svg" xmlns:xlink="http://www.w3.org/1999/xlink" viewBox="0 0 500 228.99"><defs><linearGradient id="b" x1="307.96" y1="155.08" x2="240.12" y2="112.26" gradientUnits="userSpaceOnUse"><stop offset="0" stop-color="#79fff8" stop-opacity=".2"/><stop offset=".76" stop-color="#ff6c37"/><stop offset="1" stop-color="#ff6237"/></linearGradient><linearGradient id="c" x1="188.3" y1="180.2" x2="264.91" y2="103.58" gradientUnits="userSpaceOnUse"><stop offset="0" stop-color="#a8c929" stop-opacity=".1"/><stop offset="1" stop-color="#ff4837"/></linearGradient><linearGradient id="a" x1="72.8" y1="118.49" x2=".13" y2="118.49" gradientUnits="userSpaceOnUse"><stop offset="0" stop-color="ivory"/><stop offset="1" stop-color="ivory" stop-opacity="0"/></linearGradient><linearGradient id="d" x1="-2407.09" y1="7099.82" x2="-2479.77" y2="7099.82" gradientTransform="rotate(180 -989.945 3609.16)" xlink:href="#a"/></defs><path d="M145.28 9.86a5.42 5.42 0 0 1 3.84 1.27 5.12 5.12 0 0 1 1.34 3.87 8.78 8.78 0 0 1-.3 2.41 4.42 4.42 0 0 1-.94 1.77 4 4 0 0 1-1.61 1.1 6.54 6.54 0 0 1-2.33.38h-3.7V9.86zm.12 9.59h.6a3.88 3.88 0 0 0 .77-.18 3.47 3.47 0 0 0 .81-.42 2.68 2.68 0 0 0 .72-.74 4 4 0 0 0 .52-1.17 6 6 0 0 0 .21-1.7 7.51 7.51 0 0 0-.19-1.73 3.34 3.34 0 0 0-.62-1.3 2.78 2.78 0 0 0-1.11-.82 4.61 4.61 0 0 0-1.68-.28H143v8.38zm14.66 1.17a1.72 1.72 0 0 1-.92.2 1.1 1.1 0 0 1-.8-.28 1.23 1.23 0 0 1-.29-.91 3 3 0 0 1-1.23.91 4 4 0 0 1-1.52.28 4.17 4.17 0 0 1-1-.12 2.38 2.38 0 0 1-.82-.38 1.73 1.73 0 0 1-.55-.67 2.2 2.2 0 0 1-.21-1 2.29 2.29 0 0 1 .23-1.09 1.92 1.92 0 0 1 .6-.69 2.61 2.61 0 0 1 .84-.4c.32-.09.65-.17 1-.23s.69-.12 1-.16a4.53 4.53 0 0 0 .84-.15 1.32 1.32 0 0 0 .58-.29.69.69 0 0 0 .21-.55 1.25 1.25 0 0 0-.16-.68 1.09 1.09 0 0 0-.41-.39 1.6 1.6 0 0 0-.56-.18 4.18 4.18 0 0 0-.61-.05 2.79 2.79 0 0 0-1.36.31 1.33 1.33 0 0 0-.59 1.17H153a2.78 2.78 0 0 1 .3-1.22 2.34 2.34 0 0 1 .72-.81 3.23 3.23 0 0 1 1-.44 5.5 5.5 0 0 1 1.25-.14 7.41 7.41 0 0 1 1 .07 3.15 3.15 0 0 1 .94.31 1.87 1.87 0 0 1 .68.66 2.11 2.11 0 0 1 .26 1.1v4a3.49 3.49 0 0 0 .05.67c0 .14.15.21.36.21a1.55 1.55 0 0 0 .39-.06zm-2.09-4a1.52 1.52 0 0 1-.63.26c-.26.06-.54.1-.83.14l-.86.12a2.94 2.94 0 0 0-.79.22 1.44 1.44 0 0 0-.57.43 1.2 1.2 0 0 0-.22.75 1.11 1.11 0 0 0 .13.54 1.14 1.14 0 0 0 .34.35 1.34 1.34 0 0 0 .47.2 2.65 2.65 0 0 0 .58.06 2.91 2.91 0 0 0 1.08-.18 2.19 2.19 0 0 0 .74-.43 1.72 1.72 0 0 0 .43-.57 1.46 1.46 0 0 0 .13-.58zm7.76-3.78V14h-1.56v4.86a1.19 1.19 0 0 0 0 .36.34.34 0 0 0 .14.21.7.7 0 0 0 .3.1h1.08v1.14h-1a5.11 5.11 0 0 1-.85-.07 1.25 1.25 0 0 1-.57-.25 1.06 1.06 0 0 1-.33-.52 3 3 0 0 1-.1-.87V14h-1.34v-1.16h1.34V10.5h1.28v2.34zm9.47 7.78a1.72 1.72 0 0 1-.92.2 1.08 1.08 0 0 1-.79-.28 1.19 1.19 0 0 1-.3-.91 3 3 0 0 1-1.23.91 4.25 4.25 0 0 1-2.52.16 2.35 2.35 0 0 1-.83-.38 1.82 1.82 0 0 1-.55-.67 2.35 2.35 0 0 1-.2-1 2.3 2.3 0 0 1 .22-1.09 2 2 0 0 1 .6-.69 2.66 2.66 0 0 1 .85-.4 9.8 9.8 0 0 1 1-.23c.35-.07.69-.12 1-.16a4.69 4.69 0 0 0 .84-.15 1.28 1.28 0 0 0 .57-.29.69.69 0 0 0 .21-.55 1.25 1.25 0 0 0-.16-.68 1.07 1.07 0 0 0-.4-.39 1.75 1.75 0 0 0-.56-.18 4.32 4.32 0 0 0-.62-.05 2.82 2.82 0 0 0-1.36.31 1.33 1.33 0 0 0-.59 1.17h-1.28a2.78 2.78 0 0 1 .3-1.22 2.37 2.37 0 0 1 .73-.81 3.18 3.18 0 0 1 1-.44 5.57 5.57 0 0 1 1.25-.14 7.41 7.41 0 0 1 1.05.07 3.06 3.06 0 0 1 .94.31 1.8 1.8 0 0 1 .68.66 2 2 0 0 1 .26 1.1v4a3.49 3.49 0 0 0 0 .67q.06.21.36.21a1.55 1.55 0 0 0 .39-.06zm-2.08-4a1.56 1.56 0 0 1-.64.26c-.26.06-.53.1-.82.14l-.87.12a3.16 3.16 0 0 0-.79.22 1.34 1.34 0 0 0-.56.43 1.14 1.14 0 0 0-.22.75 1 1 0 0 0 .46.89 1.39 1.39 0 0 0 .48.2 2.62 2.62 0 0 0 .57.06 3 3 0 0 0 1.09-.18 2.29 2.29 0 0 0 .74-.43 1.82 1.82 0 0 0 .42-.57 1.48 1.48 0 0 0 .14-.58zM301.94 215l3.4 9.07 3.41-9.07h2v10.79h-1.36v-9l-3.37 9h-1.23l-3.37-9v9H300V215zM321 225.8a1.82 1.82 0 0 1-.92.2 1.16 1.16 0 0 1-.8-.28 1.27 1.27 0 0 1-.29-.92 3.12 3.12 0 0 1-1.23.92 4.23 4.23 0 0 1-1.52.28 4.17 4.17 0 0 1-1-.12 2.58 2.58 0 0 1-.82-.38 1.86 1.86 0 0 1-.55-.68 2.17 2.17 0 0 1-.21-1 2.32 2.32 0 0 1 .23-1.09 2 2 0 0 1 .6-.69 3 3 0 0 1 .84-.4c.32-.09.65-.16 1-.22s.69-.13 1-.16a7.17 7.17 0 0 0 .84-.15 1.37 1.37 0 0 0 .58-.29.71.71 0 0 0 .21-.55 1.25 1.25 0 0 0-.16-.68 1.21 1.21 0 0 0-.41-.4 1.6 1.6 0 0 0-.56-.18 4.17 4.17 0 0 0-.61 0 2.68 2.68 0 0 0-1.36.31 1.3 1.3 0 0 0-.59 1.17h-1.28a2.86 2.86 0 0 1 .3-1.23 2.22 2.22 0 0 1 .72-.8 3 3 0 0 1 1-.45 5.5 5.5 0 0 1 1.25-.14 7.42 7.42 0 0 1 1 .08 2.67 2.67 0 0 1 .94.31 1.77 1.77 0 0 1 .68.65 2.14 2.14 0 0 1 .26 1.11v4a3.37 3.37 0 0 0 .05.66q.06.21.36.21a1.55 1.55 0 0 0 .39-.06zm-2.09-4a1.67 1.67 0 0 1-.63.27c-.26.05-.54.1-.82.13l-.87.12a3.35 3.35 0 0 0-.79.22 1.44 1.44 0 0 0-.57.43 1.25 1.25 0 0 0-.22.76 1 1 0 0 0 .47.89 1.33 1.33 0 0 0 .47.19 2.65 2.65 0 0 0 .58.06 3.14 3.14 0 0 0 1.08-.17 2.36 2.36 0 0 0 .75-.44 1.62 1.62 0 0 0 .42-.57 1.42 1.42 0 0 0 .13-.58zm5.53-3.8v1.64a3.49 3.49 0 0 1 1.15-1.4 2.9 2.9 0 0 1 1.72-.43v1.36a3.62 3.62 0 0 0-1.31.22 2 2 0 0 0-.88.62 2.54 2.54 0 0 0-.48 1 5.29 5.29 0 0 0-.15 1.33v3.48h-1.29V218zm6.36-3v6.39l3.57-3.41h1.72l-3.09 2.88 3.32 5h-1.63l-2.69-4.11-1.21 1.12v3h-1.28V215zm13.2 10.33a3.55 3.55 0 0 1-2.2.67 4 4 0 0 1-1.63-.31 3.15 3.15 0 0 1-1.15-.84 3.64 3.64 0 0 1-.71-1.3 6.62 6.62 0 0 1-.26-1.65 4.72 4.72 0 0 1 .27-1.63A4 4 0 0 1 339 219a3.5 3.5 0 0 1 1.17-.84 3.58 3.58 0 0 1 1.47-.31 3.26 3.26 0 0 1 1.73.43 3.4 3.4 0 0 1 1.1 1.1 4.37 4.37 0 0 1 .58 1.45 6.57 6.57 0 0 1 .13 1.5h-5.85a3.08 3.08 0 0 0 .12 1 2.16 2.16 0 0 0 1.21 1.39 2.67 2.67 0 0 0 1.1.21 2.24 2.24 0 0 0 1.34-.38 1.82 1.82 0 0 0 .69-1.15h1.27a3.13 3.13 0 0 1-1.06 1.93zm-.31-5a2.21 2.21 0 0 0-1.16-1.17 2.41 2.41 0 0 0-1.78 0 2.14 2.14 0 0 0-.69.48 2.43 2.43 0 0 0-.46.7 2.7 2.7 0 0 0-.19.85h4.49a2.53 2.53 0 0 0-.26-.88zM351 218v1.13h-1.56V224a1.63 1.63 0 0 0 0 .36.39.39 0 0 0 .14.21.54.54 0 0 0 .3.1 3.28 3.28 0 0 0 .49 0h.63v1.13h-1a4.33 4.33 0 0 1-.86-.07 1.24 1.24 0 0 1-.57-.25 1 1 0 0 1-.32-.51 2.7 2.7 0 0 1-.11-.88v-5h-1.33V218h1.33v-2.35h1.28V218zm2.64-1.39V215h1.28v1.57zm1.28 1.41v7.81h-1.28V218zm4.34-.02v1.24a2.71 2.71 0 0 1 2.54-1.43 3.28 3.28 0 0 1 1.29.22 2.1 2.1 0 0 1 .83.58 2.23 2.23 0 0 1 .44.9 4.68 4.68 0 0 1 .13 1.16v5.14h-1.28v-5.29a1.53 1.53 0 0 0-.43-1.15 1.57 1.57 0 0 0-1.16-.42 2.66 2.66 0 0 0-1 .18 1.89 1.89 0 0 0-.72.51 2.37 2.37 0 0 0-.43.78 3.36 3.36 0 0 0-.14 1v4.41h-1.29V218zm14.19 10a3.58 3.58 0 0 1-2.75 1 5.38 5.38 0 0 1-1.11-.12 3.21 3.21 0 0 1-1-.4 2.34 2.34 0 0 1-.76-.71 2 2 0 0 1-.33-1.07h1.28a1 1 0 0 0 .22.59 1.61 1.61 0 0 0 .5.39 2.31 2.31 0 0 0 .64.22 3.18 3.18 0 0 0 .67.07 2.32 2.32 0 0 0 1.07-.22 2.14 2.14 0 0 0 .73-.6 2.47 2.47 0 0 0 .41-.93 5 5 0 0 0 .13-1.2v-.51a2.15 2.15 0 0 1-1 1.06 3.1 3.1 0 0 1-1.43.34 3.45 3.45 0 0 1-1.53-.31 3.18 3.18 0 0 1-1.09-.86 3.46 3.46 0 0 1-.65-1.25 5.08 5.08 0 0 1-.22-1.52 6 6 0 0 1 .18-1.43 3.91 3.91 0 0 1 .6-1.33 3.34 3.34 0 0 1 1.12-1 3.43 3.43 0 0 1 1.71-.39 2.85 2.85 0 0 1 1.36.33 2.38 2.38 0 0 1 1 1V218h1.21v7.14a4.12 4.12 0 0 1-.96 2.86zm-1.64-3.52a2.07 2.07 0 0 0 .72-.69 3.16 3.16 0 0 0 .4-1 4.45 4.45 0 0 0 .13-1.09 4.29 4.29 0 0 0-.12-1 2.8 2.8 0 0 0-.39-.9 2 2 0 0 0-.68-.64 2.09 2.09 0 0 0-1-.24 2.3 2.3 0 0 0-1.06.23 2.19 2.19 0 0 0-.72.63 2.81 2.81 0 0 0-.41.91 4.68 4.68 0 0 0-.12 1.07 5.51 5.51 0 0 0 .1 1.06 3.08 3.08 0 0 0 .36 1 2.07 2.07 0 0 0 .69.69 1.91 1.91 0 0 0 1.05.27 2 2 0 0 0 1.05-.26zM136.53 215a5.38 5.38 0 0 1 3.84 1.27 5.07 5.07 0 0 1 1.35 3.87 8.44 8.44 0 0 1-.31 2.41 4.54 4.54 0 0 1-.93 1.77 4.11 4.11 0 0 1-1.62 1.09 6.54 6.54 0 0 1-2.33.38h-3.7V215zm.12 9.58a5 5 0 0 0 .61 0 2.94 2.94 0 0 0 .77-.18 3.43 3.43 0 0 0 .81-.41 3 3 0 0 0 .71-.74 4.16 4.16 0 0 0 .53-1.18 6.34 6.34 0 0 0 .2-1.7 7 7 0 0 0-.19-1.73 3.21 3.21 0 0 0-.62-1.3 2.76 2.76 0 0 0-1.11-.81 4.34 4.34 0 0 0-1.68-.28h-2.41v8.37zm13.27.75a3.55 3.55 0 0 1-2.2.67 3.89 3.89 0 0 1-1.63-.31 3.15 3.15 0 0 1-1.15-.84 3.56 3.56 0 0 1-.71-1.3 6.55 6.55 0 0 1-.26-1.65 4.72 4.72 0 0 1 .27-1.63A4 4 0 0 1 145 219a3.5 3.5 0 0 1 1.17-.84 3.58 3.58 0 0 1 1.47-.3 3.17 3.17 0 0 1 1.73.43 3.28 3.28 0 0 1 1.1 1.09 4.46 4.46 0 0 1 .58 1.45 6.62 6.62 0 0 1 .13 1.5h-5.85a3.08 3.08 0 0 0 .12 1 2.24 2.24 0 0 0 .44.82 2.12 2.12 0 0 0 .77.57 2.67 2.67 0 0 0 1.1.21 2.24 2.24 0 0 0 1.34-.38 1.8 1.8 0 0 0 .69-1.15h1.27a3.13 3.13 0 0 1-1.14 1.93zm-.31-5a2.21 2.21 0 0 0-1.16-1.17 2.41 2.41 0 0 0-1.78 0 2.14 2.14 0 0 0-.69.48 2.43 2.43 0 0 0-.46.7 2.7 2.7 0 0 0-.19.86h4.49a2.58 2.58 0 0 0-.21-.89zm5.01 3.75a1.27 1.27 0 0 0 .48.47 2.1 2.1 0 0 0 .66.25 3.87 3.87 0 0 0 .77.08 4.7 4.7 0 0 0 .63 0 2.27 2.27 0 0 0 .61-.16 1.09 1.09 0 0 0 .46-.36.88.88 0 0 0 .19-.6.85.85 0 0 0-.42-.76 3.35 3.35 0 0 0-.95-.42c-.37-.1-.78-.2-1.23-.28a6.53 6.53 0 0 1-1.23-.37 2.44 2.44 0 0 1-.94-.65 1.69 1.69 0 0 1-.38-1.18 2 2 0 0 1 .26-1 2.21 2.21 0 0 1 .68-.68 3.18 3.18 0 0 1 .94-.4 4.59 4.59 0 0 1 1-.12 5.86 5.86 0 0 1 1.23.11 2.7 2.7 0 0 1 1 .39 2.11 2.11 0 0 1 .69.76 2.84 2.84 0 0 1 .3 1.18h-1.29a1.26 1.26 0 0 0-.19-.62 1.18 1.18 0 0 0-.43-.4 1.6 1.6 0 0 0-.46-.32 2.7 2.7 0 0 0-.63-.07 3.77 3.77 0 0 0-.58 0 2.13 2.13 0 0 0-.54.16 1.19 1.19 0 0 0-.39.3.78.78 0 0 0-.15.5.75.75 0 0 0 .23.55 2.17 2.17 0 0 0 .6.36 4.19 4.19 0 0 0 .82.24l.9.21c.32.07.64.15.95.25a3.22 3.22 0 0 1 .81.4 2.05 2.05 0 0 1 .58.63 1.89 1.89 0 0 1 .22.94 2.18 2.18 0 0 1-.3 1.18 2.3 2.3 0 0 1-.77.75 3.12 3.12 0 0 1-1.07.4 6.08 6.08 0 0 1-1.19.12 5.54 5.54 0 0 1-1.24-.14 3 3 0 0 1-1-.45 2.29 2.29 0 0 1-.73-.81 2.86 2.86 0 0 1-.3-1.23h1.29a1.41 1.41 0 0 0 .11.79zm7.79-7.47V215h1.28v1.57zm1.28 1.41v7.81h-1.28V218zm8.99 9.98a3.58 3.58 0 0 1-2.75 1 5.38 5.38 0 0 1-1.11-.12 3.21 3.21 0 0 1-1-.4 2.34 2.34 0 0 1-.76-.71 2 2 0 0 1-.33-1.07H168a1 1 0 0 0 .22.59 1.61 1.61 0 0 0 .5.39 2.31 2.31 0 0 0 .64.22 3.25 3.25 0 0 0 .67.07 2.32 2.32 0 0 0 1.07-.22 2 2 0 0 0 .73-.6 2.47 2.47 0 0 0 .41-.93 5 5 0 0 0 .13-1.2v-.51a2.22 2.22 0 0 1-1 1.07 3.23 3.23 0 0 1-1.43.34 3.45 3.45 0 0 1-1.53-.32 3.28 3.28 0 0 1-1.09-.86 3.46 3.46 0 0 1-.65-1.25 5 5 0 0 1-.22-1.52 6 6 0 0 1 .18-1.43 3.91 3.91 0 0 1 .6-1.33 3.27 3.27 0 0 1 2.83-1.36 2.84 2.84 0 0 1 1.36.32 2.38 2.38 0 0 1 1 1V218h1.21v7.14a4.12 4.12 0 0 1-.95 2.86zm-1.68-3.48a2.07 2.07 0 0 0 .72-.69 3.06 3.06 0 0 0 .4-1 4.45 4.45 0 0 0 .13-1.09 4.29 4.29 0 0 0-.12-1 2.8 2.8 0 0 0-.39-.9 2 2 0 0 0-.68-.64 2.09 2.09 0 0 0-1-.24 2.3 2.3 0 0 0-1.06.23 2.19 2.19 0 0 0-.72.63 2.81 2.81 0 0 0-.41.91 4.68 4.68 0 0 0-.12 1.07 5.44 5.44 0 0 0 .1 1.06 3.08 3.08 0 0 0 .36 1 2.07 2.07 0 0 0 .69.69 1.91 1.91 0 0 0 1.05.27 2 2 0 0 0 1.05-.3zm6.84-6.52v1.24a2.7 2.7 0 0 1 2.54-1.42 3.39 3.39 0 0 1 1.28.21 2 2 0 0 1 .83.59 2.25 2.25 0 0 1 .45.9 5.05 5.05 0 0 1 .13 1.15v5.14h-1.29v-5.29a1.45 1.45 0 0 0-1.58-1.57 2.67 2.67 0 0 0-1 .18 1.93 1.93 0 0 0-.71.51 2.29 2.29 0 0 0-.43.78 3.05 3.05 0 0 0-.15 1v4.41h-1.28V218zM315.2 1.21V0h8.63v1.21h-3.6v9.58h-1.43V1.21zm16.28 9.08a3.52 3.52 0 0 1-2.21.67 4.05 4.05 0 0 1-1.63-.3 3.38 3.38 0 0 1-1.15-.85 3.54 3.54 0 0 1-.7-1.3 6.06 6.06 0 0 1-.27-1.65 4.72 4.72 0 0 1 .27-1.63 3.84 3.84 0 0 1 .77-1.23 3.26 3.26 0 0 1 1.16-.85 3.58 3.58 0 0 1 1.47-.3 3.15 3.15 0 0 1 1.73.43A3.4 3.4 0 0 1 332 4.32a4.44 4.44 0 0 1 .57 1.45 6.09 6.09 0 0 1 .13 1.5h-5.85a3.08 3.08 0 0 0 .12 1 2.24 2.24 0 0 0 .44.82 2.12 2.12 0 0 0 .77.57 2.67 2.67 0 0 0 1.1.21 2.24 2.24 0 0 0 1.34-.38 1.8 1.8 0 0 0 .69-1.15h1.27a3.12 3.12 0 0 1-1.1 1.95zm-.31-5a2.37 2.37 0 0 0-.47-.71 2.46 2.46 0 0 0-.7-.47 2.26 2.26 0 0 0-.88-.17 2.37 2.37 0 0 0-.9.17 2.14 2.14 0 0 0-.69.48 2.33 2.33 0 0 0-.45.7 2.7 2.7 0 0 0-.2.86h4.49a2.7 2.7 0 0 0-.2-.87zm8.69-.95a2 2 0 0 0-1.3-.41 2.4 2.4 0 0 0-1.16.26 2.14 2.14 0 0 0-.75.68 2.92 2.92 0 0 0-.4 1 5.38 5.38 0 0 0-.12 1.13 4.11 4.11 0 0 0 .13 1 2.68 2.68 0 0 0 .4.91 2 2 0 0 0 .71.65 2.43 2.43 0 0 0 2.53-.26 2.23 2.23 0 0 0 .66-1.4h1.31a3.58 3.58 0 0 1-1.08 2.23 3.35 3.35 0 0 1-2.36.79 4.08 4.08 0 0 1-1.58-.29 3 3 0 0 1-1.15-.82 3.51 3.51 0 0 1-.7-1.26 5.44 5.44 0 0 1-.23-1.55 5.8 5.8 0 0 1 .23-1.66 3.89 3.89 0 0 1 .68-1.34 3.43 3.43 0 0 1 1.16-.89 3.72 3.72 0 0 1 1.62-.32 4.48 4.48 0 0 1 1.24.21 2.81 2.81 0 0 1 1 .49 2.73 2.73 0 0 1 .74.84 3 3 0 0 1 .36 1.2h-1.3a1.9 1.9 0 0 0-.64-1.19zM345.73 0v4.13a1.7 1.7 0 0 1 .42-.62 2.47 2.47 0 0 1 .61-.4 3.13 3.13 0 0 1 .71-.24 3.65 3.65 0 0 1 .72-.07 3.48 3.48 0 0 1 1.29.21 2 2 0 0 1 1.27 1.49 4.55 4.55 0 0 1 .13 1.15v5.14h-1.28V5.5a1.55 1.55 0 0 0-.43-1.15 1.57 1.57 0 0 0-1.17-.42 2.66 2.66 0 0 0-1 .18 1.81 1.81 0 0 0-.72.52 2.32 2.32 0 0 0-.43.77 3.41 3.41 0 0 0-.14 1v4.41h-1.29V0zm12.41 6v1.19h-4.37V6zM313.7 17.51v1.24a2.71 2.71 0 0 1 2.54-1.42 3.45 3.45 0 0 1 1.29.21 2 2 0 0 1 1.3 1.46 4.6 4.6 0 0 1 .13 1.15v5.14h-1.28V20a1.51 1.51 0 0 0-.43-1.14 1.54 1.54 0 0 0-1.16-.43 2.66 2.66 0 0 0-1 .18 1.91 1.91 0 0 0-.72.52 2.27 2.27 0 0 0-.43.78 3.29 3.29 0 0 0-.14 1v4.41h-1.29v-7.81zm8.15 2.3a3.75 3.75 0 0 1 .72-1.3 3.51 3.51 0 0 1 1.2-.86 4.34 4.34 0 0 1 3.27 0 3.57 3.57 0 0 1 1.19.86 3.75 3.75 0 0 1 .72 1.3A5.52 5.52 0 0 1 329 23a3.71 3.71 0 0 1-.72 1.29 3.43 3.43 0 0 1-1.19.86 4.47 4.47 0 0 1-3.27 0 3.38 3.38 0 0 1-1.2-.86 3.71 3.71 0 0 1-.72-1.29 5.52 5.52 0 0 1 0-3.22zm1.31 2.88a2.66 2.66 0 0 0 .52.92 2.29 2.29 0 0 0 .78.56 2.15 2.15 0 0 0 .94.2 2.22 2.22 0 0 0 1-.2 2.35 2.35 0 0 0 .77-.56 2.68 2.68 0 0 0 .53-.92 4.54 4.54 0 0 0 0-2.53 2.63 2.63 0 0 0-.53-.93 2.24 2.24 0 0 0-.77-.57 2.38 2.38 0 0 0-1-.2 2.3 2.3 0 0 0-.94.2 2.19 2.19 0 0 0-.78.57 2.62 2.62 0 0 0-.52.93 4.31 4.31 0 0 0 0 2.53zm10.04-8.16v10.79h-1.29V14.53zm2.95 5.28a3.75 3.75 0 0 1 .72-1.3 3.42 3.42 0 0 1 1.2-.86 3.8 3.8 0 0 1 1.63-.32 3.84 3.84 0 0 1 1.64.32 3.43 3.43 0 0 1 1.18.86 3.62 3.62 0 0 1 .73 1.3 5.52 5.52 0 0 1 0 3.22 3.58 3.58 0 0 1-.73 1.29 3.31 3.31 0 0 1-1.18.86 4 4 0 0 1-1.64.31 4 4 0 0 1-1.63-.31 3.3 3.3 0 0 1-1.2-.86 3.71 3.71 0 0 1-.72-1.29 5.31 5.31 0 0 1 0-3.22zm1.3 2.88a2.68 2.68 0 0 0 .53.92 2.35 2.35 0 0 0 .77.56 2.22 2.22 0 0 0 .95.2 2.15 2.15 0 0 0 .94-.2 2.29 2.29 0 0 0 .78-.56 2.66 2.66 0 0 0 .52-.92 4.31 4.31 0 0 0 0-2.53 2.62 2.62 0 0 0-.52-.93 2.19 2.19 0 0 0-.78-.57 2.3 2.3 0 0 0-.94-.2 2.38 2.38 0 0 0-.95.2 2.24 2.24 0 0 0-.77.57 2.63 2.63 0 0 0-.53.93 4.31 4.31 0 0 0 0 2.53zM352 27.53a3.54 3.54 0 0 1-2.75.95 5.38 5.38 0 0 1-1.11-.12 3.44 3.44 0 0 1-1-.39 2.35 2.35 0 0 1-.76-.71 2 2 0 0 1-.33-1.08h1.28a.91.91 0 0 0 .22.59 1.5 1.5 0 0 0 .5.4 2.54 2.54 0 0 0 .64.22 3.88 3.88 0 0 0 .67.06 2.46 2.46 0 0 0 1.07-.21 2 2 0 0 0 .72-.61 2.48 2.48 0 0 0 .42-.93 5.49 5.49 0 0 0 .13-1.19V24a2.15 2.15 0 0 1-1 1.07 3.08 3.08 0 0 1-1.43.34 3.44 3.44 0 0 1-1.52-.32 3.06 3.06 0 0 1-1.09-.85 3.78 3.78 0 0 1-.66-1.26 5.37 5.37 0 0 1-.22-1.52 5.94 5.94 0 0 1 .18-1.42 4 4 0 0 1 .61-1.33 3.27 3.27 0 0 1 1.12-1 3.54 3.54 0 0 1 1.71-.38 3 3 0 0 1 1.36.32 2.27 2.27 0 0 1 1 1v-1.14h1.21v7.15a4.12 4.12 0 0 1-.97 2.87zM350.36 24a2.1 2.1 0 0 0 .72-.7 3.36 3.36 0 0 0 .4-1 5.15 5.15 0 0 0 .13-1.09 4.29 4.29 0 0 0-.12-1 2.62 2.62 0 0 0-.39-.9 2 2 0 0 0-.69-.65 2 2 0 0 0-1-.24 2.16 2.16 0 0 0-1.06.24 2.05 2.05 0 0 0-.72.62 2.79 2.79 0 0 0-.41.91 4.68 4.68 0 0 0-.13 1.07 5.37 5.37 0 0 0 .11 1.06 3.08 3.08 0 0 0 .36 1 2.07 2.07 0 0 0 .68.7 2 2 0 0 0 1.06.26 2.16 2.16 0 0 0 1.06-.28zm8.64 2.37a9 9 0 0 1-.44 1 2.63 2.63 0 0 1-.49.65 1.71 1.71 0 0 1-.59.36 2.35 2.35 0 0 1-.74.11 3.44 3.44 0 0 1-.46 0 2.16 2.16 0 0 1-.44-.1v-1.25a2.54 2.54 0 0 0 .39.13 2 2 0 0 0 .37.05 1.09 1.09 0 0 0 .66-.19 1.24 1.24 0 0 0 .4-.54l.53-1.31-3.1-7.77h1.45l2.28 6.39 2.19-6.39h1.36z" fill="#231815"/><path d="M179.27 47.76a50 50 0 0 0 0 70.73L250 189.22a50 50 0 0 0 70.73-70.73L250 47.76a50 50 0 0 0-70.73 0z" fill="url(#b)"/><path d="M320.73 47.76a50 50 0 0 0-70.73 0l-70.73 70.73A50 50 0 0 0 250 189.22l70.73-70.73a50 50 0 0 0 0-70.73z" fill="url(#c)"/><path fill="url(#a)" d="M0 116.75h73.03v3.48H0z"/><path fill="url(#d)" d="M426.97 116.75H500v3.48h-73.03z"/><path d="M321.15 116.75a5.38 5.38 0 0 1-5.37-5.37V97.15a8.86 8.86 0 1 0-17.71 0v28.46a5.38 5.38 0 0 1-10.75 0V75.8a8.86 8.86 0 0 0-17.71 0v67.59a5.38 5.38 0 1 1-10.75 0V90a8.86 8.86 0 0 0-17.71 0v35.58a5.38 5.38 0 0 1-10.75 0V106a8.86 8.86 0 0 0-17.71 0v5.38a5.38 5.38 0 0 1-5.38 5.37H73v3.48h134.31a8.86 8.86 0 0 0 8.86-8.85V106a5.38 5.38 0 0 1 10.75 0v19.61a8.86 8.86 0 0 0 17.71 0V90a5.38 5.38 0 0 1 10.75 0v53.36a8.86 8.86 0 1 0 17.71 0V75.8a5.38 5.38 0 0 1 10.75 0v49.81a8.86 8.86 0 0 0 17.71 0V97.15a5.38 5.38 0 1 1 10.75 0v14.23a8.86 8.86 0 0 0 8.85 8.85H427v-3.48z" fill="ivory"/></svg>