<svg xmlns="http://www.w3.org/2000/svg" viewBox="0 0 500 208.3"><path d="M455.1 110.8l-11.8-.2c2 7 7 12.8 13.7 15.8.7.3 1.2 1 1.2 1.8 0 1.4-1.1 2.5-2.5 2.5-2.1 0-10.7-6-14.6-15.8-2.4 7.1-7.7 12.9-14.6 15.9-.3.1-.7.2-1 .2-1.2 0-2.1-.9-2.1-2.1 0-.8.5-1.5 1.3-1.8 7.1-2.7 12.2-9 13.4-16.6l-11.9.2c-1 .1-1.9-.7-1.9-1.7v-.2c0-1 .8-1.9 1.8-2h12.7c.2-3.5.2-5.9.2-6.2v-1.5c0-1 .9-1.9 1.9-1.8h.2c1.1-.1 2 .7 2.1 1.8v.8c0 1.8 0 3.7-.2 5.5l-.1 1.5h12.4c1 0 1.9.8 2 1.8v.1c0 1-.8 1.9-1.8 1.9-.3.1-.3.1-.4.1zm13.1 20.8c-1 .1-1.8-.6-1.9-1.6v-.1c0-7.1 0-19.6.2-27.8.1-3.7 2.1-3.7 5.7-3.7h2.2c2.2 0 3.4 1.3 3.4 3 0 1.1-.5 2.5-2.1 5.8-.3.5-.4 1-.4 1.6.1.6.3 1.2.7 1.6 1.3 1.7 2 3.8 2 6 0 2.6-1.3 6-4.8 6-2.6 0-2.8-1.3-2.8-1.9 0-.8.6-1.5 1.4-1.6h.4c.2 0 .4.1.6.1.5 0 1.8-.3 1.8-2.8 0-1.7-.5-3.3-1.5-4.7-.6-.8-1-1.8-1-2.8 0-.9.2-1.8.6-2.7.6-1.3 1.1-2.7 1.4-4.1 0-.6-.5-.7-1.6-.7-1.4 0-2.3 0-2.3 1.4 0 3.6-.1 8.2-.1 13V130c0 1-.8 1.7-1.7 1.7-.1-.1-.2-.1-.2-.1zm28.8-28.7c-2.4 0-5.3-.1-8-.1h-4.2c-1.2 0-1.5.6-1.5 1.6v3.6h10.5c2 0 3.4 1 3.4 3 0 3-3.2 9-4.8 11.3 1.7 2.1 3.9 3.8 6.4 4.8.7.2 1.2.9 1.2 1.7 0 1.1-.9 2.1-2.1 2.1-1.6 0-4.6-2-7.5-5.7-3.4 4.1-7.4 6.1-8.5 6.1-1 0-1.8-.8-1.8-1.8 0-.7.5-1.3 1.1-1.6 2.8-1.3 5.1-3.2 7-5.7-2.1-3.3-3.5-7.1-3.9-11.1h-1.1c-.2 6.5-1.2 13.9-5.3 18.6-.4.5-1 .7-1.6.7-1 0-1.9-.8-2-1.8 0-.4.2-.8.5-1.1 4.3-4.8 4.9-11.2 4.9-17.2 0-2.4 0-4.8-.1-7s1.3-3.6 4.1-3.7H497c.9-.1 1.7.6 1.8 1.6v.1c0 .9-.7 1.6-1.6 1.6 0 .1-.1.1-.2 0zm-3.7 9.1c0-.5-.4-.8-1.1-.8h-4.8c.5 2.9 1.4 5.6 2.9 8.2 1.4-2.3 2.4-4.8 3-7.4zM262.6 66.4c.1.8-.5 1.5-1.3 1.6h-.2c-.9 0-1.6-.7-1.6-1.6V56.3h-2.2v10.1c0 .9-.7 1.6-1.6 1.6-.8 0-1.5-.6-1.5-1.4v-.2l.1-6.3c-1.2 2.1-4.3 6.2-6.1 6.2-.9-.1-1.5-.8-1.5-1.7 0-.5.3-1 .7-1.2 2.7-1.8 4.8-4.2 6.4-7.1h-3.1c-.7 0-1.4-.5-1.4-1.3v-.1c0-.7.5-1.3 1.2-1.3h3.9v-2.1h-4c-.7 0-1.3-.6-1.3-1.3v-.1c-.1-.7.5-1.3 1.2-1.4h4.1v-1.9h-3c-.7.1-1.4-.5-1.4-1.2v-.1c0-.7.6-1.4 1.3-1.4h3.1V42l-3.9.1c-.4 0-.7-.1-1-.3-.2.8-.8 1.4-1.7 1.5.1.2.1.4.2.7.1.8-.5 1.5-1.3 1.6h-1.8v2.8h2.5c.8-.1 1.5.5 1.6 1.3v.2c.1.8-.5 1.5-1.3 1.6h-2.8V60c.9-.4 1.8-.8 2.7-1.3.2-.1.5-.2.7-.2.8.1 1.4.8 1.3 1.6 0 .6-.3 1.2-.9 1.5-3.6 1.9-7.4 3.4-11.3 4.3-.9.1-1.7-.5-1.8-1.4-.1-.9.5-1.7 1.4-1.8 1.6-.4 3.2-.8 4.6-1.3v-9.6h-3.7c-.8.1-1.5-.6-1.6-1.4v-.2c0-.8.6-1.5 1.5-1.5h3.8v-2.9h-1.5c-.4 0-.8-.1-1.1-.4l-.1.1c-.3.5-.8.8-1.4.7-.9 0-1.7-.7-1.8-1.6 0-.4.2-.8.4-1.1 1.8-2.3 3.3-4.7 4.5-7.4.4-1.2 1.5-2 2.7-2.1 1.3.1 2.4.9 3 2.1.8 1.5 1.7 3 2.7 4.5.2-.7.8-1.3 1.6-1.2h8.7c0-.3.1-.5.2-.8.7-1.3 1.3-2.7 1.8-4 .2-.5.8-.9 1.4-.8 1 0 2.1.7 2.1 1.6 0 .4-.2.7-2.2 4.1h5.7c.8-.1 1.5.5 1.6 1.3.1.8-.5 1.5-1.3 1.6h-.3l-5.7-.1v2.1h1.7c2.3.1 3.6 1 3.7 3.2v1.3h1.8c.8.1 1.4.8 1.3 1.6-.1.7-.6 1.2-1.3 1.3h-1.7c0 1.8-.2 4.5-4 4.6h-.8c2 2.5 4.3 4.7 7 6.4.5.3.8.9.8 1.5 0 1-.8 1.8-1.8 1.9-.4 0-.8-.2-1.1-.4-2.1-1.8-4-3.8-5.7-6.1l.1 6.7zm-24.5-7.2c-.3-1.4-.8-2.8-1.4-4.2-.1-.2-.2-.4-.2-.7.1-.8.8-1.4 1.6-1.3.4 0 .9.2 1.2.5 1 1.5 1.6 3.2 1.8 5 .1 1-.6 1.8-1.6 1.9-.7 0-1.3-.5-1.4-1.2zm8.4-16.5c-1-1.6-1.9-3.2-2.7-4.8-.1-.1-.2-.2-.4-.2-.1 0-.3.1-.3.2-.7 1.7-1.6 3.3-2.5 4.8h5.9zm0 15.4c-.7.1-1.4-.5-1.5-1.2 0-.2.1-.4.2-.6.5-1 .8-2 1.1-3 .1-.6.6-1 1.2-.9.8 0 1.5.6 1.6 1.4-.3 1.3-.8 2.6-1.5 3.8-.3.3-.6.5-1.1.5zm9.4-19c-.6 0-1.1-.4-1.4-.9-.4-.9-1-1.7-1.6-2.4-.1-.2-.2-.4-.2-.6 0-.8 1-1.4 1.9-1.4 1.5 0 3.2 2.8 3.2 3.6 0 .9-.9 1.7-1.9 1.7zm3.7 7.8h-2.2v2h2.2v-2zm0 4.6h-2.2v2.1h2.2v-2.1zm0-9.4h-2.2v2.1h2.2v-2.1zm2.9 9.4v2.1h1.1c.9 0 1.3-.4 1.4-1v-1.1h-2.5zm2.5-2.6v-1c0-.7-.5-1-1.2-1h-1.2v2h2.4zm16.6 16.2c-.5.4-1.1.7-1.7.7-1 0-1.9-.7-2-1.8 0-.7.4-1.3 1-1.6 4.8-3.1 5.7-6.5 5.7-12.7v-2.1c0-1.6 1.3-3 4-3h5.7c2.3 0 4.4 0 6.7.1 2.6 0 4.2.9 4.3 2.8.1.8.1 1.8.1 2.8 0 4.2 0 5.7-4.3 5.9-2.2 0-4.3.1-6.5.1h-6.9c-1.1 3.5-3.2 6.6-6.1 8.8zm8.6-22.2c-.7 0-1.3-.5-1.4-1.2-3.6 3.1-7.7 5.9-9.1 5.9-1 0-1.8-.8-1.8-1.8 0-.7.5-1.4 1.1-1.7 4.6-2.3 8.6-5.4 12-9.2.8-1.1 2-1.7 3.4-1.8 1.4.1 2.7.7 3.7 1.8 3.6 3.4 7.7 6.2 12.2 8.3.6.2 1.1.8 1.1 1.5 0 1.1-.9 2-2 2-1.8 0-7.3-4.1-8.6-5.1 0 .7-.6 1.4-1.3 1.4l-9.3-.1zm12.2 24.2c-2 0-4 .1-6.1.1s-4.2 0-6.4-.1c-1.8 0-3.3-1.3-3.4-3.1v-1.3c0-.7 0-1.3.1-2 .2-1.6 1.7-2.8 3.3-2.7 2.1-.1 4.2-.1 6.3-.1s4.2 0 6.4.1c1.7 0 3.6 1 3.7 2.5V64c-.3 1.8-2 3.2-3.9 3.1zm-14.3-15.6l-.1 1.9h12.2c1.3 0 1.3-.8 1.3-1.9h-13.4zm13.4-2.5c0-1.2 0-1.8-1.3-1.8h-10.6c-1.1 0-1.5.6-1.5 1.5v.3h13.4zm1 12.7c0-.9-1.1-.9-6.4-.9-1.6 0-3.2 0-4.7.1-1 0-1.3.4-1.3 1.8 0 1.5 0 1.6 6.1 1.6s6.3 0 6.3-1.6v-1zM298.9 40c-1.1-.9-2.1-1.9-3.1-2.8-.5-.5-.8-.8-1.2-.8s-.7.2-1.1.7c-.8.9-1.8 1.9-2.8 2.9h8.2zM139.7 185.4v7.1c0 4.1-3.3 4.3-7.2 4.3-4.2 0-6.9-.2-7-4.2v-7.1h-6v6c0 3.3 0 6.1.1 7.8.1 2.7 1.6 2.8 11.3 2.8 3.9 0 8.2-.1 11.7-.2h.1c1 0 1.9.8 1.9 1.8v.1c0 1.1-.8 2.1-2 2.2-3.5.2-7.4.2-11.2.2-3.5 0-6.8 0-9.5-.2-4-.2-6.8-1.8-6.9-6.1v-14.4h-5.2c-1.1.1-2-.6-2.1-1.7v-.2c0-1.2.9-2.1 2.1-2.1h5.3c0-3.2.1-6.1.1-8.4.1-1.1 1.1-2 2.2-1.9h.1c1.1-.1 2.2.7 2.3 1.8v.1c0 2.2 0 5.2-.1 8.4h5.8v-9.8c.1-1.1 1.1-1.9 2.2-1.9 1-.1 1.9.6 2.1 1.7v9.9h5.8v-9.3c.1-1.2 1.1-2.1 2.3-2 1 .1 1.9.9 2 2v9.3h6.5c1.1 0 2 .8 2.1 1.9v.1c0 1.1-.9 1.9-1.9 1.9h-.1l-6.8.1zm-10 0v6.1c0 1.3.8 1.6 2.7 1.6 2.2 0 2.8-.3 2.9-1.6s0-3.6 0-6.1h-5.6zm48.7 7.9c0-1.1.9-2 2-2h.6c-1.8-1.5-3.5-3.1-5.1-4.8-1.5 1.7-3.2 3.3-5 4.8 1.1.1 1.9.9 1.9 2 0 5.3-2.2 13.1-13.7 15h-.5c-1.1 0-2.1-.9-2.1-2v-.1c-.1-.9.5-1.7 1.4-1.9 7.9-1.1 10.3-5.5 10.5-11v-.1c-2.7 1.9-8.9 5.8-10.5 5.8-1.2 0-2.1-.9-2.2-2.1 0-.9.6-1.6 1.4-1.9 5.1-2 9.7-4.9 13.8-8.6h-3.5c-1.8 0-6 0-6.2-4.2 0-1.4-.1-3-.1-4.5s0-3 .1-4.2c0-1.9 1.3-4 4.8-4 1.9 0 5-.1 8.3-.1 4 0 8.3 0 11.2.1 2.3-.1 4.3 1.5 4.6 3.7.1 1.1.1 2.6.1 4.1s0 3.6-.1 5c-.2 2.5-2.4 4.4-4.9 4.2h-4.6c4.2 3.3 8.8 6 13.8 7.9.8.3 1.3 1 1.4 1.9-.1 1.4-1.2 2.4-2.5 2.4-1.5 0-6.5-2.9-10.8-6.1.1.2.1.4.1.6V206c0 1.2-1 2.2-2.2 2.2-1.2 0-2.2-1-2.2-2.2l.2-12.7zm-4.8-20.6h-6.3c-2.2.1-2.3 1.6-2.3 3.5h8.6v-3.5zm0 6.8H165c0 2.3.2 3.6 2.4 3.6 1.6 0 3.9.1 6.2.1v-3.7zm12.5-3.2v-1.6c0-1.1-.7-1.8-2.2-1.8h-6.3v3.6l8.5-.2zm-8.5 3.2v3.7c2.3 0 4.5 0 6.3-.1 2.2 0 2.2-1.6 2.2-3.6h-8.5zm30.8 25.9c-1.4 0-2.5-1.1-2.5-2.4v-.2c0-1.1.5-2.2 1.3-3.1 3.1-3.5 8.3-8.9 12.3-13.7 1.5-1.6 2.4-3.6 2.5-5.8.1-2.5-1.9-4.5-4.4-4.6h-.3c-2.3.1-4.4 1.4-5.6 3.5-.5.8-1.4 1.3-2.3 1.3-1.4.1-2.6-1-2.7-2.4 0-1.6 3.4-6.9 10.5-6.9 5.2 0 10.2 3.2 10.2 8.6-.2 3.3-1.5 6.5-3.7 8.9-3.4 4.3-7.8 8.2-11.6 12.2 3.7 0 8.8-.4 12.5-.4 1.3-.2 2.5.8 2.7 2.1v.3c0 1.5-1.2 2.7-2.7 2.7h-16.2zm70.6-3.5c0 3.2-2.4 6-8.2 6-4 0-5.6-.6-5.6-2.6-.1-1.1.8-2 1.9-2.1h.6c1 .2 2 .3 3 .3 2.8 0 3.9-1 3.9-2.6 0-19.2-.1-22-.2-24.7.1-1.3-.9-2.5-2.2-2.6h-.4c-2.9-.1-5.8-.1-8.7-.1-3.3 0-6.6 0-10 .1-1.1-.1-2.1.7-2.2 1.7v1.4c0 2.5.1 5.4.1 8.5 0 7.4-.5 15.8-4.2 21.2-.6.9-1.5 1.4-2.5 1.5-1.2.1-2.2-.9-2.3-2.1 0-.5.2-.9.4-1.3 3.6-5.3 4.3-12.7 4.3-19.5 0-3.5-.2-6.7-.2-9.5v-.1c0-3.7 1.8-5.6 5.9-5.7 4.1-.1 7.4-.1 11.1-.1 3.2 0 6.4 0 10 .1 2.9 0 5.3 2.3 5.4 5.2.1 6.6 0 15.7.1 20.7v6.3zm-7.6-14l-9.1-.1-8.7.1c-.9.1-1.7-.5-1.8-1.4v-.3c0-1 .7-1.8 1.7-1.9h.1l6.7.1v-3h-5.5c-.9.1-1.7-.5-1.8-1.4v-.3c0-1 .7-1.8 1.7-1.9h5.6V176c.1-1.1 1.2-1.9 2.3-1.8.9.1 1.7.9 1.8 1.8v1.9h5.7c1 .1 1.7 1 1.6 2-.1.9-.8 1.5-1.6 1.6h-5.7v3l7-.1c1 .1 1.7 1 1.6 2 0 .8-.7 1.4-1.6 1.5zm-17.6 8.2v-2.2c.1-1.9 1.6-3.4 3.5-3.5 1 0 2.6-.1 4.3-.1 2 0 4.1 0 5.5.1 1.9 0 3.5 1.3 3.9 3.2 0 .9.1 1.6.1 2.2s0 1.3-.1 2.2c-.1 2.2-1.9 3.9-4 4h-9.6c-2-.2-3.6-1.9-3.6-3.9v-2zm8.5-2.4h-3.2c-1.2.1-1.3.9-1.3 2.3v1c0 1.2.5 1.2 4.8 1.2 4.1 0 4.3-.1 4.3-2.2 0-2.3 0-2.3-4.6-2.3zM2 16.7c4.5-1.5 8.1-5.1 9.5-9.6.2-.7.1-1.2-.8-1.3-2.4 0-6.1 0-9.6.2C.5 6 0 5.5 0 4.8s.5-1.2 1.2-1.2c3.2-.1 7.6-.2 10.7-.1 1.4-.2 2.6.8 2.8 2.2 0 .4 0 .9-.2 1.3-1.6 5.5-5.8 10-11.2 12-2.2.8-3.1-1.8-1.3-2.3zm25.5 2.4c-2 .6-2.8-1.8-.9-2.3 3.9-.8 7.2-3.5 8.8-7.2.2-.6.1-1-.8-1.1-2.4 0-6.9 0-9.5.1-.6.1-1.2-.4-1.3-1s.4-1.2 1-1.3h.3c3.1 0 7.1-.1 10.4 0 2.4 0 3.6 1.4 2.6 3.7-1.7 4.1-4.6 7.3-10.6 9.1zm7.6-14.9H27c-1.6 0-1.6-2.2.2-2.2h8c.6-.1 1.2.4 1.3 1v.1c0 .5-.4 1.1-1.4 1.1zm14.4 10.5c-2.2 1.3-3.5-1.1-1.9-1.9 4.7-2.5 8.8-6.3 11.7-10.8.2-.7.9-1 1.6-.8s1 .9.8 1.6c0 .1-.1.3-.2.4-1.1 1.4-2.1 2.7-3.2 3.9 0 2.4-.1 8.7 0 11.1.1.7-.4 1.3-1.1 1.4-.7.1-1.3-.4-1.4-1.1v-.3c0-1.9.1-5.8.1-8.6-1.9 1.9-4.1 3.6-6.4 5.1zm26.6 3.6c.1.7-.3 1.4-1 1.5-.7.1-1.4-.3-1.5-1v-.4c.2-3.9.2-13.3.1-16.7 0-.7.6-1.2 1.2-1.2.7 0 1.2.6 1.2 1.2v5.6h.4c2 .3 4 1 5.7 2.1 1.2 1.1-.1 3.2-1.5 2.1-1.5-.9-3.1-1.6-4.8-2 .2 3.5.2 6.9.2 8.8zm3.5-14c-1.3-.4-.4-2 .8-1.6.9.3 1.7.8 2.5 1.3 1 1-.3 2.5-1.2 1.6-.7-.5-1.4-1-2.1-1.3zm2.1-2.2c-1.3-.4-.5-2 .7-1.6.9.3 1.8.7 2.6 1.2 1.1.9-.3 2.6-1.1 1.6-.7-.5-1.4-.9-2.2-1.2zM93.1 16c-.4-.5-.3-1.2.2-1.6 0 0 .1 0 .1-.1 1.3-.9 2.4-2.1 3.2-3.4.3-.5 1-.7 1.5-.4.5.3.7 1 .4 1.5-.9 1.6-2.2 3.1-3.6 4.3-.6.4-1.4.3-1.8-.3zm2.1-7.6c-.6.1-1.2-.4-1.2-1s.4-1.2 1-1.2h.3c1.9-.1 3.9-.1 5.8-.2V3c-.1-.6.3-1.2 1-1.3.6-.1 1.2.3 1.3 1V6h5.4c.6-.1 1.2.3 1.3 1 .1.6-.3 1.2-1 1.3h-.5c-1.8-.1-3.6-.1-5.4-.1v7.5c0 1.9-1.2 3.3-4.6 2.7-2-.4-1.1-2.9.4-2.4 1 .3 2 .4 2.1-.9V8.2l-5.9.2zm13.5 7c-1-1.3-2.1-2.4-3.5-3.2-1.2-.7 0-2.5 1.3-1.7 1.6.9 3 2.1 4.1 3.5.3.6.2 1.3-.4 1.6-.4.4-1.1.3-1.5-.1.1 0 .1 0 0-.1zm-.5-10.5c-1.4-.1-2.4-1.3-2.3-2.7C106 1 107 0 108.2-.1c1.4 0 2.5 1.1 2.5 2.5s-1.1 2.5-2.5 2.5zm0-3.6c-.7 0-1.2.5-1.2 1.2s.5 1.2 1.2 1.2 1.2-.5 1.2-1.2-.5-1.2-1.2-1.2zm15.3 17.8c-2.3.8-2.7-1.7-1-2.2 3.5-.9 6-3.9 6.1-7.5-2.7 0-5.3.1-7 .2-.6.1-1.2-.3-1.2-1v-.1c0-.7.6-1.2 1.3-1.2h.1c3.4 0 10.9-.1 14.8-.1.6-.1 1.1.3 1.2.9v.2c0 .7-.6 1.1-1.3 1.1H131c-.1 4.5-3.1 8.3-7.5 9.7zm10.4-14.6c-3.3 0-6.9.1-9.5.1-.6.1-1.2-.3-1.3-.9-.1-.6.3-1.2.9-1.3h.4c3 0 6.2 0 9.3-.1.6-.1 1.1.3 1.2.9v.2c.1.6-.4 1.1-1 1.1zm17.5 13.8c.1.7-.3 1.4-1 1.5-.7.1-1.4-.3-1.5-1v-.4c.2-3.9.2-13.3.1-16.7 0-.7.6-1.2 1.2-1.2.7 0 1.2.6 1.2 1.2v5.6h.4c2 .3 4 1 5.7 2.1 1.2 1.1-.1 3.2-1.5 2.1-1.5-.9-3.1-1.6-4.8-2 .1 3.5.1 6.9.2 8.8zm-15.1 67.2c-4.9 0-7.4-2.8-7.4-4.3 0-1 .8-1.7 1.7-1.7.5 0 1 .3 1.3.8 1 1.4 2.7 2.1 4.4 2 3.3 0 4-2.3 4-3.2-.1-1.5-1-2.7-2.3-3.4-1.3-.8-2.9-1.6-4.5-2.4-2.3-.9-3.8-3-3.9-5.4 0-2.9 2.4-5.7 6.5-5.7s6.5 2 6.5 3.4c0 .9-.8 1.7-1.7 1.7-.5 0-1.1-.3-1.4-.7-.9-1-2.2-1.5-3.5-1.4-1.5-.2-2.9.9-3.1 2.4v.1c.1 1.1.8 2.1 1.9 2.6 1.2.7 3.3 1.6 4.7 2.4 2.5 1.1 4.1 3.5 4.3 6.2.1 3.3-2.6 6.6-7.5 6.6zm16-13.6v8c.1 2 1.2 2.8 2.5 2.8 1.9-.1 3.5-1.5 3.7-3.4v-2.8c0-1.2 0-2.8-.1-4.6-.1-.8.5-1.5 1.3-1.6h.3c.8-.1 1.5.6 1.6 1.4v.1c-.1 3.2-.1 5.1-.1 7 0 1.3.3 2.5.8 3.7.2.3.3.7.3 1.1 0 .9-.7 1.6-1.6 1.6-1 0-1.5-.7-1.8-1.7 0 0 0-.1-.1-.1s0 0-.1.1c-1.2 1.3-2.8 2-4.5 2-2.8.1-5.1-2-5.2-4.8v-8.5c0-.9.7-1.6 1.6-1.6.8-.1 1.5.5 1.6 1.3-.1-.2-.1-.1-.2 0zm15.9 11.9c.1-2.8.1-4.8.1-6.6s0-3.4-.1-5.4c.1-.8.8-1.4 1.6-1.4.8-.1 1.5.5 1.6 1.2v.7c.1 0 .1-.1.1-.1 1-1.1 2.4-1.7 3.8-1.8.8 0 1.4.6 1.5 1.3v.1c-.1.9-.8 1.6-1.7 1.6-1.9.2-3.5 1.6-3.8 3.6v6.8c.1.8-.4 1.5-1.2 1.6h-.3c-.8.1-1.5-.5-1.6-1.4v-.2zm18.6-10.4c-.3 0-.4 0-.4.5v9.7c0 .9-.7 1.6-1.6 1.6-.8 0-1.5-.6-1.5-1.4v-10c0-.4 0-.5-.5-.5h-1.1c-.7 0-1.4-.6-1.4-1.3v-.1c-.1-.8.5-1.4 1.3-1.5h1.2c.3 0 .5 0 .5-.4v-1.4c0-5.8 4.6-6.2 5.4-6.2s1.9.3 1.9 1.5c0 .8-.6 1.5-1.4 1.5h-.4c-2.4 0-2.5 2.6-2.5 3.6v1.2c0 .4.2.3.4.3h2.3c.8 0 1.5.7 1.5 1.5s-.7 1.5-1.5 1.5l-2.2-.1zm107.1 68.5c-3.7.2-6.7-2.7-6.9-6.3v-.5c-.1-3.8 2.9-7 6.7-7.1h.3c2.9 0 4.8 1.6 4.8 2.6 0 .6-.5 1.1-1.1 1.1-.4 0-.7-.2-.9-.5-.8-.8-1.8-1.3-3-1.3-2.6.1-4.7 2.3-4.7 4.9v.1c-.1 2.6 1.8 4.8 4.4 4.9h.3c1.3 0 2.6-.6 3.5-1.6.2-.3.5-.5.9-.5.6 0 1.2.5 1.2 1.2-.1 1.1-2.2 3-5.5 3zm17.7-.1c-.5 0-.9-.2-1-.7-.2-.5-.7-2-1.2-3.6 0-.1-.1-.2-.2-.2h-4.5c-.1 0-.2.1-.2.2l-1.1 3.6c-.1.4-.5.7-1 .7s-1-.4-1-.9c0-.3 0-.5 4-11.6.2-.7.8-1.2 1.6-1.2s1.4.5 1.7 1.2c1.2 3.2 3.5 9.6 4.1 10.9.1.2.1.3.1.5-.2.6-.6 1.1-1.3 1.1.1 0 .1 0 0 0zm-2.9-6.6c-.6-1.7-1.1-3.3-1.4-4.2-.1-.3-.2-.5-.3-.5-.1 0-.2.2-.3.5-.3.7-1.4 4.1-1.4 4.3s0 .1.1.1h3.3v-.2zm6.7 5.7c.1-3.2.5-8.2.7-10.8-.1-1 .7-1.9 1.7-2 .9.1 1.7.7 1.8 1.6.7 2.2 2.3 7.7 2.7 8.6 0 .1.1.2.2.2s.1 0 .2-.2c.7-1.6 2.1-6.7 2.8-8.7.2-.8 1-1.5 1.9-1.5 1 0 1.8.9 1.8 1.9 0 2.3.4 8.2.6 10.7 0 .5-.5 1-1 .9-.5 0-1-.4-1.1-.9-.2-2.6-.4-9.7-.4-9.7 0-.3 0-.4-.2-.4s-.2.2-.3.4c-.4 1.5-2.2 7.4-3 9.3-.2.6-.8 1-1.4 1-.6 0-1.1-.4-1.3-1-.6-1.4-2.2-7.1-2.8-9.2l-.2-.4s-.2.1-.2.5c-.1 1.6-.4 7.1-.5 9.6-.1.5-.5.9-1.1.9-.5.1-.9-.3-1-.8.1.1.1.1.1 0zm19.3.9c-.5 0-1-.3-1-.9v-9.5c0-2.2 0-3.4 3.6-3.4h1c2.2-.1 4.1 1.7 4.2 3.9v.1c0 2.2-1.7 4.1-3.9 4.3-.4.1-.9.1-1.3.1s-.9-.1-1.3-.1c-.1 0-.1 0-.1.2v4.3c-.1.5-.6.9-1.2 1 .1 0 .1 0 0 0zm2.6-11.9c-1.4 0-1.6.2-1.6 1.9v2.3c0 .4.4.5 1.5.5h1.1c1.3-.2 2.2-1.2 2.2-2.5 0-1.1-.9-2.1-2-2.1h-.3l-.9-.1zm-124.7-22.4c2.3-1.6 4.1-3.8 5.1-6.4.3-.7 1-1 1.7-.7.7.3 1 1 .7 1.7-1.3 3-3.4 5.6-6 7.6-.5.5-1.4.5-1.9 0s-.5-1.4 0-1.9c.1-.2.2-.2.4-.3zm16.2 1c-1-2.5-2.6-4.8-4.6-6.7-1.2-1 .5-2.7 1.9-1.4 2.1 1.9 4.8 4.9 5.3 7.1.5 1.9-2 2.9-2.6 1zm-2.4-9.5c-1.2-.5-.3-2 .8-1.6.9.3 1.7.8 2.4 1.5.9 1-.5 2.4-1.2 1.5-.6-.6-1.3-1-2-1.4zm2.2-2c-1.2-.5-.4-1.9.8-1.6.9.3 1.7.8 2.4 1.4 1 1-.4 2.4-1.2 1.6-.6-.6-1.3-1.1-2-1.4zm13.8 11.4c-2.2 1.3-3.4-1.1-1.8-1.9 4.7-2.6 8.8-6.3 11.7-10.8.3-.6 1-.9 1.6-.7.6.3.9 1 .7 1.6 0 .1-.1.2-.2.3-1.1 1.4-2.1 2.7-3.2 3.9-.1 2.4-.1 8.7 0 11.1.1.7-.4 1.3-1.1 1.4-.7.1-1.3-.4-1.4-1.1v-.3c0-1.9.1-5.8.1-8.6-1.9 2-4.1 3.7-6.4 5.1zm30.3-11.1c1-.1 2.2-.2 3.2-.2 1.8-.1 3.4 1.2 2.6 2.9-3 5.6-6.3 10.4-13 13.1-2 .8-3-1.6-1-2.3 4.9-2 8.9-5.8 11-10.7.2-.4 0-.9-.6-.9-1 0-2.8.2-3.8.3-1.5 2.2-3.3 4.1-5.4 5.8-1.6 1.1-3-1-1.4-2 2.3-1.4 5.4-5.8 6.5-7.7.4-.6 1.1-.7 1.7-.4.6.4.7 1.1.4 1.7l-.1.1-.1.3zM357.8 83c-.7 0-1.4-.4-1.7-1.1-.4-.9-1.2-3.3-2.1-6.1 0-.2-.1-.3-.3-.3h-7.5c-.2 0-.3.1-.4.3-.8 2.4-1.4 4.5-1.9 6-.2.7-.9 1.3-1.7 1.2-.9.1-1.6-.6-1.7-1.5 0-.5 0-.8 6.7-19.3.3-1.2 1.4-2 2.6-2 1.3 0 2.4.9 2.8 2.1 1.9 5.4 5.8 15.9 6.8 18.2.1.3.2.6.2.9-.1 1-.9 1.7-1.8 1.6zm-5.1-10.9c-.9-2.8-1.8-5.6-2.3-7-.2-.5-.3-.8-.5-.8s-.3.3-.5.9c-.5 1.2-2.4 6.8-2.4 7.1 0 .3 0 .2.2.2h5.3c.2 0 .2 0 .2-.1.1-.2.1-.3 0-.3zm20.6 12c-.7.1-1.3-.4-1.4-1s.4-1.3 1-1.4h10.3V79H376c-.7.1-1.3-.3-1.4-1-.1-.7.3-1.3 1-1.4h7.5v-1.7c-.3.2-.6.3-1 .3-.6.1-1.2-.4-1.3-1v-6h-2.9c-.7 4.8-3.5 7.5-4.8 7.5-.7 0-1.3-.5-1.3-1.1v-.1c0-.4.2-.8.5-1 1.7-1.3 2.8-3.2 3.1-5.3H373c-.7.1-1.3-.4-1.3-1.1V67c0-.7.6-1.2 1.3-1.2h2.6v-3.4H374c-.7.1-1.3-.5-1.3-1.1v-.1c0-.7.6-1.3 1.3-1.3h11c.6 0 1.2.5 1.2 1.1v.1c0 .6-.4 1.2-1.1 1.2h-1.7v3.4h2.4c.7 0 1.2.6 1.2 1.2 0 .7-.6 1.2-1.2 1.2h-2.4v5.6c.3-.3.7-.4 1.1-.4.8 0 1.4.6 1.4 1.3v2h6.9c.7-.1 1.3.3 1.4 1 .1.7-.3 1.3-1 1.4H386v2.6h9.6c.7 0 1.3.5 1.3 1.2s-.5 1.2-1.2 1.2h-.1l-22.3.1zm7.6-21.8h-2.7v3.5h2.7v-3.5zm6.9-1c0-.7.5-1.3 1.2-1.3h.1c.7 0 1.3.5 1.3 1.2v8.9c-.1.7-.7 1.3-1.5 1.2-.6-.1-1.1-.6-1.2-1.2v-8.8zm8.5 10.2c.1 2-1.5 3.7-3.5 3.7h-.6c-2 0-3.1-.5-3.1-1.6 0-.7.5-1.4 1.3-1.4h.4c.4.1.9.2 1.4.2.7 0 1.2-.3 1.3-1.5s0-6.4 0-9.3v-1.7c0-.7.5-1.3 1.2-1.3h.1c.7 0 1.3.5 1.4 1.2v8.3l.1 3.4zm-47.8 112.3h-1.9c-2.9 0-6.4-.1-6.5-3.9v-6c0-3.7 0-7.8.1-9.6 0-3.8 3.4-3.8 6-3.8h1.7c5 .3 6.9 3 6.9 5.5.1 2.3-1.4 4.3-3.6 4.8-.3 0-.5.1-.5.2s.1.1.4.1c2.9.2 5.2 2.7 5 5.6 0 3.4-2.4 6.8-7.6 7.1zm4.1-7.3c0-2.1-1.7-3.8-3.8-3.8h-.2c-.8 0-1.6-.1-2.3-.1-2.8 0-3.1.1-3.1.7v5.9c.2 1.1.5 1.5 3.2 1.5h2c2.4 0 4.2-1.9 4.2-4.2zm-6.6-12.8c-1.9 0-2.5.2-2.6 1.4v4.2c0 .6.4.6 2.4.6h2c1.9 0 3.4-1.5 3.5-3.4 0-1.4-1.1-2.7-3.8-2.7 0-.1-.7-.1-1.5-.1zm24.3 20.1h-1.9c-2.9 0-6.4-.1-6.5-3.9v-6c0-3.7 0-7.8.1-9.6.1-3.8 3.4-3.8 6-3.8h1.7c5 .3 6.8 3 6.8 5.5.1 2.3-1.4 4.3-3.6 4.8-.3 0-.5.1-.5.2s.1.1.5.1c2.9.2 5.1 2.7 5 5.6 0 3.4-2.4 6.8-7.6 7.1zm4.1-7.3c0-2.1-1.7-3.8-3.8-3.7h-.1c-.8 0-1.6-.1-2.3-.1-2.8 0-3.1.1-3.1.7 0 3.7 0 5.1.1 5.9.1 1.1.4 1.5 3.2 1.5h2c2.3-.1 4-2 4-4.3zm-6.6-12.8c-1.9 0-2.5.2-2.6 1.4v4.2c0 .6.4.6 2.4.6h2c1.9 0 3.4-1.5 3.6-3.4 0-1.4-1.1-2.7-3.8-2.7 0-.1-.8-.1-1.6-.1zm36.3 26c-2.4 0-4.6-.6-9-3.6-1.1-.8-2.1-1.5-3.1-2.1-.6-.3-1.3-.6-1.9-.8-4.6-1.6-7.6-6.1-7.4-11 0-6.4 5.2-11.6 11.6-11.6 6.4 0 11.6 5.2 11.6 11.6.2 5.3-3.4 10.1-8.6 11.3-.1 0-.1.1-.1.1s0 .1.3.3c3.6 1.9 5 2.3 7.2 2.3.9 0 1.6.7 1.6 1.6-.1.9-.7 1.9-2.2 1.9zm-1.8-17.5c-.3-4.4-4.1-7.8-8.5-7.5-4.4.3-7.8 4.1-7.5 8.5.3 4.2 3.8 7.5 8 7.5 4.4 0 8-3.6 8-8v-.5zM47.7 129.3V124c-1.4 1.9-3.2 3.5-5.3 4.7-.2.1-.4.2-.6.2-.5 0-.9-.4-.9-.9 0-.3.2-.6.5-.8 2.2-1.1 4.1-2.8 5.5-4.8h-3.7c-.4 0-.7-.4-.7-.8s.3-.8.7-.8h4.5v-2h-5.3c-.4 0-.8-.4-.8-.8s.4-.8.8-.8h5.3v-1.9c0-.4.4-.7.8-.7h.1c.4-.1.8.3.9.7v1.9h5.4c.4 0 .8.4.8.8s-.4.8-.8.8h-5.4v2.1H54c.4 0 .7.4.7.8s-.2.8-.6.8h-3.9c1.5 1.9 3.5 3.4 5.6 4.5.3.1.5.4.5.7 0 .5-.5 1-1 1-.8 0-3.7-2.3-5.8-4.8v5.4c0 .5-.4.7-.9.7-.4 0-.8-.3-.8-.7h-.1zm18.5-.2c-1.4.2-1.5-1.4-.3-1.6 1.3-.1 2.6-.6 3.6-1.5s1.1-1.9.6-2.4c-.9-.7-2.1-.9-3.2-.5-1.2.5-2.4 1-3.5 1.6-.4.3-.9.2-1.2-.2-.3-.4-.2-.9.2-1.2.1-.1.2-.1.2-.1 1.3-.6 2.6-1.1 4-1.5 1.6-.5 3.4-.2 4.6.9 1.4 1.5.9 3.4-.7 4.8-1.2 1-2.7 1.6-4.3 1.7zm21.2-6.1v.8c0 .9-.1 1.9-.3 2.8-.4 1.9-2.2 3.2-4.1 3.2-1.7 0-2.2-.5-2.2-1.1 0-.5.4-.8.8-.8h.3c.4.1.7.2 1.1.2 1.1 0 2.1-.8 2.4-1.9.2-.7.3-1.5.3-2.3v-.9h-7.2c-.4 0-.8-.4-.8-.8s.4-.8.8-.8h6.8c-.3-.7-.8-1.4-1.5-1.8-.2-.1-.3-.3-.4-.5.1-.5.5-.8.9-.8.2 0 .3 0 .5.1.3.1.5.3.7.5.8-.5 1.5-1.2 2.1-1.9 0 0-.1-.1-.3-.1H81c-.4 0-.8-.3-.8-.7 0-.4.3-.8.8-.8h7.3c1.1 0 1.6.6 1.6 1.2 0 .4-.2.7-.4 1-.9.9-1.9 1.7-2.9 2.4l.6 1.2H92c.4 0 .7.3.7.7v.1c0 .4-.3.8-.7.8l-4.6.2z" fill="#94d2e1"/></svg>