<svg xmlns="http://www.w3.org/2000/svg" viewBox="0 0 312.61 130.33"><path d="M284.54 69.25l-7.4-.1a15.51 15.51 0 0 0 8.55 9.85 1.17 1.17 0 0 1 .75 1.1 1.62 1.62 0 0 1-1.54 1.58c-1.34 0-6.69-3.78-9.15-9.86a16.42 16.42 0 0 1-9.11 9.94 1.72 1.72 0 0 1-.63.14 1.33 1.33 0 0 1-1.32-1.32 1.2 1.2 0 0 1 .83-1.12 13.35 13.35 0 0 0 8.37-10.35l-7.47.1a1.14 1.14 0 0 1-1.22-1.17 1.18 1.18 0 0 1 1.24-1.23h7.79c.15-2.17.15-3.68.15-3.88V62a1.17 1.17 0 0 1 1.29-1.15A1.23 1.23 0 0 1 277 62v.53c0 1.15 0 2.3-.12 3.42l-.07.95h7.74a1.18 1.18 0 0 1 1.22 1.2 1.16 1.16 0 0 1-1.2 1.2zm8.2 13.03a1.09 1.09 0 0 1-1.19-1.07c0-4.44 0-12.23.12-17.38.05-2.32 1.29-2.32 3.56-2.32h1.39c1.4 0 2.1.81 2.1 1.86 0 .71-.31 1.56-1.32 3.64a2.2 2.2 0 0 0-.26 1 1.71 1.71 0 0 0 .44 1 5.78 5.78 0 0 1 1.22 3.76c0 1.61-.83 3.76-3 3.76-1.61 0-1.78-.83-1.78-1.2a1 1 0 0 1 .88-1 1.19 1.19 0 0 1 .26 0 2.11 2.11 0 0 0 .35.05c.34 0 1.14-.17 1.14-1.78a4.56 4.56 0 0 0-.95-2.91 2.85 2.85 0 0 1-.61-1.76 4.35 4.35 0 0 1 .39-1.68 10.62 10.62 0 0 0 .88-2.54c0-.39-.34-.46-1-.46-.9 0-1.41 0-1.41.85 0 2.27-.05 5.13-.05 8.11v9a1.08 1.08 0 0 1-1.16 1.07zm18-17.92c-1.49 0-3.32-.07-5-.07h-2.63c-.75 0-.93.39-.93 1v2.27h6.56c1.27 0 2.13.61 2.13 1.88 0 1.86-2 5.64-3 7.08a10.2 10.2 0 0 0 4 3 1.1 1.1 0 0 1 .75 1.07 1.3 1.3 0 0 1-1.31 1.29c-1 0-2.86-1.22-4.72-3.56-2.12 2.59-4.61 3.81-5.29 3.81a1.13 1.13 0 0 1-1.13-1.15 1.1 1.1 0 0 1 .71-1 11.86 11.86 0 0 0 4.37-3.54 16.16 16.16 0 0 1-2.46-6.94h-.66c-.15 4.08-.74 8.69-3.32 11.62a1.21 1.21 0 0 1-1 .44 1.24 1.24 0 0 1-1.27-1.12 1 1 0 0 1 .3-.68c2.66-3 3.07-7 3.07-10.77 0-1.49 0-3-.07-4.35s.83-2.27 2.56-2.32h8.35a1.06 1.06 0 0 1 1.13 1.05 1 1 0 0 1-1.13 1zM308.42 70c0-.32-.27-.51-.69-.51h-3a15 15 0 0 0 1.81 5.1 13.65 13.65 0 0 0 1.88-4.59zM164.21 41.52a.91.91 0 0 1-.93 1 1 1 0 0 1-1-1v-6.3h-1.39v6.3a1 1 0 0 1-1 1 .91.91 0 0 1-.93-1l.07-3.93c-.78 1.32-2.68 3.88-3.83 3.88a1 1 0 0 1-.49-1.83 12.88 12.88 0 0 0 4-4.42h-1.95a.85.85 0 0 1-.9-.88.78.78 0 0 1 .85-.8h2.37v-1.32h-2.52a.81.81 0 0 1-.8-.86.79.79 0 0 1 .8-.85h2.52v-1.2h-1.9a.82.82 0 0 1-.88-.83.84.84 0 0 1 .88-.85h1.9v-1.3l-2.46.05a1.05 1.05 0 0 1-.64-.17 1.14 1.14 0 0 1-1.05.93 1.12 1.12 0 0 1 .1.41.91.91 0 0 1-.95 1h-1v1.73h1.59a.91.91 0 0 1 1 .95.92.92 0 0 1-1 1h-1.59v5.25a12.53 12.53 0 0 0 1.68-.83.84.84 0 0 1 .44-.12.91.91 0 0 1 .83 1 1 1 0 0 1-.56.93 29.4 29.4 0 0 1-7.08 2.71 1 1 0 0 1-.24-2.05c1-.24 2-.51 2.9-.83v-6h-2.29a.94.94 0 0 1-1-1 .93.93 0 0 1 1-.95h2.29v-1.8h-.93a1 1 0 0 1-.68-.22l-.05.07a1 1 0 0 1-.88.46 1.1 1.1 0 0 1-1.14-1 1.06 1.06 0 0 1 .26-.68 21 21 0 0 0 2.81-4.62 1.93 1.93 0 0 1 1.69-1.31 2.26 2.26 0 0 1 1.87 1.29 29.06 29.06 0 0 0 1.69 2.81 1 1 0 0 1 1-.78h5.42a1.15 1.15 0 0 1 .14-.49 21.83 21.83 0 0 0 1.1-2.52.87.87 0 0 1 .86-.51c.63 0 1.34.42 1.34 1 0 .27-.15.46-1.39 2.54h3.59a.93.93 0 1 1 0 1.85l-3.57-.05v1.3h1.08c1.46.07 2.27.64 2.32 2v.83h1.12a.91.91 0 0 1 0 1.81h-1.09c0 1.14-.13 2.8-2.47 2.88h-.49a18.14 18.14 0 0 0 4.35 4 1.06 1.06 0 0 1 .51.91 1.18 1.18 0 0 1-1.12 1.17 1.15 1.15 0 0 1-.71-.27 22 22 0 0 1-3.54-3.79l.07 4.35zM148.9 37a10.91 10.91 0 0 0-.9-2.61 1 1 0 0 1-.1-.42.9.9 0 0 1 1-.8.89.89 0 0 1 .73.31 7 7 0 0 1 1.15 3.1 1.11 1.11 0 0 1-1 1.18.84.84 0 0 1-.88-.76zm5.25-10.33a33.15 33.15 0 0 1-1.68-3 .27.27 0 0 0-.22-.15.22.22 0 0 0-.2.12 27 27 0 0 1-1.56 3zm0 9.67a.85.85 0 0 1-.93-.76.78.78 0 0 1 .1-.39 9.56 9.56 0 0 0 .68-1.89.72.72 0 0 1 .73-.59 1 1 0 0 1 1 .9 7.94 7.94 0 0 1-.92 2.37.8.8 0 0 1-.63.32zM160 24.43a.91.91 0 0 1-.85-.58 8.12 8.12 0 0 0-1-1.52.66.66 0 0 1-.15-.39c0-.48.61-.87 1.2-.87.93 0 2 1.73 2 2.27a1.14 1.14 0 0 1-1.2 1.09zm2.35 4.89H161v1.24h1.37zm0 2.9h-1.37v1.32h1.39zm0-5.88H161v1.29h1.35zm1.8 5.86v1.32h.66c.54 0 .83-.22.86-.64v-.68zm1.54-1.61v-.64c0-.44-.32-.61-.76-.61h-.73v1.22zm10.36 10.1a1.66 1.66 0 0 1-1.07.42 1.21 1.21 0 0 1-1.25-1.11 1.19 1.19 0 0 1 .61-1c3-1.93 3.57-4.08 3.57-7.94v-1.34c0-1 .81-1.86 2.52-1.88h3.54c1.41 0 2.76 0 4.2.05 1.63 0 2.61.56 2.68 1.78.05.49.05 1.13.05 1.76 0 2.61 0 3.59-2.71 3.66-1.36 0-2.68.05-4.07.05h-4.3a10.06 10.06 0 0 1-3.77 5.55zm5.4-13.89a.86.86 0 0 1-.88-.73c-2.25 1.93-4.81 3.71-5.69 3.71a1.11 1.11 0 0 1-1.1-1.15 1.14 1.14 0 0 1 .71-1.05 24.74 24.74 0 0 0 7.51-5.76 2.79 2.79 0 0 1 2.1-1.1 3.51 3.51 0 0 1 2.3 1.1A27.71 27.71 0 0 0 194 27a1.08 1.08 0 0 1 .68.95 1.29 1.29 0 0 1-1.27 1.25c-1.12 0-4.56-2.54-5.39-3.2a.84.84 0 0 1-.86.85zm7.62 15.12c-1.23 0-2.49.07-3.79.07s-2.64 0-4-.07a2.08 2.08 0 0 1-2.13-1.92v-.83c0-.42 0-.83.05-1.25a1.94 1.94 0 0 1 2.07-1.68c1.32-.05 2.62-.05 3.91-.05s2.64 0 4 .05c1.05 0 2.22.65 2.3 1.56v2.17a2.29 2.29 0 0 1-2.41 1.95zm-8.94-9.7l-.07 1.17h7.64c.8 0 .8-.53.8-1.17zm8.37-1.56c0-.73 0-1.15-.8-1.15h-6.64c-.71 0-.93.37-.93.91v.24zm.64 7.91c0-.59-.68-.59-4-.59-1 0-2 0-2.92.05-.62 0-.83.22-.83 1.13s0 1 3.83 1 3.95 0 3.95-1a5.33 5.33 0 0 0-.03-.59zM186.89 25c-.68-.59-1.34-1.2-1.93-1.76-.29-.29-.53-.47-.75-.47s-.42.15-.69.44c-.51.57-1.1 1.18-1.75 1.79zm-99.55 90.91v4.42c0 2.54-2.08 2.68-4.48 2.68-2.64 0-4.33-.14-4.36-2.65v-4.45h-3.72v3.72c0 2.05 0 3.83.09 4.9.08 1.66 1 1.72 7.06 1.72 2.46 0 5.1-.06 7.3-.14h.08a1.17 1.17 0 0 1 1.19 1.24 1.3 1.3 0 0 1-1.27 1.35c-2.17.11-4.65.14-7 .14-2.19 0-4.28 0-5.91-.11-2.48-.12-4.28-1.1-4.34-3.83v-8.99h-3.24a1.2 1.2 0 0 1-1.35-1.18 1.31 1.31 0 0 1 1.35-1.33h3.24c0-2 .06-3.83.06-5.24a1.27 1.27 0 0 1 1.41-1.16 1.29 1.29 0 0 1 1.44 1.18c0 1.38 0 3.24-.08 5.24h3.63v-6.14a1.27 1.27 0 0 1 1.38-1.16 1.17 1.17 0 0 1 1.29 1.13v6.14h3.6v-5.8a1.34 1.34 0 0 1 2.67 0v5.8h4.08a1.26 1.26 0 0 1 1.3 1.3 1.21 1.21 0 0 1-1.3 1.21zm-6.22 0v3.83c0 .83.48 1 1.67 1 1.35 0 1.77-.17 1.83-1s0-2.22 0-3.83zm30.45 4.93a1.25 1.25 0 0 1 1.35-1.24h.25a37.3 37.3 0 0 1-3.21-3 27.62 27.62 0 0 1-3.12 3 1.24 1.24 0 0 1 1.18 1.26c0 3.3-1.38 8.17-8.59 9.38a1.09 1.09 0 0 1-.31 0 1.29 1.29 0 0 1-1.3-1.35 1.11 1.11 0 0 1 .9-1.18c4.93-.68 6.43-3.41 6.54-6.85v-.08c-1.69 1.21-5.55 3.6-6.57 3.6a1.32 1.32 0 0 1-1.35-1.29 1.28 1.28 0 0 1 .88-1.18 28.88 28.88 0 0 0 8.61-5.38h-2.19c-1.13 0-3.78 0-3.86-2.62 0-.87-.06-1.86-.06-2.84s0-1.89.06-2.65c0-1.21.84-2.48 3-2.53 1.18 0 3.1-.06 5.18-.06 2.51 0 5.21 0 7 .06a2.8 2.8 0 0 1 2.9 2.33c.06.68.08 1.61.08 2.57s0 2.25-.08 3.1a2.9 2.9 0 0 1-3.07 2.64h-2.87a32.58 32.58 0 0 0 8.64 4.92 1.28 1.28 0 0 1 .85 1.19 1.58 1.58 0 0 1-1.58 1.52c-.93 0-4.08-1.8-6.73-3.8a1.5 1.5 0 0 1 .08.39v8a1.35 1.35 0 0 1-2.7 0zm-3-12.84h-3.91c-1.38.06-1.44 1-1.44 2.17h5.35zm0 4.25h-5.35c0 1.46.11 2.22 1.47 2.28 1 0 2.42.06 3.88.06zm7.83-2v-1c0-.71-.43-1.1-1.38-1.13s-2.37 0-3.92 0v2.22zm-5.32 2v2.34c1.44 0 2.84 0 3.94-.06 1.38 0 1.38-1 1.38-2.28zm19.25 16.17a1.55 1.55 0 0 1-1.58-1.67 2.9 2.9 0 0 1 .82-1.91c1.94-2.2 5.21-5.55 7.69-8.59a5.79 5.79 0 0 0 1.58-3.61 2.81 2.81 0 0 0-2.93-2.87 4.12 4.12 0 0 0-3.47 2.17 1.69 1.69 0 0 1-1.46.84 1.59 1.59 0 0 1-1.66-1.49c0-1 2.14-4.34 6.56-4.34 3.27 0 6.37 2 6.37 5.38a9.21 9.21 0 0 1-2.34 5.58c-2.14 2.7-4.9 5.1-7.24 7.63 2.34 0 5.52-.25 7.83-.25a1.5 1.5 0 0 1 1.69 1.46 1.68 1.68 0 0 1-1.78 1.67zm44.14-2.2v.06c0 1.94-1.49 3.69-5.15 3.69-2.51 0-3.52-.4-3.52-1.64a1.23 1.23 0 0 1 1.26-1.29 1.16 1.16 0 0 1 .31 0 13.51 13.51 0 0 0 1.89.19c1.72 0 2.45-.65 2.45-1.6 0-12-.05-13.78-.11-15.47a1.51 1.51 0 0 0-1.63-1.63c-1.84-.06-3.64-.09-5.44-.09q-3.09 0-6.25.09a1.23 1.23 0 0 0-1.36 1.38v.56c0 1.55.06 3.38.06 5.33 0 4.64-.34 9.88-2.65 13.26a2 2 0 0 1-1.58.93 1.37 1.37 0 0 1-1.43-1.29 1.4 1.4 0 0 1 .28-.82c2.28-3.3 2.7-7.94 2.7-12.17 0-2.17-.11-4.2-.14-5.91v-.09c0-2.34 1.1-3.52 3.66-3.58s4.65-.08 6.93-.08c2 0 4 0 6.23.08a3.38 3.38 0 0 1 3.35 3.27c.09 4.14 0 9.83.09 12.93zm-4.76-8.73l-5.66-.06-5.41.06a1 1 0 0 1-1.12-1.07 1.11 1.11 0 0 1 1.12-1.16l4.2.06v-1.86h-3.44a1 1 0 0 1-1.1-1.07 1.11 1.11 0 0 1 1.1-1.16h3.44v-1.21a1.29 1.29 0 0 1 2.56 0v1.21h3.58a1.12 1.12 0 0 1 0 2.23h-3.58v1.86l4.36-.06a1.12 1.12 0 0 1 0 2.23zm-11 5.1v-1.38a2.24 2.24 0 0 1 2.2-2.17c.64 0 1.63-.06 2.67-.06 1.24 0 2.56 0 3.41.06a2.42 2.42 0 0 1 2.42 2c0 .59.06 1 .06 1.38s0 .79-.06 1.38a2.61 2.61 0 0 1-2.53 2.48h-6a2.44 2.44 0 0 1-2.25-2.45c.07-.54.04-.83.04-1.24zm5.3-1.47h-2c-.76.06-.84.56-.84 1.44v.64c0 .74.33.77 3 .77 2.56 0 2.7-.09 2.7-1.39.05-1.46.05-1.46-2.87-1.46zM1.31 10.42a9.24 9.24 0 0 0 5.93-6c.12-.41.08-.78-.47-.8-1.47 0-3.83 0-6 .12a.74.74 0 1 1 0-1.48c2-.09 4.77-.1 6.67-.07a1.57 1.57 0 0 1 1.61 2.19 11.43 11.43 0 0 1-7 7.49c-1.33.48-1.88-1.09-.74-1.45zm15.94 1.51c-1.22.38-1.78-1.1-.58-1.42A7.7 7.7 0 0 0 22.19 6c.15-.4.07-.64-.49-.66-1.53 0-4.31 0-5.91.08a.71.71 0 1 1 0-1.41c1.93 0 4.45-.06 6.48 0 1.49 0 2.23.85 1.61 2.31-1.09 2.47-2.88 4.48-6.63 5.61zM22 2.6h-5.08c-1 0-1-1.4.1-1.39h5a.73.73 0 0 1 .81.69c.05.36-.21.7-.83.7zm9 6.57c-1.4.83-2.18-.69-1.16-1.17a19.8 19.8 0 0 0 7.29-6.75.78.78 0 1 1 1.34.75c-.68.9-1.32 1.7-2 2.45 0 1.53-.08 5.44 0 6.94a.79.79 0 1 1-1.57 0c0-1.19.07-3.63.09-5.38A22.49 22.49 0 0 1 31 9.17zm16.61 2.3a.82.82 0 1 1-1.62.06c.11-2.42.15-8.29.09-10.44a.78.78 0 0 1 1.56 0v3.5h.26a9.2 9.2 0 0 1 3.59 1.3c.77.66-.08 2-.93 1.33A9.36 9.36 0 0 0 47.59 6c-.01 2.1-.01 4.26.02 5.47zm2.17-8.78c-.8-.28-.24-1.24.49-1a5.2 5.2 0 0 1 1.57.84c.63.61-.21 1.59-.75 1a5.53 5.53 0 0 0-1.31-.84zm1.33-1.39c-.81-.25-.29-1.23.44-1a5.05 5.05 0 0 1 1.6.78c.66.58-.16 1.6-.71 1a5.92 5.92 0 0 0-1.33-.78zm7.14 8.7a.73.73 0 0 1 .19-1.06 7.26 7.26 0 0 0 2-2.12.67.67 0 1 1 1.15.7 9.34 9.34 0 0 1-2.27 2.66.76.76 0 0 1-1.07-.18zm1.31-4.74a.69.69 0 1 1 0-1.37c1.18-.05 2.41-.09 3.62-.11V1.9a.72.72 0 1 1 1.43-.06v1.93H68a.72.72 0 1 1-.06 1.41c-1.11-.06-2.23-.06-3.35-.06v4.66c0 1.19-.72 2.08-2.86 1.71-1.33-.24-.74-1.78.17-1.48.61.19 1.27.28 1.29-.54V5.13zM68 9.62a7.81 7.81 0 0 0-2.19-2c-.73-.43 0-1.57.84-1.06a8.35 8.35 0 0 1 2.57 2.2.79.79 0 0 1-.22 1.03.65.65 0 0 1-1-.17zm-.32-6.53a1.55 1.55 0 0 1 0-3.09 1.57 1.57 0 0 1 1.56 1.55 1.55 1.55 0 0 1-1.53 1.54zm0-2.28a.76.76 0 0 0-.75.74.75.75 0 0 0 1.5 0 .76.76 0 0 0-.72-.74zm9.59 11.11c-1.46.51-1.7-1.09-.65-1.38a5 5 0 0 0 3.81-4.71c-1.66 0-3.31.08-4.35.11a.69.69 0 0 1-.78-.68.76.76 0 0 1 .85-.73c2.13 0 6.84-.06 9.27-.07a.66.66 0 0 1 .74.71.74.74 0 0 1-.83.68h-3.36a6.67 6.67 0 0 1-4.7 6.07zm6.45-9.09c-2.06 0-4.31.09-5.91.09a.71.71 0 1 1 0-1.4c1.88 0 3.87 0 5.83-.08a.67.67 0 0 1 .76.68.68.68 0 0 1-.68.71zm10.94 8.64a.82.82 0 1 1-1.62.06c.11-2.42.15-8.29.09-10.44a.78.78 0 0 1 1.56 0v3.5h.26a9.1 9.1 0 0 1 3.58 1.3c.78.66-.07 2-.92 1.33A9.36 9.36 0 0 0 94.64 6c-.01 2.1-.01 4.26.02 5.47zm-9.4 41.98c-3.07 0-4.64-1.75-4.64-2.67a1.09 1.09 0 0 1 1.09-1.07 1 1 0 0 1 .82.47 3.22 3.22 0 0 0 2.74 1.26c2.07 0 2.52-1.41 2.52-2a2.47 2.47 0 0 0-1.43-2.1c-.82-.47-1.84-1-2.83-1.49a3.73 3.73 0 0 1-2.41-3.38c0-1.82 1.47-3.57 4.06-3.57s4.08 1.24 4.08 2.13a1.1 1.1 0 0 1-1.06 1.09 1.22 1.22 0 0 1-.88-.45 2.72 2.72 0 0 0-2.16-.87 1.73 1.73 0 0 0-1.93 1.6 1.91 1.91 0 0 0 1.18 1.6c.77.41 2.07 1 2.93 1.48a4.48 4.48 0 0 1 2.66 3.9c0 2-1.7 4.07-4.74 4.07zm9.99-8.51v5.02c.07 1.22.77 1.73 1.56 1.73a2.4 2.4 0 0 0 2.31-2.13V47.8c0-.76 0-1.73-.05-2.86a.9.9 0 0 1 1-1 .94.94 0 0 1 1 .94c-.06 2-.09 3.16-.09 4.38a5.2 5.2 0 0 0 .5 2.29 1.27 1.27 0 0 1 .17.66 1 1 0 0 1-1 1c-.64 0-.91-.45-1.11-1.07 0 0 0-.09-.06-.09s0 0-.07.06a3.85 3.85 0 0 1-2.84 1.24 3.14 3.14 0 0 1-3.27-3.16v-5.21a1 1 0 0 1 1-1 .92.92 0 0 1 1 .92zm9.93 7.46c.06-1.78.08-3 .08-4.13s0-2.1-.06-3.36a.93.93 0 0 1 1-.85.89.89 0 0 1 1 .89v.32a.24.24 0 0 0 .08-.08 3.47 3.47 0 0 1 2.4-1.14.88.88 0 0 1 .92.9 1.06 1.06 0 0 1-1.07 1 2.64 2.64 0 0 0-2.4 2.22v4.24a.88.88 0 0 1-.95 1 .93.93 0 0 1-1-1.01zm11.64-6.54c-.18 0-.24 0-.24.3v6.09a1 1 0 0 1-1 1 .91.91 0 0 1-.94-.94v-6.19c0-.26 0-.3-.31-.3h-.66a.84.84 0 0 1-.85-.9.86.86 0 0 1 .85-.92h.67c.19 0 .3 0 .3-.24v-.89c0-3.62 2.89-3.87 3.4-3.87s1.16.21 1.16.91a.89.89 0 0 1-.9.93h-.21c-1.5 0-1.54 1.64-1.54 2.24v.73c0 .24.13.19.26.19h1.45a.91.91 0 0 1 0 1.82zm66.92 42.87a4.14 4.14 0 0 1-4.31-4.28 4.31 4.31 0 0 1 4.36-4.45c1.79 0 3 1 3 1.65a.7.7 0 0 1-.68.7.71.71 0 0 1-.58-.31 2.38 2.38 0 0 0-1.86-.8 3 3 0 0 0-2.91 3.14 2.92 2.92 0 0 0 2.93 3.07 2.69 2.69 0 0 0 2.16-1 .67.67 0 0 1 .55-.29.77.77 0 0 1 .75.72c0 .62-1.34 1.85-3.41 1.85zm11.12-.11a.65.65 0 0 1-.64-.42c-.13-.32-.43-1.22-.78-2.27 0-.07-.05-.1-.12-.1h-2.81a.14.14 0 0 0-.14.1l-.71 2.24a.64.64 0 0 1-.63.46.6.6 0 0 1-.64-.56c0-.2 0-.3 2.5-7.23a1 1 0 0 1 1-.76 1.12 1.12 0 0 1 1.05.78c.72 2 2.18 6 2.55 6.82a.85.85 0 0 1 .07.33.64.64 0 0 1-.7.61zM193 84.53c-.35-1.06-.68-2.08-.86-2.63-.07-.21-.13-.32-.2-.32s-.12.1-.2.33c-.17.45-.9 2.55-.9 2.66s0 .06.09.06h2.09a.15.15 0 0 0-.02-.1zm4.22 3.58c.08-2 .34-5.13.43-6.77a1.17 1.17 0 0 1 1.09-1.26 1.24 1.24 0 0 1 1.14 1c.43 1.35 1.42 4.84 1.69 5.4 0 .06.07.1.11.1s.08 0 .1-.1c.43-1 1.33-4.17 1.77-5.45a1.25 1.25 0 0 1 1.16-.93 1.17 1.17 0 0 1 1.13 1.23c0 1.45.28 5.11.37 6.71a.61.61 0 0 1-.66.58.62.62 0 0 1-.67-.58c-.11-1.61-.23-6.08-.23-6.08 0-.2 0-.27-.1-.27s-.13.1-.17.23c-.24.94-1.4 4.6-1.87 5.8a1 1 0 0 1-.87.64.89.89 0 0 1-.82-.63c-.36-.85-1.35-4.42-1.76-5.75-.05-.14-.1-.22-.15-.22s-.1.09-.12.33c-.08 1-.24 4.41-.3 6a.62.62 0 0 1-.67.56.54.54 0 0 1-.6-.51zm12.07.51a.59.59 0 0 1-.64-.58v-5.88c0-1.38 0-2.13 2.22-2.13h.63a2.52 2.52 0 0 1 2.6 2.53 2.66 2.66 0 0 1-2.44 2.68 7.18 7.18 0 0 1-.81.06 4.2 4.2 0 0 1-.83-.09H210c-.06 0-.07 0-.07.12V88a.6.6 0 0 1-.64.62zm1.59-7.43c-.9 0-1 .12-1 1.17v1.44c0 .24.22.32.92.32h.69a1.56 1.56 0 0 0 1.37-1.58 1.29 1.29 0 0 0-1.45-1.3zM132.92 67.2a8.47 8.47 0 0 0 3.17-4 .81.81 0 1 1 1.51.6 11.53 11.53 0 0 1-3.74 4.74.83.83 0 1 1-.94-1.34zm10.15.63a11.25 11.25 0 0 0-2.89-4.16c-.72-.61.29-1.69 1.18-.9 1.3 1.16 3 3.09 3.34 4.46.3 1.15-1.27 1.77-1.63.6zm-1.5-5.92c-.76-.32-.16-1.23.53-1a4.53 4.53 0 0 1 1.48.91c.58.63-.29 1.52-.78.94a5 5 0 0 0-1.23-.85zm1.36-1.29c-.76-.3-.22-1.21.48-1a4.9 4.9 0 0 1 1.51.87c.6.6-.24 1.53-.75 1a5.11 5.11 0 0 0-1.24-.87zm8.62 7.18c-1.37.84-2.15-.69-1.13-1.18a19.94 19.94 0 0 0 7.3-6.76.78.78 0 1 1 1.33.79c-.68.9-1.32 1.71-2 2.45-.05 1.53-.08 5.45 0 6.94a.79.79 0 1 1-1.57 0c0-1.2.07-3.64.09-5.39a21.28 21.28 0 0 1-4.02 3.15zm18.99-6.95c.64-.05 1.37-.11 2-.14 1.15-.06 2.15.75 1.6 1.81C172.29 66 170.22 69 166 70.7c-1.27.49-1.88-1-.64-1.41a12.55 12.55 0 0 0 6.89-6.68c.12-.28 0-.57-.36-.55-.63 0-1.72.12-2.39.19a17.82 17.82 0 0 1-3.37 3.62c-1 .67-1.88-.61-.86-1.24 1.43-.88 3.38-3.63 4.07-4.82a.78.78 0 1 1 1.28.89zm53.16-8.96a1.1 1.1 0 0 1-1.07-.69c-.23-.55-.72-2.05-1.3-3.8 0-.11-.09-.17-.21-.17h-4.69a.24.24 0 0 0-.23.17c-.47 1.48-.9 2.84-1.18 3.74a1.06 1.06 0 0 1-1.05.77 1 1 0 0 1-1.07-.91c0-.34 0-.49 4.17-12.06a1.74 1.74 0 0 1 1.65-1.26 1.88 1.88 0 0 1 1.75 1.3c1.2 3.38 3.64 9.92 4.26 11.38a1.42 1.42 0 0 1 .11.55 1.06 1.06 0 0 1-1.14.98zm-3.14-6.82c-.58-1.76-1.15-3.47-1.45-4.39-.11-.34-.2-.53-.31-.53s-.21.17-.34.55c-.29.75-1.51 4.26-1.51 4.43s0 .11.15.11h3.33c.11 0 .15 0 .15-.07a.22.22 0 0 0-.02-.1zm12.85 7.5a.78.78 0 1 1 0-1.54h6.16v-1.7h-4.49a.76.76 0 1 1 0-1.5h4.47v-1.05a1 1 0 0 1-.6.19.74.74 0 0 1-.83-.71v-3.67h-1.82c-.44 3-2.16 4.68-3 4.68a.77.77 0 0 1-.82-.75.79.79 0 0 1 .32-.62 4.75 4.75 0 0 0 1.91-3.29h-1.5a.76.76 0 0 1-.83-.77.78.78 0 0 1 .83-.77h1.58v-2.14h-1a.77.77 0 0 1-.83-.75.79.79 0 0 1 .85-.79h6.93a.73.73 0 0 1 .75.77.72.72 0 0 1-.73.77h-1v2.14h1.51a.77.77 0 0 1 0 1.54h-1.52v3.48a1 1 0 0 1 .68-.27.86.86 0 0 1 .9.89v1.16h4.32a.76.76 0 1 1 0 1.5h-4.32V51h6a.8.8 0 0 1 .82.8.74.74 0 0 1-.82.74zm4.73-13.64h-1.67v2.16h1.69zm4.34-.58a.77.77 0 0 1 .81-.81.79.79 0 0 1 .84.81v5.52a.83.83 0 0 1-1.65 0zm5.3 6.33a2.26 2.26 0 0 1-2.54 2.32c-1.22 0-1.92-.29-1.92-1a.85.85 0 0 1 .81-.9 1.09 1.09 0 0 1 .25 0 3.89 3.89 0 0 0 .86.15c.43 0 .77-.19.79-.94s0-4 0-5.83v-1.05a.78.78 0 0 1 .84-.81.8.8 0 0 1 .85.81v5.12zm-29.86 70.25h-1.21c-1.82 0-4-.07-4.05-2.42v-3.72c0-2.29 0-4.85.06-6 0-2.35 2.14-2.39 3.73-2.39h1.09c3.12.21 4.29 1.86 4.29 3.44a2.94 2.94 0 0 1-2.26 3c-.19 0-.3.08-.3.12s.08.05.28.07a3.34 3.34 0 0 1 3.12 3.52c-.04 2.03-1.5 4.2-4.75 4.38zm2.55-4.56A2.36 2.36 0 0 0 218 108c-.47 0-1-.06-1.43-.06-1.74 0-1.91.06-1.91.44v3.71c.1.7.29.92 2 .92h1.26a2.63 2.63 0 0 0 2.55-2.64zm-4.13-8c-1.2 0-1.58.15-1.64.86v2.61c0 .4.26.4 1.5.4h1.28a2.25 2.25 0 0 0 2.21-2.12c0-.89-.69-1.71-2.35-1.71-.03-.06-.51-.08-1-.08zm15.21 12.56h-1.2c-1.82 0-4-.07-4.06-2.42v-3.72c0-2.29 0-4.85.06-6 .06-2.35 2.14-2.39 3.74-2.39h1.09c3.12.21 4.28 1.86 4.28 3.44a2.94 2.94 0 0 1-2.25 3c-.19 0-.31.08-.31.12s.08.05.29.07a3.33 3.33 0 0 1 3.11 3.52c-.04 2.03-1.5 4.2-4.75 4.38zm2.55-4.56a2.36 2.36 0 0 0-2.47-2.33c-.47 0-1-.06-1.43-.06-1.75 0-1.92.06-1.92.44 0 2.34 0 3.21.06 3.71.09.7.28.92 2 .92h1.26a2.63 2.63 0 0 0 2.5-2.68zm-4.13-8c-1.2 0-1.58.15-1.63.86v2.61c0 .4.26.4 1.5.4h1.28a2.26 2.26 0 0 0 2.22-2.12c0-.89-.7-1.71-2.35-1.71.01-.06-.53-.08-.99-.08zm22.69 16.23c-1.47 0-2.89-.38-5.65-2.24-.7-.47-1.32-.92-1.92-1.32a7.41 7.41 0 0 0-1.2-.5 6.92 6.92 0 0 1-4.62-6.86 7.24 7.24 0 1 1 14.48 0 7 7 0 0 1-5.37 7.08.09.09 0 0 0-.06.08s0 .09.17.17c2.25 1.16 3.14 1.41 4.51 1.43a1 1 0 0 1 1 1c0 .56-.38 1.16-1.34 1.16zm-1.13-10.92a5 5 0 1 0-5 5.32 5 5 0 0 0 5-5.32zM29.84 80.82v-3.29a11.78 11.78 0 0 1-3.3 2.94.65.65 0 0 1-.35.11.59.59 0 0 1-.56-.54.54.54 0 0 1 .33-.48 9.93 9.93 0 0 0 3.45-3h-2.3a.47.47 0 0 1-.46-.5.47.47 0 0 1 .47-.51h2.74v-1.24h-3.3a.5.5 0 0 1 0-1h3.3v-1.18a.46.46 0 0 1 .51-.44.49.49 0 0 1 .55.45v1.19h3.39a.5.5 0 0 1 0 1h-3.4v1.34h2.79a.47.47 0 0 1 .44.51.45.45 0 0 1-.43.5h-2.38a10.74 10.74 0 0 0 3.53 2.83.51.51 0 0 1 .32.45.65.65 0 0 1-.64.61c-.52 0-2.34-1.43-3.61-3v3.39c0 .29-.27.43-.55.43a.47.47 0 0 1-.52-.42zm11.59-.09c-.85.14-.93-.89-.19-1a4.18 4.18 0 0 0 2.26-.91c.65-.57.68-1.16.36-1.53a2 2 0 0 0-2-.31 20.8 20.8 0 0 0-2.21 1 .53.53 0 1 1-.46-.94 17.84 17.84 0 0 1 2.48-.93 3 3 0 0 1 2.9.55c.9.94.54 2.13-.44 3a5.39 5.39 0 0 1-2.7 1.07zm13.27-3.82a4.52 4.52 0 0 1 0 .53 7.61 7.61 0 0 1-.21 1.74 2.57 2.57 0 0 1-2.57 2c-1.07 0-1.38-.34-1.38-.7a.52.52 0 0 1 .51-.53.56.56 0 0 1 .21 0 2.43 2.43 0 0 0 .68.1 1.46 1.46 0 0 0 1.48-1.18 5.32 5.32 0 0 0 .21-1.43 4.58 4.58 0 0 0 0-.55H49.1a.5.5 0 0 1 0-1h4.27a2.16 2.16 0 0 0-.92-1.1.38.38 0 0 1-.22-.31.54.54 0 0 1 .57-.47.62.62 0 0 1 .29.07 2.08 2.08 0 0 1 .46.29 7.84 7.84 0 0 0 1.31-1.18s-.05-.06-.18-.06h-3.94a.47.47 0 0 1-.5-.47.48.48 0 0 1 .51-.49h4.51c.66 0 1 .37 1 .76a.92.92 0 0 1-.26.62 14.33 14.33 0 0 1-1.8 1.52 3.75 3.75 0 0 1 .35.78h3a.45.45 0 0 1 .44.5.47.47 0 0 1-.45.51z" fill="#94d2e1" data-name="レイヤー 2"/></svg>