<svg xmlns="http://www.w3.org/2000/svg" viewBox="0 0 500 56.02"><path d="M9.83.74v21.77a.74.74 0 0 0 1.26.53l8.83-8.6a.74.74 0 0 1 .52-.22H31.7a.75.75 0 0 1 .51 1.29l-12 11.06a.75.75 0 0 0 0 1.07l13 13.17a.74.74 0 0 1-.53 1.26H21a.73.73 0 0 1-.54-.23l-9.3-9.77a.75.75 0 0 0-1.28.52v8.74a.75.75 0 0 1-.75.74H.74a.74.74 0 0 1-.74-.74V.74A.74.74 0 0 1 .74 0h8.34a.75.75 0 0 1 .75.74zm108.28.37v20.52a1.12 1.12 0 0 0 1.89.8l8.1-7.89a1.12 1.12 0 0 1 .77-.32H139a1.12 1.12 0 0 1 .76 1.94l-11 10.15a1.12 1.12 0 0 0 0 1.6l12.09 12.27a1.11 1.11 0 0 1-.79 1.89h-10.67a1.11 1.11 0 0 1-.81-.34l-8.55-9a1.11 1.11 0 0 0-1.92.76V41a1.11 1.11 0 0 1-1.11 1.07h-7.6a1.11 1.11 0 0 1-1.12-1.07V1.11A1.12 1.12 0 0 1 109.4 0h7.6a1.12 1.12 0 0 1 1.11 1.11zM215.63 0h7.6a1.11 1.11 0 0 1 1.11 1.11V15a1.11 1.11 0 0 0 1.83.85 8.44 8.44 0 0 1 2.24-1.4 12.79 12.79 0 0 1 4.83-.84c3.51 0 6.17 1 8 2.9a11.11 11.11 0 0 1 2.68 7.85V41a1.1 1.1 0 0 1-1.11 1.11h-7.6a1.11 1.11 0 0 1-1.15-1.11V28a14.4 14.4 0 0 0-.33-3.42 4 4 0 0 0-1.08-2 4.62 4.62 0 0 0-3.15-1.14 4.85 4.85 0 0 0-3.83 1.5 6.16 6.16 0 0 0-1.33 4.26V41a1.11 1.11 0 0 1-1.11 1.11h-7.6a1.11 1.11 0 0 1-1.12-1.11V1.11A1.12 1.12 0 0 1 215.63 0zm114.05 1.11v20.52a1.12 1.12 0 0 0 1.89.8l8.1-7.89a1.14 1.14 0 0 1 .78-.32h10.16a1.12 1.12 0 0 1 .75 1.94l-11 10.15a1.12 1.12 0 0 0 0 1.6l12.04 12.27a1.11 1.11 0 0 1-.79 1.89H341a1.13 1.13 0 0 1-.81-.34l-8.55-9a1.11 1.11 0 0 0-1.92.76V41a1.11 1.11 0 0 1-1.11 1.11H321a1.11 1.11 0 0 1-1.15-1.11V1.11A1.12 1.12 0 0 1 321 0h7.6a1.11 1.11 0 0 1 1.08 1.11zm-239.75 12a21 21 0 0 0-4.69-6.87A21.58 21.58 0 0 0 78 1.66a25.94 25.94 0 0 0-18.26 0 21.15 21.15 0 0 0-13.49 20A21.37 21.37 0 0 0 48 30.1a21.08 21.08 0 0 0 4.64 6.9 21.33 21.33 0 0 0 7.14 4.59 26.08 26.08 0 0 0 18.26 0 21.6 21.6 0 0 0 7.2-4.59 20.83 20.83 0 0 0 4.69-6.87 21.37 21.37 0 0 0 1.68-8.49 21.45 21.45 0 0 0-1.68-8.53zm-10.37 13A11.1 11.1 0 0 1 77 29.7a11.95 11.95 0 0 1-12.5 2.36 11.18 11.18 0 0 1-6.16-6 10.79 10.79 0 0 1-.93-4.5 10.87 10.87 0 0 1 .93-4.51 11.21 11.21 0 0 1 6.16-5.94A11.84 11.84 0 0 1 77 13.52a11.06 11.06 0 0 1 2.52 3.58 10.87 10.87 0 0 1 .93 4.51 10.79 10.79 0 0 1-.89 4.5zM298.13 6.24a21.58 21.58 0 0 0-7.2-4.58 26 26 0 0 0-18.27 0 21.37 21.37 0 0 0-7.13 4.58 21.32 21.32 0 0 0-6.36 15.37 1.12 1.12 0 0 0 1.12 1.11h8.9a1.11 1.11 0 0 0 1.11-1.11 10.87 10.87 0 0 1 .93-4.51 11.21 11.21 0 0 1 6.16-5.94 11.84 11.84 0 0 1 12.54 2.36 11.21 11.21 0 0 1 2.52 3.58 10.86 10.86 0 0 1 .92 4.51 1.12 1.12 0 0 0 1.12 1.11h8.9a1.11 1.11 0 0 0 1.11-1.11 21.45 21.45 0 0 0-1.68-8.5 21.19 21.19 0 0 0-4.69-6.87zM188.48 21.61a10.94 10.94 0 0 1-.92 4.5A11.29 11.29 0 0 1 185 29.7a11.48 11.48 0 0 1-3.69 2.36 12.08 12.08 0 0 1-8.85 0 11.34 11.34 0 0 1-3.66-2.36 11.52 11.52 0 0 1-2.5-3.59 10.94 10.94 0 0 1-.92-4.5 1.12 1.12 0 0 0-1.11-1.12h-8.91a1.12 1.12 0 0 0-1.11 1.12A21.37 21.37 0 0 0 156 30.1a21.08 21.08 0 0 0 4.63 6.9 21.33 21.33 0 0 0 7.14 4.59 26.11 26.11 0 0 0 18.27 0 21.55 21.55 0 0 0 7.19-4.59 20.86 20.86 0 0 0 4.7-6.87 21.37 21.37 0 0 0 1.68-8.49 1.12 1.12 0 0 0-1.11-1.12h-8.9a1.12 1.12 0 0 0-1.12 1.12zM401.9 33.3a1.12 1.12 0 0 0-1.12 1.12 10.94 10.94 0 0 1-.92 4.5 11.29 11.29 0 0 1-2.53 3.59 11.48 11.48 0 0 1-3.69 2.36 12.08 12.08 0 0 1-8.85 0 11.34 11.34 0 0 1-3.66-2.36 11.52 11.52 0 0 1-2.5-3.59 10.94 10.94 0 0 1-.92-4.5 1.12 1.12 0 0 0-1.11-1.12h-8.91a1.12 1.12 0 0 0-1.11 1.12 21.37 21.37 0 0 0 1.68 8.49 21 21 0 0 0 11.81 11.46 26 26 0 0 0 18.27 0 21.4 21.4 0 0 0 7.19-4.59 20.86 20.86 0 0 0 4.7-6.87 21.37 21.37 0 0 0 1.68-8.49 1.12 1.12 0 0 0-1.11-1.12zm96.42-20.19a21.07 21.07 0 0 0-4.7-6.87 21.53 21.53 0 0 0-7.19-4.58 26 26 0 0 0-18.27 0 21.08 21.08 0 0 0-13.44 18.47 1.42 1.42 0 0 0 1.42 1.48h8.34a1.43 1.43 0 0 0 1.39-1.32 10.66 10.66 0 0 1 .85-3.19 11.48 11.48 0 0 1 2.5-3.58 11.34 11.34 0 0 1 3.66-2.36 11.94 11.94 0 0 1 8.85 0 11.48 11.48 0 0 1 3.69 2.36A11.24 11.24 0 0 1 488 17.1a11.49 11.49 0 0 1 0 9 11.29 11.29 0 0 1-2.53 3.59 11.61 11.61 0 0 1-6.76 3.12 1.42 1.42 0 0 0-1.32 1.4v7.52a1.43 1.43 0 0 0 1.47 1.43 24 24 0 0 0 7.62-1.61 21.55 21.55 0 0 0 7.14-4.55 20.92 20.92 0 0 0 4.7-6.86 21.45 21.45 0 0 0 1.68-8.5 21.45 21.45 0 0 0-1.68-8.53zm0 33.09h-31.17a1.69 1.69 0 0 0-1.69 1.69v6.44a1.69 1.69 0 0 0 1.69 1.7h31.16a1.7 1.7 0 0 0 1.69-1.7v-6.44a1.69 1.69 0 0 0-1.69-1.69z" fill="#fff"/></svg>