<svg xmlns="http://www.w3.org/2000/svg" viewBox="0 0 500 68.01"><path d="M11.93.9v26.42a.9.9 0 0 0 .9.9.92.92 0 0 0 .63-.26l10.72-10.44a.93.93 0 0 1 .63-.25h13.67a.9.9 0 0 1 .9.9.92.92 0 0 1-.29.66L24.54 32.25a.91.91 0 0 0 0 1.29l15.76 16a.9.9 0 0 1-.65 1.53H25.43a.91.91 0 0 1-.66-.28L13.48 38.93a.9.9 0 0 0-1.55.62v10.62a.9.9 0 0 1-.9.9H.9a.9.9 0 0 1-.9-.9V.9A.9.9 0 0 1 .9 0H11a.9.9 0 0 1 .93.87zm131.43.45v24.9a1.35 1.35 0 0 0 2.3 1l9.83-9.57a1.32 1.32 0 0 1 .94-.38h12.34a1.35 1.35 0 0 1 .91 2.34l-13.36 12.3a1.36 1.36 0 0 0 0 1.92L171 48.77a1.35 1.35 0 0 1-1 2.3h-12.94a1.34 1.34 0 0 1-1-.42l-10.36-10.9a1.36 1.36 0 0 0-1.92 0 1.33 1.33 0 0 0-.42 1v9a1.34 1.34 0 0 1-1.29 1.39h-9.29a1.34 1.34 0 0 1-1.35-1.33V1.35A1.34 1.34 0 0 1 132.78 0H142a1.34 1.34 0 0 1 1.36 1.34zM261.74 0H271a1.36 1.36 0 0 1 1.36 1.35v16.88a1.35 1.35 0 0 0 1.38 1.32 1.37 1.37 0 0 0 .84-.32 10.11 10.11 0 0 1 2.72-1.7 15.42 15.42 0 0 1 5.86-1c4.27 0 7.48 1.18 9.66 3.53s3.18 5.53 3.18 9.53v20.13a1.34 1.34 0 0 1-1.35 1.35h-9.23a1.34 1.34 0 0 1-1.35-1.35V34a18.08 18.08 0 0 0-.39-4.15 5 5 0 0 0-1.32-2.44 5.65 5.65 0 0 0-3.78-1.41 5.93 5.93 0 0 0-4.65 1.81 7.49 7.49 0 0 0-1.61 5.19v16.72a1.36 1.36 0 0 1-1.32 1.35h-9.22a1.34 1.34 0 0 1-1.35-1.33V1.35A1.35 1.35 0 0 1 261.74 0zm138.44 1.35v24.9a1.35 1.35 0 0 0 2.3 1l9.83-9.57a1.32 1.32 0 0 1 .94-.38h12.34a1.35 1.35 0 0 1 .91 2.34l-13.36 12.3a1.36 1.36 0 0 0-.07 1.92l14.68 14.89a1.35 1.35 0 0 1-1 2.3h-12.87a1.34 1.34 0 0 1-1-.42L402.5 39.75a1.36 1.36 0 0 0-1.92 0 1.33 1.33 0 0 0-.42 1v9a1.34 1.34 0 0 1-1.33 1.25h-9.24a1.34 1.34 0 0 1-1.35-1.33V1.35A1.34 1.34 0 0 1 389.59 0h9.24a1.34 1.34 0 0 1 1.35 1.35zm-291 14.56a25.34 25.34 0 0 0-5.7-8.33A25.94 25.94 0 0 0 94.73 2a31.57 31.57 0 0 0-22.17 0 25.6 25.6 0 0 0-16.38 24.22 25.57 25.57 0 0 0 16.38 24.22 31.57 31.57 0 0 0 22.17 0 26.05 26.05 0 0 0 8.73-5.56 25.38 25.38 0 0 0 5.7-8.34 25.67 25.67 0 0 0 2-10.31 25.75 25.75 0 0 0-2-10.32zM96.58 31.7a13.59 13.59 0 0 1-3.07 4.35A14.23 14.23 0 0 1 89 38.91a14.65 14.65 0 0 1-10.74 0 13.65 13.65 0 0 1-7.45-18.15 13.88 13.88 0 0 1 3-4.35 13.71 13.71 0 0 1 4.45-2.87 14.65 14.65 0 0 1 10.74 0 14.12 14.12 0 0 1 4.48 2.87 13.59 13.59 0 0 1 3.07 4.35 13.2 13.2 0 0 1 1.12 5.47 13.2 13.2 0 0 1-1.09 5.47zm265.3-24.12A26.26 26.26 0 0 0 353.15 2 31.52 31.52 0 0 0 331 2a25.68 25.68 0 0 0-16.4 24.23 1.34 1.34 0 0 0 1.4 1.35h10.86a1.37 1.37 0 0 0 1.35-1.35 13.2 13.2 0 0 1 1.12-5.47 13.68 13.68 0 0 1 7.48-7.22A14.34 14.34 0 0 1 352 16.41a13.53 13.53 0 0 1 4.14 9.82 1.36 1.36 0 0 0 1.36 1.35h10.8a1.34 1.34 0 0 0 1.35-1.35 26.1 26.1 0 0 0-2-10.32 25.38 25.38 0 0 0-5.75-8.33zM228.79 26.23a13.2 13.2 0 0 1-1.12 5.47 13.83 13.83 0 0 1-3.06 4.35 14 14 0 0 1-4.49 2.86 14.65 14.65 0 0 1-10.74 0 13.47 13.47 0 0 1-7.44-7.21 13.36 13.36 0 0 1-1.12-5.47 1.34 1.34 0 0 0-1.34-1.36h-10.81a1.36 1.36 0 0 0-1.36 1.36 25.57 25.57 0 0 0 16.38 24.21 31.57 31.57 0 0 0 22.17 0 26.1 26.1 0 0 0 8.74-5.56 25.66 25.66 0 0 0 7.74-18.65 1.36 1.36 0 0 0-1.34-1.36h-10.86a1.36 1.36 0 0 0-1.35 1.36zm259 14.2a1.34 1.34 0 0 0-1.35 1.35 13.2 13.2 0 0 1-1.12 5.47 13.83 13.83 0 0 1-3.06 4.35A14.52 14.52 0 0 1 467 54.46a13.47 13.47 0 0 1-7.44-7.21 13.35 13.35 0 0 1-1.11-5.47 1.34 1.34 0 0 0-1.35-1.35h-10.78a1.33 1.33 0 0 0-1.32 1.35A25.63 25.63 0 0 0 461.35 66a31.6 31.6 0 0 0 22.18 0 26.24 26.24 0 0 0 8.73-5.57 25.69 25.69 0 0 0 5.7-8.34 26 26 0 0 0 2-10.31 1.34 1.34 0 0 0-1.35-1.35h-10.82z" fill="#fff"/></svg>