<svg xmlns="http://www.w3.org/2000/svg" viewBox="0 0 332.66 88.24"><path d="M5.53 6.28a20.38 20.38 0 0 1-3.61.28c-1.77 0-1.86-2.44.23-2.18a13.39 13.39 0 0 0 3.56-.16v-3a1.18 1.18 0 0 1 2.35 0C8 2 7.94 2.91 7.92 3.82c.48-.09 1-.23 1.57-.34 1.51-.35 2.13 1.79.13 2.12-.62.09-1.19.2-1.72.29v2.56c.55-.16 1.13-.33 1.75-.53 1.7-.55 2.57 1.56.53 2.14-.81.23-1.54.43-2.21.59 0 .79.09 1.5.16 2.17s.14 1.44.19 2.27a11 11 0 0 1 2.85 1.63c1.54 1.27 0 3.36-1.41 2a9.79 9.79 0 0 0-1.67-1.24 4.7 4.7 0 0 1-6.42 2.12c-2.19-1.08-2.33-3.66.18-4.71a7.77 7.77 0 0 1 4.39-.4c0-.48-.07-1-.11-1.49S6 11.8 6 11.09a12.37 12.37 0 0 1-4.18.25 1.14 1.14 0 1 1 .48-2.2 10.15 10.15 0 0 0 3.59-.21c0-.87-.1-1.77-.12-2.67zm-3 10.26a.7.7 0 0 0-.07 1.31A2.55 2.55 0 0 0 6 16.56a5 5 0 0 0-3.44-.02zM25 16.06c-1.66-1.8-2.42-4.46-2.6-7.36a24.5 24.5 0 0 1-.12-2.55 1.18 1.18 0 1 1 2.35 0c0 .9-.05 1 0 2 .09 2.42.53 4.7 1.81 5.94.6.57.9.64 1.41-.05a9.86 9.86 0 0 0 .76-1.35 1.13 1.13 0 0 1 2.09.82 9.67 9.67 0 0 1-.9 1.77c-1.5 2.36-3.55 2.16-4.8.78zm12.44-4a7.23 7.23 0 0 0-2.56-4.46c-1.1-.76.14-2.46 1.52-1.43a8.83 8.83 0 0 1 3.45 5.34 1.24 1.24 0 1 1-2.44.49zm11.19 6.02c-1.84-4.53 0-11.34.4-14.07a1.12 1.12 0 1 1 2.23.14c-.37 1.86-1.75 7.26-1.2 9.4.07.3.16.23.25 0s.3-.57.39-.73a.92.92 0 0 1 1.61.9A11.29 11.29 0 0 0 51 17c-.14.63.13 1.34-.44 1.84s-1.47.37-1.93-.76zm6.17-1.63a1.14 1.14 0 0 1 1.63-1.59c1.24 1.13 4 .76 5.79.39s2 2.05.46 2.44c-2.46.62-6.23.55-7.88-1.24zm1.31-9.18a1.08 1.08 0 1 1-.33-2.13 13.85 13.85 0 0 1 6-.14 1.12 1.12 0 1 1-.39 2.2 11.74 11.74 0 0 0-5.28.07zm21.62 4.23a10.29 10.29 0 0 1 4.55-2c4.83-.65 7 3.61 4.12 7.06a10.19 10.19 0 0 1-6.19 3c-2.21.3-2.32-2-.6-2.21a7.8 7.8 0 0 0 4.79-2.07c1.67-1.88 1.28-4.07-1.84-3.82a7 7 0 0 0-4 2.12c-.41.44-.53 1.1-1.31 1.31-1 .28-1.8-.71-1.63-1.88s.5-3.66.85-5.91a9.3 9.3 0 0 1-2.16-.07c-1.71-.28-1.52-2.6.32-2.19a5.87 5.87 0 0 0 2.18 0c.23-1.48.46-2.74.62-3.45a1.14 1.14 0 1 1 2.16.61c-.16.53-.32 1.29-.51 2.14a9 9 0 0 0 1.22-.74c1.59-1.13 3 1.17.9 2.16a25.66 25.66 0 0 1-2.6 1.08c-.37 2.04-.71 4.06-.87 4.86zm20.35 6.58c-1.84-4.53 0-11.34.4-14.07a1.12 1.12 0 1 1 2.23.14c-.37 1.86-1.75 7.26-1.2 9.4.07.3.16.23.25 0s.3-.57.39-.73a.92.92 0 0 1 1.61.9 11.29 11.29 0 0 0-1.35 3.28c-.14.63.13 1.34-.44 1.84s-1.43.37-1.89-.76zm6.17-1.63a1.14 1.14 0 0 1 1.63-1.59c1.24 1.13 4 .76 5.79.39s2 2.05.46 2.44c-2.46.62-6.23.55-7.88-1.24zm1.31-9.18a1.08 1.08 0 1 1-.32-2.13 13.8 13.8 0 0 1 6-.14 1.12 1.12 0 1 1-.39 2.2 11.74 11.74 0 0 0-5.29.07zm17.06 12.44a8.84 8.84 0 0 0-2.82-2.41 1 1 0 0 1-.62-.92 1 1 0 0 1 1.08-1c.8 0 4.48 2 4.48 3.58a1.27 1.27 0 0 1-1.24 1.27 1.05 1.05 0 0 1-.88-.52zM142 18.24a1.25 1.25 0 1 1-2.48.09c.16-3.72.23-12.73.14-16a1.2 1.2 0 0 1 2.39 0c0 1.12-.05 3.12-.07 5.38a2.61 2.61 0 0 1 .39 0c1.29.21 4.28.94 5.52 2s-.11 3-1.42 2A14 14 0 0 0 142 9.9v8.34zm3.34-13.5c-1.22-.43-.37-1.9.76-1.56a7.73 7.73 0 0 1 2.41 1.29c1 .94-.32 2.44-1.15 1.56a9 9 0 0 0-1.99-1.29zm2-2.13c-1.25-.4-.44-1.89.69-1.59a8 8 0 0 1 2.46 1.19c1 .9-.26 2.47-1.11 1.61a8.33 8.33 0 0 0-1.96-1.21zm21.47 7.72c1.86-.53 3.72-1.06 5.13-1.42 1.79-.46 2.09 1.74.66 2.07s-3.19.8-5.15 1.38c.74 2.32 1.4 4.48 1.84 5.84a1.28 1.28 0 0 1-.76 1.67 1.06 1.06 0 0 1-1.45-.82c-.36-1.43-1-3.68-1.74-6.07-2.05.62-4.05 1.24-5.45 1.72s-2.21-1.63-.49-2.16c1.34-.41 3.27-1 5.31-1.61-.25-.81-.5-1.61-.73-2.37-1.43.39-2.83.78-4 1.06-1.65.39-2.09-1.7-.57-2 1.26-.27 2.62-.62 4-1-.46-1.47-.9-2.73-1.17-3.58-.53-1.57 1.81-1.93 2.18-.67.23.83.64 2.14 1.1 3.66 1.31-.37 2.56-.79 3.64-1.13a1.07 1.07 0 1 1 .57 2.05c-1 .32-2.28.71-3.59 1.08zm22.68 7.91a1.25 1.25 0 1 1-2.49.09c.16-3.72.23-12.73.14-16a1.2 1.2 0 0 1 2.39 0c0 1.12 0 3.12-.07 5.38a2.61 2.61 0 0 1 .39 0c1.29.21 4.28.94 5.52 2s-.11 3-1.42 2a14 14 0 0 0-4.49-1.86c-.02 3.22-.02 6.53.03 8.39zm3.33-13.5c-1.22-.43-.37-1.9.76-1.56A7.73 7.73 0 0 1 198 4.47c1 .94-.32 2.44-1.15 1.56a9 9 0 0 0-2.03-1.29zm2.05-2.13c-1.25-.4-.44-1.89.69-1.59A8 8 0 0 1 200 2.21c1 .9-.26 2.47-1.11 1.61a8.33 8.33 0 0 0-2.02-1.21zm21.39 7.72c1.86-.53 3.72-1.06 5.13-1.42 1.79-.46 2.09 1.74.66 2.07s-3.19.8-5.15 1.38c.74 2.32 1.4 4.48 1.84 5.84a1.28 1.28 0 0 1-.76 1.67 1.06 1.06 0 0 1-1.45-.82c-.36-1.43-1-3.68-1.74-6.07-2 .62-4 1.24-5.45 1.72s-2.21-1.63-.49-2.16c1.34-.41 3.27-1 5.31-1.61-.25-.81-.5-1.61-.73-2.37-1.43.39-2.83.78-4 1.06-1.65.39-2.09-1.7-.57-2 1.26-.27 2.62-.62 4-1-.46-1.47-.9-2.73-1.17-3.58-.53-1.57 1.81-1.93 2.18-.67.23.83.64 2.14 1.1 3.66 1.31-.37 2.56-.79 3.64-1.13a1.07 1.07 0 1 1 .57 2.05c-1 .32-2.27.71-3.59 1.08zM241.88 3a6.42 6.42 0 0 0 1-.41c1.27-.76 2.51 1.15.81 2a13.1 13.1 0 0 1-2.53.76A24.2 24.2 0 0 1 240 7.64a3.36 3.36 0 0 1 3.86 2c.94-.48 1.91-1 2.8-1.35a16.09 16.09 0 0 0 1.8-.86 1.23 1.23 0 1 1 1.29 2.07c-.74.37-1.27.49-2.49.95-1 .37-2 .83-2.92 1.26a19.18 19.18 0 0 1 0 2.53 1.38 1.38 0 0 1-1.22 1.43c-.58 0-1.11-.42-1-1.31v-1.5l-.6.35c-2.85 1.84-2.5 3.22-1.22 3.86s3.48.16 4.56-.18c2-.63 2.66 1.86.55 2.41-1.36.35-4.49.69-6.28-.32-3.1-1.75-2.55-4.85 1.61-7.59.32-.21.69-.46 1.13-.71-.62-1.93-2.39-1.7-3.89 0l-.09.09a6 6 0 0 1-.53.6c-1.26 1.13-2.94-.18-1.56-1.43a11.64 11.64 0 0 0 1.86-2.16 18.79 18.79 0 0 0 1.08-2A4.64 4.64 0 0 1 236 5.5c-1.66-.82-.53-3 1.08-1.91a3.51 3.51 0 0 0 2.16.05c.09 0 .23 0 .35-.05a9.83 9.83 0 0 0 .25-1.93c.09-1.38 2.25-1.24 2.3-.11a4.24 4.24 0 0 1-.19 1.33zm22.84 12.18c.14 3.29 3.72 3.15 4.92.6.8-1.72.16-3.24-1.13-4.64s.78-2.53 1.8-1.36c1.79 2.07 2.43 4.25 1.56 6.58-1.66 4.37-9 5.13-9.18-1a20.28 20.28 0 0 1 0-2A12.07 12.07 0 0 1 261 13c-1.87-.5-1.15-2.69.16-2.25a7.72 7.72 0 0 0 1.77.34c.09-1 .2-2 .32-3a10.39 10.39 0 0 1-1.91-.4c-1.75-.59-.73-2.71.48-2.2a6.86 6.86 0 0 0 1.66.43c0-.27.07-.57.09-.85.14-1.45.19-2.32.25-3.4.12-1.61 2.3-1.24 2.3.11a29.14 29.14 0 0 1-.39 3.32c0 .27-.07.55-.09.82a5 5 0 0 0 .58-.11 1.08 1.08 0 1 1 .52 2.09 6.4 6.4 0 0 1-1.4.23c-.14 1-.25 2-.34 3a7.15 7.15 0 0 0 1.1-.21 1.1 1.1 0 1 1 .74 2.07 7.92 7.92 0 0 1-2.05.37 14.6 14.6 0 0 0-.07 1.82zm24.1 3.82c-1.81.3-2-1.91-.41-2.14a9.07 9.07 0 0 0 4.83-1.93c1.38-1.22 1.45-2.48.76-3.26-1-1.13-2.81-1.11-4.3-.67a37.73 37.73 0 0 0-4.7 2.14 1.14 1.14 0 1 1-1-2 43.52 43.52 0 0 1 5.29-2c1.93-.49 4.58-.51 6.19 1.17 1.93 2 1.15 4.55-1 6.3a11.45 11.45 0 0 1-5.66 2.39zm19.64-14.9c-1.19-1.47 1.06-2.71 2-1.4a23 23 0 0 1 2.69 5.36 40.29 40.29 0 0 1 4.05-2.53c1.56-.88 2.76 1.33 1 2.23a34 34 0 0 0-6.53 4.07c-2.28 1.93-2.35 3.65-.55 4.53 1.6.8 4.89.2 6.27-.3 1.93-.74 2.63 1.91.58 2.48-1.82.51-5.66 1-7.94-.18-3.31-1.68-3.17-5.41.56-8.37.23-.19.43-.37.66-.53a18.45 18.45 0 0 0-2.79-5.36zM330 20.22a2.62 2.62 0 1 1 2.62-2.62 2.62 2.62 0 0 1-2.62 2.62zm0-4.35a1.73 1.73 0 0 0-1.75 1.73 1.75 1.75 0 1 0 1.75-1.73zM9.66 45v17a.58.58 0 0 0 1 .42l6.91-6.73a.59.59 0 0 1 .4-.16h8.8a.58.58 0 0 1 .4 1l-9.37 8.64a.58.58 0 0 0 0 .83l10.14 10.3a.58.58 0 0 1-.41 1h-9.17a.6.6 0 0 1-.42-.18l-7.27-7.64a.59.59 0 0 0-1 .4v6.84a.58.58 0 0 1-.58.58H2.57a.58.58 0 0 1-.57-.54V45a.58.58 0 0 1 .59-.58h6.49a.58.58 0 0 1 .58.58zm84.64.32v16a.87.87 0 0 0 1.48.63l6.33-6.17a.92.92 0 0 1 .61-.24h7.94a.87.87 0 0 1 .59 1.51l-8.6 7.95a.88.88 0 0 0 0 1.26l9.45 9.58a.88.88 0 0 1-.62 1.49h-8.33a.89.89 0 0 1-.63-.27l-6.68-7a.88.88 0 0 0-1.51.61v5.82a.87.87 0 0 1-.87.87H87.5a.87.87 0 0 1-.88-.87V45.32a.87.87 0 0 1 .88-.87h5.93a.87.87 0 0 1 .87.87zm76.23-.87h5.94a.87.87 0 0 1 .87.87v10.87a.87.87 0 0 0 1.43.66 6.59 6.59 0 0 1 1.76-1.09 9.88 9.88 0 0 1 3.77-.66q4.13 0 6.22 2.27a8.67 8.67 0 0 1 2.1 6.13v13a.87.87 0 0 1-.87.87h-5.94a.87.87 0 0 1-.87-.87V66.35a12 12 0 0 0-.25-2.68 3.16 3.16 0 0 0-.85-1.57 3.63 3.63 0 0 0-2.46-.89 3.81 3.81 0 0 0-3 1.17 4.87 4.87 0 0 0-1 3.33v10.76a.87.87 0 0 1-.87.87h-5.94a.87.87 0 0 1-.87-.87V45.32a.87.87 0 0 1 .83-.87zm89.15.87v16a.87.87 0 0 0 1.48.63l6.33-6.17a.92.92 0 0 1 .61-.24h7.9a.87.87 0 0 1 .59 1.51L268 65a.88.88 0 0 0 0 1.26l9.45 9.58a.88.88 0 0 1-.62 1.49h-8.33a.89.89 0 0 1-.63-.27l-6.68-7a.88.88 0 0 0-1.51.61v5.82a.87.87 0 0 1-.87.87h-5.94a.87.87 0 0 1-.87-.87V45.32a.87.87 0 0 1 .87-.87h5.94a.87.87 0 0 1 .87.87zM72.28 54.7a16.5 16.5 0 0 0-3.67-5.37A16.92 16.92 0 0 0 63 45.74a20.4 20.4 0 0 0-14.28 0 16.84 16.84 0 0 0-5.58 27.61 16.56 16.56 0 0 0 5.58 3.58 20.26 20.26 0 0 0 14.28 0 16.74 16.74 0 0 0 5.62-3.58A16.5 16.5 0 0 0 72.28 68a17.36 17.36 0 0 0 0-13.28zm-8.1 10.16a8.58 8.58 0 0 1-2 2.8 9.37 9.37 0 0 1-9.8 1.85 8.86 8.86 0 0 1-2.86-1.85 9 9 0 0 1-2-2.8 9 9 0 0 1 0-7 9 9 0 0 1 2-2.8 8.7 8.7 0 0 1 2.86-1.85 9.4 9.4 0 0 1 6.92 0A8.89 8.89 0 0 1 62.2 55a8.82 8.82 0 0 1 2 9.84zM235 49.33a17 17 0 0 0-5.62-3.59 20.4 20.4 0 0 0-14.28 0 16.64 16.64 0 0 0-5.58 3.59 16.45 16.45 0 0 0-3.65 5.37 16.64 16.64 0 0 0-1.32 6.64.87.87 0 0 0 .87.87h7a.87.87 0 0 0 .87-.87 8.52 8.52 0 0 1 .72-3.52 8.81 8.81 0 0 1 4.82-4.65 9.4 9.4 0 0 1 6.92 0 9 9 0 0 1 2.86 1.83 8.65 8.65 0 0 1 2.7 6.32.87.87 0 0 0 .87.87h6.95a.86.86 0 0 0 .87-.87 16.51 16.51 0 0 0-5-12zm-85.69 12.01a8.52 8.52 0 0 1-.72 3.52 8.71 8.71 0 0 1-2 2.8 9.37 9.37 0 0 1-9.8 1.85 8.91 8.91 0 0 1-2.79-1.85 8.81 8.81 0 0 1-1.95-2.8 8.52 8.52 0 0 1-.72-3.52.87.87 0 0 0-.87-.87h-7a.87.87 0 0 0-.87.87A16.68 16.68 0 0 0 123.9 68a16.38 16.38 0 0 0 9.23 9 20.26 20.26 0 0 0 14.28 0 16.84 16.84 0 0 0 5.59-3.65 16.5 16.5 0 0 0 3.7-5.35 16.85 16.85 0 0 0 1.3-6.66.87.87 0 0 0-.87-.87h-6.95a.87.87 0 0 0-.88.87zm166.82 9.14a.87.87 0 0 0-.87.87 8.49 8.49 0 0 1-.72 3.52 8.86 8.86 0 0 1-2 2.81 9.23 9.23 0 0 1-6.35 2.5 9.09 9.09 0 0 1-3.45-.66 8.72 8.72 0 0 1-4.74-4.65 8.49 8.49 0 0 1-.72-3.52.87.87 0 0 0-.87-.87h-7a.87.87 0 0 0-.87.87A16.49 16.49 0 0 0 299.07 87a20.4 20.4 0 0 0 14.28 0 17 17 0 0 0 5.65-3.64 16.4 16.4 0 0 0 3.65-5.36 16.81 16.81 0 0 0 1.35-6.65.87.87 0 0 0-.87-.87z"/></svg>