<svg xmlns="http://www.w3.org/2000/svg" viewBox="0 0 500 364.64"><path d="M456.81 349.34H43.19a27.88 27.88 0 0 1-27.88-27.88V43.19a27.88 27.88 0 0 1 27.88-27.88h413.62a27.88 27.88 0 0 1 27.88 27.88v278.27a27.88 27.88 0 0 1-27.88 27.88z" fill="#f7f4ef"/><path d="M456.81 0H43.19A43.23 43.23 0 0 0 0 43.19v278.27a43.23 43.23 0 0 0 43.19 43.18h413.62A43.23 43.23 0 0 0 500 321.46V43.19A43.23 43.23 0 0 0 456.81 0zM256.34 211.58a9.27 9.27 0 0 1-12.68 0L51.5 30.62h397zm-88.42-29.27l-137.3 129.3V53zm22.33 21l32.42 30.53a39.93 39.93 0 0 0 54.66 0l32.42-30.53L448.53 334H51.47zm141.83-21L469.38 53v258.6z"/></svg>