<svg xmlns="http://www.w3.org/2000/svg" viewBox="0 0 324.01 51.18"><g data-name="レイヤー 2"><path d="M4.35 9.91c.27-.4.32-.48-.08-.35a16.35 16.35 0 0 0-2 .87 1.9 1.9 0 0 1-1.67.21 1 1 0 0 1 .18-1.81A8.22 8.22 0 0 0 3 8.12C4.56 6.75 6.28 3.77 7.42 2a1.05 1.05 0 1 1 1.8 1.07 36.49 36.49 0 0 1-3.89 4.58c-.22.19 0 .11.13.07a5.6 5.6 0 0 1 .63-.21 18.08 18.08 0 0 1 4.26-.78 1 1 0 0 1 1 1.39c-.17.37-.65.66-1.6.54a9.56 9.56 0 0 0-2.23.19 2.24 2.24 0 0 0-1.72 1.31 2.8 2.8 0 0 0 2.71 4.46c1.84-.11 1.84 2.4-.27 2.19-4.37-.44-5.52-4.51-3.89-6.9zm-1.57-5a3.37 3.37 0 0 0-1.19-1.4c-.94-.58.17-1.94 1.23-1.25a4.07 4.07 0 0 1 1.68 1.8A1 1 0 0 1 4 5.31a.86.86 0 0 1-1.22-.39zm21.38 8.27c0-.88.13-1.41.09-2.27-.09-2.13-3-.33-3.54.63a9.94 9.94 0 0 0-1.21 2.6c-.35 1.48-.77 1.57-1.15 1.63a1 1 0 0 1-1.13-1.47 32.75 32.75 0 0 1 3.07-5.81c1.11-1.73 2.1-3.35 3-4.85.33-.54.85-1.21 1.06-1.59a1 1 0 0 1 1.78 1 4.87 4.87 0 0 1-.44.67c-.16.2-.35.41-.56.66a27 27 0 0 0-2 2.55c-.5.71-.88 1.32-1.3 2-.14.19-.08.16.06 0 .69-.61 4-1.52 4.27 1.72.06.75-.1 1.4-.1 2.11 0 1.71 1.65 1.5 2.78.48a6.53 6.53 0 0 0 1.75-2.68c.55-1.42 2.57-.44 1.84 1a9.39 9.39 0 0 1-2.43 3.2c-2 1.63-5.88 2.05-5.84-1.58zm15.31-7.93A.88.88 0 1 1 40 3.6a5.19 5.19 0 0 0 2.62-.05A12.12 12.12 0 0 0 43 1.61a.92.92 0 0 1 1.82.17A6.88 6.88 0 0 1 44.59 3a4.29 4.29 0 0 0 .61-.33c.87-.61 2.07.58.85 1.46A7.26 7.26 0 0 1 44 5a48.71 48.71 0 0 1-3.44 6.46c-.7 1.15-2.54.4-1.7-.84A37.87 37.87 0 0 0 42 5.35a5.28 5.28 0 0 1-2.53-.1zM42.77 16c-1.78-.9-2-3 0-3.85a6.25 6.25 0 0 1 3.68-.37v-.67c0-.48 0-1-.06-1.43a5.53 5.53 0 0 1 .1-1.29.88.88 0 0 1 1.72.35 3.75 3.75 0 0 0-.11.9v1.47c0 .37 0 .77.07 1.19a6.87 6.87 0 0 1 2.34 1.54c1.09 1.2-.46 2.56-1.38 1.45a5.92 5.92 0 0 0-1.09-1A3.83 3.83 0 0 1 42.77 16zm.61-2.51a.58.58 0 0 0 0 1.11c1.15.58 2.7 0 2.91-1v-.2a3.87 3.87 0 0 0-2.91.13zm4.28-7.07c-1.06.06-1.13-1.54.09-1.65a6.07 6.07 0 0 1 3.53.67c1.3.79.31 2.38-.64 1.78a4.89 4.89 0 0 0-2.98-.76zM58.2 8.76a.85.85 0 1 1 0-1.69h6.29V4.73H61.4c-1 1.84-1.59 2.15-2.13 2.15a.92.92 0 0 1-1-.81 1 1 0 0 1 .34-.67 10 10 0 0 0 2.45-4.25.67.67 0 0 1 .69-.46c.52 0 1.12.38 1.12.88a7.36 7.36 0 0 1-.58 1.48h2.17V.9a.86.86 0 0 1 1-.84.9.9 0 0 1 1 .84v2.15h4.47a.84.84 0 1 1 0 1.68h-4.55v2.34h6.31a.85.85 0 1 1 0 1.69zm10.64 7.82c-1.12 0-2.3.06-3.45.06s-2.3 0-3.38-.06c-1.4-.06-2.12-.81-2.18-1.86v-2.45c0-.87.61-1.77 2.15-1.81h7a2 2 0 0 1 2 1.65v2.59a2.05 2.05 0 0 1-2.14 1.88zm.26-3c0-1.15 0-1.5-.9-1.51h-5.67c-.9 0-.88.61-.88 1.41 0 1 0 1.44.9 1.48s1.8 0 2.8 0h2.89c.89 0 .86-.64.86-1.41zM89.58 2.93A2.38 2.38 0 0 1 92 5.1v8.97a2.41 2.41 0 0 1-2.48 2.3c-1.24 0-2.62.05-3.94.05-1.17 0-2.32 0-3.3-.05-1.73-.08-2.59-.87-2.65-2.25V4.96c0-1.25 1-2 2.5-2l1.8-.06a13.8 13.8 0 0 0 .42-2.12.9.9 0 0 1 1-.78c.55 0 1.15.33 1.15.86a10.07 10.07 0 0 1-.58 2c1.36 0 2.68.03 3.66.07zm.6 5.41V5.79c-.06-1.33-.35-1.33-4.31-1.33s-4.3 0-4.36 1.33v2.55zM81.42 10v3.42c0 1.26.45 1.32 4.34 1.32 3.62 0 4.27 0 4.33-1.38V10zm25.29-4.15a15.14 15.14 0 0 1-3.87 7.76c-1.48 1.36-3.09.61-3.93-1-1.21-2.37.08-5.94 2.64-7.72a8 8 0 0 1 8.28-.44 5.67 5.67 0 0 1 1.79 8.05 8.07 8.07 0 0 1-4.68 3.16c-1.69.44-2.28-1.5-.63-1.88a5.9 5.9 0 0 0 3.56-2.15 4.14 4.14 0 0 0-1.05-5.86 5 5 0 0 0-2.38-.77 1 1 0 0 1 .27.85zm-4.25.36c-1.79 1.38-2.74 3.93-1.94 5.4.29.56.79.85 1.26.43a11.6 11.6 0 0 0 3-6.39 1.28 1.28 0 0 1 .17-.59 6.22 6.22 0 0 0-2.49 1.15zm20.04 9.27a1 1 0 1 1-2.07.08c.14-3.1.19-10.62.12-13.38a1 1 0 0 1 2 0c0 .94 0 2.61-.06 4.49a1.94 1.94 0 0 1 .33 0 11.74 11.74 0 0 1 4.6 1.67c1 .84-.1 2.51-1.19 1.7a11.85 11.85 0 0 0-3.74-1.55c-.03 2.68-.03 5.44.01 6.99zm2.78-11.25c-1-.36-.31-1.59.63-1.3a6.05 6.05 0 0 1 2 1.08c.81.78-.26 2-1 1.3a7.5 7.5 0 0 0-1.63-1.08zM127 2.45c-1-.32-.37-1.57.57-1.32a6.49 6.49 0 0 1 2.05 1c.84.74-.21 2.05-.92 1.34a7.11 7.11 0 0 0-1.7-1.02zm15.28 6.44c1.55-.44 3.1-.88 4.27-1.19 1.49-.38 1.74 1.46.55 1.73s-2.66.67-4.29 1.15c.61 1.93 1.17 3.74 1.54 4.87a1.08 1.08 0 0 1-.64 1.39.87.87 0 0 1-1.2-.68c-.31-1.19-.85-3.07-1.46-5.06-1.71.51-3.38 1-4.54 1.43s-1.84-1.36-.41-1.8c1.12-.34 2.73-.84 4.43-1.34-.21-.67-.42-1.34-.61-2-1.19.32-2.36.65-3.36.88-1.38.32-1.74-1.42-.47-1.71 1-.23 2.18-.52 3.31-.82-.38-1.23-.75-2.28-1-3-.44-1.3 1.52-1.61 1.82-.56.2.69.54 1.79.92 3 1.1-.31 2.13-.65 3-.94a.89.89 0 1 1 .53 1.76c-.86.26-1.9.59-3 .9zm15.64 6.59a1 1 0 1 1-2.07.08c.13-3.1.19-10.62.11-13.38a1 1 0 0 1 2 0v4.49a1.83 1.83 0 0 1 .32 0 11.63 11.63 0 0 1 4.6 1.67c1 .84-.09 2.51-1.19 1.7a11.89 11.89 0 0 0-3.73-1.55c-.08 2.68-.08 5.44-.04 6.99zm2.78-11.25c-1-.36-.31-1.59.63-1.3a6.25 6.25 0 0 1 2 1.08c.8.78-.27 2-1 1.3a7.43 7.43 0 0 0-1.63-1.08zm1.7-1.78c-1-.32-.36-1.57.58-1.32a6.6 6.6 0 0 1 2.05 1c.84.74-.22 2.05-.92 1.34a7.17 7.17 0 0 0-1.71-1.02zm15.29 6.44c1.55-.44 3.1-.88 4.27-1.19 1.5-.38 1.75 1.46.56 1.73s-2.66.67-4.29 1.15c.61 1.93 1.16 3.74 1.53 4.87a1.06 1.06 0 0 1-.63 1.39.88.88 0 0 1-1.21-.68c-.31-1.19-.84-3.07-1.46-5.06-1.7.51-3.37 1-4.54 1.43s-1.84-1.36-.4-1.8c1.11-.34 2.72-.84 4.43-1.34-.22-.67-.43-1.34-.62-2-1.19.32-2.35.65-3.35.88-1.38.32-1.75-1.42-.48-1.71 1.05-.23 2.18-.52 3.32-.82-.39-1.23-.75-2.28-1-3-.44-1.3 1.51-1.61 1.82-.56.19.69.53 1.79.92 3 1.09-.31 2.13-.65 3-.94a.89.89 0 1 1 .52 1.76c-.86.26-1.89.59-3 .9zm12.76 6.46c-1.53-3.77 0-9.45.33-11.73a.93.93 0 1 1 1.86.12c-.31 1.55-1.46 6-1 7.84.06.24.14.19.21 0s.25-.48.33-.61a.77.77 0 0 1 1.34.75 9.46 9.46 0 0 0-1.13 2.68c-.12.52.11 1.11-.37 1.54s-1.18.35-1.57-.59zm5.14-1.35a1 1 0 0 1 1.41-1.33c1 .94 3.34.63 4.83.32s1.65 1.71.38 2c-2.1.55-5.21.49-6.62-.99zm1.09-7.65a.9.9 0 1 1-.27-1.78 11.52 11.52 0 0 1 5-.11.93.93 0 1 1-.32 1.83 9.87 9.87 0 0 0-4.41.05zm16.79 6.59c.12 2.74 3.11 2.62 4.11.49.67-1.43.13-2.7-.94-3.87s.65-2.11 1.49-1.13c1.5 1.73 2 3.55 1.31 5.48-1.39 3.64-7.5 4.28-7.65-.84a16.44 16.44 0 0 1 0-1.71 9.22 9.22 0 0 1-1.48-.23c-1.55-.42-1-2.24.14-1.87a6.5 6.5 0 0 0 1.47.28c.08-.84.17-1.68.27-2.55a8.84 8.84 0 0 1-1.59-.32c-1.46-.5-.61-2.26.4-1.84a5.19 5.19 0 0 0 1.38.36c0-.23.06-.48.08-.71.11-1.2.15-1.93.21-2.83a1 1 0 0 1 1.92.09 25.22 25.22 0 0 1-.33 2.76c0 .23-.06.46-.08.69a3.16 3.16 0 0 0 .48-.09.9.9 0 1 1 .44 1.74A5.61 5.61 0 0 1 214 7c-.11.87-.21 1.69-.28 2.49a5.35 5.35 0 0 0 .92-.17.92.92 0 1 1 .61 1.73 7.1 7.1 0 0 1-1.71.3c-.08.59-.08 1.11-.07 1.59zM227.49 16l.23-9.39c-1.28 1.47-1.59 1.61-2 1.61a.88.88 0 0 1-.91-.84.9.9 0 0 1 .31-.66 17.42 17.42 0 0 0 4.27-5.9.82.82 0 0 1 .77-.5 1.05 1.05 0 0 1 1.06 1c0 .16 0 .48-1.71 2.93l-.2 11.75a.89.89 0 0 1-.94.84.8.8 0 0 1-.88-.82zm4.31-14a.8.8 0 0 1 .88-.76.83.83 0 0 1 .9.78l.08 8.93c.81-.42 1.53-.82 2.09-1.18a.7.7 0 0 1 .42-.14.78.78 0 0 1 .75.77.79.79 0 0 1-.4.67c-.81.54-5.08 3.05-5.83 3.05a.84.84 0 0 1-.84-.85.86.86 0 0 1 .59-.78l1.48-.67zm1.2 14.65a.9.9 0 0 1-1-.84.88.88 0 0 1 .63-.82c5.16-2.13 6-6.52 6-11.44V1.9a.9.9 0 0 1 1-.9.91.91 0 0 1 1 .88v1.13a19.8 19.8 0 0 1-1.52 8.37c.79.33 3.38 2.88 3.38 3.92a1.21 1.21 0 0 1-1.13 1.13.87.87 0 0 1-.81-.6 9.36 9.36 0 0 0-2.18-3.1 8.78 8.78 0 0 1-5.37 3.92zm3.41-9.87a7.41 7.41 0 0 0-1.9-1.68.72.72 0 0 1-.4-.62.84.84 0 0 1 .86-.76c.44 0 3 1.45 3 2.43a1 1 0 0 1-.94 1 .74.74 0 0 1-.61-.37zM250 15.33c-.58 1.29-2.61.73-1.8-.9a60.18 60.18 0 0 0 3.35-8.32 5.61 5.61 0 0 1-2.8-.26c-1-.43-.78-2.17.66-1.65a5.21 5.21 0 0 0 2.64.11 8.48 8.48 0 0 0 0-2.07c-.08-1.09 1.73-1.15 1.92-.09a6.47 6.47 0 0 1 0 1.53c.27-.13.49-.27.72-.4a.91.91 0 1 1 .75 1.64 11.75 11.75 0 0 1-1.93.77 75.57 75.57 0 0 1-3.51 9.64zm4.66-.86c-.83-.92.36-2.43 1.36-1.42s2.14.9 4.39.71a1 1 0 1 1 .24 2c-2.75.53-5.13-.35-5.97-1.29zm2.16-6.69c-1 .36-1.59-1.21-.32-1.65a7.16 7.16 0 0 1 4.6.1c1.28.46.76 2.15-.45 1.74a6.79 6.79 0 0 0-3.81-.19zM281.79 14v2.24a.76.76 0 1 1-1.52 0V14h-2.78a.72.72 0 0 1 0-1.44h.56v-2.38a.84.84 0 0 1-.37-.25v.11c-.92 4.28-4.12 6.88-5.05 6.88a.9.9 0 0 1-.82-.86.64.64 0 0 1 .44-.59 6.72 6.72 0 0 0 2.86-2.74 3.73 3.73 0 0 0-.48-.33.62.62 0 0 1-.31-.52.85.85 0 0 1 .77-.8 1.34 1.34 0 0 1 .67.32 5.37 5.37 0 0 0 .4-1.44c0-.24-.15-.34-.38-.34h-.54a11.1 11.1 0 0 1-1.51 2.64.59.59 0 0 1-.48.25.89.89 0 0 1-.6-.26v.44c0 1.61-1.32 1.82-2.58 1.82h-.94a1.69 1.69 0 0 1-1.52-1.8V2.86a1.6 1.6 0 0 1 1.63-1.7h1.75a1.64 1.64 0 0 1 1.66 1.63v8.49a9 9 0 0 0 1.48-2.84.75.75 0 0 1-.21 0 .74.74 0 0 1-.81-.71V7c0-.61 0-1.74 1.79-1.86a.33.33 0 0 1-.1-.15 2.78 2.78 0 0 0-.67-1 .62.62 0 0 1-.13-.39c0-.38.44-.69.86-.69.69 0 1.4 1.31 1.4 1.65a.86.86 0 0 1-.27.58h1.78a.63.63 0 0 1-.32-.44 3.25 3.25 0 0 0-.45-1.17.49.49 0 0 1-.08-.27c0-.35.42-.6.82-.6.81 0 1.23 1.46 1.23 1.73a.82.82 0 0 1-.55.75h1.22a11.69 11.69 0 0 0 1.13-2.36.63.63 0 0 1 .65-.4c.46 0 1 .3 1 .72a7.94 7.94 0 0 1-1.05 2.05h.48c1.91 0 2 1.25 2 2s0 1.24-.92 1.24c-.42 0-.84-.23-.84-.67v-.63c0-.59-.33-.63-1-.63h-3.26c-2.87 0-3 .06-3 .67v.12a.55.55 0 0 1 .26-.06.76.76 0 0 1 .81.71 3.88 3.88 0 0 1-.14.55h.58a1.34 1.34 0 0 1 1.4.81.69.69 0 0 1 .69-.39h1.93v-.78a.76.76 0 0 1 1.52 0v.71h1a.68.68 0 0 1 .72.71.69.69 0 0 1-.72.7h-1v2.34h1.4a.72.72 0 0 1 0 1.44zm-10.73-7.39h-1.84v2.13h1.86zm0-1.51V3.22c0-.36-.22-.56-.89-.56-.23 0-.9 0-.9.58V5.1zm-1.82 5.15v2.11c0 .65.27.56.94.56.85 0 .85-.35.85-.58v-2.09zm5.69-7.66c-.62 0-1.33 0-1.33-.83a.76.76 0 0 1 .81-.78h1.42a28.18 28.18 0 0 0 5.57-.52.68.68 0 0 1 .2 0 .87.87 0 0 1 .86.84c0 .33-.21.64-.73.75a37.5 37.5 0 0 1-6.82.54zm5.36 7.62h-.82v2.34h.82zm9.87 6.79a.84.84 0 0 1-.92-.79c.13-3.5.09-9.56.13-13.72 0-1.88 1.32-1.88 3.28-1.88h1.86a1.67 1.67 0 0 1 1.74 1.52v2c0 2.41 0 2.89-3.81 2.89h-1.33v1.72c0 2.07 0 4.75-.07 7.45a.84.84 0 0 1-.88.81zm4.44-13.8v-.59c0-.54-.14-.6-1.67-.6s-1.71.06-1.75.75v.44zm-3.45 1.26v1.17h1.42c1.86 0 2-.07 2-.61v-.58zm7.44 10.43c-.52 0-1.09.06-1.65.06s-1.15 0-1.67-.06a1.85 1.85 0 0 1-1.89-1.78v-.92c0-.86 0-1.86.07-2.63a1.77 1.77 0 0 1 1.81-1.7h3.37a1.78 1.78 0 0 1 1.74 1.57c.06.67.08 1.51.08 2.3v1.36a1.89 1.89 0 0 1-1.86 1.8zm-3.74-3c0 1.49 0 1.51 2 1.51 1.42 0 2 0 2-.76v-.75zm4-1.36v-.6c0-.7-.4-.76-1.71-.76h-1.45a.74.74 0 0 0-.75.76v.58zM301.53 7c-2.26 0-3.85 0-3.91-1.68V2.11a1.63 1.63 0 0 1 1.74-1.5h3.33c1.42.08 2 .85 2 1.71v12.09c0 1.36-.67 2.55-2.85 2.55-1.35 0-2-.17-2-1a.77.77 0 0 1 .75-.85h.16a6.42 6.42 0 0 0 1 .12c.63 0 1.11-.23 1.13-1.17V7c-.28 0-.78.05-1.34.05zm1.37-3.8c0-1.17 0-1.19-1.8-1.19-1.53 0-1.74 0-1.78.61v.58zm0 1.26h-3.6v.58c0 .54.08.61 2.11.61h1.51zm13.95-1.7a7 7 0 0 0 .8-.35c1.06-.63 2.09 1 .67 1.67a10.56 10.56 0 0 1-2.11.63 17.86 17.86 0 0 1-.92 1.94 2.79 2.79 0 0 1 3.22 1.67c.79-.41 1.59-.81 2.34-1.13.46-.2 1-.43 1.5-.71a1 1 0 1 1 1.07 1.72c-.61.31-1.05.4-2.07.79-.8.3-1.67.69-2.43 1a16.35 16.35 0 0 1 0 2.11 1.12 1.12 0 0 1-1 1.19c-.48 0-.92-.35-.86-1.09v-1.25c-.17.1-.34.19-.49.29-2.38 1.53-2.09 2.68-1 3.22s2.89.13 3.8-.16c1.68-.51 2.22 1.56.46 2-1.14.28-3.74.57-5.24-.27-2.59-1.39-2.09-3.98 1.41-6.26.27-.17.58-.38.94-.59-.51-1.61-2-1.42-3.23 0l-.08.08a3.86 3.86 0 0 1-.44.49c-1.06.94-2.46-.15-1.31-1.18a9.88 9.88 0 0 0 1.56-1.81 17.08 17.08 0 0 0 .9-1.7 4 4 0 0 1-2.38-.21c-1.38-.69-.44-2.49.9-1.59a2.91 2.91 0 0 0 1.8 0h.29a8.49 8.49 0 0 0 .21-1.61c.08-1.15 1.88-1 1.92-.1a3.47 3.47 0 0 1-.16 1.11zM71.32 50.34a.82.82 0 0 1-.9-.82.89.89 0 0 1 .9-.92h6.53v-3.43h-3.6a.82.82 0 0 1-.9-.82.87.87 0 0 1 .9-.88h3.6v-2.9h-3.41a22.87 22.87 0 0 1-2.12 3.12 1.08 1.08 0 0 1-.85.44.89.89 0 0 1-.92-.86 1 1 0 0 1 .25-.62 17 17 0 0 0 3.41-6.26.88.88 0 0 1 .89-.65 1 1 0 0 1 1.07.88.74.74 0 0 1-.06.28 49 49 0 0 1-.8 2h2.54v-3.41a1 1 0 1 1 2 0v3.41h5.17a.86.86 0 1 1 0 1.71h-5.17v2.89h3.87a.85.85 0 1 1 0 1.7h-3.89v3.45h6.4a.83.83 0 0 1 .86.88.81.81 0 0 1-.86.86zm27.76-7.69a14.39 14.39 0 0 1 4.15.85 3.09 3.09 0 0 0-.26-2c-.54-.9 1.18-1.63 1.82-.44a4.66 4.66 0 0 1 .19 3.18 14.84 14.84 0 0 1 2.64 1.63c1.21.94-.09 2.7-1.18 1.7a14.15 14.15 0 0 0-2.09-1.57 9.4 9.4 0 0 1-3.64 3.89c-1.35.79-2.31-.71-1.06-1.48a8.21 8.21 0 0 0 3-3.24 12.06 12.06 0 0 0-4.47-1 9 9 0 0 1-2.45 3.5c-1.15.91-2.84 1-3.66 0-1-1.22-.27-3.22 1.93-4.19a11.13 11.13 0 0 1 3.15-.83c.67-1.43 1.55-3.18 2.09-4.39.11-.26.17-.42-.12-.34a10.19 10.19 0 0 1-2.26.46.91.91 0 0 1-.06-1.82 26.22 26.22 0 0 0 2.76-.48c1.75-.35 2.51.78 1.65 2.18s-1.57 2.9-2.26 4.33zM94.57 45c-.5.24-1.4 1-1.07 1.53.23.32.92.21 1.26-.06a6.5 6.5 0 0 0 1.59-2 6.15 6.15 0 0 0-1.78.53zm25.18-2.5c-1.07 0-2.13 0-3-.06a2.23 2.23 0 0 1-2.48-2.44v-3.35a1 1 0 0 1 1.93 0v2.89c0 1.27.41 1.29 3.57 1.29v-5.74a.9.9 0 0 1 1-.84.91.91 0 0 1 1 .84v5.74l2.48-.06c1.2 0 1.26-.79 1.26-2.22 0-.64 0-1.29-.06-1.84a.86.86 0 0 1 .94-.85.94.94 0 0 1 1 .89V40a2.46 2.46 0 0 1-2.61 2.49c-1 0-2 .06-3 .06v6.21c1.19 0 2.34 0 3.2-.06 1.14 0 1.27-.69 1.27-2.32 0-.72 0-1.49-.06-2a.86.86 0 0 1 .94-.85.94.94 0 0 1 1 .88v3.57a2.49 2.49 0 0 1-2.61 2.53c-1.32.06-3.1.08-4.85.08s-3.45 0-4.64-.08a2.26 2.26 0 0 1-2.43-2.49v-3.66a.9.9 0 0 1 1-.9.91.91 0 0 1 1 .86v2c0 2 0 2.42 1.17 2.47.86 0 2 .06 3.14.06zm15.77 3.93c-.08-2 .13-3.64.23-5.67.05-1.25.19-3.13.15-4.31a1 1 0 0 1 2.09 0c0 1.2-.17 3-.27 4.31a53.19 53.19 0 0 0-.34 5.63c.11 2.8 3.52 2.61 6.86 0a1.07 1.07 0 1 1 1.32 1.61c-3.74 3.05-9.87 3.61-10.04-1.57zM155.23 41a7.21 7.21 0 0 1 .61-1c.31-.4.22-.38-.15-.27a25.2 25.2 0 0 0-2.41 1c-.62.23-1.15.42-1.73.58a1.09 1.09 0 1 1-.65-2.07c.4-.1 1.52-.31 2.13-.46.94-.23 2.6-.62 4.56-1.17a25.21 25.21 0 0 1 5.23-1.13 1.12 1.12 0 0 1 1.3 1.47c-.11.33-.53.71-1.87.64a8.19 8.19 0 0 0-2.86.53 5.5 5.5 0 0 0-2.45 2.24c-1.69 2.82-.41 6.85 3.89 6.69 2-.07 2.13 2.19.09 2.17-5.78-.07-7.78-5.38-5.69-9.22zm16.93 6.72a9.88 9.88 0 0 1-2.16-6.14 18.32 18.32 0 0 1-.1-2.13 1 1 0 1 1 1.95 0v1.66c.08 2 .45 3.91 1.52 4.95.5.48.75.53 1.17 0a7.67 7.67 0 0 0 .63-1.13.94.94 0 0 1 1.74.69 8.35 8.35 0 0 1-.74 1.47c-1.23 1.91-2.94 1.77-4.01.63zm10.37-3.38a6.06 6.06 0 0 0-2.13-3.72c-.92-.63.12-2 1.27-1.18a7.31 7.31 0 0 1 2.87 4.44 1 1 0 1 1-2.01.46zm16.53-1.22a5.18 5.18 0 0 1 1.25 3.5c-.2 1-1.12 1.17-2 .67a7.09 7.09 0 0 0-5.08-.32c-1 .48-.59 1.49.29 1.86a5.4 5.4 0 0 0 3.1.29c1.71-.33 1.83 1.8.1 2a7.93 7.93 0 0 1-3.79-.65c-2.27-1-2.8-3.64-.66-4.74 1.42-.72 3.78-.57 5-.42 1 .14 1.35-.15.23-1.65-.13-.19-.28-.36-.42-.57a14.1 14.1 0 0 1-4.41.52c-1.32-.1-1.49-2.05.14-1.84a9.44 9.44 0 0 0 3.3-.27c-.29-.5-.6-1.06-.91-1.65a15.11 15.11 0 0 1-3 .31c-1.25 0-1.63-1.86-.1-1.75a10.84 10.84 0 0 0 2.38-.11 10 10 0 0 0-1.38-2.32c-1.08-1.21 1-1.94 1.65-1a17 17 0 0 1 1.38 2.9 7.79 7.79 0 0 0 1.2-.52c1.27-.67 2 1 1 1.49a12.24 12.24 0 0 1-1.53.6c.25.55.52 1.09.82 1.61a9 9 0 0 0 1.44-.62c1.34-.76 2.16 1 1.09 1.54a12.13 12.13 0 0 1-1.51.63c.13.14.28.31.42.51zm13.48-3.55a17.56 17.56 0 0 1-3 .23c-1.48 0-1.55-2 .19-1.82a10.88 10.88 0 0 0 3-.13v-2.53a1 1 0 0 1 2 0c-.06.69-.1 1.45-.12 2.22l1.3-.29c1.27-.29 1.79 1.5.12 1.76-.52.08-1 .18-1.44.25v2.13c.46-.13.94-.27 1.46-.44 1.41-.46 2.14 1.3.44 1.78-.67.2-1.29.37-1.84.5 0 .65.07 1.25.13 1.8s.12 1.21.15 1.9a9 9 0 0 1 2.38 1.36c1.29 1 0 2.8-1.17 1.69a8.49 8.49 0 0 0-1.4-1 3.9 3.9 0 0 1-5.36 1.75c-1.82-.9-1.94-3.05.15-3.93a6.47 6.47 0 0 1 3.66-.33c0-.4-.06-.8-.1-1.24s-.07-1-.11-1.59a10.74 10.74 0 0 1-3.49.21 1 1 0 1 1 .4-1.84 8.28 8.28 0 0 0 3-.18c0-.72-.07-1.47-.09-2.22zm-2.48 8.55a.58.58 0 0 0-.05 1.09 2.12 2.12 0 0 0 3-1.07 4.13 4.13 0 0 0-2.95-.02zM229 45a2.64 2.64 0 0 1 1.54-3.6 3.78 3.78 0 0 1 1.65-.17c0-.42 0-1-.06-1.55-1.61.15-3.2.38-4.2.53-1.38.21-2.28.46-2.86.56a1 1 0 1 1-.15-1.94c.77-.13 2-.27 2.82-.4 1-.15 2.68-.36 4.37-.52v-.34c0-1.19-.1-1.27-.1-1.88a1 1 0 0 1 2-.06c0 .44 0 1.32-.08 1.84v.29c.55 0 1.05-.06 1.48-.06h2.91c1.61 0 1.53 2.07 0 2-1.36-.12-1.82-.12-3-.14h-1.4v1.76c0 .27 0 .67.06 1.1 1.7 2.68-.33 6.74-2.36 8.37-1.28 1-2.95-.34-1.28-1.53a6.89 6.89 0 0 0 2.18-2.82A2.45 2.45 0 0 1 229 45zm3.22-2a1.24 1.24 0 0 0-1.22-.08 1.18 1.18 0 0 0-.56 1.46 1.14 1.14 0 0 0 2.2-.33.86.86 0 0 0-.11-.72 2.42 2.42 0 0 0-.29-.33zM247 51.18a2.19 2.19 0 1 1 2.15-2.18 2.18 2.18 0 0 1-2.15 2.18zm0-3.62a1.44 1.44 0 0 0-1.49 1.44 1.46 1.46 0 0 0 2.92 0 1.44 1.44 0 0 0-1.43-1.44z" fill="#040000" data-name="レイヤー 1"/></g></svg>