<svg xmlns="http://www.w3.org/2000/svg" viewBox="0 0 416.08 51.44"><g data-name="レイヤー 2"><path d="M8.18 12.67C6.42 17 1 17.25.9 17.25a.9.9 0 0 1-.9-.9.81.81 0 0 1 .8-.81c2.67-.28 4.59-1.26 5.49-2.87H1.55A.69.69 0 0 1 .86 12a.71.71 0 0 1 .69-.75H6.8c0-.23.06-.48.08-.73A.65.65 0 0 1 7 10.2H3.89c-1.38 0-2.09-.69-2.13-1.63V5.62C1.76 4.81 2.3 4 3.8 4h3c-.56-.2-1.12-.37-1.31-.42A.57.57 0 0 1 5 3a.82.82 0 0 1 .87-.71 7.66 7.66 0 0 1 2.28.63 9.75 9.75 0 0 0 2.12-1s-.09-.05-.21-.05c-1.59 0-5 0-6.78.09a.72.72 0 0 1-.79-.71.74.74 0 0 1 .71-.69h8.3c1 0 1.49.44 1.49.94s0 1-3.71 2.37V4h2.81a1.9 1.9 0 0 1 2 1.47c0 .42.06.9.06 1.38s0 1.13-.06 1.65A2 2 0 0 1 12 10.16c-1.11 0-2.24.05-3.39.05a1.59 1.59 0 0 1 .07.41v.11c0 .16-.05.33-.07.48h4.33a1.64 1.64 0 0 1 1.84 1.52v.15c-.14 1.47-.52 3.95-4.2 3.95a11.24 11.24 0 0 1-2.2-.25.81.81 0 0 1-.64-.83.83.83 0 0 1 .81-.88.9.9 0 0 1 .23 0 10.57 10.57 0 0 0 2 .25 2 2 0 0 0 1.69-.59 3 3 0 0 0 .48-1.5c0-.25-.16-.36-.46-.38zM7 5.23H4.28c-.65 0-.86.33-.88.69v.46H7zm0 2.4H3.39c0 .9.12 1.2.92 1.22s1.67 0 2.7 0zm5.33-1.21v-.46c0-.73-.25-.73-3.62-.73v1.19zM8.7 7.63v1.24h2.76c.76 0 .88-.61.88-1.22zm12.57 9.25a.87.87 0 0 1-.88-.88.85.85 0 0 1 .57-.78 12.79 12.79 0 0 0 3.93-2.59c-.59-.35-1.21-.65-1.76-.92a.79.79 0 0 1-.5-.73.88.88 0 0 1 .86-.86 10.83 10.83 0 0 1 2.57 1.22 19 19 0 0 0 1.53-2.18.85.85 0 0 1 .75-.44 1 1 0 0 1 1 .92c0 .15 0 .59-1.76 2.63 2.05 1.38 2.2 2 2.2 2.28a1 1 0 0 1-1 1 .91.91 0 0 1-.69-.36 10.24 10.24 0 0 0-1.76-1.63c-2.59 2.61-4.74 3.32-5.06 3.32zm3.16-13.43C22.65 6.21 22 6.3 21.71 6.3a.89.89 0 0 1-.94-.8.86.86 0 0 1 .33-.63A12.53 12.53 0 0 0 24 .46a.77.77 0 0 1 .74-.46 1 1 0 0 1 1 .86c0 .14 0 .33-.38 1h8.51a.79.79 0 0 1 .84.8.8.8 0 0 1-.86.83zm-2.28 4.79a.77.77 0 1 1 0-1.53h9.16a2 2 0 0 1 2.09 1.84v1.95c0 3.32 1.09 4.24 1.27 4.24s.44-.44.57-1.52a.75.75 0 0 1 .79-.69.89.89 0 0 1 .94.89c0 1.05-.77 3.33-2.34 3.33-.4 0-3.05-.13-3.05-7.44 0-.51 0-1.07-.84-1.07zm2.45-2.49a.7.7 0 1 1 0-1.4h7.69a.7.7 0 1 1 0 1.4zm23.08-2.91a7 7 0 0 0 .8-.35c1.06-.63 2.09 1 .67 1.67a10.56 10.56 0 0 1-2.15.63 19.83 19.83 0 0 1-.92 1.94 2.79 2.79 0 0 1 3.22 1.66c.79-.4 1.59-.8 2.34-1.13a14.17 14.17 0 0 0 1.5-.71 1 1 0 1 1 1.07 1.73c-.61.31-1 .4-2.07.79-.8.3-1.67.69-2.43 1a16.35 16.35 0 0 1 0 2.11 1.13 1.13 0 0 1-1 1.19c-.48 0-.92-.35-.86-1.1v-1.24l-.49.28c-2.38 1.54-2.09 2.69-1 3.22s2.89.14 3.8-.15c1.68-.52 2.22 1.55.45 2-1.13.29-3.73.58-5.23-.27-2.58-1.45-2.12-4 1.34-6.32.27-.17.58-.38.94-.59-.51-1.61-2-1.42-3.24 0l-.07.07a5.11 5.11 0 0 1-.44.5c-1.06.94-2.46-.15-1.31-1.19a9.86 9.86 0 0 0 1.56-1.8 17.25 17.25 0 0 0 .9-1.71 3.8 3.8 0 0 1-2.38-.21c-1.38-.69-.44-2.49.9-1.59a2.9 2.9 0 0 0 1.8 0h.29A8.39 8.39 0 0 0 46 1.74c.08-1.15 1.88-1 1.92-.09a3.47 3.47 0 0 1-.16 1.11zm14.68 7.76a8.4 8.4 0 0 1-2 .57.9.9 0 0 1-.94-.92.84.84 0 0 1 .68-.84c.74-.19 1.51-.42 2.28-.65v-3h-1.84a.8.8 0 0 1-.83-.84.8.8 0 0 1 .83-.85h1.82V1.01a.88.88 0 0 1 .92-.91.86.86 0 0 1 .9.91v3.05h1.38a.8.8 0 0 1 .84.85.8.8 0 0 1-.84.84h-1.4v2.41c.49-.19 1-.38 1.4-.57a.69.69 0 0 1 .26-.06.79.79 0 0 1 .71.85c0 .57-.26.69-2.39 1.55V12c0 .3.06 2.05.07 2.72v.07c0 1.21-.78 2.15-2.45 2.15-1 0-1.72-.17-1.72-1a.8.8 0 0 1 .74-.89.55.55 0 0 1 .18 0 2.82 2.82 0 0 0 .61.08c.4 0 .79-.13.79-.63zm4.23-3.18a.8.8 0 0 1-.84-.79.78.78 0 0 1 .84-.78H70V4.18h-2.55a.78.78 0 1 1 0-1.56H70V1a.92.92 0 0 1 1.84 0v1.62h2.91a.78.78 0 1 1 0 1.56h-2.91v1.68h4a.75.75 0 0 1 .8.78.77.77 0 0 1-.8.79zm7.25 3.23v1.25l.08 2.68v.06c0 1.06-.82 2.42-3.1 2.42-.77 0-2.07 0-2.07-1a.85.85 0 0 1 .84-.9.68.68 0 0 1 .19 0 5.62 5.62 0 0 0 1.11.14c.67 0 1.17-.24 1.17-1v-3.59H66.6a.79.79 0 1 1 0-1.57h5.46v-.73a.9.9 0 0 1 1.79 0v.73h2.08a.79.79 0 1 1 0 1.57zM69.26 14a5.11 5.11 0 0 0-1.6-1.34.68.68 0 0 1-.4-.6.86.86 0 0 1 .88-.8c.5 0 2.65 1.11 2.65 2.11a1 1 0 0 1-.88 1 .81.81 0 0 1-.65-.37zm18.25 2.19c-1.51.25-1.66-1.59-.34-1.78a7.49 7.49 0 0 0 4-1.61c1.15-1 1.21-2.07.64-2.72-.83-.94-2.34-.92-3.59-.56a33.87 33.87 0 0 0-3.93 1.79 1 1 0 1 1-.82-1.69A35.49 35.49 0 0 1 87.9 8c1.61-.4 3.81-.42 5.15 1 1.61 1.67 1 3.79-.78 5.25a9.59 9.59 0 0 1-4.76 1.94zM104.61 7a6.27 6.27 0 0 1 .61-1c.31-.41.21-.39-.15-.27a25.2 25.2 0 0 0-2.41 1 17.43 17.43 0 0 1-1.73.57c-1.69.46-2.19-1.74-.65-2.07.4-.09 1.51-.3 2.13-.46.94-.23 2.6-.61 4.56-1.17a26.42 26.42 0 0 1 5.23-1.13 1.13 1.13 0 0 1 1.3 1.48c-.11.32-.53.71-1.88.63a8.17 8.17 0 0 0-2.85.54 5.5 5.5 0 0 0-2.45 2.24c-1.69 2.82-.41 6.84 3.89 6.69 2-.08 2.12 2.18.09 2.16-5.79-.04-7.78-5.34-5.69-9.21zm17.69 9.79a7.34 7.34 0 0 0-2.36-2 .88.88 0 0 1-.52-.77.85.85 0 0 1 .9-.84c.68 0 3.74 1.68 3.74 3a1.06 1.06 0 0 1-1 1.05.86.86 0 0 1-.76-.44zm13.7-.5a.84.84 0 0 1-.92.79.82.82 0 0 1-.92-.79l.06-6.34c-1.17 2.2-1.63 2.66-2.17 2.66a.94.94 0 0 1-.94-.88.84.84 0 0 1 .27-.59 17.29 17.29 0 0 0 2.88-4.39v-.52h-1.69a.78.78 0 0 1-.82-.81.79.79 0 0 1 .84-.8h1.67V2.84a10.28 10.28 0 0 1-1.59.24.82.82 0 0 1-.79-.88.7.7 0 0 1 .62-.73A14.27 14.27 0 0 0 136.75.4a.71.71 0 0 1 .21 0 1 1 0 0 1 .88.9c0 .46-.3.71-1.8 1.15 0 .41 0 1.25-.06 2.23h1.5a.76.76 0 0 1 .79.8.75.75 0 0 1-.77.81h-1.52v.84a.65.65 0 0 1 .26.08c.22.11 1.73 1.15 1.73 1.86a.87.87 0 0 1-.82.86.7.7 0 0 1-.6-.34c-.19-.27-.38-.54-.57-.79 0 3 .09 7.55.09 7.55zm6.25-11.08c0 1.4-.08 3.32-.1 5.18a19.16 19.16 0 0 0 3-7.75.86.86 0 0 1 .92-.69.91.91 0 0 1 1 .81A20.16 20.16 0 0 1 145.89 7a1 1 0 0 1 .46-.11 1 1 0 0 1 .73.36 9.4 9.4 0 0 1 1.86 4 1 1 0 0 1-1 1 .83.83 0 0 1-.84-.73 8.68 8.68 0 0 0-1.42-3.41 1 1 0 0 1-.13-.25 19.32 19.32 0 0 1-3.34 5.2v.92c0 .71.29.9 1.34.9 1.35 0 1.88-.4 1.88-1.9a.83.83 0 0 1 .87-.9.94.94 0 0 1 1 1c0 3.2-2.07 3.56-3.83 3.56-2 0-2.82-.42-2.95-2a8.32 8.32 0 0 1-3.22 1.8.94.94 0 0 1-1-.94.85.85 0 0 1 .61-.8 11.31 11.31 0 0 0 3.55-2.34V5.07a.8.8 0 0 1 .88-.78.83.83 0 0 1 .9.8zM137.88 13a.79.79 0 0 1-.84-.76 1.05 1.05 0 0 1 .13-.48 8 8 0 0 0 .92-3.63.78.78 0 0 1 .83-.76c.13 0 .82 0 .82.94a10.35 10.35 0 0 1-.88 4.06 1.09 1.09 0 0 1-.98.63zm5.27-9.1a6.27 6.27 0 0 0-2.53-1.61.77.77 0 0 1-.51-.71.91.91 0 0 1 .89-.85c.41 0 3.63 1.05 3.63 2.43a1 1 0 0 1-.9 1.06.8.8 0 0 1-.58-.29zm16.34 8.92c-2.26 2.44-4.27 1.59-4.79-.82a6.14 6.14 0 0 1 2.11-5.46c-.14-.41-.27-.83-.37-1.25s-.29-1.27-.36-1.67c-.33-1.59 1.84-1.57 1.91-.21a13 13 0 0 0 .2 1.59 2.84 2.84 0 0 0 .09.42c.14-.07.25-.15.38-.21a7.89 7.89 0 0 1 3.28-.8 11.17 11.17 0 0 0 .25-2.07c0-1.34 2-1.19 1.9.21a13.83 13.83 0 0 1-.27 2 4.86 4.86 0 0 1 3.85 3.47c1 3.55-1.36 6.19-4.67 7.38-1.46.53-2.4-1.29-.73-1.78 3.33-1 4.08-3.22 3.62-5.05A3.36 3.36 0 0 0 163.42 6c-.06.17-.12.36-.19.55a21 21 0 0 1-2 3.87 2.35 2.35 0 0 0 .25.19.82.82 0 0 1 .13 1.19.91.91 0 0 1-1.26.2l-.15-.1a11.45 11.45 0 0 1-.71.92zm-2.09-4.68a4.22 4.22 0 0 0-1.07 3.22c.28 1.5 1.19 1.08 1.72.52a10 10 0 0 0 .92-1.09 10.67 10.67 0 0 1-1.57-2.65zm1.86-1.57a3.71 3.71 0 0 0-.56.35 8.5 8.5 0 0 0 1.3 2.34 15.09 15.09 0 0 0 1.49-3.11c0-.07.06-.17.08-.27a6.28 6.28 0 0 0-2.31.69zm19.68.43a7.16 7.16 0 0 1 .62-1c.3-.41.21-.39-.16-.27-1.43.46-1.11.46-2.41 1a16.61 16.61 0 0 1-1.73.57 1.09 1.09 0 1 1-.65-2.07c.41-.09 1.52-.3 2.13-.46.94-.23 2.61-.61 4.56-1.17a26.73 26.73 0 0 1 5.23-1.13 1.14 1.14 0 0 1 1.31 1.48c-.12.32-.54.71-1.88.63a8.18 8.18 0 0 0-2.86.54 5.5 5.5 0 0 0-2.45 2.24c-1.69 2.82-.4 6.84 3.89 6.69 2-.08 2.13 2.18.1 2.16-5.79-.04-7.78-5.34-5.7-9.21zm16.94 6.74a9.86 9.86 0 0 1-2.17-6.13 18.32 18.32 0 0 1-.1-2.13 1 1 0 1 1 2 0v1.67c.07 2 .44 3.91 1.51 4.94.5.48.75.54 1.17 0a7.67 7.67 0 0 0 .63-1.13.94.94 0 0 1 1.75.69 8.69 8.69 0 0 1-.75 1.47c-1.27 1.94-2.92 1.77-4.04.62zm10.36-3.37a6 6 0 0 0-2.12-3.72c-.92-.63.11-2.05 1.26-1.19a7.42 7.42 0 0 1 2.88 4.45 1 1 0 0 1-2.02.46zm9.13 5.04c-.58 1.28-2.61.73-1.8-.9a60.18 60.18 0 0 0 3.35-8.32 5.61 5.61 0 0 1-2.8-.27c-1-.42-.78-2.16.66-1.65a5.1 5.1 0 0 0 2.64.12 8 8 0 0 0 0-2.07c-.08-1.09 1.73-1.15 1.92-.1a6.56 6.56 0 0 1 0 1.54c.27-.14.49-.27.73-.41a.91.91 0 1 1 .74 1.65 11.75 11.75 0 0 1-1.93.77 75.57 75.57 0 0 1-3.51 9.64zm4.66-.86c-.83-.92.36-2.44 1.36-1.42s2.14.9 4.39.71a1 1 0 1 1 .24 2c-2.77.53-5.15-.36-6.02-1.29zm2.16-6.69c-1 .36-1.59-1.21-.32-1.65a7.08 7.08 0 0 1 4.6.09c1.28.46.76 2.15-.45 1.75a6.62 6.62 0 0 0-3.83-.19zm15.96 2.41a.89.89 0 0 1-1.76 0l.07-3.95a16 16 0 0 1-2.41 2.8.86.86 0 0 1-.6.25.92.92 0 0 1-.88-.88.77.77 0 0 1 .37-.65 16.42 16.42 0 0 0 3.47-3.66h-2.29a.78.78 0 0 1-.83-.79.8.8 0 0 1 .84-.79h2.3V.98 1a.88.88 0 0 1 1.76 0s0 .67-.06 1.62H240a.73.73 0 0 1 .75.77.76.76 0 0 1-.73.81h-2v1a.78.78 0 0 1 .37-.09c.19 0 2.22.92 2.22 1.82a.89.89 0 0 1-.78.9.69.69 0 0 1-.54-.27 7.55 7.55 0 0 0-1.27-1.17c0 2.4.1 3.85.1 3.85zm-5.33 5.41a.82.82 0 0 1 .5-.75 4.91 4.91 0 0 0 1.74-1.84.79.79 0 0 1 .75-.54.93.93 0 0 1 .94.85c0 .8-1.8 3.22-3 3.22a1 1 0 0 1-.93-.94zm8.32 1.24c-3.26 0-3.76-.76-3.76-2.18V13.2c0-.8 0-1.55.94-1.55a.85.85 0 0 1 .92.81v2.09c0 .78.69.82 2 .82 1.7 0 2.45-.11 2.45-1 0-.49.4-.7.83-.7s1 .28 1 .74c-.05 2.13-1.31 2.51-4.38 2.51zm.4-3.62a5.62 5.62 0 0 0-1.63-1.36.66.66 0 0 1-.36-.56.9.9 0 0 1 .92-.8c.32 0 2.64 1.05 2.64 2.09a1 1 0 0 1-.94 1 .8.8 0 0 1-.63-.37zm5-2.55h-3.38A1.67 1.67 0 0 1 241.33 9V2.69a1.68 1.68 0 0 1 1.8-1.67h3.36a1.77 1.77 0 0 1 1.84 1.65v6.31a1.84 1.84 0 0 1-1.84 1.77zm.27-5.58h-3.9v1.37h3.9zm0-1.38v-.61c0-.73-.25-.75-2-.75-1.43 0-1.78 0-1.82.77v.59zm-3.93 4.11v.74c0 .71.42.73 1.71.73 1.91 0 2.09 0 2.11-.75V7.9zm5.48 8.16a.8.8 0 0 1-.72-.46 6.9 6.9 0 0 0-1.86-2 .77.77 0 0 1-.35-.6.85.85 0 0 1 .9-.78c.75 0 3 1.91 3 2.85a1 1 0 0 1-.97.99zm8.48-2.32a9.86 9.86 0 0 1-2.16-6.13 18.32 18.32 0 0 1-.1-2.13 1 1 0 1 1 2 0v1.67c.07 2 .44 3.91 1.51 4.94.5.48.75.54 1.17 0a7.67 7.67 0 0 0 .63-1.13.94.94 0 0 1 1.75.69 9.49 9.49 0 0 1-.75 1.47c-1.27 1.94-2.97 1.77-4.05.62zm10.37-3.37a6 6 0 0 0-2.13-3.72c-.91-.63.12-2.05 1.27-1.19a7.36 7.36 0 0 1 2.87 4.45 1 1 0 1 1-2.01.46zm14.06-7.53a6.31 6.31 0 0 0 .8-.35c1.06-.63 2.09 1 .67 1.67a10.44 10.44 0 0 1-2.1.63c-.25.61-.58 1.3-.92 1.94a2.8 2.8 0 0 1 3.22 1.66c.78-.4 1.59-.8 2.33-1.13a14.17 14.17 0 0 0 1.5-.71 1 1 0 1 1 1.07 1.73c-.61.31-1 .4-2.07.79-.8.3-1.66.69-2.43 1a16.3 16.3 0 0 1 0 2.11 1.14 1.14 0 0 1-1 1.19c-.48 0-.92-.35-.86-1.1v-1.24l-.5.28c-2.38 1.54-2.09 2.69-1 3.22s2.9.14 3.8-.15c1.69-.52 2.22 1.55.46 2-1.13.29-3.74.58-5.23-.27-2.59-1.45-2.13-4 1.34-6.32.27-.17.57-.38.94-.59-.52-1.61-2-1.42-3.24 0l-.08.07a4.06 4.06 0 0 1-.44.5c-1.05.94-2.45-.15-1.3-1.19a9.45 9.45 0 0 0 1.55-1.8 15.37 15.37 0 0 0 .9-1.71 3.82 3.82 0 0 1-2.38-.21c-1.38-.69-.44-2.49.9-1.59a2.93 2.93 0 0 0 1.81 0h.28a7.06 7.06 0 0 0 .21-1.61c.08-1.15 1.88-1 1.92-.09a3.77 3.77 0 0 1-.15 1.11zM298.08 12c0 .3 0 2.05.05 2.72v.07c0 1.21-.78 2.15-2.49 2.15-.84 0-1.76-.11-1.76-1.05a.8.8 0 0 1 .75-.87.52.52 0 0 1 .17 0 3.19 3.19 0 0 0 .63.08c.42 0 .83-.13.83-.63v-3.6a9.84 9.84 0 0 1-2.21.74.86.86 0 0 1-.86-.88 1 1 0 0 1 .75-.92c.76-.23 1.55-.5 2.32-.78V5.71h-2.13a.82.82 0 0 1-.85-.84.82.82 0 0 1 .85-.85h2.13V1a.88.88 0 0 1 .92-.91.86.86 0 0 1 .9.91v3.06h1.57a.8.8 0 0 1 .84.85.8.8 0 0 1-.84.84h-1.57v2.59c.63-.27 1.19-.52 1.65-.75a.94.94 0 0 1 .38-.1.81.81 0 0 1 .76.83c0 .61-.49.86-2.79 1.84zm6.74-8.3h-3.93a.82.82 0 0 1-.86-.84.82.82 0 0 1 .86-.85h8.27a.85.85 0 1 1 0 1.69h-2.46v10.56c0 1.11-.65 2.6-3 2.6-2.18 0-2.18-.65-2.18-1.05s.3-1 .8-1a1 1 0 0 1 .21 0 4.89 4.89 0 0 0 1.17.19c.63 0 1.09-.29 1.09-1.19zm14.59 6.3a8.56 8.56 0 0 1 3.79-1.7c4-.54 5.85 3 3.43 5.88a8.41 8.41 0 0 1-5.15 2.51c-1.84.25-1.94-1.67-.5-1.84a6.48 6.48 0 0 0 4-1.72c1.4-1.57 1.07-3.39-1.54-3.18a5.74 5.74 0 0 0-3.37 1.76c-.34.36-.44.92-1.09 1.09-.84.23-1.5-.59-1.36-1.57s.42-3.05.71-4.93a7.39 7.39 0 0 1-1.81 0c-1.41-.23-1.26-2.17.27-1.82a5 5 0 0 0 1.82 0c.2-1.23.39-2.28.52-2.88A1 1 0 1 1 321 2c-.13.44-.27 1.07-.42 1.78a8.32 8.32 0 0 0 1-.61c1.32-.94 2.53 1 .74 1.8a20.21 20.21 0 0 1-2.16.9c-.33 1.72-.62 3.41-.75 4.13zM339 14a16.51 16.51 0 0 1-2.09 1.31c-1.19.61-3 .3-2.8-2.27a7.51 7.51 0 0 1 3.43-5.08l.8-.46c.06-.72.14-1.49.23-2.28a7.09 7.09 0 0 1-2.36-.22.89.89 0 1 1 .53-1.69 5.55 5.55 0 0 0 2.07.16c.08-.56.18-1.13.25-1.71.21-1.41 2.07-1.11 1.86 0-.07.48-.17 1-.25 1.4a18 18 0 0 0 2.59-.75c1.11-.42 2 1.21.44 1.71a24.3 24.3 0 0 1-3.31.84c-.1.61-.18 1.17-.25 1.71a7.36 7.36 0 0 1 2-.42h.23c.13-1.13 1.9-.77 1.82.15 5.6 1 5.31 8.07-1.23 10.22-1.72.57-2.2-1.21-.63-1.73 4.77-1.55 5-6.08 1.5-6.94a12.45 12.45 0 0 1-3.32 4.78 2.82 2.82 0 0 0 .21.38c.67 1.11-.92 2.34-1.65 1zm-.75-4.71a5.36 5.36 0 0 0-2.45 3.6c-.06.77.45.84.95.58a16.16 16.16 0 0 0 1.71-1.12 15.27 15.27 0 0 1-.18-3.09zm3.66-1.42a8.21 8.21 0 0 0-2 .52 13.79 13.79 0 0 0 0 2.6 9 9 0 0 0 2-3.12zm13.86 6.66c-1.72-3.32-.84-7-.63-9.32.1-1.09.21-1.7.25-2.53a.93.93 0 0 1 1.86 0 23.89 23.89 0 0 1-.31 2.57c-.23 1.61-.79 3.26-.5 5.15.06.33.18.47.33.06.09-.23.31-.61.4-.84a.76.76 0 1 1 1.42.55 10.24 10.24 0 0 0-1 3.36c0 .21.12.76-.15 1.11a1 1 0 0 1-1.67-.11zm9.7-9.7c.42-.1.81-.17 1.13-.27 1.23-.34 2 1.32.35 1.67-.5.11-1 .23-1.52.32 0 .56 0 1.13.08 1.9.17 3.83-.83 6.61-3.82 8.72-1.11.79-2.31-.71-1.13-1.47 2.46-1.59 3.22-3.93 3.15-7.21 0-.59 0-1.13-.06-1.65a14.82 14.82 0 0 1-3.22.14.9.9 0 1 1 .31-1.75 11.57 11.57 0 0 0 2.89-.09v-.5a11.76 11.76 0 0 0-.21-2.26c-.15-1.42 1.74-1.34 2-.29a8.87 8.87 0 0 1 .1 2.28zm10.42 10.58c-.57 1.28-2.6.73-1.8-.9a58.71 58.71 0 0 0 3.36-8.32 5.58 5.58 0 0 1-2.8-.27c-1-.42-.79-2.16.65-1.65a5.14 5.14 0 0 0 2.65.12 9 9 0 0 0 0-2.07c-.08-1.09 1.72-1.15 1.91-.1a5.64 5.64 0 0 1 0 1.54c.27-.14.5-.27.73-.41a.92.92 0 1 1 .75 1.65 12.25 12.25 0 0 1-1.94.77 75.57 75.57 0 0 1-3.51 9.64zm4.66-.86c-.82-.92.37-2.44 1.36-1.42s2.15.9 4.39.71a1 1 0 1 1 .25 2c-2.78.53-5.16-.36-6-1.29zm2.17-6.69c-1 .36-1.59-1.21-.33-1.65a7.08 7.08 0 0 1 4.6.09c1.28.46.77 2.15-.44 1.75a6.62 6.62 0 0 0-3.83-.19zm14.7 7.43a8.81 8.81 0 0 0 3.34-10.08c-.63-1.91-2.45-1.2-3 0a6.44 6.44 0 0 0-.5 3.62c.1 1.86-2 1.84-2.09.47a17.25 17.25 0 0 1 .44-4.43c.21-1 .58-2.24.73-3.41a1 1 0 0 1 1.92.17 5.84 5.84 0 0 1-.5 1.78c-.25.52-.06.27.14 0 1.39-1.8 3.88-1 4.67 1.15a10.47 10.47 0 0 1-3.79 12.23c-1.57 1.15-2.97-.44-1.36-1.5zm16.48 1.92a2.19 2.19 0 1 1 2.18-2.21 2.19 2.19 0 0 1-2.18 2.21zm0-3.62a1.44 1.44 0 0 0-1.46 1.41 1.46 1.46 0 1 0 1.46-1.43zM3.32 49.13a1 1 0 0 1 .57-.84 5.18 5.18 0 0 0 1.75-2.11.83.83 0 0 1 .82-.63.92.92 0 0 1 1 .88c0 1-1.8 3.64-3 3.64a1 1 0 0 1-1.14-.94zm8.58-5.78c-1.41 0-2.85 0-4.06-.08-1.38-.06-2.3-.58-2.36-2.07v-2.09c0-3.1 0-4.23 2.62-4.33 1.07 0 2.4-.06 3.68-.06s2.55 0 3.51.06c1.44.06 2.43.61 2.49 2.16 0 .75.06 1.65.06 2.51 0 2.19-.08 3.67-2.61 3.82-1.01.06-2.16.08-3.33.08zm-1.15-7.13c-1 0-1.95 0-2.66.07-.92.06-.94.69-.94 2h3.6zm0 3.5h-3.6c0 1.33 0 2 1 2l2.6.07zm1 11.16c-.48 0-1 0-1.4-.06a2.07 2.07 0 0 1-2.18-2.24V45.2a.85.85 0 0 1 .94-.76.83.83 0 0 1 .9.76v3c0 .9.76.94 2 .94 1.8 0 2.38-.38 2.38-1.34a.85.85 0 0 1 .94-.84.93.93 0 0 1 1 .94c.02 2.94-2.87 2.98-4.56 2.98zm1.17-4.47A7 7 0 0 0 10.87 45a.72.72 0 0 1-.46-.66.85.85 0 0 1 .88-.82c.33 0 3.22 1.11 3.22 2.26a1 1 0 0 1-.94 1 .87.87 0 0 1-.63-.37zM16 38.29V37.1c-.06-.85-.44-.88-3.55-.88v2.07zm-3.59 1.43v2.11c.84 0 1.73 0 2.59-.07s1-.89 1-2zm6.92 9.68a1 1 0 0 1-.86-.54 6.77 6.77 0 0 0-2.23-2.29.68.68 0 0 1-.34-.56 1 1 0 0 1 1-.86c.74 0 3.48 2.16 3.48 3.24a1 1 0 0 1-1.02 1.01zm7.94-1.61a9.92 9.92 0 0 1-2.17-6.13 20.34 20.34 0 0 1-.1-2.13 1 1 0 1 1 1.95 0v1.67c.08 2 .44 3.91 1.52 5 .49.47.75.53 1.17 0a8.72 8.72 0 0 0 .64-1.2.94.94 0 0 1 1.74.69 8.71 8.71 0 0 1-.74 1.47c-1.23 1.96-2.94 1.78-4.01.63zm10.37-3.37a6.06 6.06 0 0 0-2.13-3.72c-.92-.63.12-2.05 1.27-1.19A7.36 7.36 0 0 1 39.65 44a1 1 0 1 1-2.01.42zm13.95-4.66c1.61-.13 2.83.81 2.91 3a11.39 11.39 0 0 1-.65 4.24 3.73 3.73 0 0 1-4.5 2.3c-1.52-.44-.91-2.21.26-1.92a1.83 1.83 0 0 0 2.44-1 8.49 8.49 0 0 0 .61-3.38c0-1.17-.4-1.73-1.28-1.65-.29 0-.58.06-.88.1a28.43 28.43 0 0 1-3.72 7.7c-.92 1.31-2.92.19-1.67-1.2a18.63 18.63 0 0 0 3.39-6.23h-.23a12.23 12.23 0 0 1-2.07.28.92.92 0 1 1-.05-1.84c.59-.06 1.18 0 1.87-.09l1-.1a19.67 19.67 0 0 0 .59-3c.14-1.24 2.09-1.13 1.94.16a23.82 23.82 0 0 1-.56 2.7zm7 4.31a6.85 6.85 0 0 0-2.74-3.29c-.94-.52-.1-2 1.09-1.27a7.86 7.86 0 0 1 3.41 3.64c.53 1.27-1.19 2.11-1.71.92zm-1.74-5.9c-1-.36-.31-1.55.59-1.26a6.19 6.19 0 0 1 2 1.07c.78.75-.25 2-.92 1.25a6.53 6.53 0 0 0-1.62-1.06zm1.65-1.71c-1-.32-.39-1.55.53-1.3a6.52 6.52 0 0 1 2 1c.81.73-.21 2-.9 1.28a6.67 6.67 0 0 0-1.58-.98zm9.35 12.12c-1.72-3.32-.84-7-.63-9.32.1-1.09.21-1.7.25-2.53a.93.93 0 0 1 1.86 0 23.6 23.6 0 0 1-.33 2.61c-.23 1.61-.78 3.26-.5 5.15.06.33.18.47.33.06.1-.23.31-.61.4-.84a.76.76 0 1 1 1.42.56 10.19 10.19 0 0 0-1 3.35c0 .21.12.77-.15 1.11a1 1 0 0 1-1.65-.15zm9.7-9.7c.42-.1.81-.17 1.13-.27 1.23-.34 2 1.32.35 1.67-.5.11-1 .23-1.52.33 0 .55 0 1.13.08 1.89.17 3.83-.83 6.62-3.81 8.72-1.12.79-2.32-.71-1.13-1.47 2.45-1.59 3.21-3.93 3.14-7.21 0-.59 0-1.13-.06-1.65a14.22 14.22 0 0 1-3.22.14.9.9 0 1 1 .31-1.75 11.57 11.57 0 0 0 2.89-.09v-.5a11.84 11.84 0 0 0-.21-2.26c-.15-1.42 1.74-1.34 2-.29a8.87 8.87 0 0 1 .1 2.28zm9.52.5a.88.88 0 1 1 .56-1.65 5.1 5.1 0 0 0 2.62-.06 11.77 11.77 0 0 0 .38-1.93.92.92 0 0 1 1.83.17 6.88 6.88 0 0 1-.27 1.17 5.6 5.6 0 0 0 .61-.33c.86-.61 2.07.58.84 1.46a7.42 7.42 0 0 1-2 .88 47.51 47.51 0 0 1-3.43 6.46c-.71 1.15-2.55.4-1.7-.84a37.42 37.42 0 0 0 3.14-5.24 5.16 5.16 0 0 1-2.58-.09zm3.3 10.79c-1.78-.9-2-3 0-3.85A6.25 6.25 0 0 1 94 46v-.67c0-.48 0-1-.06-1.44a5.45 5.45 0 0 1 .1-1.28.88.88 0 0 1 1.72.35 3.62 3.62 0 0 0-.11.9v1.47c0 .37.06.77.08 1.19A7 7 0 0 1 98.11 48c1.09 1.21-.46 2.57-1.38 1.46a5.92 5.92 0 0 0-1.09-1 3.83 3.83 0 0 1-5.27 1.71zm.63-2.51a.58.58 0 0 0 0 1.11c1.15.57 2.7 0 2.91-1v-.19a3.87 3.87 0 0 0-2.91.08zm4.27-7.07c-1 0-1.13-1.54.1-1.65a6 6 0 0 1 3.53.67c1.3.78.3 2.37-.64 1.78a4.92 4.92 0 0 0-3.01-.8zm16.48 9.66a35.12 35.12 0 0 0-4.06-6.25c-1.26-1.48-1.26-2.84.23-4.39a47.78 47.78 0 0 0 3.93-4.33 1.07 1.07 0 1 1 1.71 1.3c-1 1.17-3 2.84-4.18 4-.83.83-.86 1.4-.23 2.19 1.91 2.39 3.54 4.2 4.48 6.25.6 1.32-1.26 2.45-1.88 1.23zm14.43.59a7.3 7.3 0 0 0-2.35-2 .84.84 0 0 1 .38-1.61c.67 0 3.74 1.68 3.74 3a1.06 1.06 0 0 1-1 1 .86.86 0 0 1-.77-.39zm17.03-11.19a17.48 17.48 0 0 1-3 .23c-1.47 0-1.55-2 .19-1.82a11.37 11.37 0 0 0 3-.14v-2.53a1 1 0 0 1 2 0c-.06.69-.1 1.46-.12 2.23.41-.08.85-.19 1.31-.29 1.26-.29 1.78 1.49.11 1.76-.52.08-1 .18-1.43.25v2.13c.46-.14.94-.27 1.46-.44 1.42-.46 2.15 1.3.44 1.78-.67.19-1.28.36-1.84.5 0 .65.08 1.24.14 1.8s.11 1.21.15 1.9a8.87 8.87 0 0 1 2.38 1.36c1.28 1 0 2.8-1.17 1.68a9.56 9.56 0 0 0-1.4-1 3.91 3.91 0 0 1-5.43 1.69c-1.82-.9-1.94-3 .15-3.93a6.56 6.56 0 0 1 3.66-.32c0-.4-.05-.81-.09-1.25s-.08-1-.12-1.59a10.16 10.16 0 0 1-3.48.21 1 1 0 1 1 .4-1.84 8 8 0 0 0 3-.17c0-.73-.08-1.47-.1-2.22zm-2.47 8.54a.58.58 0 0 0-.06 1.1 2.12 2.12 0 0 0 2.95-1.08 4.22 4.22 0 0 0-2.89-.02zm19.09 2.06c-1.52.24-1.67-1.6-.35-1.79a7.52 7.52 0 0 0 4-1.61c1.14-1 1.2-2.07.63-2.72-.83-.94-2.34-.92-3.59-.55a32.21 32.21 0 0 0-3.93 1.78 1 1 0 1 1-.82-1.69 36.1 36.1 0 0 1 4.44-1.67c1.61-.4 3.81-.42 5.15 1 1.61 1.67 1 3.8-.78 5.25a9.69 9.69 0 0 1-4.75 2zm16.43-5.16a2.64 2.64 0 0 1 1.53-3.6 3.8 3.8 0 0 1 1.65-.18c0-.42 0-1-.06-1.55-1.61.16-3.2.38-4.2.54-1.38.21-2.28.46-2.85.55-1.28.24-1.67-1.68-.15-1.93.76-.14 2-.27 2.81-.4 1-.16 2.69-.37 4.37-.52v-.35c0-1.19-.09-1.26-.09-1.88a1 1 0 0 1 2-.05c0 .44 0 1.32-.08 1.84v.29c.56 0 1.06-.06 1.48-.06h2.91c1.61 0 1.54 2.07 0 2-1.36-.11-1.82-.11-3-.13h-1.4v1.76c0 .27 0 .67.06 1.09 1.71 2.68-.33 6.75-2.36 8.38-1.28 1-3-.35-1.28-1.54a6.78 6.78 0 0 0 2.18-2.81 2.45 2.45 0 0 1-3.52-1.45zm3.22-2a1.26 1.26 0 0 0-1.23-.08 1.18 1.18 0 0 0-.56 1.46 1.14 1.14 0 0 0 2.21-.33.85.85 0 0 0-.12-.73 2.27 2.27 0 0 0-.3-.33zm18.69 7.16a35.12 35.12 0 0 0-4.06-6.25c-1.26-1.48-1.26-2.84.23-4.39a47.78 47.78 0 0 0 3.93-4.33A1.07 1.07 0 1 1 200 36.6c-1 1.17-3 2.84-4.18 4-.83.83-.87 1.4-.23 2.19 1.91 2.39 3.54 4.2 4.48 6.25.58 1.3-1.28 2.43-1.9 1.21zm2.11-9.13a6.67 6.67 0 0 0-1.36-1.4c-.88-.57.08-1.55.9-1.07a6.34 6.34 0 0 1 1.67 1.46c.6.89-.71 1.89-1.21 1.01zm2-1.4a6.48 6.48 0 0 0-1.39-1.32c-.91-.54 0-1.59.84-1.15a6.28 6.28 0 0 1 1.74 1.42c.65.9-.66 1.88-1.18 1.05zm8.87-.34a.88.88 0 1 1 .55-1.65 5.14 5.14 0 0 0 2.63-.06 11.77 11.77 0 0 0 .38-1.93.92.92 0 0 1 1.82.17 5.9 5.9 0 0 1-.26 1.17 5.6 5.6 0 0 0 .61-.33c.86-.61 2.07.58.84 1.46a7.42 7.42 0 0 1-2.05.88 47.51 47.51 0 0 1-3.43 6.46c-.71 1.15-2.55.4-1.7-.84a37.42 37.42 0 0 0 3.14-5.24 5.16 5.16 0 0 1-2.53-.09zm3.3 10.79c-1.79-.9-2-3 0-3.85a6.25 6.25 0 0 1 3.68-.37v-.67c0-.48 0-1-.06-1.44a5.45 5.45 0 0 1 .1-1.28.88.88 0 0 1 1.72.35 3.56 3.56 0 0 0-.12.9v1.47c0 .37.06.77.08 1.19a7 7 0 0 1 2.34 1.53c1.09 1.21-.46 2.57-1.38 1.46a5.92 5.92 0 0 0-1.09-1 3.84 3.84 0 0 1-5.27 1.71zm.61-2.51a.58.58 0 0 0 0 1.11c1.15.57 2.7 0 2.91-1v-.19a3.87 3.87 0 0 0-2.91.08zm4.27-7.07c-1.05 0-1.13-1.54.1-1.65a6 6 0 0 1 3.52.67c1.31.78.31 2.37-.63 1.78a4.94 4.94 0 0 0-2.99-.8zm9.19 8.54a1 1 0 0 1 .58-.84 5.16 5.16 0 0 0 1.74-2.11.84.84 0 0 1 .83-.63.91.91 0 0 1 1 .88c0 1-1.8 3.64-3 3.64a1 1 0 0 1-1.15-.94zm8.59-5.78c-1.42 0-2.86 0-4.07-.08-1.37-.06-2.29-.58-2.35-2.07v-2.09c0-3.1 0-4.23 2.63-4.33 1.07 0 2.39-.06 3.68-.06s2.54 0 3.5.06c1.44.06 2.44.61 2.49 2.16 0 .75.06 1.65.06 2.51 0 2.19-.08 3.67-2.61 3.82-1.01.06-2.16.08-3.33.08zM236 36.22c-1 0-2 0-2.66.07-.93.06-1 .69-1 2H236zm0 3.5h-3.61c0 1.33 0 2 1 2l2.61.07zm1 11.16c-.47 0-.95 0-1.4-.06a2.07 2.07 0 0 1-2.18-2.24V45.2a.85.85 0 0 1 .94-.76.83.83 0 0 1 .9.76v3c0 .9.77.94 2 .94 1.81 0 2.38-.38 2.38-1.34a.85.85 0 0 1 .94-.84.93.93 0 0 1 1 .94c-.03 2.94-2.92 2.98-4.58 2.98zm1.17-4.47a6.83 6.83 0 0 0-2.1-1.41.73.73 0 0 1-.46-.66.86.86 0 0 1 .89-.82c.32 0 3.21 1.11 3.21 2.26a1 1 0 0 1-.93 1 .88.88 0 0 1-.64-.37zm3.09-8.12V37.1c-.06-.85-.44-.88-3.54-.88v2.07zm-3.58 1.43v2.11c.84 0 1.72 0 2.58-.07s1-.89 1-2zm6.91 9.68a1 1 0 0 1-.86-.54 6.74 6.74 0 0 0-2.22-2.29.69.69 0 0 1-.35-.56 1 1 0 0 1 1-.86c.75 0 3.49 2.16 3.49 3.24a1.06 1.06 0 0 1-1.09 1.01zm7.88-1.61a9.86 9.86 0 0 1-2.16-6.13 18.32 18.32 0 0 1-.1-2.13 1 1 0 1 1 2 0v1.67c.07 2 .44 3.91 1.51 5 .5.47.75.53 1.17 0a7.67 7.67 0 0 0 .63-1.13.94.94 0 0 1 1.75.69 8.69 8.69 0 0 1-.75 1.47c-1.27 1.89-2.97 1.71-4.05.56zm10.37-3.37a6 6 0 0 0-2.12-3.72c-.92-.63.11-2.05 1.26-1.19a7.42 7.42 0 0 1 2.88 4.49 1 1 0 0 1-2.02.42zm14.06-7.53a7.24 7.24 0 0 0 .81-.35c1.05-.63 2.08 1 .67 1.67a10.77 10.77 0 0 1-2.11.63c-.25.61-.58 1.3-.92 1.94a2.8 2.8 0 0 1 3.22 1.67c.78-.41 1.59-.81 2.34-1.14a16.13 16.13 0 0 0 1.49-.7 1 1 0 1 1 1.07 1.72c-.61.31-1.05.4-2.07.79-.8.3-1.66.69-2.43 1.05a14.69 14.69 0 0 1 0 2.11 1.14 1.14 0 0 1-1 1.19c-.48 0-.92-.35-.86-1.1v-1.24c-.17.09-.35.19-.5.29-2.38 1.53-2.09 2.68-1 3.22s2.9.13 3.8-.16c1.69-.51 2.22 1.55.46 2-1.13.29-3.74.58-5.23-.26-2.59-1.46-2.13-4 1.34-6.33.27-.17.57-.38.94-.59-.52-1.61-2-1.42-3.24 0l-.08.07a3.37 3.37 0 0 1-.44.5c-1.05.94-2.45-.15-1.3-1.19a9.45 9.45 0 0 0 1.55-1.8 15.22 15.22 0 0 0 .9-1.7A3.84 3.84 0 0 1 272 39c-1.39-.69-.45-2.49.9-1.58a3 3 0 0 0 1.8 0 2.19 2.19 0 0 1 .28 0 7.83 7.83 0 0 0 .22-1.62c.07-1.15 1.87-1 1.91-.09a3.46 3.46 0 0 1-.15 1.11zm15.18 4.56c-1.13 1.42-1.59 1.67-2 1.67a.9.9 0 0 1-.9-.87.89.89 0 0 1 .32-.67 17 17 0 0 0 4.22-6.44.9.9 0 0 1 .84-.61 1 1 0 0 1 1.06 1 15 15 0 0 1-1.69 3.31l-.21 11.56a.9.9 0 0 1-1 .86.85.85 0 0 1-.94-.82zm8.53 1.13a33.22 33.22 0 0 1-1.88 5.54c1.59-.19 3.18-.44 4.62-.71a16.86 16.86 0 0 0-1.3-1.75.86.86 0 0 1-.23-.57.83.83 0 0 1 .86-.79 1.08 1.08 0 0 1 .77.37c2.34 2.62 3 4.16 3 4.66a1.1 1.1 0 0 1-1.08 1.07.9.9 0 0 1-.86-.69c-.09-.29-.21-.58-.32-.85a62 62 0 0 1-8.76 1.42.9.9 0 0 1-.85-1 .79.79 0 0 1 .75-.88c.5 0 1-.06 1.56-.1a31.87 31.87 0 0 0 1.8-5.73h-3.15a.81.81 0 0 1-.9-.81.86.86 0 0 1 .9-.88h10a.85.85 0 1 1 0 1.69zM297 38a.82.82 0 0 1-.9-.82.88.88 0 0 1 .9-.9h7.19a.86.86 0 0 1 .92.86.85.85 0 0 1-.92.86zm22.51 9.31a1.76 1.76 0 0 0 1.71 1.27 9.73 9.73 0 0 0 3-.61c1.46-.66 2.15 1.32.61 1.89a10.22 10.22 0 0 1-4.35.46 2.92 2.92 0 0 1-2.51-2c-.42-1-1.84-1.19-3.09.8-.67 1.08-1.22 1.17-1.6 1.19-.64 0-1.5-.59-.66-1.55.64-.73 1.63-1.82 2.3-2.42s1.21-1.19 1.82-1.78c.89-.86 2.13-2.14 3.09-3.26.21-.24.08-.21-.1-.13a18.57 18.57 0 0 1-3.94 1.51c-1.63.37-1.9-1.62-.58-1.82a19.09 19.09 0 0 0 3.37-.9 7.14 7.14 0 0 1 1.5-.5c1.59-.21 2.76 1.23 1.76 2.27s-3.79 3.62-4.75 4.57a1.82 1.82 0 0 1 2.42 1.01zm-2.28-10.79c-1-.78.18-2 1.31-1.32a11.85 11.85 0 0 0 2.39 1.15c1.4.48.48 2.2-.84 1.74a12.21 12.21 0 0 1-2.86-1.57zm19.2 14.4c-1.56.3-2.05-1.59-.42-1.92a8.74 8.74 0 0 0 2.56-.83c2.11-1.22 2.69-2.54 2.28-3.31s-1.8-1-3.83-.13a11.91 11.91 0 0 0-2.57 1.64c-1.13 1.1-1.9.56-2.24-.11a6.59 6.59 0 0 1-.15-3.26c.15-1.4.4-2.87.55-3.85.2-1.23 1.94-1.19 1.77.19-.1.8-.31 1.88-.46 2.8a5 5 0 0 0-.12 2c.06.16.15.16.33.06a23.93 23.93 0 0 1 2.18-1.09c5.79-2.51 9.87 2.66 3.39 6.63a10.31 10.31 0 0 1-3.27 1.18zm-.08-12.23c-.92.23-1.61-1-.8-1.44.09-.06.28-.15.15-.25a6.69 6.69 0 0 1-1.36-.9c-.83-.9.44-1.91 1.4-1.22.34.24 1 .53 1.55.89a2.06 2.06 0 0 1 1.09 1.4 1.25 1.25 0 0 1-1.2 1.35 6.13 6.13 0 0 0-.83.17zm14.78 9.43c-.87 1.51-2.8.34-1.75-.9a1.64 1.64 0 0 1 .16-.18 38.15 38.15 0 0 0 2.85-4.27c0-.38.06-.75.1-1.13a6.82 6.82 0 0 0-1.46.69c-1.32.84-1.92-1-.88-1.51a39 39 0 0 1 2.51-1.06c.13-1.44.29-2.72.38-3.56a.89.89 0 0 1 1.77.19c-.14.69-.27 1.65-.41 2.76.62-.08 1.15.5.87 1.4l.67-.6c3-2.43 5.75-2.26 5.5 1.56-.08 1.14-.39 3.18-.48 4.27-.19 2.19.94 1.95 2.22.59a.94.94 0 1 1 1.38 1.27c-2.43 2.66-5.86 2.36-5.42-1.88.09-1 .44-3.09.5-4.24.05-1.36-.23-2.39-2.92-.17a23.75 23.75 0 0 0-2.72 2.49 28.48 28.48 0 0 0 .16 5.7 1 1 0 1 1-1.94.15 28.86 28.86 0 0 1 0-3.55c-.44.69-.79 1.42-1.09 1.98zm20.96 1.34c-.57 1.28-2.6.73-1.8-.9a58.71 58.71 0 0 0 3.36-8.32 5.47 5.47 0 0 1-2.8-.27c-1-.42-.79-2.16.65-1.65a5.1 5.1 0 0 0 2.64.12 8 8 0 0 0 0-2.07c-.07-1.09 1.73-1.15 1.92-.1a5.64 5.64 0 0 1 0 1.54l.73-.4a.91.91 0 1 1 .75 1.64 12.25 12.25 0 0 1-1.94.77 75.57 75.57 0 0 1-3.51 9.64zm4.66-.86c-.82-.92.36-2.44 1.36-1.42s2.15.9 4.39.71a1 1 0 1 1 .25 2c-2.75.53-5.16-.35-6-1.29zm2.17-6.69c-1 .36-1.59-1.21-.33-1.65a7.16 7.16 0 0 1 4.6.1c1.28.46.77 2.14-.44 1.74a6.71 6.71 0 0 0-3.83-.19zm14.7 7.43A8.83 8.83 0 0 0 397 39.26c-.63-1.91-2.46-1.2-3 0a6.25 6.25 0 0 0-.5 3.62c.1 1.86-2 1.84-2.09.46a17.25 17.25 0 0 1 .44-4.43c.21-1 .58-2.24.73-3.41a1 1 0 0 1 1.92.17 5.84 5.84 0 0 1-.5 1.78c-.25.52-.06.27.13 0 1.4-1.8 3.89-1 4.68 1.15A10.47 10.47 0 0 1 395 50.84c-1.59 1.16-3-.44-1.38-1.5zm16.48 1.92a2.19 2.19 0 1 1 2.18-2.18 2.19 2.19 0 0 1-2.18 2.18zm0-3.62a1.44 1.44 0 0 0-1.46 1.44 1.46 1.46 0 0 0 2.91 0 1.44 1.44 0 0 0-1.45-1.44z" fill="#040000" data-name="レイヤー 1"/></g></svg>