<svg xmlns="http://www.w3.org/2000/svg" viewBox="0 0 496.94 119.46"><g data-name="レイヤー 2"><path d="M15.91 10.66l-4.12-.08a12.27 12.27 0 0 0 4.27 1.73.78.78 0 0 1 .69.78 1 1 0 0 1-1 1A8.66 8.66 0 0 1 13 13v1.13c0 1.5 0 2.69-1.78 2.78-.79 0-1.65.06-2.49.06-1.08 0-2.15 0-3.09-.06-1.88-.07-1.88-1.07-1.88-2.81v-1.27a11.23 11.23 0 0 1-3 1.36.84.84 0 0 1-.76-.83.78.78 0 0 1 .58-.77 16.79 16.79 0 0 0 4-2l-3.79.08A.68.68 0 0 1 .06 10a.73.73 0 0 1 .75-.77h5.5c.24-.23.49-.48.74-.75-3.85 0-4.12 0-4.12-2.49 0-1.3 0-2.34 1.94-2.41.94 0 2.22-.06 3.56-.06s2.69 0 3.78.06c1.59.05 1.72 1.13 1.72 2.28 0 1.47 0 2.53-1.82 2.58-1 0-2.11.06-3.24.06a.26.26 0 0 1-.07.21l-.46.52h7.57a.72.72 0 0 1 .75.75.71.71 0 0 1-.73.73zm-4.54-8.07v.15c0 .46-.45.69-.89.69s-.88-.23-.88-.69v-.15H7v.15c0 .46-.45.69-.89.69s-.86-.23-.86-.69v-.15H1.21a.74.74 0 1 1 0-1.48h4.06V.69c0-.44.44-.67.88-.67S7 .25 7 .69v.42h2.6V.69c0-.44.4-.69.88-.69s.89.23.89.67v.42h4.19a.74.74 0 1 1 0 1.48zM4.58 6.48v.25c0 .44.21.53.77.53h6.11c.42 0 .71-.15.73-.55v-.23zm7.65-1v-.19c-.06-.61-.17-.61-3.64-.61-3.89 0-3.93 0-4 .67v.13zm-6.86 9.16v.44c0 .46.28.58.8.58h4.49c.4 0 .72-.17.74-.6v-.42zm6.07-1.07v-.33c-.05-.63-.5-.63-2.66-.63-3.07 0-3.34 0-3.37.69v.27zM7 10.56c-.33.29-.67.58-1 .84h4.6a11.39 11.39 0 0 1-1-.84zM27.67 17c-1.55.31-2.05-1.59-.42-1.92a8.83 8.83 0 0 0 2.57-.82c2.11-1.23 2.68-2.55 2.28-3.31s-1.8-1.06-3.83-.14a12 12 0 0 0-2.57 1.65c-1.13 1.09-1.9.56-2.24-.11a6.58 6.58 0 0 1-.16-3.26c.16-1.4.4-2.88.56-3.86.19-1.22 1.93-1.18 1.76.2-.09.8-.31 1.87-.46 2.79a5 5 0 0 0-.11 2c.05.15.15.15.32.05.39-.21 1.29-.71 2.19-1.09 5.78-2.51 9.87 2.67 3.39 6.63A10.37 10.37 0 0 1 27.67 17zM27.6 4.73c-.92.23-1.61-1-.81-1.43.1-.06.29-.16.15-.25a7.13 7.13 0 0 1-1.36-.9C24.76 1.25 26 .23 27 .92c.35.25 1 .54 1.55.9a2 2 0 0 1 1.1 1.4 1.25 1.25 0 0 1-1.21 1.34c-.27.04-.54.1-.84.17zm14.31 7.82c-.07-2 .14-3.64.23-5.67.06-1.25.19-3.12.16-4.31a1 1 0 0 1 2.08 0c0 1.21-.17 3-.26 4.31a53.48 53.48 0 0 0-.35 5.64c.12 2.8 3.53 2.6 6.86 0A1.07 1.07 0 1 1 52 14.13c-3.78 3.04-9.91 3.6-10.09-1.58zm22.64-1.82a35.21 35.21 0 0 1 2.27 4.66 1.22 1.22 0 0 1-.58 1.61 1.09 1.09 0 0 1-1.36-.94 24.82 24.82 0 0 0-2-4.64c-.46-.88-.94-1.76-1.38-2.57a13.7 13.7 0 0 1-2.72 1.21 1 1 0 1 1-.46-1.88 13.57 13.57 0 0 0 2.3-.94l-.27-.53c-.17-.33-.35-.69-.52-1.06a6.23 6.23 0 0 1-.4-1.05.94.94 0 0 1 1.8-.54c.25.63.44 1.27.75 1.88l.23.44a30 30 0 0 1 3.81-2c1.9-.73 3.8-1 5.27-.06 1.63 1 1.69 2.89.62 4.43a5.6 5.6 0 0 1-7 1.36.93.93 0 0 1-.27-1.34.94.94 0 0 1 1.42-.25 3.33 3.33 0 0 0 4.2-.77 1.33 1.33 0 0 0-.2-2c-.7-.52-1.93-.41-3.52.23A22.78 22.78 0 0 0 63 8c.5.84 1 1.79 1.55 2.73zm-.46-6.67a1.82 1.82 0 0 0-.42-.76 4.88 4.88 0 0 0-.48-.54c-.63-.65.66-1.65 1.61-.86a3.54 3.54 0 0 1 1.13 1.57c.35 1.17-1.49 1.82-1.84.59zM86.79 14v2.47a.86.86 0 0 1-.94.85.88.88 0 0 1-.94-.85V14H79.6a.8.8 0 1 1 0-1.59h5.31v-1.69H78.7a.79.79 0 0 1-.84-.78.78.78 0 0 1 .84-.79H83a4.49 4.49 0 0 0-.79-1 .74.74 0 0 1-.27-.54.84.84 0 0 1 .88-.73 2.52 2.52 0 0 1 1.84 1.88.9.9 0 0 1-.11.44h2.24a8.22 8.22 0 0 0 .92-1.88.72.72 0 0 1 .73-.51c.51 0 1.07.36 1.07.86a4.54 4.54 0 0 1-.78 1.51H93a.75.75 0 0 1 .8.79.76.76 0 0 1-.8.78h-6.19v1.69h5.29a.8.8 0 1 1 0 1.59zm-8-7.43a.78.78 0 1 1 0-1.56h6.17V3.43h-4.49a.77.77 0 1 1 0-1.53h4.44v-.81a.93.93 0 1 1 1.86 0v.81h4.37a.77.77 0 1 1 0 1.53h-4.37V5h6.13a.82.82 0 0 1 .85.81.76.76 0 0 1-.85.75zm24.52 3.11c-1.69.53-2.41.77-3 .94-1.52.44-2-1.59-.44-2 .86-.21 2.28-.57 3.12-.76l.54-.12v-.23c0-1.11-.1-1.89-.13-2.72a1 1 0 0 1 2-.08c0 .62 0 1.5-.06 2.4v.25c1.27-.27 2.86-.59 4.43-.86V4.91a6.72 6.72 0 0 0 0-.77v-.75a1 1 0 0 1 1.92 0c0 .65 0 1.21-.08 1.75 0 .32 0 .7-.06 1.09l.5-.08a18.39 18.39 0 0 1 3.12-.15c1.57.1 1.27 2-.29 1.88a17.44 17.44 0 0 0-2.7 0c-.27 0-.51.06-.78.07 0 .33-.08.68-.12 1a4.34 4.34 0 0 1-1.47 3.1 1.67 1.67 0 0 1-2.36-.28 7.43 7.43 0 0 1-.75-1c-.5-.84.54-1.76 1.29-.78.55.72.88.63 1.15.23a4.76 4.76 0 0 0 .55-2c-1.59.25-3.08.6-4.35.92 0 .91 0 1.83.1 2.5.15 2.07.76 2.72 2.37 2.76a10.92 10.92 0 0 0 3.13-.52 1 1 0 1 1 .53 1.88 11.46 11.46 0 0 1-4 .32c-2.51-.27-3.43-1.45-3.7-4.06-.08-.69-.14-1.57-.18-2.38zM129.43 6a15.14 15.14 0 0 1-3.87 7.76c-1.48 1.36-3.09.61-3.93-1-1.21-2.37.08-5.94 2.64-7.72a8 8 0 0 1 8.28-.44 5.68 5.68 0 0 1 1.79 8.05 8 8 0 0 1-4.68 3.16c-1.69.44-2.28-1.49-.63-1.88a5.93 5.93 0 0 0 3.56-2.14 4.14 4.14 0 0 0-1.05-5.87 4.87 4.87 0 0 0-2.38-.76.94.94 0 0 1 .27.84zm-4.26.36c-1.78 1.38-2.74 3.93-1.93 5.41.29.55.78.84 1.26.42a11.49 11.49 0 0 0 3-6.38 1.37 1.37 0 0 1 .18-.6 6.47 6.47 0 0 0-2.51 1.17zm22.67-.55c1.61-.14 2.83.8 2.91 3a11.51 11.51 0 0 1-.65 4.19 3.72 3.72 0 0 1-4.51 2.3c-1.51-.44-.9-2.2.27-1.91a1.85 1.85 0 0 0 2.44-1 8.56 8.56 0 0 0 .61-3.31c0-1.17-.4-1.73-1.29-1.65l-.88.09a28.48 28.48 0 0 1-3.74 7.7c-.92 1.3-2.92.19-1.67-1.21a18.54 18.54 0 0 0 3.39-6.23h-.23a13.35 13.35 0 0 1-2.07.27.92.92 0 1 1-.06-1.84c.6-.06 1.19 0 1.88-.1l1-.09a20.14 20.14 0 0 0 .59-3c.14-1.25 2.09-1.13 1.94.15a26.24 26.24 0 0 1-.56 2.7zm7 4.31a6.91 6.91 0 0 0-2.74-3.3c-.94-.51-.1-1.95 1.09-1.26a8 8 0 0 1 3.41 3.64c.53 1.27-1.19 2.11-1.71.92zm8.47 5.39c-.57 1.28-2.6.72-1.8-.91a58.7 58.7 0 0 0 3.35-8.31 5.67 5.67 0 0 1-2.79-.29c-1-.42-.79-2.17.65-1.65a5 5 0 0 0 2.64.11 7.93 7.93 0 0 0 0-2.06c-.07-1.1 1.73-1.15 1.92-.1a5.57 5.57 0 0 1 0 1.53c.27-.13.5-.27.73-.4a.92.92 0 1 1 .75 1.65 12.27 12.27 0 0 1-1.94.76 75.82 75.82 0 0 1-3.51 9.67zm4.66-.87c-.82-.92.36-2.43 1.36-1.42s2.15.91 4.39.71a1 1 0 1 1 .25 2c-2.78.53-5.16-.35-5.97-1.29zM170.14 8c-1 .37-1.6-1.2-.33-1.64a7.08 7.08 0 0 1 4.6.09c1.28.46.77 2.15-.44 1.75a6.72 6.72 0 0 0-3.83-.2zm15.08 2A8.83 8.83 0 0 1 189 8.39c4-.53 5.84 3 3.43 5.89a8.51 8.51 0 0 1-5.16 2.51c-1.84.25-1.93-1.67-.5-1.84a6.43 6.43 0 0 0 4-1.73c1.4-1.57 1.07-3.39-1.53-3.18a5.76 5.76 0 0 0-3.38 1.77c-.34.36-.44.92-1.09 1.09-.84.23-1.49-.59-1.36-1.57s.42-3.05.71-4.93a6.87 6.87 0 0 1-1.8-.06c-1.42-.23-1.27-2.16.27-1.82a4.61 4.61 0 0 0 1.82 0c.19-1.23.38-2.28.52-2.87a1 1 0 1 1 1.84.46c-.14.44-.27 1.07-.43 1.78a7.63 7.63 0 0 0 1-.61c1.32-.94 2.53 1 .75 1.8-.81.38-1.52.67-2.17.9-.28 1.7-.56 3.39-.7 4.02zm20.96-4.19c1.61-.14 2.84.8 2.92 3a11.52 11.52 0 0 1-.66 4.27 3.7 3.7 0 0 1-4.5 2.3c-1.51-.44-.9-2.2.27-1.91a1.84 1.84 0 0 0 2.43-1 8.57 8.57 0 0 0 .62-3.31c0-1.17-.41-1.73-1.29-1.65l-.88.09a28.2 28.2 0 0 1-3.72 7.71c-.92 1.3-2.91.19-1.67-1.21a18.54 18.54 0 0 0 3.4-6.23h-.23a13.66 13.66 0 0 1-2.07.27.92.92 0 1 1-.06-1.84c.59-.06 1.19 0 1.88-.1l1-.09a23 23 0 0 0 .59-3c.13-1.25 2.09-1.13 1.94.15a26.24 26.24 0 0 1-.56 2.7zm7 4.31a6.91 6.91 0 0 0-2.74-3.3c-.94-.51-.09-1.95 1.1-1.26A8 8 0 0 1 215 9.2c.48 1.27-1.25 2.11-1.77.92zm-1.74-5.9c-1-.37-.31-1.56.59-1.27A6.28 6.28 0 0 1 214 4c.79.75-.25 2-.92 1.25a6.49 6.49 0 0 0-1.59-1.03zm1.65-1.71c-1-.33-.38-1.55.53-1.3a6.32 6.32 0 0 1 2 1c.8.73-.21 2-.9 1.29a6.61 6.61 0 0 0-1.58-.99zm10.08 14.6a.88.88 0 0 1-.9-.9.8.8 0 0 1 .84-.8 11.31 11.31 0 0 0 4.39-1.28 7.94 7.94 0 0 1-1.4-1.58c-2.22 2.07-4.23 3-4.65 3a.82.82 0 0 1-.31-1.59 14.29 14.29 0 0 0 5.48-4.46 1 1 0 0 1 .75-.37.84.84 0 0 1 .9.75.68.68 0 0 1-.08.34l3.11-.05c1 0 1.49.53 1.49 1.15s-.55 1.3-2.26 2.76A15 15 0 0 0 236 15a.77.77 0 0 1 .79.82c0 .75-.57 1-1.3 1a12.8 12.8 0 0 1-6.49-1.64 14.27 14.27 0 0 1-5.83 1.93zm-1.51-8.68a.92.92 0 0 1-1-.9.8.8 0 0 1 .54-.73 7.3 7.3 0 0 0 2.66-2 .84.84 0 0 1 .63-.29.93.93 0 0 1 .92.88.9.9 0 0 1-.25.6c-.99 1.12-2.66 2.44-3.5 2.44zm9.62-4.67v3.29a2.08 2.08 0 0 1-2.21 2.24c-.53 0-1.53-.05-1.53-1a.79.79 0 0 1 .71-.85.72.72 0 0 1 .19 0 1.89 1.89 0 0 0 .55.1c.35 0 .62-.19.62-.81V3.76h-1.59v.13a6.58 6.58 0 0 1-3.47 6.19 1.29 1.29 0 0 1-.63.19.93.93 0 0 1-.94-.88.86.86 0 0 1 .55-.76 4.46 4.46 0 0 0 2.8-4.57v-.3h-4.68a.83.83 0 0 1-.9-.83.87.87 0 0 1 .9-.86h6.1V.9a1 1 0 0 1 1.95 0v1.17h6a.81.81 0 0 1 .86.84.82.82 0 0 1-.86.85zm-2.36 9.44a9.63 9.63 0 0 0 1.32-1.2.49.49 0 0 0 .14-.27c0-.13-.12-.17-.23-.17h-2.86a6.71 6.71 0 0 0 1.63 1.64zm6.1-5a8.12 8.12 0 0 0-2.73-1.87.65.65 0 0 1-.44-.62 1 1 0 0 1 .92-.94 8 8 0 0 1 3.57 1.94 1 1 0 0 1 .32.73 1.08 1.08 0 0 1-1 1.07.87.87 0 0 1-.66-.35zm10.12 4.85c-.26.44-.55 1-.9 1.55-.78 1.38-2.6.31-1.76-.95a7.69 7.69 0 0 1 .57-.77 27.78 27.78 0 0 0 2.55-4.68v-.46a.31.31 0 0 0-.25 0 12 12 0 0 0-1.38.83c-1.38.86-2-1.06-.92-1.58.71-.32 1.75-.82 2.72-1.22.14-1.4.25-2.61.33-3.43.11-1.34 2.05-1.08 1.88.05-.1.69-.23 1.63-.37 2.74.75 0 1.27.94.41 2.17-.1.13-.39.67-.77 1.36v.1a12.92 12.92 0 0 1 1.65-1.06c3.41-1.82 6.46-1.19 7.84.39s1.07 4.16-1.82 6.24a11.32 11.32 0 0 1-2.73 1.4 1 1 0 1 1-.61-1.95 10.36 10.36 0 0 0 2-.94c2-1.36 2.26-2.86 1.42-3.74s-2.86-1.15-5.5.21a12 12 0 0 0-2.35 1.69 24.8 24.8 0 0 0 .16 4.56 1 1 0 0 1-.88 1.23 1 1 0 0 1-1.15-1.05 18.56 18.56 0 0 1 0-2.84zm21.68 2.34a8.83 8.83 0 0 0 3.33-10.08c-.63-1.92-2.45-1.21-3 0a6.44 6.44 0 0 0-.5 3.62c.1 1.86-2 1.84-2.08.46A16.78 16.78 0 0 1 265 5c.21-1 .57-2.25.73-3.42a1 1 0 0 1 1.91.18 5.84 5.84 0 0 1-.5 1.78c-.25.52-.05.27.14 0 1.4-1.8 3.89-1 4.67 1.15a10.46 10.46 0 0 1-3.79 12.22c-1.55 1.09-2.95-.47-1.34-1.52zm19.04.34c-1.78.29-1.91-1.82-.38-2a10.24 10.24 0 0 0 5.63-2.24c1.63-1.44 1.75-3 .87-4-1.23-1.4-3.4-1.36-5.12-.85a18.9 18.9 0 0 0-2.74 1.13c-.86.43-1.73.87-2.67 1.31a1.08 1.08 0 1 1-.93-1.92 45 45 0 0 1 6-2.24c2.19-.56 5.1-.54 6.87 1.3 2.07 2.17 1.3 4.91-1.06 6.86a13.16 13.16 0 0 1-6.47 2.65zm20.62 0c-1.78.29-1.92-1.82-.38-2a10.24 10.24 0 0 0 5.63-2.24c1.63-1.44 1.75-3 .86-4-1.22-1.4-3.39-1.36-5.11-.85a18.9 18.9 0 0 0-2.74 1.13c-.87.43-1.73.87-2.67 1.31a1.08 1.08 0 1 1-.94-1.92 45.7 45.7 0 0 1 6-2.24c2.19-.56 5.1-.54 6.86 1.3 2.07 2.17 1.31 4.91-1.05 6.86a13.16 13.16 0 0 1-6.46 2.65zm19.1-1.66a16.39 16.39 0 0 1-2.09 1.3c-1.19.61-3 .31-2.8-2.26A7.5 7.5 0 0 1 324.13 8c.24-.15.51-.31.8-.46.06-.73.13-1.49.23-2.28a7.17 7.17 0 0 1-2.4-.19.89.89 0 1 1 .54-1.69 6 6 0 0 0 2.07.16c.08-.56.17-1.14.25-1.71.21-1.42 2.07-1.11 1.86 0-.08.48-.17 1-.25 1.4a18.79 18.79 0 0 0 2.59-.75c1.11-.42 1.95 1.21.44 1.71a24.82 24.82 0 0 1-3.32.84c-.09.61-.17 1.17-.25 1.7a7.76 7.76 0 0 1 2-.42h.24c.13-1.13 1.89-.76 1.82.16 5.59 1 5.3 8.07-1.23 10.21-1.72.58-2.2-1.2-.63-1.72 4.77-1.55 5-6.08 1.49-6.94a12.39 12.39 0 0 1-3.31 4.77 1.55 1.55 0 0 0 .21.38c.67 1.12-.92 2.34-1.65 1zm-.75-4.72a5.47 5.47 0 0 0-2.45 3.65c-.06.76.46.84 1 .57a15.94 15.94 0 0 0 1.7-1.11 15.37 15.37 0 0 1-.25-3.11zm3.66-1.41a7.75 7.75 0 0 0-2 .51 12.39 12.39 0 0 0 0 2.61 9 9 0 0 0 2-3.12zm21.12 5.92c1.39-1.25 1.34-3.07.24-3.8a5 5 0 0 0-5 .33 4.19 4.19 0 0 0-1.61 1.44c-.69 1-2.6-.12-1.42-1.29a67.57 67.57 0 0 0 5.79-6.19c.21-.27 0-.19-.13-.11a15.54 15.54 0 0 1-3.22 1c-1.51.33-1.8-1.57-.5-1.72a29.77 29.77 0 0 0 4.24-.97c1.53-.44 2.8.92 1.84 2-.62.69-1.38 1.44-2.15 2.15s-1.53 1.4-2.22 2.07a5.87 5.87 0 0 1 5.38-.06c2.76 1.65 1.86 5-.15 6.48s-4.89 1.44-6.34.48c-2-1.32-1.13-3.7 1.13-3.78a2.71 2.71 0 0 1 3 2.59 2.7 2.7 0 0 0 1.12-.62zm-4.09-.58c-.84.08-.88.86-.26 1.19a3.43 3.43 0 0 0 1.61.29c.02-.88-.5-1.56-1.35-1.48zm15.68.56A9.88 9.88 0 0 1 359 7.7a18.16 18.16 0 0 1-.1-2.12 1 1 0 1 1 2 0v1.67c.07 2 .44 3.91 1.51 4.94.5.48.75.54 1.17 0a6.77 6.77 0 0 0 .63-1.13.94.94 0 0 1 1.75.69 8.82 8.82 0 0 1-.75 1.48c-1.21 1.93-2.93 1.77-4.01.61zm10.37-3.37a6 6 0 0 0-2.12-3.72c-.92-.64.11-2 1.26-1.19a7.4 7.4 0 0 1 2.88 4.44 1 1 0 0 1-2.02.47zm13-4.78a16.61 16.61 0 0 1-3 .23c-1.48 0-1.55-2 .19-1.82a10.88 10.88 0 0 0 3-.13V1.44a1 1 0 0 1 2 0c-.06.69-.1 1.46-.12 2.22.41-.07.85-.19 1.31-.29 1.26-.28 1.78 1.5.11 1.77-.52.07-1 .17-1.44.25v2.12c.46-.13.94-.26 1.46-.44 1.42-.46 2.15 1.31.44 1.79-.67.19-1.28.36-1.84.49 0 .66.08 1.25.13 1.81s.12 1.2.16 1.89a8.91 8.91 0 0 1 2.37 1.36c1.29 1.06 0 2.8-1.17 1.69a9.5 9.5 0 0 0-1.39-1 3.91 3.91 0 0 1-5.37 1.75c-1.82-.9-1.94-3 .15-3.93a6.47 6.47 0 0 1 3.66-.33c0-.4-.05-.8-.09-1.24s-.08-1-.12-1.59a10.42 10.42 0 0 1-3.48.21 1 1 0 1 1 .4-1.84 8.45 8.45 0 0 0 3-.17c0-.73-.08-1.48-.1-2.23zm-2.47 8.55a.58.58 0 0 0-.06 1.09 2.12 2.12 0 0 0 2.96-1.07 4.16 4.16 0 0 0-2.9-.02zm16.76 1.27c-.57 1.28-2.61.72-1.8-.91a59.94 59.94 0 0 0 3.35-8.31 5.72 5.72 0 0 1-2.8-.27c-1-.42-.78-2.17.66-1.65a5 5 0 0 0 2.64.11 8.4 8.4 0 0 0 0-2.06c-.07-1.1 1.73-1.15 1.92-.1a6.48 6.48 0 0 1 0 1.53c.26-.13.5-.27.72-.4a.92.92 0 1 1 .75 1.65 11.77 11.77 0 0 1-1.93.76 75.82 75.82 0 0 1-3.51 9.65zm4.66-.87c-.83-.92.36-2.43 1.36-1.42s2.14.91 4.39.71a1 1 0 1 1 .25 2c-2.78.53-5.16-.35-6-1.29zM405.68 8c-1 .37-1.59-1.2-.32-1.64a7.08 7.08 0 0 1 4.6.09c1.28.46.76 2.15-.44 1.75a6.75 6.75 0 0 0-3.84-.2zm2.17-4.44c-1-.4-.21-1.57.67-1.25a6 6 0 0 1 1.9 1.15c.74.81-.39 2-1 1.23a6.5 6.5 0 0 0-1.57-1.18zm1.72-1.69c-1-.38-.29-1.55.62-1.26a6.19 6.19 0 0 1 1.93 1.11c.77.76-.32 2-1 1.22a6.69 6.69 0 0 0-1.55-1.12zm14.05 3.94c1.62-.14 2.84.8 2.92 3a11.31 11.31 0 0 1-.65 4.27 3.72 3.72 0 0 1-4.51 2.3c-1.51-.44-.9-2.2.27-1.91a1.85 1.85 0 0 0 2.44-1 8.56 8.56 0 0 0 .61-3.31c0-1.17-.4-1.73-1.28-1.65l-.89.09a28.48 28.48 0 0 1-3.71 7.71c-.92 1.3-2.92.19-1.67-1.21a18.54 18.54 0 0 0 3.39-6.23h-.23a13.35 13.35 0 0 1-2.07.27.92.92 0 1 1-.06-1.84c.6-.06 1.19 0 1.88-.1l1-.09a20.14 20.14 0 0 0 .59-3c.14-1.25 2.09-1.13 1.94.15a26.24 26.24 0 0 1-.56 2.7zm7.06 4.31a6.91 6.91 0 0 0-2.74-3.3c-.94-.51-.1-1.95 1.09-1.26a8 8 0 0 1 3.41 3.64c.48 1.27-1.24 2.11-1.76.92zM443.44 17c-1.55.31-2.05-1.59-.42-1.92a8.93 8.93 0 0 0 2.57-.82c2.1-1.23 2.68-2.55 2.28-3.31s-1.81-1.06-3.84-.14a11.82 11.82 0 0 0-2.56 1.65c-1.14 1.09-1.9.56-2.25-.11a6.72 6.72 0 0 1-.15-3.26c.15-1.4.4-2.88.56-3.86.19-1.22 1.93-1.18 1.76.2-.1.8-.31 1.87-.46 2.79a5.25 5.25 0 0 0-.12 2c.06.15.16.15.33.05a23.93 23.93 0 0 1 2.18-1.09c5.79-2.51 9.87 2.67 3.4 6.63a10.46 10.46 0 0 1-3.28 1.19zm-.08-12.23c-.92.23-1.61-1-.8-1.43.09-.06.28-.16.15-.25a7.13 7.13 0 0 1-1.36-.9c-.82-.9.44-1.92 1.4-1.23.34.25 1 .54 1.55.9a2 2 0 0 1 1.09 1.4 1.23 1.23 0 0 1-1.2 1.34c-.25 0-.52.06-.83.13zm13.86 9.07a1 1 0 0 1 1.59-1.25c1.63 1.67 4.73 1.54 7.63.71 1.59-.44 2.05 1.63.49 2.11-3.79 1.19-8.39.29-9.71-1.57zM459.36 6c-1.51.29-1.76-1.75-.05-2a20.76 20.76 0 0 1 6.11.06c1.61.35 1.19 2.32-.36 2a14.38 14.38 0 0 0-5.7-.06zm18.82 4.08c.27-.4.32-.48-.08-.34a18.22 18.22 0 0 0-2 .86 1.87 1.87 0 0 1-1.67.21.94.94 0 0 1 .22-1.8 9.07 9.07 0 0 0 2.2-.71c1.57-1.38 3.3-4.35 4.43-6.12a1.05 1.05 0 1 1 1.8 1.08 36.33 36.33 0 0 1-3.89 4.56c-.21.19 0 .12.13.08a4.25 4.25 0 0 1 .63-.22 18.08 18.08 0 0 1 4.26-.78 1 1 0 0 1 1 1.4c-.18.36-.66.65-1.62.54a8.55 8.55 0 0 0-2.22.19 2.2 2.2 0 0 0-1.68 1.3 2.8 2.8 0 0 0 2.7 4.47c1.84-.12 1.84 2.39-.27 2.18-4.42-.44-5.57-4.5-3.94-6.9zm-1.57-5a3.46 3.46 0 0 0-1.19-1.42c-.94-.57.17-1.93 1.23-1.25a4 4 0 0 1 1.68 1.81 1 1 0 0 1-.53 1.24.85.85 0 0 1-1.19-.36zm18.57 11.8a7.36 7.36 0 0 0-2.36-2 .84.84 0 0 1 .39-1.61c.67 0 3.73 1.69 3.73 3a1.06 1.06 0 0 1-1 1.06.87.87 0 0 1-.76-.45zM58 48.08a1 1 0 0 1-1.06-1 1.12 1.12 0 0 1 .35-.78 9.69 9.69 0 0 0 2.12-3.86.93.93 0 0 1 .92-.7 1 1 0 0 1 1 .93A12.29 12.29 0 0 1 59 47.6a1.31 1.31 0 0 1-1 .48zM66.12 51c-2 0-3.7-.25-3.7-2.53s.1-5.86.16-8.81a1 1 0 0 1 2 0c-.09 3-.17 6.38-.19 8.55 0 .82.67 1 1.9 1 1.59 0 2.68-.13 2.68-2.22a.9.9 0 0 1 .94-1A1 1 0 0 1 71 47.12C71 51 68.12 51 66.12 51zm1.06-12.67a13.11 13.11 0 0 0-3.55-1.72.71.71 0 0 1-.54-.69 1.06 1.06 0 0 1 1-1 13.15 13.15 0 0 1 4.33 1.79 1 1 0 0 1 .4.78 1.1 1.1 0 0 1-1 1.09 1 1 0 0 1-.64-.26zm5.57 7.92a14.06 14.06 0 0 0-3.23-3.3.86.86 0 0 1-.39-.69 1 1 0 0 1 1-.88 1.17 1.17 0 0 1 .61.19c2.21 1.44 4 3.19 4 4a1.16 1.16 0 0 1-1.11 1.13 1 1 0 0 1-.88-.46zm15.58-6.18a15.11 15.11 0 0 1-3.87 7.76c-1.48 1.36-3.09.61-3.93-1-1.21-2.38.08-5.95 2.64-7.73a8 8 0 0 1 8.28-.44 5.68 5.68 0 0 1 1.79 8 8 8 0 0 1-4.68 3.16c-1.69.44-2.28-1.49-.63-1.87a5.94 5.94 0 0 0 3.56-2.15 4.14 4.14 0 0 0-1-5.86 5 5 0 0 0-2.38-.77 1 1 0 0 1 .22.9zm-4.25.36c-1.79 1.38-2.75 3.93-1.94 5.41.29.55.79.84 1.26.42a11.46 11.46 0 0 0 3-6.38 1.37 1.37 0 0 1 .18-.6 6.43 6.43 0 0 0-2.5 1.15zm31.15 6.75l-5.76-.08a7.89 7.89 0 0 0 5.75 2.28.87.87 0 0 1 1 .87 1.06 1.06 0 0 1-1.15 1 10 10 0 0 1-7.22-3.72c-2 3.22-6.48 3.8-7.36 3.8a1 1 0 0 1-1-.94.83.83 0 0 1 .79-.83c3.08-.28 4.92-1.18 5.84-2.49l-5.69.08a.73.73 0 0 1-.76-.79.78.78 0 0 1 .78-.82h6.32a6.32 6.32 0 0 0 .1-.65.87.87 0 0 1 1-.81c.46 0 .9.25.9.67a6.66 6.66 0 0 1-.1.79h6.67a.76.76 0 0 1 .81.79.78.78 0 0 1-.79.82zm-2.72-2.72v-6.42a.65.65 0 0 0-.69-.71c-1.07-.06-2.45-.08-3.85-.08s-2.78 0-3.89.08a.72.72 0 0 0-.77.69v6.4c0 .5-.44.73-.9.73a.85.85 0 0 1-.94-.75v-6.76a2 2 0 0 1 2.24-1.91l2.27-.06c.09-.37.21-.79.26-1.13a1 1 0 0 1 1-.73c.52 0 1.07.31 1.07.8a2.59 2.59 0 0 1-.32 1.06c1.47 0 3 0 4.18.06s2.12.72 2.12 1.84v6.82a.85.85 0 0 1-.94.71c-.44 0-.88-.23-.88-.69zm-1.11-3.34l-2.87-.07v2.26a.67.67 0 0 1-.74.61c-.39 0-.77-.21-.77-.61v-1.17a6.41 6.41 0 0 1-2.78 2.09.82.82 0 0 1-.79-.79.63.63 0 0 1 .43-.61 9.94 9.94 0 0 0 2.62-1.76h-2.24a.59.59 0 0 1-.61-.63.61.61 0 0 1 .63-.63h.94a5.27 5.27 0 0 0-.62-.94.56.56 0 0 1-.13-.35c0-.34.4-.59.77-.59.73 0 1.32 1.5 1.32 1.63a.65.65 0 0 1-.08.27h.58v-1.61a.68.68 0 0 1 .75-.65.69.69 0 0 1 .76.65v1.61h.43a11.91 11.91 0 0 0 .69-1.57.58.58 0 0 1 .61-.45.8.8 0 0 1 .84.69 5.12 5.12 0 0 1-.67 1.31h1a.61.61 0 0 1 .6.65.57.57 0 0 1-.58.61zm-.52 2.63a6.41 6.41 0 0 0-1.72-1.09.57.57 0 0 1-.4-.54.71.71 0 0 1 .74-.67c.29 0 2.59.67 2.59 1.67a.82.82 0 0 1-.73.84.7.7 0 0 1-.48-.21zm11.8 5.82c-1.53-3.77 0-9.44.33-11.72a.93.93 0 1 1 1.85.11c-.3 1.55-1.45 6.06-1 7.84 0 .25.13.19.21 0s.25-.48.32-.62a.77.77 0 0 1 1.34.75 10.14 10.14 0 0 0-1.13 2.69c-.11.51.12 1.11-.36 1.53s-1.18.37-1.56-.58zm5.14-1.36a1 1 0 0 1 1.36-1.32c1 .94 3.33.63 4.83.33s1.64 1.7.38 2c-2.05.55-5.19.49-6.57-1.01zm1.09-7.64a.9.9 0 1 1-.27-1.78 11.39 11.39 0 0 1 5-.12.94.94 0 1 1-.33 1.84 9.55 9.55 0 0 0-4.4.06zm17.47 7.55a14.75 14.75 0 0 1-2.09 1.3c-1.18.62-3 .31-2.79-2.26a7.45 7.45 0 0 1 3.43-5.08l.8-.46c.06-.73.14-1.49.23-2.28a7.09 7.09 0 0 1-2.39-.19.89.89 0 1 1 .53-1.69 5.77 5.77 0 0 0 2.07.16c.08-.56.17-1.14.25-1.71.21-1.42 2.07-1.11 1.86 0-.08.48-.17 1-.25 1.4a18.39 18.39 0 0 0 2.59-.75c1.11-.42 1.95 1.21.44 1.71a24.07 24.07 0 0 1-3.32.84c-.09.61-.17 1.17-.25 1.7a8.37 8.37 0 0 1 2-.42h.23c.13-1.13 1.9-.76 1.82.16 5.6 1 5.31 8.07-1.23 10.21-1.72.58-2.2-1.2-.63-1.72 4.77-1.55 5-6.08 1.49-6.94a12.28 12.28 0 0 1-3.31 4.77 2.42 2.42 0 0 0 .21.39c.67 1.11-.92 2.33-1.65 1zm-.74-4.72a5.45 5.45 0 0 0-2.46 3.6c-.05.76.46.84 1 .57a14.63 14.63 0 0 0 1.71-1.11 14.66 14.66 0 0 1-.25-3.06zm3.66-1.4a7.72 7.72 0 0 0-2 .51 13.9 13.9 0 0 0 0 2.61 8.94 8.94 0 0 0 2-3.12zm21.11 5.91c1.4-1.25 1.34-3.07.25-3.8a5 5 0 0 0-5 .33 4.12 4.12 0 0 0-1.61 1.44c-.69 1-2.61-.12-1.42-1.29a67.57 67.57 0 0 0 5.79-6.19c.21-.27 0-.19-.14-.11a15.34 15.34 0 0 1-3.22 1c-1.51.33-1.8-1.57-.5-1.72a28.45 28.45 0 0 0 4.22-.94c1.53-.44 2.8.92 1.84 2-.61.69-1.38 1.44-2.15 2.15s-1.53 1.4-2.22 2.07a5.89 5.89 0 0 1 5.39-.06c2.76 1.65 1.85 5-.16 6.48s-4.89 1.44-6.34.48c-2-1.32-1.13-3.7 1.13-3.78a2.73 2.73 0 0 1 3 2.59 2.73 2.73 0 0 0 1.14-.65zm-4.08-.58c-.85.08-.89.87-.27 1.19a3.43 3.43 0 0 0 1.61.29c.02-.88-.5-1.55-1.34-1.48zm17.1 3.61a7.49 7.49 0 0 0-2.36-2 .85.85 0 0 1-.52-.76.86.86 0 0 1 .9-.85c.67 0 3.74 1.69 3.74 3a1.06 1.06 0 0 1-1 1.06.88.88 0 0 1-.76-.45zm10.29-7.69a.77.77 0 1 1 0-1.53h4.87V38h-4a.74.74 0 0 1-.78-.75.73.73 0 0 1 .78-.74h3.7a8.31 8.31 0 0 0-1-1.15.54.54 0 0 1-.2-.42c0-.38.48-.72.94-.72.83 0 2.09 1.7 2.09 2.29H202a12.11 12.11 0 0 0 1-1.91.83.83 0 0 1 .79-.56 1 1 0 0 1 1 .87 4.4 4.4 0 0 1-.92 1.6h3.64a.72.72 0 0 1 .76.74.71.71 0 0 1-.76.75h-4v3.78h4.91a.77.77 0 1 1 0 1.53zm3.28-1.92a.63.63 0 0 1-.59-.36 6.42 6.42 0 0 0-1.29-1.48.55.55 0 0 1-.21-.42c0-.36.44-.69.88-.69.73 0 2.15 1.52 2.15 2.07a1 1 0 0 1-.94.88zm7.29 9.59h-6.35c-1.34 0-1.95-.71-2-1.61q-.06-.84-.06-1.77c0-.59 0-1.2.06-1.72 0-.73.55-1.53 2-1.55h6.25c1.17 0 2 .71 2.07 1.43a23.31 23.31 0 0 1 0 3.61 1.87 1.87 0 0 1-1.99 1.61zm.26-4.07c0-1.05-.05-1.18-.74-1.2h-5.4c-.84 0-.84.52-.84 1.21zm-6.95 1.29v.65c.06.73.2.75 3.86.75h2.24c.71 0 .84-.44.84-1.34zm4.14-10.2h-1.38v3.82h1.38zm3.1 3.68A.74.74 0 0 1 204 41a.51.51 0 0 1 .17-.4 10.66 10.66 0 0 0 1.32-1.92.78.78 0 0 1 .71-.46.9.9 0 0 1 .9.88c0 .67-1.67 2.28-1.76 2.36a1 1 0 0 1-.52.16zm13.96 5.64c.94 1.49 2.82 1.93 5.73 1.93 2 0 4.18-.21 5.64-.32h.09a.89.89 0 0 1 .92.92.93.93 0 0 1-1 .93c-1.2.12-3 .23-4.85.23-4.92 0-6.36-.88-7.45-2.35-1 1.07-2.15 2.28-2.9 2.28a1.09 1.09 0 0 1-1.05-1 .84.84 0 0 1 .48-.73 9.07 9.07 0 0 0 2.57-2c0-1.17.07-2.16.07-3.14 0-.48-.25-.54-.88-.54h-.76c-.31 0-1.08 0-1.08-.82a.82.82 0 0 1 .81-.86h1.93c1.21 0 1.79.56 1.79 1.75v.06c0 .76-.06 1.64-.08 2.51a1.18 1.18 0 0 1 .08-.16 10.94 10.94 0 0 0 1.14-5.59v-1.59c0-.73.38-1.38 1.57-1.4h6.32c1.59 0 1.81.75 1.81 1.8 0 1.4-.69 1.67-1.79 1.7h-6.3c-.06 2-.33 4.37-1.17 5.71a1 1 0 0 1-.88.48.86.86 0 0 1-.77-.4zm-1.49-8.95a5.82 5.82 0 0 0-1.88-1.67.68.68 0 0 1-.43-.64 1 1 0 0 1 1-.86c.58 0 3 1.48 3 2.46a1.12 1.12 0 0 1-1 1.07.76.76 0 0 1-.69-.36zm2.75-1.77a.72.72 0 0 1-.78-.73.78.78 0 0 1 .78-.8h9.41a.77.77 0 0 1 0 1.53zm8.38 8.93h-1v1.94a.66.66 0 1 1-1.32 0v-1.94h-.82v1.94a.65.65 0 0 1-.67.69.64.64 0 0 1-.65-.69v-1.94h-1v2.13a.69.69 0 0 1-.67.77.74.74 0 0 1-.71-.79v-4.31c0-1.05.46-1.57 1.64-1.57h4.95a1.51 1.51 0 0 1 1.65 1.59c0 .76 0 2.62.05 3.2v.17c0 1-.42 1.54-1.38 1.54s-1-.33-1-.79.17-.69.52-.69h.11c.16 0 .27-.1.27-.63zm-6.8-5.88h2.1c1.58 0 2.78 0 3.74-.06.37 0 .56-.09.56-.46s0-.48-3.2-.48h-2.67c-.44 0-.53.25-.53.61zm2.36 3.32h-.39c-.4 0-.55.2-.55.56v.79h.94zm2.14 0h-.82v1.38h.82zm2.32.57c0-.32-.13-.56-.54-.56h-.46v1.36h1zM244.59 35a.81.81 0 0 1 .84-.67.92.92 0 0 1 1 .86 11.84 11.84 0 0 1-.77 2.36h2.84c.84 0 2.84 0 3 2.26 0 .67.08 1.57.08 2.55 0 4.7-.83 8.72-4.85 8.72a8.6 8.6 0 0 1-1.86-.25 1 1 0 0 1-.77-1 .85.85 0 0 1 .86-.91 1.76 1.76 0 0 1 .31 0 6 6 0 0 0 1.46.21c1.26 0 3-.65 3-6.84 0-2.47 0-3.1-1-3.1h-3.81c-1 2.09-1.54 2.45-2 2.45a1 1 0 0 1-.65-.25v5.94c0 1.73-1.68 1.8-3.12 1.8-.44 0-.88 0-1.3-.05a1.74 1.74 0 0 1-1.65-1.77v-8.06a1.64 1.64 0 0 1 1.78-1.65h.25a17.42 17.42 0 0 0 .56-2.36.83.83 0 0 1 .86-.75 1 1 0 0 1 1 .86 12.14 12.14 0 0 1-.72 2.23c2 0 2.3 1 2.31 1.59v1.11a14.74 14.74 0 0 0 2.35-5.28zm-4.14 7.32c0-3 0-3.22-.56-3.22h-1.57a.54.54 0 0 0-.53.54v2.68zm-2.68 1.51v3.11c0 .42.22.57 1.26.57.82 0 1.3 0 1.34-.59 0-.86.08-2 .08-3.09zm8.35 1.17a6.77 6.77 0 0 0-2.18-1.73.76.76 0 0 1-.48-.69.87.87 0 0 1 .9-.84c.65 0 3.41 1.44 3.41 2.59a1 1 0 0 1-1 1 .82.82 0 0 1-.65-.33zm12.42-5.52a.88.88 0 1 1 .56-1.65 5.1 5.1 0 0 0 2.62-.06 13.06 13.06 0 0 0 .39-1.94.92.92 0 0 1 1.82.18 6.81 6.81 0 0 1-.27 1.16 5.66 5.66 0 0 0 .61-.32c.87-.61 2.07.57.85 1.46a7.5 7.5 0 0 1-2.06.88 48.66 48.66 0 0 1-3.42 6.46c-.71 1.15-2.55.4-1.71-.85a37.87 37.87 0 0 0 3.14-5.23 5.28 5.28 0 0 1-2.53-.09zm3.3 10.78c-1.78-.9-2-3 0-3.85a6.32 6.32 0 0 1 3.68-.36v-.67c0-.48 0-1-.06-1.44a5.45 5.45 0 0 1 .1-1.28.88.88 0 0 1 1.72.34 4.33 4.33 0 0 0-.11.9v1.48c0 .36.05.77.07 1.19a6.87 6.87 0 0 1 2.34 1.53c1.09 1.21-.46 2.57-1.38 1.46a5.59 5.59 0 0 0-1.09-1 3.84 3.84 0 0 1-5.27 1.7zm.61-2.51a.59.59 0 0 0 0 1.12c1.15.57 2.7 0 2.91-1v-.19a3.82 3.82 0 0 0-2.91.07zm4.28-7.07c-1.06.06-1.14-1.53.09-1.65a6.15 6.15 0 0 1 3.53.67c1.3.79.3 2.38-.63 1.79a5 5 0 0 0-2.99-.81zm14.84 3.74a.89.89 0 0 1-1.76 0l.08-3.95a16.89 16.89 0 0 1-2.42 2.8.9.9 0 0 1-.59.25.92.92 0 0 1-.88-.88.76.76 0 0 1 .36-.65 16.42 16.42 0 0 0 3.47-3.66h-2.28a.77.77 0 0 1-.82-.78.79.79 0 0 1 .84-.79h2.3v-1.63a.88.88 0 0 1 1.76 0s0 .67-.05 1.63h1.93a.73.73 0 0 1 .75.77.76.76 0 0 1-.73.8h-1.95v1a.75.75 0 0 1 .36-.1c.19 0 2.22.92 2.22 1.83a.9.9 0 0 1-.78.9.71.71 0 0 1-.54-.27 7.91 7.91 0 0 0-1.26-1.17c0 2.39.09 3.85.09 3.85zm-5.33 5.4a.83.83 0 0 1 .5-.74 4.94 4.94 0 0 0 1.75-1.84.76.76 0 0 1 .74-.54.92.92 0 0 1 .94.84c0 .81-1.8 3.22-3 3.22a1 1 0 0 1-.93-.94zm8.32 1.25c-3.26 0-3.75-.77-3.75-2.19v-1.53c0-.8 0-1.55.94-1.55a.85.85 0 0 1 .92.8v2.09c0 .79.69.83 2 .83 1.71 0 2.45-.12 2.45-1 0-.5.41-.71.83-.71s1 .29 1 .75c-.06 2.13-1.32 2.51-4.39 2.51zm.4-3.62a5.57 5.57 0 0 0-1.62-1.36.7.7 0 0 1-.37-.56.9.9 0 0 1 .92-.8c.33 0 2.65 1.05 2.65 2.09a1 1 0 0 1-.94 1 .82.82 0 0 1-.6-.37zm5-2.55h-3.37a1.67 1.67 0 0 1-1.79-1.73v-6.3a1.68 1.68 0 0 1 1.81-1.67h3.35a1.77 1.77 0 0 1 1.84 1.65c0 .9.06 2 .06 3.18s0 2.26-.06 3.13a1.84 1.84 0 0 1-1.89 1.74zm.27-5.58h-3.89v1.36h3.89zm0-1.38v-.61c0-.73-.25-.75-2-.75-1.44 0-1.79 0-1.83.77v.59zM286.31 42v.75c0 .71.43.73 1.71.73 1.92 0 2.09 0 2.11-.75V42zm5.48 8.17a.82.82 0 0 1-.73-.46 6.94 6.94 0 0 0-1.86-2 .76.76 0 0 1-.35-.59.86.86 0 0 1 .91-.78c.74 0 3 1.91 3 2.85a1 1 0 0 1-.97 1.02zm8.48-2.28a9.88 9.88 0 0 1-2.17-6.13 18.41 18.41 0 0 1-.1-2.13 1 1 0 1 1 2 0v1.67c.08 2 .44 3.91 1.51 4.94.5.48.75.54 1.17 0a7.67 7.67 0 0 0 .64-1.13.94.94 0 0 1 1.74.69 8.82 8.82 0 0 1-.75 1.48c-1.31 1.93-2.97 1.72-4.04.61zm10.36-3.37a6 6 0 0 0-2.12-3.72c-.92-.64.11-2 1.26-1.19a7.42 7.42 0 0 1 2.88 4.44 1 1 0 0 1-2.02.47zm8.85 5.05c-1.53-3.77 0-9.44.33-11.72a.93.93 0 1 1 1.86.11c-.31 1.55-1.46 6.06-1 7.84.06.25.14.19.21 0s.25-.48.33-.62a.77.77 0 0 1 1.34.75 9.49 9.49 0 0 0-1.13 2.69c-.11.51.11 1.11-.36 1.53s-1.19.37-1.58-.58zm5.14-1.36a1 1 0 0 1 1.38-1.32c1 .94 3.34.63 4.83.33s1.65 1.7.39 2c-2.08.55-5.22.49-6.6-1.01zm1.09-7.64a.9.9 0 1 1-.27-1.78 11.43 11.43 0 0 1 5.05-.12.94.94 0 1 1-.33 1.84 9.59 9.59 0 0 0-4.45.06zm21.57 9.95h-2.51c-4.35 0-5.94 0-6-2.62 0-1.15-.05-3.07-.05-5s0-3.92.05-5.19a2.23 2.23 0 0 1 2.48-2.3c.78 0 2.45-.06 4-.06 1 0 2 0 2.62.06a2.24 2.24 0 0 1 2.38 2.15c0 1.22.06 3.51.06 5.67v4.66c-.15 1.8-1.17 2.55-3.03 2.63zm1.17-9h-8v2.7h8zm0-1.63v-1.55c-.06-1.29-.5-1.31-3.86-1.31-1.05 0-2.05 0-2.66.06-1.34.08-1.42.4-1.42 2.8zm-8 6v1.74c0 1.29.59 1.31 4.08 1.31.86 0 1.75 0 2.38-.06 1.47-.08 1.47-.65 1.47-3zM363.14 37a6.41 6.41 0 0 0 .8-.34c1.06-.63 2.09 1 .67 1.67a10.44 10.44 0 0 1-2.1.63 21 21 0 0 1-.92 1.93 2.79 2.79 0 0 1 3.22 1.67c.78-.4 1.59-.8 2.34-1.13a15.07 15.07 0 0 0 1.49-.71 1 1 0 1 1 1.07 1.73c-.61.3-1 .4-2.07.78-.8.31-1.66.69-2.43 1.06a14.55 14.55 0 0 1 0 2.1 1.14 1.14 0 0 1-1 1.19c-.48 0-.92-.34-.86-1.09v-1.25l-.5.29c-2.38 1.53-2.09 2.69-1 3.22s2.9.14 3.8-.15c1.69-.52 2.22 1.55.46 2-1.13.29-3.74.58-5.23-.27-2.59-1.45-2.13-4 1.34-6.32.27-.17.57-.38.94-.6-.52-1.61-2-1.41-3.24 0l-.08.08a5 5 0 0 1-.44.5c-1.05.94-2.45-.16-1.3-1.19a9.45 9.45 0 0 0 1.55-1.8 15.37 15.37 0 0 0 .9-1.71 3.82 3.82 0 0 1-2.38-.21c-1.37-.69-.44-2.49.91-1.59a3 3 0 0 0 1.8 0h.28a7.06 7.06 0 0 0 .21-1.61c.08-1.15 1.88-1 1.92-.09a3.81 3.81 0 0 1-.15 1.11zM391 48.48c0 1.13-.94 2.55-3.56 2.55-1.21 0-2.3-.15-2.3-1.11a.83.83 0 0 1 .88-.84h.25a6.94 6.94 0 0 0 1.26.14c.85 0 1.52-.25 1.52-1.11 0-6.46 0-7.75-.06-8.09 0-1.09-.42-1.28-1.36-1.3h-8.16c-1.1 0-1.4.32-1.42 1.3 0 1.74-.06 3.49-.06 5.21v5.27a1 1 0 0 1-1.9 0c0-3.57 0-7.54.12-11.31a2.17 2.17 0 0 1 2.39-2.09h2.78a18.82 18.82 0 0 0 .6-2.3c0-.42.49-.61.95-.61s1.14.29 1.14.84a8.19 8.19 0 0 1-.71 2c1.72 0 3.48 0 5.21.06a2.3 2.3 0 0 1 2.34 2.24c0 2.17 0 4.28.07 6.44zm-11-4.56v-1.65a1.61 1.61 0 0 1 1.56-1.64h3.71a1.73 1.73 0 0 1 1.73 1.53v3.26a1.84 1.84 0 0 1-1.78 1.8h-3.63a1.73 1.73 0 0 1-1.59-1.78v-1.52zm5.33.19v-1.38c0-.63-.53-.63-1.67-.63h-1.36c-.61 0-.63.46-.63 1.63v1.32c0 .54.25.6 1.92.6 1.28 0 1.7-.08 1.72-.62-.01-.19-.01-.53-.01-.92zm13.28 4.57c-1.72-3.32-.84-7-.63-9.32.1-1.09.21-1.71.25-2.53a.93.93 0 0 1 1.86 0 23.89 23.89 0 0 1-.31 2.57c-.23 1.61-.78 3.25-.5 5.15.06.33.18.46.33.06.09-.23.31-.61.4-.84a.76.76 0 1 1 1.42.55 10.24 10.24 0 0 0-1 3.36c0 .21.12.76-.15 1.11a1 1 0 0 1-1.67-.11zm9.7-9.7c.42-.1.81-.18 1.13-.27 1.23-.35 2 1.32.35 1.67-.5.11-1 .23-1.52.32 0 .56 0 1.13.08 1.9.17 3.83-.82 6.61-3.81 8.72-1.12.78-2.32-.71-1.14-1.48 2.46-1.59 3.22-3.93 3.15-7.2 0-.6 0-1.13-.06-1.65a14.19 14.19 0 0 1-3.22.13c-1.28-.11-1.17-2 .31-1.74a11.62 11.62 0 0 0 2.89-.1v-.49a12 12 0 0 0-.21-2.27c-.15-1.41 1.74-1.34 2-.28a8.87 8.87 0 0 1 .1 2.28zm16.4 8.93c1.4-1.25 1.34-3.07.25-3.8a5 5 0 0 0-5 .33 4.12 4.12 0 0 0-1.61 1.44c-.69 1-2.61-.12-1.42-1.29a67.57 67.57 0 0 0 5.79-6.19c.21-.27 0-.19-.14-.11a15.34 15.34 0 0 1-3.22 1c-1.51.33-1.8-1.57-.5-1.72a28.45 28.45 0 0 0 4.22-.94c1.53-.44 2.8.92 1.84 2-.61.69-1.38 1.44-2.15 2.15s-1.53 1.4-2.22 2.07a5.89 5.89 0 0 1 5.39-.06c2.76 1.65 1.85 5-.16 6.48s-4.89 1.44-6.34.48c-2-1.32-1.13-3.7 1.13-3.78a2.73 2.73 0 0 1 3 2.59 2.67 2.67 0 0 0 1.14-.65zm-4.08-.58c-.85.08-.89.87-.27 1.19a3.43 3.43 0 0 0 1.61.29c.03-.88-.5-1.55-1.34-1.48zM437 51.36a2.19 2.19 0 1 1 2.19-2.19 2.18 2.18 0 0 1-2.19 2.19zm0-3.63a1.45 1.45 0 1 0 1.46 1.44 1.45 1.45 0 0 0-1.46-1.44zM37.71 78.18c.27-.4.33-.48-.07-.34a17.44 17.44 0 0 0-2 .86 1.87 1.87 0 0 1-1.67.21 1 1 0 0 1 .21-1.8 9.07 9.07 0 0 0 2.2-.71c1.57-1.38 3.3-4.35 4.43-6.11a1.05 1.05 0 1 1 1.8 1.07 35.51 35.51 0 0 1-3.89 4.56c-.21.19.06.12.13.08a3.37 3.37 0 0 1 .64-.21 17.43 17.43 0 0 1 4.22-.79 1 1 0 0 1 1 1.4c-.17.36-.65.65-1.61.53a9 9 0 0 0-2.22.2 2.23 2.23 0 0 0-1.69 1.3 2.81 2.81 0 0 0 2.7 4.47c1.84-.12 1.84 2.39-.27 2.18-4.39-.44-5.54-4.5-3.91-6.9zm-1.57-5a3.46 3.46 0 0 0-1.14-1.4c-.94-.57.18-1.93 1.23-1.25a4.06 4.06 0 0 1 1.69 1.81 1 1 0 0 1-.54 1.24.85.85 0 0 1-1.24-.38zm16.38 7.47c-.08-2 .13-3.64.23-5.67.06-1.25.19-3.12.15-4.31a1 1 0 0 1 2.09 0c0 1.21-.17 3-.27 4.31a53.38 53.38 0 0 0-.34 5.64c.11 2.8 3.53 2.6 6.86 0a1.07 1.07 0 1 1 1.32 1.67c-3.73 2.98-9.87 3.54-10.04-1.64zm19.71-5.44a7.93 7.93 0 0 1 .62-1c.3-.4.21-.38-.16-.26-1.43.46-1.11.46-2.41 1a16.74 16.74 0 0 1-1.73.58 1.09 1.09 0 1 1-.65-2.07c.4-.1 1.52-.31 2.13-.46.94-.23 2.61-.61 4.56-1.17a25.34 25.34 0 0 1 5.23-1.13 1.13 1.13 0 0 1 1.31 1.48c-.12.32-.54.7-1.88.63a8.19 8.19 0 0 0-2.86.53 5.57 5.57 0 0 0-2.45 2.25c-1.69 2.81-.4 6.84 3.89 6.69 2-.08 2.13 2.18.1 2.16-5.79-.07-7.79-5.38-5.7-9.23zM89.92 85a7.36 7.36 0 0 0-2.36-2 .84.84 0 0 1 .44-1.64c.67 0 3.74 1.69 3.74 3a1.06 1.06 0 0 1-1 1.06.87.87 0 0 1-.82-.42zM111 76.36a10 10 0 0 1 1.42 3.09c.15 1.36-1 1.68-2 1a2 2 0 0 0-.78-.32 11.51 11.51 0 0 0-4.74-.06c-1.07.33-1.4 1.3-.38 1.9a7.7 7.7 0 0 0 4 .69c1.76-.08 1.64 2-.18 2a9.8 9.8 0 0 1-4.79-1.13c-2.24-1.38-2-4.49 1.09-5.1a18.61 18.61 0 0 1 4.87-.13c.29 0 .37-.08.29-.33a4.84 4.84 0 0 0-.48-1.07c-.34-.6-.8-1.29-1.26-2l-.37.07a7.51 7.51 0 0 1-5.19-.32c-1.19-.62-.59-2.36.78-1.69a5 5 0 0 0 3.72.25 19.29 19.29 0 0 1-1.11-2c-.71-1.55 1.44-2 1.82-.61a11.3 11.3 0 0 0 1 2l.82-.29a4.91 4.91 0 0 0 .71-.38c1.55-.78 2.23 1.07 1.06 1.67a14.28 14.28 0 0 1-1.6.69c.45.71.91 1.44 1.3 2.07zm13.32-2.57a16.61 16.61 0 0 1-3 .23c-1.48 0-1.55-2 .19-1.82a10.88 10.88 0 0 0 3-.13v-2.53a1 1 0 0 1 2 0c-.06.69-.1 1.46-.12 2.22.4-.07.85-.19 1.31-.29 1.26-.28 1.78 1.5.11 1.77-.52.07-1 .17-1.44.25v2.12c.46-.13.94-.26 1.46-.44 1.42-.46 2.14 1.31.44 1.78-.67.2-1.28.37-1.84.5 0 .66.08 1.25.13 1.81s.12 1.2.16 1.89a8.91 8.91 0 0 1 2.28 1.34c1.29 1.06 0 2.8-1.17 1.69a9.5 9.5 0 0 0-1.39-1 3.92 3.92 0 0 1-5.37 1.75c-1.82-.9-1.94-3 .15-3.93a6.47 6.47 0 0 1 3.66-.33c0-.4-.06-.8-.09-1.24s-.08-1-.12-1.59a10.47 10.47 0 0 1-3.49.21 1 1 0 1 1 .41-1.84 8.45 8.45 0 0 0 3-.17c0-.73-.08-1.48-.1-2.23zm-2.47 8.55a.58.58 0 0 0-.06 1.09 2.12 2.12 0 0 0 2.95-1.07 4.16 4.16 0 0 0-2.89-.02zm24.05-5.98a9.6 9.6 0 0 1 1.42 3.09c.15 1.36-1 1.68-2 1a2.06 2.06 0 0 0-.79-.32 11.46 11.46 0 0 0-4.73-.06c-1.08.33-1.4 1.3-.39 1.9a7.72 7.72 0 0 0 4 .69c1.77-.08 1.65 2-.17 2a9.8 9.8 0 0 1-4.79-1.13c-2.24-1.38-2-4.49 1.09-5.1a18.6 18.6 0 0 1 4.87-.13c.29 0 .36-.08.29-.33a5.41 5.41 0 0 0-.48-1.07c-.35-.6-.81-1.29-1.27-2l-.36.07a7.54 7.54 0 0 1-5.2-.32c-1.18-.62-.59-2.36.79-1.69a5 5 0 0 0 3.72.25 19.29 19.29 0 0 1-1.11-2c-.71-1.55 1.43-2 1.82-.61a10.46 10.46 0 0 0 1 2l.83-.29a4.91 4.91 0 0 0 .71-.38c1.55-.78 2.22 1.07 1.05 1.67a14.12 14.12 0 0 1-1.59.69c.39.71.89 1.44 1.29 2.07zm1.9-4.12a6.68 6.68 0 0 0-1.36-1.4c-.88-.57.06-1.57.88-1.09a6.41 6.41 0 0 1 1.68 1.46c.6.92-.7 1.87-1.2 1.03zm2-1.38a6.38 6.38 0 0 0-1.4-1.34c-.9-.54 0-1.55.85-1.11a6.21 6.21 0 0 1 1.75 1.42c.63.9-.65 1.86-1.17 1.03zm11.2 2.93a16.61 16.61 0 0 1-3 .23c-1.48 0-1.56-2 .19-1.82a10.89 10.89 0 0 0 3-.13v-2.53a1 1 0 0 1 1.95 0c0 .69-.09 1.46-.11 2.22.4-.07.84-.19 1.3-.29 1.27-.28 1.78 1.5.12 1.77-.52.07-1 .17-1.44.25v2.12c.46-.13.94-.26 1.46-.44 1.41-.46 2.14 1.31.44 1.78-.67.2-1.29.37-1.84.5 0 .66.07 1.25.13 1.81s.12 1.2.15 1.89a9 9 0 0 1 2.38 1.36c1.28 1.06 0 2.8-1.17 1.69a9.09 9.09 0 0 0-1.4-1 3.9 3.9 0 0 1-5.36 1.75c-1.82-.9-1.94-3 .15-3.93a6.47 6.47 0 0 1 3.66-.33c0-.4-.06-.8-.1-1.24s-.07-1-.11-1.59a10.48 10.48 0 0 1-3.49.21 1 1 0 1 1 .4-1.84 8.44 8.44 0 0 0 3-.17c0-.73-.07-1.48-.09-2.23zm-2.48 8.55a.58.58 0 0 0-.05 1.09 2.12 2.12 0 0 0 2.95-1.07 4.19 4.19 0 0 0-2.87-.02zm15.53-8.81a.88.88 0 1 1 .56-1.65 5.1 5.1 0 0 0 2.62-.06 11.9 11.9 0 0 0 .38-1.94.92.92 0 0 1 1.83.17 6.88 6.88 0 0 1-.27 1.17 5.66 5.66 0 0 0 .61-.32c.86-.61 2.07.57.84 1.46a7.42 7.42 0 0 1-2.05.88 48.72 48.72 0 0 1-3.43 6.46c-.71 1.15-2.55.4-1.7-.85a37.87 37.87 0 0 0 3.14-5.23 5.41 5.41 0 0 1-2.53-.09zm3.3 10.78c-1.79-.9-2-3 0-3.85a6.32 6.32 0 0 1 3.65-.36v-.67c0-.48 0-1-.06-1.44a6 6 0 0 1 .09-1.28.88.88 0 0 1 1.73.34 3.75 3.75 0 0 0-.11.9v1.48c0 .36.06.76.08 1.18a7 7 0 0 1 2.34 1.54c1.09 1.21-.46 2.57-1.38 1.46a5.59 5.59 0 0 0-1.09-1 3.84 3.84 0 0 1-5.25 1.7zm.65-2.51a.59.59 0 0 0 0 1.12c1.15.57 2.7 0 2.91-1v-.19a3.82 3.82 0 0 0-2.91.07zm4.27-7.07c-1 .06-1.13-1.53.1-1.65a6.17 6.17 0 0 1 3.53.67c1.3.79.3 2.38-.64 1.79a4.88 4.88 0 0 0-3.03-.81zm18.45-2.13a.39.39 0 0 1 0 .16c.36 4.69 3.81 8.78 7 10a1 1 0 0 1 .75.94 1.22 1.22 0 0 1-1.26 1.17c-1.63 0-5.68-3.49-7.34-7.86a12.9 12.9 0 0 1-6.9 8 1.34 1.34 0 0 1-.56.13 1.1 1.1 0 0 1-1.11-1 1 1 0 0 1 .71-.94c6.53-2.92 6.71-9.64 6.71-11.08 0-.58 0-1.23-.08-1.8v-.06a1.07 1.07 0 0 1 2.13.06c0 .67 0 1.49-.08 2.32zm18.01 6.23a33.19 33.19 0 0 1 2.27 4.66 1.21 1.21 0 0 1-.57 1.65 1.09 1.09 0 0 1-1.36-.94 25 25 0 0 0-2-4.64c-.46-.88-.94-1.76-1.38-2.57a13.7 13.7 0 0 1-2.72 1.21 1 1 0 1 1-.46-1.88 12.93 12.93 0 0 0 2.3-.94c-.09-.19-.17-.36-.27-.53-.17-.33-.34-.69-.51-1.06a6.3 6.3 0 0 1-.41-1.05.94.94 0 0 1 1.81-.54c.24.63.44 1.27.74 1.88a4.53 4.53 0 0 1 .23.44 30.08 30.08 0 0 1 3.82-2c1.9-.73 3.79-1 5.27-.06 1.63 1 1.68 2.89.61 4.43a5.59 5.59 0 0 1-7 1.36 1 1 0 1 1 1.15-1.59 3.32 3.32 0 0 0 4.19-.77 1.33 1.33 0 0 0-.19-2c-.71-.52-1.94-.41-3.53.23a23.15 23.15 0 0 0-3.5 1.89zm-.46-6.67a2.08 2.08 0 0 0-.42-.76 6.17 6.17 0 0 0-.48-.54c-.63-.65.65-1.65 1.61-.86a3.62 3.62 0 0 1 1.13 1.57c.34 1.17-1.5 1.82-1.84.59zm14.81 6.17a.88.88 0 1 1-.05-1.76h4.52v-2.59h-2.8c-1.38 0-1.36-1.84.11-1.77 2 .1 6 0 8 0a.88.88 0 1 1 .12 1.75h-3.63c0 .77 0 1.67-.05 2.61h5.54a.88.88 0 1 1-.14 1.75h-5.46v1.78a1.32 1.32 0 0 0 1.38 1.44 11.78 11.78 0 0 0 3.43-.25c1.63-.37 2.19 1.74.17 2a15.17 15.17 0 0 1-4.36 0 2.64 2.64 0 0 1-2.42-2.72v-2.24c-1.56-.03-3.11-.01-4.36 0zm19.67 4.14c3.62-1.57 7.34-6.19 8.61-10.21a1.1 1.1 0 1 1 2.12.61c-2 4.75-5.23 9.26-9.77 11.42-1.44.71-2.61-1.11-.96-1.82zM274.59 85a7.43 7.43 0 0 0-2.35-2 .84.84 0 0 1 .38-1.61c.67 0 3.74 1.69 3.74 3a1.06 1.06 0 0 1-1 1.06.89.89 0 0 1-.77-.45zm19.88-2.49c-2 .12-5.19.14-7.17.14a1 1 0 1 1 0-2c2.05.08 5.54.08 7 0a1.08 1.08 0 0 0 1.11-1.07c.06-1.15.06-3.1 0-4.1 0-.63-.48-1-1.21-1-1.68 0-4.71.06-6.71.16-1.49.07-1.57-1.8-.09-1.86 2.11-.1 5.56-.14 7.47-.1a2.3 2.3 0 0 1 2.57 2.45v4.91c0 1.7-1.52 2.4-2.97 2.47zm13.99 1.25a1 1 0 1 1-2.07.07c.13-3.1.19-10.61.11-13.37a1 1 0 0 1 2 0c0 .94 0 2.6-.06 4.48a1.83 1.83 0 0 1 .32 0 11.88 11.88 0 0 1 4.61 1.67c1 .84-.1 2.51-1.19 1.7a12 12 0 0 0-3.74-1.55c-.02 2.69-.02 5.45.02 7zM327 71a6.61 6.61 0 0 0 .81-.34c1.05-.64 2.08 1 .67 1.67a11.5 11.5 0 0 1-2.11.63 21 21 0 0 1-.92 1.93 2.79 2.79 0 0 1 3.22 1.67c.78-.4 1.59-.8 2.34-1.13a14.07 14.07 0 0 0 1.49-.71 1 1 0 1 1 1.07 1.73c-.61.3-1.05.4-2.07.78-.8.31-1.66.69-2.43 1.06a14.55 14.55 0 0 1 0 2.1 1.14 1.14 0 0 1-1 1.19c-.48 0-.92-.34-.86-1.09v-1.25c-.17.1-.35.19-.5.29-2.38 1.53-2.09 2.69-1 3.22s2.89.14 3.79-.15c1.69-.52 2.22 1.55.46 2-1.13.29-3.74.58-5.23-.27-2.59-1.45-2.13-4 1.34-6.32.27-.17.57-.39.94-.6-.52-1.61-2-1.41-3.24 0l-.08.08a4 4 0 0 1-.44.5c-1 .94-2.45-.16-1.3-1.19a9.45 9.45 0 0 0 1.55-1.8 15.37 15.37 0 0 0 .9-1.71 3.78 3.78 0 0 1-2.37-.21c-1.38-.69-.45-2.49.9-1.59a3 3 0 0 0 1.8 0h.29a8.49 8.49 0 0 0 .21-1.61c.07-1.15 1.87-1 1.91-.09A3.5 3.5 0 0 1 327 71zm19.11 12.83c-1.78.29-1.91-1.82-.38-2a10.24 10.24 0 0 0 5.64-2.24c1.62-1.44 1.74-3 .86-4-1.23-1.4-3.39-1.36-5.12-.85a18.9 18.9 0 0 0-2.74 1.13c-.86.43-1.72.87-2.66 1.31a1.08 1.08 0 1 1-.94-1.92 44.65 44.65 0 0 1 6-2.24c2.18-.56 5.09-.54 6.86 1.3 2.07 2.17 1.3 4.91-1.06 6.86a13.16 13.16 0 0 1-6.46 2.65zm15.64-10.3a.88.88 0 1 1 .56-1.65 5.14 5.14 0 0 0 2.63-.06 13.06 13.06 0 0 0 .38-1.94.92.92 0 0 1 1.82.17 6.88 6.88 0 0 1-.27 1.17 5.66 5.66 0 0 0 .61-.32c.87-.61 2.07.57.85 1.46a7.56 7.56 0 0 1-2.05.88 50 50 0 0 1-3.44 6.46c-.7 1.15-2.54.4-1.7-.85a37.87 37.87 0 0 0 3.14-5.23 5.42 5.42 0 0 1-2.53-.09zm3.3 10.78c-1.78-.9-2-3 0-3.85a6.32 6.32 0 0 1 3.68-.36v-.67c0-.48 0-1-.06-1.44a5.45 5.45 0 0 1 .1-1.28.88.88 0 0 1 1.72.34 4.33 4.33 0 0 0-.11.9v1.48c0 .36.05.76.07 1.18a7 7 0 0 1 2.34 1.54c1.09 1.21-.46 2.57-1.38 1.46a5.31 5.31 0 0 0-1.09-1 3.84 3.84 0 0 1-5.27 1.7zm.61-2.51a.59.59 0 0 0 0 1.12c1.15.57 2.7 0 2.92-1v-.19a3.82 3.82 0 0 0-2.92.07zm4.28-7.07c-1.06.06-1.13-1.53.09-1.65a6.15 6.15 0 0 1 3.53.67c1.3.79.31 2.38-.63 1.79a4.88 4.88 0 0 0-2.99-.81zm19.13 2.61a5.19 5.19 0 0 1 1.25 3.51c-.19 1-1.11 1.16-2 .67a7 7 0 0 0-5.07-.33c-1 .48-.6 1.5.28 1.86a5.35 5.35 0 0 0 3.11.29c1.7-.33 1.82 1.8.09 2a7.81 7.81 0 0 1-3.79-.65c-2.26-1-2.8-3.64-.65-4.73 1.42-.73 3.77-.58 5-.43 1 .14 1.34-.15.23-1.64-.14-.2-.29-.37-.42-.58a13.81 13.81 0 0 1-4.41.52c-1.32-.1-1.5-2 .13-1.84a9.4 9.4 0 0 0 3.3-.27c-.29-.5-.6-1-.9-1.65a15.21 15.21 0 0 1-3 .31c-1.25 0-1.63-1.86-.1-1.75a10.81 10.81 0 0 0 2.38-.11 9.68 9.68 0 0 0-1.38-2.32c-1.07-1.21 1-1.94 1.65-1a16.45 16.45 0 0 1 1.38 2.89 8.42 8.42 0 0 0 1.21-.52c1.26-.67 2 1 1 1.5a11.72 11.72 0 0 1-1.53.59 15.28 15.28 0 0 0 .83 1.61 10 10 0 0 0 1.43-.61c1.34-.77 2.17 1 1.09 1.53a12.13 12.13 0 0 1-1.51.63c.12.18.27.33.4.52zm1.25-4.85a6.68 6.68 0 0 0-1.36-1.4c-.88-.57 0-1.59.86-1.11a6.65 6.65 0 0 1 1.69 1.47c.59.92-.69 1.88-1.19 1.04zm2-1.38a6.38 6.38 0 0 0-1.4-1.34c-.9-.54 0-1.56.82-1.11a6.13 6.13 0 0 1 1.73 1.39c.66.95-.6 1.88-1.12 1.06zm20.39 5.42a1.18 1.18 0 0 1-.63-.21 35.23 35.23 0 0 1-5.87-5.32c-.21-.25-.38-.38-.55-.38s-.33.13-.52.38a36.66 36.66 0 0 1-5.86 5.77 1.46 1.46 0 0 1-.87.33 1 1 0 0 1-1.05-1 .94.94 0 0 1 .52-.82 24.31 24.31 0 0 0 5.94-5.58 2.1 2.1 0 0 1 1.7-.9 2.53 2.53 0 0 1 1.84.88 27.59 27.59 0 0 0 6.12 5 .77.77 0 0 1 .42.69 1.23 1.23 0 0 1-1.19 1.16zM409 84.62c-1.11 0-2.22.06-3.31.06s-2.15 0-3.22-.06a2 2 0 0 1-2.17-2v-2.69a1.94 1.94 0 0 1 2.13-1.89h6.67a2 2 0 0 1 2 1.72v2.84a2.08 2.08 0 0 1-2.1 2.02zM402.59 76a.85.85 0 1 1 0-1.69H409a.85.85 0 1 1 0 1.69zm6.69 5.48c0-1.44 0-1.78-.92-1.8h-5.4c-.92 0-.91.61-.91 1.68 0 1.42.18 1.61.92 1.63s1.73 0 2.65 0h2.76c.88 0 .9-.67.9-1.53zm12.94-.33c-.27.44-.56 1-.91 1.55-.78 1.39-2.6.31-1.76-1a6.23 6.23 0 0 1 .58-.77 29.28 29.28 0 0 0 2.55-4.68v-.46a.31.31 0 0 0-.25 0 14 14 0 0 0-1.38.83c-1.37.86-2-1.06-.91-1.58.7-.32 1.74-.82 2.72-1.22.13-1.4.24-2.61.32-3.43.12-1.34 2.05-1.08 1.88 0-.1.69-.23 1.63-.36 2.74.74 0 1.26.94.4 2.17-.1.13-.38.67-.77 1.36v.1a13.65 13.65 0 0 1 1.67-.92c3.41-1.82 6.46-1.18 7.84.39s1.07 4.16-1.82 6.24a11.43 11.43 0 0 1-2.72 1.4 1 1 0 1 1-.62-2 10.22 10.22 0 0 0 2-.94c2-1.36 2.26-2.86 1.41-3.74s-2.85-1.15-5.5.21a11.87 11.87 0 0 0-2.41 1.61 24 24 0 0 0 .15 4.56 1 1 0 0 1-.88 1.23c-.52.08-1.07-.23-1.15-1a18.56 18.56 0 0 1 0-2.84zm21.86-3.37l-3 .94c-1.51.44-2-1.59-.44-2 .86-.21 2.28-.57 3.12-.76l.54-.12v-.25c0-1.11-.1-1.89-.14-2.72a1 1 0 0 1 2-.07c0 .61 0 1.49-.06 2.39v.25c1.27-.27 2.86-.59 4.43-.86v-1.59a6.72 6.72 0 0 0 0-.77v-.75a1 1 0 0 1 1.92 0c0 .65 0 1.21-.08 1.75 0 .32 0 .7-.06 1.09l.5-.08a18.39 18.39 0 0 1 3.18-.21c1.57.1 1.27 2-.28 1.88a17.55 17.55 0 0 0-2.71.1c-.27 0-.51.06-.78.07 0 .33-.08.68-.12 1a4.34 4.34 0 0 1-1.47 3.1 1.67 1.67 0 0 1-2.36-.28 7.43 7.43 0 0 1-.75-1c-.5-.84.54-1.76 1.29-.78.55.72.88.63 1.15.23a4.91 4.91 0 0 0 .55-2c-1.59.25-3.08.6-4.35.93 0 .9 0 1.82.1 2.49.15 2.07.76 2.72 2.37 2.76a10.92 10.92 0 0 0 3.13-.52 1 1 0 1 1 .53 1.88 11.46 11.46 0 0 1-4 .32c-2.51-.27-3.43-1.45-3.7-4.06-.08-.69-.14-1.57-.17-2.38zM464.39 85a7.47 7.47 0 0 0-2.39-2 .85.85 0 0 1-.52-.76.86.86 0 0 1 .9-.85c.67 0 3.74 1.69 3.74 3a1.06 1.06 0 0 1-1 1.06.87.87 0 0 1-.73-.45zM9.82 110.3a7.35 7.35 0 0 0-2.23-1.23.67.67 0 0 1-.48-.63.94.94 0 0 1 .92-.92 6.8 6.8 0 0 1 2.8 1.13 1 1 0 0 1 .41.8 1 1 0 0 1-.89 1.06.8.8 0 0 1-.53-.21zm-1.56 8.62a1 1 0 0 1-1-.94.85.85 0 0 1 .27-.63 15.15 15.15 0 0 0 2.85-4.58.81.81 0 0 1 .77-.5.89.89 0 0 1 .9.88 14.2 14.2 0 0 1-2.91 5.33 1.19 1.19 0 0 1-.88.44zM10.58 106a8 8 0 0 0-1.91-1.55.7.7 0 0 1-.37-.59 1 1 0 0 1 1-.87c.46 0 2.93 1.23 2.93 2.3a1.06 1.06 0 0 1-1 1 .83.83 0 0 1-.65-.29zm3.51 5.73a.87.87 0 0 1 1.74 0c0 4.64-1.43 6.54-3.56 7.53a1.13 1.13 0 0 1-.48.12.94.94 0 0 1-.92-.92.68.68 0 0 1 .42-.65c2.51-1.11 2.8-3.32 2.8-5.52v-.56zm3.79-5.56c-.15.43-.59 1.5-.95 2.25 1.15-.06 2.28-.16 3.33-.27-.46-.31-.67-.48-.67-.79a.8.8 0 0 1 .82-.72c.62 0 3.05 1.64 3.05 2.66a.91.91 0 0 1-.88.9.88.88 0 0 1-.78-.48 4.1 4.1 0 0 0-.29-.4 55.72 55.72 0 0 1-8 .76.81.81 0 0 1-.89-.8.76.76 0 0 1 .81-.77h1.65c.19-.4.61-1.59.86-2.32h-2.56a.78.78 0 0 1-.86-.78.8.8 0 0 1 .86-.79H17v-1.3a.88.88 0 0 1 .93-.88.9.9 0 0 1 1 .88v1.28H23a.79.79 0 1 1 0 1.57zm-1.07 5.43a.85.85 0 0 1 1.69 0v6.13a.89.89 0 0 1-1.77 0zm5.85 4.4a.74.74 0 0 1 .8-.75.86.86 0 0 1 .94.88c0 2.72-1.28 2.86-2.7 2.86-1.19 0-2.07-.29-2.07-1.86v-5.68a.78.78 0 0 1 .86-.76c.86 0 .86.67.86 1.15V117c0 .37.16.46.52.46s.79 0 .79-1.3V116zm8.79-4.29c-1.49 1.17-1.84 1.23-2.05 1.23a.92.92 0 0 1-.9-.94.88.88 0 0 1 .5-.81 13.37 13.37 0 0 0 4.52-4.09.84.84 0 0 1 .69-.39 1 1 0 0 1 1 1c0 .27-.1.67-2 2.47l-.09 8.3a.9.9 0 0 1-1 .84.82.82 0 0 1-.9-.8zm-1.76-3.5a.93.93 0 0 1-.94-.92 1 1 0 0 1 .61-.9 10.53 10.53 0 0 0 3.72-3.23.94.94 0 0 1 .73-.42.95.95 0 0 1 .71 1.59c-.92 1.13-3.89 3.88-4.83 3.88zM42 116.5c0 1.12-.78 2.53-3.29 2.53-1.46 0-2-.21-2-1a.81.81 0 0 1 .76-.9h.16a7.21 7.21 0 0 0 1.2.13c.75 0 1.34-.25 1.34-1.09v-6.44h-4.12a.81.81 0 0 1-.88-.81.85.85 0 0 1 .88-.86h8.13a.84.84 0 1 1 0 1.67H41.9v4.1zm-5.25-11a.82.82 0 0 1-.88-.83.86.86 0 0 1 .88-.88H43a.86.86 0 1 1 0 1.71zm14.8 12.17c-1.53-3.77 0-9.44.33-11.73a.93.93 0 1 1 1.86.12c-.31 1.55-1.46 6.06-1 7.84.06.25.14.19.21 0s.25-.48.33-.62a.77.77 0 0 1 1.34.75 9.58 9.58 0 0 0-1.13 2.68c-.12.52.11 1.12-.36 1.54s-1.19.36-1.58-.58zm5.14-1.36a1 1 0 0 1 1.36-1.31c1 .94 3.34.63 4.83.33s1.65 1.7.38 2c-2.05.54-5.19.48-6.57-1.02zm1.09-7.64a.91.91 0 1 1-.27-1.79 11.52 11.52 0 0 1 5-.11.94.94 0 1 1-.32 1.84 9.59 9.59 0 0 0-4.41.06zm15.78 9.81a.84.84 0 1 1 0-1.67h4.75v-4.22H75c-1.44 2.22-3.42 4.06-4.3 4.06a1 1 0 0 1-1-.94.89.89 0 0 1 .5-.77c2.41-1.42 4.16-4.25 5.21-7.11h-4.36a.85.85 0 0 1-.92-.86.86.86 0 0 1 .92-.86h4.85a20.29 20.29 0 0 0 .55-2.63.87.87 0 0 1 .94-.76 1 1 0 0 1 1.07.88 22 22 0 0 1-.57 2.51h7.28a.82.82 0 0 1 .9.84.85.85 0 0 1-.9.88h-7.86a24 24 0 0 1-1.38 3.17h7.79a.84.84 0 0 1 .92.82.83.83 0 0 1-.92.82h-3.55v4.22h4.72a.82.82 0 0 1 .86.85.8.8 0 0 1-.86.82zm24.83-10.79a27.23 27.23 0 0 1-1.91 3.49c.3-.12.76-.19 3.93-.19h3.16a2 2 0 0 1 2 1.77c0 .71.06 1.41.06 2.12s0 1.21-.06 1.82a2.13 2.13 0 0 1-2.13 2c-.94 0-2 .06-2.93.06-1.13 0-2.22 0-3.14-.06a2 2 0 0 1-2.17-2c0-.65-.06-1.34-.06-2s0-1.19.06-1.74v-.1c-1 1.29-2.53 2.74-3.32 2.74a1 1 0 0 1-1-.92.93.93 0 0 1 .46-.76 15.09 15.09 0 0 0 5-6.23h-4a.83.83 0 0 1-.9-.85.86.86 0 0 1 .9-.86h4.72a20.36 20.36 0 0 0 .69-2.43.87.87 0 0 1 .92-.71 1 1 0 0 1 1.07.86 18.49 18.49 0 0 1-.64 2.3h7.5a.84.84 0 0 1 .9.85.86.86 0 0 1-.9.86zm5.37 7.42v-1.71c0-.56-.27-.75-.88-.77s-1.65 0-2.53 0h-2.44a.81.81 0 0 0-.86.79v2.85c0 .83.31.83 3.32.83h2.55c.79 0 .84-.46.84-1.99zm19.24-4.7a10 10 0 0 1 1.42 3.09c.15 1.36-1 1.68-2 1a2 2 0 0 0-.78-.32 11.51 11.51 0 0 0-4.74-.06c-1.07.32-1.4 1.3-.38 1.9a7.7 7.7 0 0 0 4 .69c1.76-.08 1.64 2-.18 2a9.83 9.83 0 0 1-4.79-1.13c-2.24-1.38-2-4.49 1.09-5.1a18.61 18.61 0 0 1 4.87-.13c.29 0 .37-.08.29-.33a4.84 4.84 0 0 0-.48-1.07c-.34-.6-.8-1.29-1.26-2l-.37.07a7.51 7.51 0 0 1-5.19-.32c-1.19-.62-.59-2.36.78-1.69a5.1 5.1 0 0 0 3.72.25 19.29 19.29 0 0 1-1.11-2c-.71-1.55 1.44-2 1.82-.61a11.3 11.3 0 0 0 1 2l.82-.29a6.13 6.13 0 0 0 .71-.38c1.55-.78 2.23 1.07 1.06 1.67a15 15 0 0 1-1.59.69c.43.75.89 1.44 1.29 2.07zm9.86 5.9c-.86 1.52-2.8.35-1.74-.9a1.38 1.38 0 0 1 .15-.17 39.12 39.12 0 0 0 2.86-4.27c0-.39.05-.75.09-1.14a7.94 7.94 0 0 0-1.46.69c-1.32.85-1.91-1-.88-1.51.69-.33 1.61-.71 2.51-1.05.14-1.44.29-2.72.39-3.57a.89.89 0 0 1 1.76.19c-.13.69-.27 1.65-.4 2.76.61-.07 1.15.5.86 1.4.23-.21.46-.42.67-.59 3-2.44 5.75-2.26 5.5 1.55-.08 1.15-.38 3.18-.48 4.28-.19 2.18.94 2 2.23.59a.94.94 0 1 1 1.38 1.26c-2.44 2.67-5.87 2.36-5.43-1.87.1-1 .44-3.09.5-4.24.06-1.36-.23-2.4-2.91-.17a22.06 22.06 0 0 0-2.74 2.49 27.73 27.73 0 0 0 .15 5.69 1 1 0 1 1-1.94.15 33.33 33.33 0 0 1 0-3.54c-.42.66-.76 1.42-1.07 1.97zm20.14-8.74a.87.87 0 1 1 .55-1.64 5.14 5.14 0 0 0 2.63-.06 11.9 11.9 0 0 0 .38-1.94.92.92 0 0 1 1.82.17 6 6 0 0 1-.27 1.17c.23-.11.44-.21.62-.32.86-.62 2.07.57.84 1.45a7.13 7.13 0 0 1-2.05.89 48 48 0 0 1-3.43 6.45c-.71 1.15-2.55.41-1.71-.84a36.93 36.93 0 0 0 3.15-5.23 5.27 5.27 0 0 1-2.53-.1zm3.29 10.79c-1.78-.9-2-3 0-3.85a6.33 6.33 0 0 1 3.68-.36v-.67c0-.48 0-1-.05-1.44a6 6 0 0 1 .09-1.28.88.88 0 0 1 1.73.34 3.7 3.7 0 0 0-.12.9v1.48c0 .36.06.76.08 1.19a7 7 0 0 1 2.34 1.53c1.09 1.2-.46 2.57-1.38 1.46a5.11 5.11 0 0 0-1.1-1 3.84 3.84 0 0 1-5.25 1.7zm.62-2.51a.58.58 0 0 0 0 1.11c1.15.58 2.7 0 2.91-1v-.19a3.82 3.82 0 0 0-2.89.08zm4.27-7.07c-1 .06-1.13-1.53.1-1.65a6.13 6.13 0 0 1 3.52.67c1.31.79.31 2.38-.63 1.79a4.88 4.88 0 0 0-2.97-.81zm12.6 7.22a9.88 9.88 0 0 1-2.16-6.14 18.16 18.16 0 0 1-.1-2.12 1 1 0 1 1 2 0v1.66c.07 2 .44 3.92 1.51 4.95.5.48.75.54 1.17 0a6.77 6.77 0 0 0 .63-1.13.94.94 0 0 1 1.75.69 9.64 9.64 0 0 1-.75 1.48c-1.27 1.92-2.97 1.75-4.05.61zm10.37-3.38a6 6 0 0 0-2.15-3.72c-.91-.64.12-2.06 1.27-1.19a7.31 7.31 0 0 1 2.87 4.44 1 1 0 1 1-1.99.46zm8.06 6.2a1 1 0 0 1-1-.88.94.94 0 0 1 .67-.82 4.91 4.91 0 0 0 1.83-1.75.78.78 0 0 1 .74-.5 1 1 0 0 1 1 .87c-.06.94-2.22 3.08-3.24 3.08zM206.43 106h-3.91a17.22 17.22 0 0 0 .79 3.69 10.61 10.61 0 0 0 .92-2.2.7.7 0 0 1 .71-.54.87.87 0 0 1 .88.83 10.25 10.25 0 0 1-1.67 3.56c.36.52.88 1.09 1.3 1.09s.58-.36.73-1.3a.72.72 0 0 1 .75-.67.91.91 0 0 1 .94.88c0 .75-.63 2.9-2.32 2.9a3 3 0 0 1-2.47-1.59 8.07 8.07 0 0 1-2.21 1.62h-.06c1 .69 1.14 1.11 1.14 1.38a1 1 0 0 1-.94 1 .82.82 0 0 1-.64-.32 7.35 7.35 0 0 0-1.85-1.54.67.67 0 0 1-.37-.55.9.9 0 0 1 .92-.81 1.35 1.35 0 0 1 .61.17.7.7 0 0 1 .43-.66 6.72 6.72 0 0 0 2.16-1.68 19.27 19.27 0 0 1-1.38-5.21h-5.17a.72.72 0 0 0-.81.79v.82c0 1.79-.21 4.78-1.78 6.79a1.15 1.15 0 0 1-.88.46 1 1 0 0 1-1-.88.92.92 0 0 1 .27-.62c1.38-1.47 1.59-3.66 1.59-5.34v-1.69a1.87 1.87 0 0 1 2-1.84h5.58c0-.36-.1-.73-.13-1.09v-.16a.79.79 0 0 1 .8-.82.92.92 0 0 1 .92.92c0 .38 0 .77.08 1.15h2.09a4.57 4.57 0 0 0-1.23-.84.47.47 0 0 1-.29-.43.83.83 0 0 1 .79-.74c.31 0 2 .61 2 1.47a1 1 0 0 1-.19.54h.92a.71.71 0 0 1 .75.75.73.73 0 0 1-.75.76zM196 108.3a.64.64 0 0 1-.69-.65.69.69 0 0 1 .69-.71h4.15a.68.68 0 1 1 0 1.36zm2.16 4.62c-2.36 0-2.62-.27-2.62-2 0-1.17.17-1.84 1.55-1.84h1.38c2.13 0 2.18.44 2.18 2-.03 1.36-.16 1.84-2.52 1.84zm1.5 6.25c-3 0-3.78-.58-3.78-2.19v-2.24a.88.88 0 0 1 .92-.84.86.86 0 0 1 .92.82v2.07c0 .67.44.83 2 .83 1.82 0 2.48-.16 2.48-1 0-.5.4-.71.84-.71s1 .29 1 .75c-.04 2.07-1.21 2.51-4.41 2.51zm-2.69-7.86c0 .25.12.33 1.27.33.9 0 1-.06 1-.65s0-.64-1.15-.64c-.89 0-1.1 0-1.12.29zm9.26 6.57a7.18 7.18 0 0 0-2-1.91.78.78 0 0 1-.39-.63.88.88 0 0 1 .92-.79c.69 0 3.17 1.76 3.17 2.76a1 1 0 0 1-1 1 .83.83 0 0 1-.73-.43zm10.59-2.83l-2.55.06a.68.68 0 0 1-.75-.68.71.71 0 0 1 .77-.67h2.55V113c-2.82 0-3.07-.06-3.07-2.72 0-2.36.54-2.38 3.09-2.38v-.79h-2.96a.69.69 0 1 1 0-1.38h2.92V105h-2.4a.75.75 0 0 1-.8-.76.73.73 0 0 1 .78-.73h1.23a21.76 21.76 0 0 0 4.71-.54.65.65 0 0 1 .19 0 .8.8 0 0 1 .79.79c0 .57-.38.77-2.91 1v.94h2.84a.72.72 0 0 1 .78.69v.14a.78.78 0 0 1 .44-.12h1.57v-3a.83.83 0 0 1 .89-.84.86.86 0 0 1 .92.84v3h1.43a2 2 0 0 1 2.05 2.13v1.71c0 3.68-.34 8.45-3.91 8.45a5.48 5.48 0 0 1-1.66-.29.89.89 0 0 1-.62-.86.85.85 0 0 1 .83-.9 1.63 1.63 0 0 1 .36 0 3.46 3.46 0 0 0 1 .2c.82 0 2.2-.5 2.2-6.81v-1.32a.66.66 0 0 0-.71-.73h-1c-.14 4-1.21 8.4-4.81 10.85a1.09 1.09 0 0 1-.64.21.9.9 0 0 1-.9-.88.92.92 0 0 1 .44-.75 9 9 0 0 0 .83-.63 53.8 53.8 0 0 1-7 1.23.76.76 0 0 1-.76-.81.7.7 0 0 1 .67-.75c1-.07 2.12-.17 3.18-.32zm0-4.14h-1.57v.34c0 .58.22.6 1.55.6zm0-1.9c-1.44 0-1.54 0-1.57.69v.19h1.57zm1.57 6v.99c.88-.15 1.68-.33 2.39-.5a.55.55 0 0 1 .18 0 .62.62 0 0 1 .61.52c1.86-2.17 2.34-5 2.41-7.88h-1.57a.78.78 0 0 1-.8-.82 1.09 1.09 0 0 1 0-.25 1 1 0 0 1-.44.09h-2.84v.77c2.51 0 3.12 0 3.12 2.45 0 2.61-.38 2.67-3.12 2.67v.72h2.4a.65.65 0 1 1 0 1.3zm1.55-5.39c0-.61-.25-.61-1.57-.61v.88H220zm-1.57 1.29v.94c1.21 0 1.55 0 1.57-.62v-.32zm22.88-5.83a6.61 6.61 0 0 0 .81-.34c1.05-.64 2.09 1 .67 1.66a11.43 11.43 0 0 1-2.11.64 18.67 18.67 0 0 1-.92 1.93 2.79 2.79 0 0 1 3.22 1.67c.79-.4 1.59-.81 2.34-1.13a13.2 13.2 0 0 0 1.49-.71 1 1 0 1 1 1.08 1.72 21.84 21.84 0 0 1-2.07.79c-.81.31-1.67.69-2.44 1a14.72 14.72 0 0 1 0 2.11 1.14 1.14 0 0 1-1 1.19c-.48 0-.93-.34-.87-1.09v-1.25l-.5.29c-2.37 1.53-2.09 2.68-1 3.22s2.89.13 3.79-.15c1.69-.52 2.22 1.55.46 2-1.13.29-3.74.57-5.23-.27-2.59-1.46-2.13-4 1.34-6.32.27-.18.58-.39.94-.6-.52-1.61-2-1.42-3.24 0l-.08.08a4 4 0 0 1-.44.5c-1.05.93-2.45-.16-1.3-1.19a9.45 9.45 0 0 0 1.55-1.8 16.31 16.31 0 0 0 .9-1.71 3.85 3.85 0 0 1-2.37-.21c-1.38-.69-.44-2.49.9-1.59a3 3 0 0 0 1.8 0h.29a8.49 8.49 0 0 0 .21-1.61c.07-1.15 1.88-1 1.91-.1a3.42 3.42 0 0 1-.15 1.11zm19.15 12.8c-1.79.29-1.92-1.82-.39-2a10.24 10.24 0 0 0 5.64-2.24c1.63-1.44 1.74-3 .86-4-1.23-1.4-3.39-1.36-5.12-.85a19.38 19.38 0 0 0-2.74 1.13c-.86.43-1.72.87-2.66 1.31a1.08 1.08 0 1 1-.94-1.92 44.31 44.31 0 0 1 6-2.24c2.18-.56 5.1-.54 6.86 1.3 2.07 2.17 1.3 4.91-1.06 6.86a13.25 13.25 0 0 1-6.45 2.65zm20.87.56a35.49 35.49 0 0 0-4.06-6.23c-1.26-1.47-1.26-2.84.23-4.39a46.35 46.35 0 0 0 3.93-4.33 1.07 1.07 0 1 1 1.71 1.3c-1 1.17-3 2.84-4.18 4-.83.82-.86 1.4-.23 2.18 1.92 2.4 3.54 4.2 4.48 6.25.6 1.32-1.26 2.45-1.88 1.22zm12.86-.9a8.83 8.83 0 0 0 3.33-10.08c-.63-1.92-2.45-1.21-3 0a6.43 6.43 0 0 0-.5 3.62c.1 1.86-2 1.84-2.09.46a17.18 17.18 0 0 1 .45-4.42c.21-1 .57-2.25.72-3.42a1 1 0 0 1 1.92.18 5.84 5.84 0 0 1-.5 1.78c-.25.51-.06.27.14 0 1.4-1.8 3.89-1 4.67 1.15a10.46 10.46 0 0 1-3.8 12.19c-1.55 1.18-2.95-.41-1.34-1.46zm17.18 1.46a7.47 7.47 0 0 0-2.36-2 .87.87 0 0 1-.52-.76.86.86 0 0 1 .9-.85c.67 0 3.74 1.69 3.74 3a1.06 1.06 0 0 1-1 1.06.87.87 0 0 1-.76-.45zm12.31-5.54a8.35 8.35 0 0 1-2.31.76.88.88 0 0 1-.91-.9.84.84 0 0 1 .64-.82c.94-.29 1.8-.56 2.6-.84v-3.61h-1c-.48 2.67-.83 3-1.59 3a.73.73 0 0 1-.81-.65 1 1 0 0 1 .1-.39 14.26 14.26 0 0 0 1-5.29c0-.48.42-.7.86-.7s.86.22.86.7-.15 1.52-.15 1.58h.76v-3.19a.92.92 0 0 1 1.84 0v3.19h.77a.84.84 0 0 1 0 1.68h-.79v2.9c.43-.18.83-.37 1.19-.56a.72.72 0 0 1 .33-.08.76.76 0 0 1 .71.79.88.88 0 0 1-.54.79c-.5.26-1.07.51-1.69.8v5.9a.92.92 0 0 1-1.83 0zm8.21-6.23a12.15 12.15 0 0 1-4.14 7.47 1.35 1.35 0 0 1-.79.31.85.85 0 0 1-.88-.81 1 1 0 0 1 .46-.78 9.2 9.2 0 0 0 3.62-6.19h-.8c-1.09 2.32-1.38 2.55-2 2.55a.81.81 0 0 1-.88-.73 1 1 0 0 1 .19-.52A16.84 16.84 0 0 0 329 103a.75.75 0 0 1 .8-.59.9.9 0 0 1 1 .8 14.43 14.43 0 0 1-.84 2.54h4.75a2 2 0 0 1 2.11 2.07c0 .78.06 1.72.06 2.72 0 4.23-.6 8.56-4.49 8.56a6.6 6.6 0 0 1-1.57-.21.91.91 0 0 1-.69-.92.79.79 0 0 1 .81-.84 1.6 1.6 0 0 1 .27 0 5.73 5.73 0 0 0 1.14.17c.81 0 2.69-.09 2.69-6.94 0-2.64 0-2.93-.58-3.06-.32 3.54-1.51 8.37-6 11a1.32 1.32 0 0 1-.64.19.91.91 0 0 1-.9-.92.77.77 0 0 1 .38-.67c4.28-2.57 5.24-6.61 5.45-9.62zm11.04-.13a.78.78 0 0 1-.88-.77.84.84 0 0 1 .88-.85h5.44a.81.81 0 1 1 0 1.62zm4.13 11.72h-3.01a1.47 1.47 0 0 1-1.47-1.51v-2.84a1.42 1.42 0 0 1 1.43-1.45h3.11a1.55 1.55 0 0 1 1.59 1.36v2.91a1.57 1.57 0 0 1-1.65 1.53zm-3.49-14.35a.76.76 0 0 1-.84-.75.82.82 0 0 1 .84-.82h4a.75.75 0 0 1 .8.78.76.76 0 0 1-.8.79zm0 5.12a.76.76 0 0 1-.84-.75.83.83 0 0 1 .84-.83h4a.76.76 0 0 1 .8.79.77.77 0 0 1-.8.79zm0 2.47a.76.76 0 0 1-.84-.75.82.82 0 0 1 .84-.82h4a.75.75 0 0 1 .8.78.76.76 0 0 1-.8.79zm3.43 3.85v-1c0-.5-.46-.52-1.43-.52h-.83c-.55 0-.55.37-.55 1.44v1c0 .31.39.46 1.37.46s1.41-.12 1.43-.48.07-.57.07-.9zm2.67-4.31a.77.77 0 0 1-.83-.77.79.79 0 0 1 .83-.78h2c.17-.68.34-1.52.52-2.34h-1.35a.73.73 0 0 1-.78-.71.82.82 0 0 1 .82-.81h1.67c.12-.55.21-1 .27-1.41h-2.4a.76.76 0 0 1-.86-.73.82.82 0 0 1 .86-.81h7.17a.77.77 0 1 1 0 1.54h-3c-.07.38-.17.86-.28 1.41h1.32c1.23 0 1.8.58 1.8 1.8v2.06h1.06a.75.75 0 0 1 .8.76.76.76 0 0 1-.8.79zm6.42 7.3c-.52 0-1.19.06-1.86.06-2.49 0-4 0-4.05-1.82v-2.67a1.78 1.78 0 0 1 1.84-1.7h4.05a1.9 1.9 0 0 1 1.91 1.68v2.63a1.86 1.86 0 0 1-1.86 1.82zm.11-3.28c0-1.13-.07-1.4-.73-1.42h-2.8c-.72 0-.74.35-.74 1.79v.78c0 .63.8.63 2.12.63 1.67 0 2.07-.11 2.11-.63.07-.32.07-.77.07-1.15zm-.59-5.57v-1.5c0-.61-.12-.82-.6-.82h-1.15c-.19.82-.36 1.66-.54 2.34zm15.17-4.97a7.35 7.35 0 0 0 .81-.34c1.05-.64 2.09 1 .67 1.66a11.43 11.43 0 0 1-2.11.64 21 21 0 0 1-.92 1.93 2.79 2.79 0 0 1 3.22 1.67c.78-.4 1.59-.81 2.34-1.13a14.07 14.07 0 0 0 1.49-.71 1 1 0 1 1 1.08 1.72 21.84 21.84 0 0 1-2.07.79c-.81.31-1.67.69-2.44 1a14.72 14.72 0 0 1 0 2.11 1.14 1.14 0 0 1-1 1.19c-.48 0-.92-.34-.86-1.09v-1.25c-.17.1-.35.19-.5.29-2.38 1.53-2.09 2.68-1 3.22s2.9.13 3.8-.15c1.69-.52 2.22 1.55.46 2-1.13.29-3.74.57-5.23-.27-2.59-1.46-2.13-4 1.34-6.32.27-.18.57-.39.94-.6-.52-1.61-2-1.42-3.24 0l-.08.08a4 4 0 0 1-.44.5c-1 .93-2.45-.16-1.3-1.19a9.45 9.45 0 0 0 1.55-1.8 16.31 16.31 0 0 0 .9-1.71 3.85 3.85 0 0 1-2.37-.21c-1.38-.69-.44-2.49.9-1.59a3 3 0 0 0 1.8 0h.28A7.73 7.73 0 0 0 369 104c.07-1.15 1.87-1 1.91-.1a3.42 3.42 0 0 1-.15 1.11zM383.49 118a.78.78 0 0 1-.84-.73 1.09 1.09 0 0 1 .17-.52 8.68 8.68 0 0 0 1.13-3.29.74.74 0 0 1 .77-.67.84.84 0 0 1 .88.84 10.87 10.87 0 0 1-1.26 3.91 1 1 0 0 1-.85.46zm2.53.4l.06-6.67c-1.15.17-2.28.29-2.35.29a.71.71 0 0 1-.71-.77.67.67 0 0 1 .61-.71h.8a17.67 17.67 0 0 0 1.15-1.44 17 17 0 0 0-2.16-1.76.8.8 0 0 1-.37-.64.75.75 0 0 1 .75-.74 1 1 0 0 1 .56.19 12.9 12.9 0 0 0 1.45-3.28.73.73 0 0 1 .75-.54.91.91 0 0 1 1 .79c0 .77-1.67 3.53-1.94 3.91.31.25.6.5.86.75a19.22 19.22 0 0 0 1.46-2.75.73.73 0 0 1 .71-.47.93.93 0 0 1 1 .84c0 .77-2.49 4.2-3.07 4.94l1.78-.19c-.44-.63-.44-.63-.44-.84a.68.68 0 0 1 .73-.61c.94 0 1.9 2.16 1.9 2.66a.88.88 0 0 1-.84.92.69.69 0 0 1-.67-.59c0-.12-.06-.25-.1-.37-.27.06-.65.12-1.09.19v6.94a.87.87 0 0 1-.92.9.85.85 0 0 1-.89-.88zm3.51-2.2a.66.66 0 0 1-.69-.66 6.21 6.21 0 0 0-.63-2.12.77.77 0 0 1-.1-.33c0-.34.35-.55.73-.55a.87.87 0 0 1 .67.3 5.67 5.67 0 0 1 1 2.46.93.93 0 0 1-.98.92zm9.8-9.16L395 107c0 .69-.07 1.38-.13 2h2.34a1.8 1.8 0 0 1 1.89 2c0 3.37-.36 7.93-4 7.93a5.14 5.14 0 0 1-2-.42.91.91 0 0 1-.62-.88 1 1 0 0 1 .86-1 1.21 1.21 0 0 1 .39.09 3.1 3.1 0 0 0 1.36.37c.88 0 2.2-.58 2.2-5.83a.63.63 0 0 0-.69-.69h-1.91c-.5 3.36-1.65 6.17-4.41 8.34a1.05 1.05 0 0 1-.67.25 1 1 0 0 1-1-.94.88.88 0 0 1 .4-.71c3.53-2.63 4.12-6.5 4.16-10.5h-2.43a.89.89 0 0 1 0-1.77h2.91v-2a.86.86 0 0 1 .94-.84.87.87 0 0 1 .94.84v2h3.78a.89.89 0 0 1 0 1.77zm8.43 8.96a10 10 0 0 1-2.17-6.14 20.17 20.17 0 0 1-.09-2.12 1 1 0 1 1 1.95 0v1.66c.08 2 .44 3.92 1.52 4.95.49.48.74.54 1.17 0a8.59 8.59 0 0 0 .63-1.13.94.94 0 0 1 1.74.69 8.13 8.13 0 0 1-.75 1.48c-1.22 1.92-2.93 1.75-4 .61zm10.37-3.38a6.08 6.08 0 0 0-2.13-3.72c-.92-.64.12-2.06 1.26-1.19a7.28 7.28 0 0 1 2.88 4.44 1 1 0 1 1-2.01.46zm12.45-3.36a6.92 6.92 0 0 1 .62-1c.3-.4.21-.38-.16-.27-1.43.47-1.11.47-2.41 1-.62.23-1.15.42-1.73.58-1.68.46-2.2-1.75-.67-2.07.4-.1 1.52-.31 2.13-.46.94-.23 2.62-.61 4.58-1.17a25 25 0 0 1 5.21-1.13 1.13 1.13 0 0 1 1.31 1.47c-.12.33-.54.71-1.88.64a8.08 8.08 0 0 0-2.84.53 5.63 5.63 0 0 0-2.47 2.25c-1.69 2.81-.4 6.84 3.89 6.68 2-.07 2.15 2.19.12 2.17-5.79-.06-7.79-5.37-5.7-9.22zm5.91 1.26c-1-.44-.25-1.62.69-1.28a6.27 6.27 0 0 1 2 1.21c.78.84-.4 2.07-1.08 1.28a7.61 7.61 0 0 0-1.61-1.21zm1.93-1.66c-1-.4-.29-1.63.65-1.33a6.55 6.55 0 0 1 2 1.15c.81.81-.32 2.08-1 1.31a6.64 6.64 0 0 0-1.65-1.13zM449 116a10 10 0 0 1-2.17-6.14 20.17 20.17 0 0 1-.09-2.12 1 1 0 1 1 1.95 0v1.66c.08 2 .44 3.92 1.52 4.95.5.48.74.54 1.17 0a7.57 7.57 0 0 0 .63-1.13.94.94 0 0 1 1.74.69 8.13 8.13 0 0 1-.75 1.48c-1.23 1.92-2.94 1.75-4 .61zm10.37-3.38a6 6 0 0 0-2.13-3.71c-.92-.64.12-2.06 1.26-1.19a7.28 7.28 0 0 1 2.88 4.44 1 1 0 1 1-2.02.45zm13.98 5.82a35.49 35.49 0 0 0-4.06-6.23c-1.27-1.47-1.27-2.84.23-4.39a47.78 47.78 0 0 0 3.93-4.33 1.07 1.07 0 1 1 1.7 1.3c-.95 1.17-3 2.84-4.17 4-.83.82-.87 1.4-.23 2.18 1.91 2.4 3.54 4.2 4.48 6.25.59 1.32-1.23 2.45-1.88 1.22zm13.72 1.02a2.19 2.19 0 1 1 2.19-2.19 2.19 2.19 0 0 1-2.19 2.19zm0-3.63a1.45 1.45 0 1 0 1.46 1.44 1.44 1.44 0 0 0-1.46-1.44z" fill="#040000" data-name="レイヤー 1"/></g></svg>