<svg xmlns="http://www.w3.org/2000/svg" viewBox="0 0 407.76 85.42"><g data-name="レイヤー 2"><path d="M97.21 12.88c-.27.44-.55 1-.9 1.55-.78 1.38-2.61.31-1.76-1a8.61 8.61 0 0 1 .57-.76A29.35 29.35 0 0 0 97.67 8v-.46a.3.3 0 0 0-.25 0 11.94 11.94 0 0 0-1.38.82c-1.38.86-2-1-.92-1.57.71-.32 1.74-.82 2.72-1.23.14-1.4.25-2.6.33-3.43.11-1.34 2.05-1.07 1.88.06-.05.81-.19 1.7-.33 2.81.75 0 1.27.94.4 2.17-.09.13-.38.67-.76 1.36v.09a12.78 12.78 0 0 1 1.65-1c3.41-1.82 6.45-1.19 7.83.38s1.08 4.16-1.82 6.25a11.81 11.81 0 0 1-2.72 1.4 1 1 0 1 1-.61-2 9.86 9.86 0 0 0 2-.93c2-1.37 2.26-2.86 1.42-3.74s-2.86-1.15-5.5.21a11.68 11.68 0 0 0-2.42 1.61 24.87 24.87 0 0 0 .16 4.56 1 1 0 0 1-.88 1.23 1 1 0 0 1-1.15-1.06 18.43 18.43 0 0 1 0-2.83zm19.38 2.45c-.57 1.29-2.6.73-1.8-.9a58.71 58.71 0 0 0 3.36-8.32 5.59 5.59 0 0 1-2.8-.26c-1-.43-.79-2.17.65-1.65a5.21 5.21 0 0 0 2.64.11 8 8 0 0 0 0-2.07c-.07-1.09 1.73-1.15 1.92-.09a5.56 5.56 0 0 1 0 1.53c.27-.13.5-.27.73-.4a.91.91 0 1 1 .71 1.64 12.25 12.25 0 0 1-1.94.77 75.57 75.57 0 0 1-3.47 9.64zm4.66-.86c-.82-.92.36-2.43 1.36-1.42s2.15.9 4.39.71a1 1 0 1 1 .25 2c-2.78.53-5.16-.35-6-1.29zm2.17-6.69c-1 .36-1.59-1.21-.33-1.65a7.16 7.16 0 0 1 4.6.1c1.28.46.77 2.15-.44 1.74a6.79 6.79 0 0 0-3.83-.19zm12.25 4.6c-.08-2 .13-3.64.23-5.67.06-1.25.19-3.13.15-4.32 0-1.41 2.13-1.3 2.09 0s-.17 3-.27 4.31a53.19 53.19 0 0 0-.34 5.63c.11 2.8 3.53 2.61 6.86 0a1.07 1.07 0 1 1 1.32 1.67c-3.71 3-9.87 3.55-10.04-1.62zm18.7 2.95c-.58 1.29-2.61.73-1.8-.9a60.18 60.18 0 0 0 3.35-8.32 5.6 5.6 0 0 1-2.8-.26c-1-.43-.78-2.17.65-1.65a5.26 5.26 0 0 0 2.65.11 8.48 8.48 0 0 0 0-2.07c-.08-1.09 1.72-1.15 1.91-.09a5.56 5.56 0 0 1 0 1.53c.27-.13.5-.27.73-.4a.91.91 0 1 1 .75 1.64 12.51 12.51 0 0 1-1.93.77 75.57 75.57 0 0 1-3.51 9.64zm4.65-.86c-.82-.92.37-2.43 1.37-1.42s2.14.9 4.39.71a1 1 0 1 1 .24 2c-2.78.53-5.15-.35-6.02-1.29zm2.17-6.69c-1 .36-1.59-1.21-.33-1.65a7.16 7.16 0 0 1 4.6.1c1.29.46.77 2.15-.44 1.74a6.79 6.79 0 0 0-3.83-.19zm15.09 2.09a8.51 8.51 0 0 1 3.79-1.65c4-.54 5.85 3 3.43 5.89a8.46 8.46 0 0 1-5.15 2.51c-1.84.24-1.94-1.67-.5-1.84a6.49 6.49 0 0 0 4-1.73c1.4-1.57 1.08-3.39-1.53-3.18a5.72 5.72 0 0 0-3.37 1.76c-.35.37-.44.92-1.09 1.1-.85.23-1.5-.6-1.36-1.58s.42-3 .7-4.92a7.35 7.35 0 0 1-1.8-.06c-1.42-.23-1.26-2.16.27-1.82a5 5 0 0 0 1.82 0c.19-1.23.39-2.28.52-2.88a1 1 0 1 1 1.84.46c-.13.44-.27 1.08-.42 1.79a8.83 8.83 0 0 0 1-.62c1.33-.94 2.53 1 .75 1.8a20.46 20.46 0 0 1-2.16.91c-.32 1.7-.61 3.39-.74 4.06zm15.33 5.52a17.41 17.41 0 0 1-.3-6.73c.25-2.32.67-4.46.76-5.71A1 1 0 1 1 194 3c-.14.86-.46 2.53-.71 4.16a20.9 20.9 0 0 0-.36 4c0 .35.05.41.24 0 .06-.11.2-.46.24-.55.44-.92 1.89-.27 1.2 1.17a10.66 10.66 0 0 0-.61 1.52c-.16.48-.27.9-.35 1.21-.15.53.1 1.07-.38 1.53s-1.33.38-1.66-.65zm6 .4a2.17 2.17 0 0 1 .29-4 5.44 5.44 0 0 1 3.37-.23v-1c-.06-.79-.1-2.26-.16-3.78a13.09 13.09 0 0 1-3.14.14.94.94 0 1 1 .38-1.82 8.27 8.27 0 0 0 2.65-.04V2.41c0-1.24 1.91-1.07 1.84 0 0 .53-.06 1.34-.06 2.28l1-.27c1.24-.38 2.07 1.36.42 1.76q-.69.18-1.38.33c0 1.49.08 3 .11 3.93 0 .48.1 1.11.12 1.72a8.93 8.93 0 0 1 2.16 1.4c1.1 1-.26 2.66-1.22 1.65a9.11 9.11 0 0 0-1.19-1 3.81 3.81 0 0 1-5.23 1.58zm3.49-2.51a3.44 3.44 0 0 0-2.64-.11.64.64 0 0 0-.12 1.13 2 2 0 0 0 2.78-1zm9.95-4.52a.85.85 0 1 1 0-1.69h6.29V4.73h-3.07c-1.05 1.84-1.59 2.15-2.12 2.15a.92.92 0 0 1-1-.81 1 1 0 0 1 .34-.67 10.08 10.08 0 0 0 2.46-4.25.65.65 0 0 1 .69-.46c.51 0 1.11.38 1.11.88a7.36 7.36 0 0 1-.58 1.48h2.17V.9a.87.87 0 0 1 1-.84.89.89 0 0 1 1 .84v2.17h4.46a.84.84 0 1 1 0 1.68h-4.46v2.34h6.3a.85.85 0 1 1 0 1.69zm10.64 7.82c-1.11 0-2.3.06-3.45.06s-2.3 0-3.37-.06c-1.4-.06-2.13-.81-2.19-1.86v-2.45c0-.87.61-1.77 2.15-1.81h6.95a2 2 0 0 1 2.05 1.65v2.59a2 2 0 0 1-2.14 1.88zm.27-3c0-1.15 0-1.5-.9-1.51s-1.59 0-2.51 0h-3.17c-.9 0-.88.61-.88 1.41 0 1 0 1.44.9 1.48s1.8 0 2.8 0h2.89c.89 0 .91-.64.91-1.41zm20.47-10.65a2.38 2.38 0 0 1 2.42 2.17c0 1.15.06 2.78.06 4.41 0 1.8 0 3.56-.06 4.56a2.41 2.41 0 0 1-2.47 2.3c-1.25 0-2.63.05-3.95.05s-2.32 0-3.3-.05c-1.72-.08-2.59-.87-2.64-2.25 0-1.2-.06-2.95-.06-4.73 0-1.57 0-3.18.06-4.43s1-2 2.49-2l1.8-.06a13.8 13.8 0 0 0 .42-2.12.9.9 0 0 1 1-.78c.55 0 1.15.33 1.15.86a9.35 9.35 0 0 1-.58 2c1.36 0 2.69.03 3.66.07zm.6 5.41V5.79c-.06-1.33-.35-1.33-4.31-1.33s-4.3 0-4.35 1.33c0 .71-.06 1.59-.06 2.55zM234.27 10c0 1.31 0 2.55.06 3.42 0 1.26.44 1.32 4.33 1.32 3.62 0 4.27 0 4.33-1.38 0-.92.06-2.11.06-3.36zm18.61 2.38c-.08-2 .13-3.64.22-5.67.06-1.25.2-3.13.16-4.32 0-1.41 2.13-1.3 2.09 0s-.17 3-.27 4.31a53.29 53.29 0 0 0-.35 5.63c.12 2.8 3.53 2.61 6.87 0a1.07 1.07 0 1 1 1.32 1.67c-3.74 3-9.87 3.55-10.04-1.62zm22.2-6.86a17.48 17.48 0 0 1-3 .23c-1.47 0-1.55-2 .19-1.82a11 11 0 0 0 3-.14V1.26a1 1 0 0 1 2 0c-.06.69-.1 1.46-.12 2.23.41-.08.85-.19 1.31-.29 1.26-.29 1.78 1.5.11 1.76-.52.08-1 .18-1.44.25v2.13c.46-.13.94-.27 1.46-.44 1.42-.46 2.15 1.3.44 1.78-.67.19-1.28.37-1.84.5 0 .65.08 1.25.13 1.8s.12 1.21.16 1.9a8.64 8.64 0 0 1 2.37 1.36c1.29 1 0 2.8-1.16 1.69a9.42 9.42 0 0 0-1.4-1 3.91 3.91 0 0 1-5.37 1.75c-1.82-.91-1.94-3.05.15-3.93a6.47 6.47 0 0 1 3.66-.33c0-.4-.05-.8-.09-1.25s-.08-1-.12-1.59a10.47 10.47 0 0 1-3.48.22 1 1 0 1 1 .4-1.84 8.29 8.29 0 0 0 3-.18c0-.73-.08-1.47-.1-2.22zm-2.47 8.55a.58.58 0 0 0-.06 1.09 2.12 2.12 0 0 0 2.95-1.07 4.11 4.11 0 0 0-2.89-.02zM291.57 11a2.63 2.63 0 0 1 1.53-3.6 3.79 3.79 0 0 1 1.65-.17c0-.43 0-1-.06-1.56-1.61.16-3.2.39-4.2.54-1.38.21-2.28.46-2.85.56a1 1 0 1 1-.16-1.94c.77-.13 2-.27 2.82-.4 1-.16 2.68-.37 4.37-.52v-.38c0-1.19-.1-1.27-.1-1.88a1 1 0 0 1 2-.06c0 .44 0 1.32-.08 1.84v.29c.56 0 1.06-.06 1.48-.06h2.91c1.61 0 1.53 2.07 0 2-1.36-.11-1.82-.11-3-.13h-1.4v1.76c0 .27 0 .67.06 1.1 1.7 2.68-.33 6.74-2.36 8.37-1.28 1-2.95-.34-1.28-1.53a6.81 6.81 0 0 0 2.18-2.82 2.44 2.44 0 0 1-3.51-1.41zm3.22-2a1.26 1.26 0 0 0-1.23-.08 1.18 1.18 0 0 0-.56 1.46 1.14 1.14 0 0 0 2.21-.33.85.85 0 0 0-.12-.72 2.35 2.35 0 0 0-.3-.33zm14.72 8.13A2.19 2.19 0 1 1 311.7 15a2.17 2.17 0 0 1-2.19 2.13zm0-3.62a1.44 1.44 0 0 0-1.46 1.49 1.46 1.46 0 0 0 2.95 0 1.44 1.44 0 0 0-1.49-1.49zM4.35 44c.27-.4.32-.48-.08-.35a16.35 16.35 0 0 0-2 .87 1.87 1.87 0 0 1-1.67.21 1 1 0 0 1 .21-1.8A9 9 0 0 0 3 42.18c1.57-1.38 3.29-4.35 4.43-6.12a1.06 1.06 0 1 1 1.8 1.08 37.07 37.07 0 0 1-3.9 4.56c-.22.19 0 .11.13.07a6.42 6.42 0 0 1 .63-.21 18.08 18.08 0 0 1 4.26-.78 1 1 0 0 1 1 1.4c-.17.36-.65.65-1.61.53a9 9 0 0 0-2.22.2c-1 .22-1.17.51-1.68 1.3a2.8 2.8 0 0 0 2.7 4.46c1.84-.11 1.84 2.4-.27 2.19-4.4-.44-5.55-4.51-3.92-6.86zm-1.57-5a3.4 3.4 0 0 0-1.19-1.42c-.94-.58.17-1.94 1.23-1.25a4.07 4.07 0 0 1 1.68 1.8 1 1 0 0 1-.5 1.23.86.86 0 0 1-1.22-.36zm15.7 10.44a17.4 17.4 0 0 1-.31-6.73c.25-2.32.67-4.46.77-5.71a1 1 0 1 1 1.94 0c-.14.86-.47 2.53-.71 4.16a22 22 0 0 0-.37 4c0 .35.06.41.25 0 .06-.11.19-.46.23-.55.44-.92 1.9-.27 1.21 1.17a12.13 12.13 0 0 0-.6 1.51c-.15.48-.26.9-.34 1.21-.15.54.09 1.07-.38 1.53s-1.37.45-1.69-.59zm6 .4a2.16 2.16 0 0 1 .29-4 5.43 5.43 0 0 1 3.37-.23c0-.31 0-.6-.06-1-.06-.79-.09-2.26-.15-3.78a13.11 13.11 0 0 1-3.14.14.94.94 0 1 1 .38-1.82 8.22 8.22 0 0 0 2.7-.06v-2.65a1 1 0 0 1 1.69-.44.76.76 0 0 1 1.07-.62 6 6 0 0 1 1.8 1.09c.71.75-.34 1.86-.94 1.15A7 7 0 0 0 30 36.54a1 1 0 0 1-.35-.25v2.42c.32-.1.67-.17 1-.27 1.25-.38 2.07 1.36.42 1.76l-1.38.33c0 1.49.08 3 .12 3.93 0 .48.09 1.11.11 1.72a9.1 9.1 0 0 1 2.08 1.4c1.09 1-.27 2.67-1.23 1.65a8.39 8.39 0 0 0-1.18-1 3.81 3.81 0 0 1-5.15 1.61zm3.49-2.51a3.47 3.47 0 0 0-2.65-.11.64.64 0 0 0-.11 1.13 2 2 0 0 0 2.78-1zM31.61 35c-.94-.36-.29-1.48.57-1.19a5.76 5.76 0 0 1 1.86 1c.73.73-.29 1.88-.92 1.19a6.34 6.34 0 0 0-1.51-1zm7.74 14.4c-1.53-3.77 0-9.45.33-11.73a.93.93 0 1 1 1.86.12c-.31 1.55-1.46 6.05-1 7.84.06.25.13.19.21 0s.25-.47.33-.61a.77.77 0 0 1 1.34.75 9.46 9.46 0 0 0-1.13 2.68c-.12.52.11 1.11-.37 1.54s-1.18.35-1.57-.59zm5.14-1.4a1 1 0 0 1 1.36-1.32c1 .94 3.33.63 4.83.32s1.65 1.71.38 2c-2.06.59-5.19.54-6.57-1zm1.09-7.65a.9.9 0 1 1-.27-1.78 11.52 11.52 0 0 1 5-.11.94.94 0 1 1-.31 1.88 9.72 9.72 0 0 0-4.42.05zM60 47.72a9.88 9.88 0 0 1-2.16-6.14 18.32 18.32 0 0 1-.1-2.13 1 1 0 1 1 2 0v1.66c.07 2 .44 3.91 1.51 4.95.5.48.75.53 1.17 0a7.67 7.67 0 0 0 .58-1.18.94.94 0 0 1 1.75.69A9.06 9.06 0 0 1 64 47c-1.22 2-2.92 1.86-4 .72zm10.37-3.38a6.06 6.06 0 0 0-2.13-3.72c-.92-.63.12-2 1.27-1.18a7.31 7.31 0 0 1 2.87 4.44 1 1 0 1 1-2.01.46zM87 47.73c1.4-1.24 1.34-3.06.25-3.79a5 5 0 0 0-5 .33 4.17 4.17 0 0 0-1.61 1.43c-.69 1-2.61-.11-1.42-1.28A68.9 68.9 0 0 0 85 38.23c.21-.27 0-.19-.14-.12a15.21 15.21 0 0 1-3.22 1c-1.51.33-1.8-1.57-.49-1.72a31.41 31.41 0 0 0 4.21-.94c1.54-.44 2.8.92 1.84 2-.61.69-1.38 1.44-2.14 2.15s-1.52 1.4-2.21 2.04a5.89 5.89 0 0 1 5.39-.06c2.76 1.65 1.86 5-.15 6.48s-4.89 1.43-6.35.48c-2-1.33-1.13-3.7 1.13-3.78a2.72 2.72 0 0 1 3 2.59 2.54 2.54 0 0 0 1.13-.62zm-4.08-.57c-.84.08-.88.86-.27 1.19a3.56 3.56 0 0 0 1.61.29c.03-.89-.49-1.56-1.33-1.48zm13.86-3.45a1 1 0 1 1 0-2.07h14.55a1 1 0 0 1 1 1 1 1 0 0 1-1 1.06zm26.95-5.33a.39.39 0 0 1 0 .16c.36 4.69 3.81 8.77 7 10a1 1 0 0 1 .75.94 1.23 1.23 0 0 1-1.27 1.17c-1.63 0-5.67-3.49-7.34-7.86a12.83 12.83 0 0 1-6.9 8 1.18 1.18 0 0 1-.55.14 1.1 1.1 0 0 1-1.11-1.06 1.06 1.06 0 0 1 .7-.94c6.54-2.91 6.71-9.63 6.71-11.07 0-.58 0-1.23-.07-1.8V36a1.06 1.06 0 0 1 2.12.06c0 .67 0 1.49-.07 2.31zM137 46c-.17-3.45 1.69-6 2.42-7.28.08-.12.17-.27 0-.23a9.09 9.09 0 0 1-1.44.17c-1.51.08-1.42-2 .1-2a7.07 7.07 0 0 0 3.64-.73 1 1 0 1 1 .84 1.78c-1.34.67-4.24 4.49-3.81 8.26.32 2.89 2.93 3.14 4.92 1.29 2.44-2.27 2.36-6.66 1.82-7.88a11.46 11.46 0 0 0-.49-1c-.74-1.38 1.2-2.38 2-.8a8 8 0 0 0 3.72 3.6 1.06 1.06 0 1 1-1.15 1.76A8.54 8.54 0 0 1 147.5 41c-.12-.16-.17-.2-.12 0a9.06 9.06 0 0 1-2.47 7.8c-2.72 2.73-7.63 2.4-7.91-2.8zm20.64-8.25c-1-1.23.88-2.26 1.65-1.17a19.25 19.25 0 0 1 2.24 4.47 37.63 37.63 0 0 1 3.37-2.11c1.31-.73 2.3 1.11.83 1.86a28.36 28.36 0 0 0-5.44 3.39c-1.9 1.61-2 3.05-.46 3.77 1.34.68 4.08.18 5.23-.24 1.61-.62 2.18 1.59.48 2.07-1.52.42-4.72.8-6.62-.16-2.75-1.4-2.64-4.5.46-7 .2-.15.37-.3.56-.43a15.58 15.58 0 0 0-2.3-4.45zm19.3 11.52a8.83 8.83 0 0 0 3.33-10.08c-.63-1.92-2.45-1.21-3 0a6.43 6.43 0 0 0-.5 3.62c.1 1.86-2 1.84-2.09.46a16.87 16.87 0 0 1 .45-4.43c.21-1 .57-2.24.72-3.41a1 1 0 0 1 1.92.17 5.82 5.82 0 0 1-.5 1.79c-.25.51-.06.26.14 0 1.39-1.81 3.89-1 4.67 1.15a10.46 10.46 0 0 1-3.79 12.22c-1.57 1.15-2.96-.44-1.35-1.49zm21.21-9.37a15.14 15.14 0 0 1-3.87 7.76c-1.48 1.36-3.09.61-3.93-1-1.21-2.37.07-5.94 2.64-7.72a8 8 0 0 1 8.28-.44 5.67 5.67 0 0 1 1.78 8 8 8 0 0 1-4.67 3.16c-1.69.44-2.28-1.5-.63-1.88a5.9 5.9 0 0 0 3.56-2.15 4.14 4.14 0 0 0-1.05-5.86 5 5 0 0 0-2.38-.77 1 1 0 0 1 .27.9zm-4.26.36c-1.78 1.38-2.74 3.93-1.93 5.4.28.56.78.85 1.26.43a11.52 11.52 0 0 0 3-6.39 1.28 1.28 0 0 1 .18-.59 6.26 6.26 0 0 0-2.51 1.15zM210 47.91a1 1 0 0 1-1.06-1 1.16 1.16 0 0 1 .35-.79 9.78 9.78 0 0 0 2.12-3.85.93.93 0 0 1 .92-.71 1 1 0 0 1 1 .94 12.29 12.29 0 0 1-2.33 4.93 1.36 1.36 0 0 1-1 .48zm8.12 2.91c-2 0-3.7-.25-3.7-2.53s.1-5.86.16-8.82a1 1 0 0 1 2 0c-.09 3-.17 6.39-.19 8.55 0 .83.67 1 1.9 1 1.59 0 2.68-.14 2.68-2.23a.89.89 0 0 1 .94-1 1 1 0 0 1 1.03 1.21c0 3.82-2.83 3.82-4.83 3.82zm1.06-12.67a12.55 12.55 0 0 0-3.55-1.72.71.71 0 0 1-.54-.69 1.05 1.05 0 0 1 1-1 13.31 13.31 0 0 1 4.33 1.78 1 1 0 0 1 .4.79 1.11 1.11 0 0 1-1.05 1.09 1.08 1.08 0 0 1-.6-.25zm5.57 7.92a13.91 13.91 0 0 0-3.24-3.3.88.88 0 0 1-.38-.69 1 1 0 0 1 1-.88 1.17 1.17 0 0 1 .61.19c2.2 1.44 4 3.18 4 4a1.16 1.16 0 0 1-1.11 1.13 1 1 0 0 1-.89-.45zM238 39.69c1.61-.14 2.83.8 2.91 3a11.34 11.34 0 0 1-.65 4.27 3.72 3.72 0 0 1-4.51 2.3c-1.51-.44-.9-2.2.27-1.92a1.84 1.84 0 0 0 2.44-1 8.58 8.58 0 0 0 .61-3.32c0-1.17-.4-1.72-1.28-1.65-.29 0-.58.06-.89.1a28.48 28.48 0 0 1-3.71 7.71c-.92 1.3-2.92.19-1.67-1.21a18.54 18.54 0 0 0 3.48-6.31h-.23a13.14 13.14 0 0 1-2.07.26.92.92 0 1 1-.06-1.84c.6 0 1.19 0 1.88-.09l1-.1a19.76 19.76 0 0 0 .59-3c.14-1.25 2.09-1.13 1.94.15a26.24 26.24 0 0 1-.56 2.7zm7.09 4.31a6.87 6.87 0 0 0-2.74-3.3c-.94-.52-.1-2 1.09-1.26a7.91 7.91 0 0 1 3.41 3.64c.48 1.26-1.24 2.1-1.76.92zm12.76 6.84c-1.55.31-2.05-1.59-.42-1.92a9.25 9.25 0 0 0 2.57-.82c2.1-1.23 2.68-2.55 2.28-3.32s-1.8-1.05-3.84-.13a12.53 12.53 0 0 0-2.57 1.65c-1.13 1.09-1.89.55-2.24-.12a6.59 6.59 0 0 1-.15-3.26c.15-1.4.4-2.87.55-3.85.2-1.22 1.94-1.19 1.77.19-.1.81-.31 1.88-.46 2.8a5 5 0 0 0-.12 2c.06.16.16.16.33.06a23.93 23.93 0 0 1 2.18-1.12c5.79-2.51 9.87 2.66 3.4 6.63a10.46 10.46 0 0 1-3.28 1.21zm-.08-12.23c-.92.23-1.61-1-.8-1.44.09-.05.28-.15.15-.25a6.3 6.3 0 0 1-1.36-.9c-.82-.9.44-1.91 1.4-1.22.34.25 1 .53 1.55.9a2 2 0 0 1 1.09 1.4 1.25 1.25 0 0 1-1.2 1.34c-.25.04-.52.1-.83.17zM274 50.76a7.24 7.24 0 0 0-2.36-2 .86.86 0 0 1-.51-.77.85.85 0 0 1 .9-.84c.67 0 3.74 1.69 3.74 3a1.06 1.06 0 0 1-1 1 .86.86 0 0 1-.77-.39zm22.64-9.39v3c0 1.73-1.42 1.82-3.05 1.82-1.8 0-2.95-.09-3-1.8v-3h-2.49v2.53c0 1.4 0 2.61.06 3.34.06 1.13.65 1.17 4.81 1.17 1.67 0 3.47 0 5-.1a.79.79 0 0 1 .81.84.88.88 0 0 1-.86.92c-1.48.08-3.17.1-4.76.1s-2.91 0-4-.08c-1.69-.08-2.92-.75-2.95-2.61v-6.11H284a.82.82 0 0 1-.92-.8.89.89 0 0 1 .92-.9h2.21v-3.56c0-.56.48-.82 1-.82a.87.87 0 0 1 1 .8c0 .94 0 2.2-.06 3.56h2.47V35.5a.87.87 0 0 1 .94-.79.8.8 0 0 1 .88.77v4.17h2.45v-3.94a.91.91 0 0 1 1.82 0v3.94h2.78a.85.85 0 0 1 .88.88.82.82 0 0 1-.88.82zm-4.24 0v2.61c0 .61.33.65 1.14.65s1.2-.12 1.24-.65 0-1.52 0-2.61zm21.13-1.47a15.07 15.07 0 0 1-3.87 7.76c-1.47 1.36-3.08.61-3.93-1-1.2-2.37.08-5.94 2.65-7.72a8 8 0 0 1 8.28-.44 5.67 5.67 0 0 1 1.78 8 8 8 0 0 1-4.68 3.16c-1.68.44-2.28-1.5-.63-1.88a5.92 5.92 0 0 0 3.57-2.15 4.13 4.13 0 0 0-1.06-5.86 5 5 0 0 0-2.37-.77 1 1 0 0 1 .26.9zm-4.25.36c-1.78 1.38-2.74 3.93-1.94 5.4.29.56.79.85 1.27.43a11.52 11.52 0 0 0 3-6.39 1.42 1.42 0 0 1 .17-.59 6.28 6.28 0 0 0-2.5 1.15zm22.5 4.87c-1.49 0-3 0-4.31-.1a2 2 0 0 1-2.11-1.93v-3.43a2 2 0 0 1 2.07-2c1.33 0 2.82-.06 4.35-.06v-2.7a.88.88 0 0 1 1-.84.9.9 0 0 1 1 .84v2.72c1.55 0 3.09 0 4.47.06a2.12 2.12 0 0 1 2 1.82c0 .46.06 1 .06 1.63s0 1.36-.06 1.94a2.09 2.09 0 0 1-2.07 2c-1.4.06-2.87.1-4.37.1v5.12c0 .51-.48.78-1 .78a.86.86 0 0 1-1-.78zm0-5.77c-1.34 0-2.6 0-3.64.06a.89.89 0 0 0-.94.8v1.27c0 1.2 0 1.8 1 1.84s2.32.09 3.62.09zm1.94 4l3.68-.07c.92 0 1-.46 1-2s0-1.93-1-1.95-2.34-.06-3.66-.06zm17.67-3.79a17.56 17.56 0 0 1-3 .23c-1.48 0-1.55-2 .19-1.82a10.88 10.88 0 0 0 3-.13v-2.53a1 1 0 0 1 1.95 0c-.05.69-.09 1.45-.11 2.22l1.3-.29c1.27-.29 1.78 1.5.12 1.76-.52.08-1 .18-1.44.25v2.13c.46-.13.94-.27 1.46-.44 1.41-.46 2.14 1.3.44 1.78-.67.2-1.29.37-1.84.5 0 .65.07 1.25.13 1.8s.12 1.21.15 1.9a9 9 0 0 1 2.38 1.36c1.29 1 0 2.8-1.17 1.69a8.49 8.49 0 0 0-1.4-1 3.9 3.9 0 0 1-5.36 1.75c-1.82-.9-1.94-3.05.15-3.93a6.47 6.47 0 0 1 3.66-.33c0-.4-.06-.8-.1-1.24s-.07-1-.11-1.59a10.75 10.75 0 0 1-3.49.21 1 1 0 1 1 .4-1.84 8.28 8.28 0 0 0 3-.18c0-.72-.07-1.47-.09-2.22zm-2.48 8.55a.58.58 0 0 0-.05 1.09 2.12 2.12 0 0 0 2.95-1.07 4.13 4.13 0 0 0-2.9-.02zM368.5 41a6.36 6.36 0 0 1 .61-1c.31-.4.21-.38-.15-.27-1.44.46-1.11.46-2.42 1-.61.23-1.15.42-1.72.58-1.69.46-2.21-1.75-.67-2.07.4-.1 1.51-.31 2.12-.46.94-.23 2.63-.62 4.58-1.17a25.12 25.12 0 0 1 5.22-1.13 1.12 1.12 0 0 1 1.3 1.47c-.11.33-.54.71-1.88.64a8 8 0 0 0-2.83.53 5.53 5.53 0 0 0-2.48 2.24c-1.68 2.82-.4 6.85 3.89 6.69 2-.07 2.15 2.19.12 2.17-5.79-.07-7.78-5.38-5.69-9.22zm5.9 1.26c-1-.44-.25-1.63.69-1.28a6.17 6.17 0 0 1 2 1.21c.79.84-.4 2.07-1.07 1.28a7.59 7.59 0 0 0-1.62-1.22zm1.93-1.66c-1-.41-.28-1.63.66-1.33a6.57 6.57 0 0 1 2 1.15c.8.81-.33 2.07-1 1.31a6.46 6.46 0 0 0-1.66-1.14zm13.9-3.79a5.29 5.29 0 0 0 .81-.35c1-.63 2.09 1 .67 1.67a10.77 10.77 0 0 1-2.11.63 20 20 0 0 1-.92 1.94 2.79 2.79 0 0 1 3.22 1.67c.78-.41 1.59-.81 2.34-1.13a14.07 14.07 0 0 0 1.49-.71 1 1 0 1 1 1.08 1.72c-.62.31-1.06.4-2.07.79-.81.31-1.67.69-2.44 1.05a14.72 14.72 0 0 1 0 2.11 1.14 1.14 0 0 1-1 1.19c-.48 0-.92-.35-.86-1.09v-1.25l-.5.29c-2.37 1.53-2.09 2.68-1 3.22s2.89.13 3.79-.15c1.69-.52 2.22 1.55.46 2-1.13.28-3.74.57-5.23-.27-2.59-1.46-2.13-4 1.34-6.33.27-.17.58-.38.94-.59-.52-1.61-2-1.42-3.24 0l-.08.08a3.22 3.22 0 0 1-.44.49c-1 .94-2.45-.15-1.3-1.18a9.22 9.22 0 0 0 1.55-1.81 13.73 13.73 0 0 0 .9-1.7 3.85 3.85 0 0 1-2.37-.21c-1.38-.69-.44-2.49.9-1.59a3 3 0 0 0 1.8 0h.29a8.49 8.49 0 0 0 .21-1.61c.07-1.15 1.88-1 1.91-.1a3.42 3.42 0 0 1-.15 1.11zM406 50.76a7.24 7.24 0 0 0-2.36-2 .87.87 0 0 1-.52-.77.85.85 0 0 1 .9-.84c.67 0 3.74 1.69 3.74 3a1.06 1.06 0 0 1-1 1 .86.86 0 0 1-.76-.39zM57.35 83h.18c5.34 0 8.89-1.8 10.79-6.5a.82.82 0 0 1 .82-.55 1.11 1.11 0 0 1 1.15 1c0 .39-2.41 8-12.9 8a1.05 1.05 0 0 1-1.15-1 1 1 0 0 1 1.09-1zm-1-6.79a1 1 0 0 1 .5-.8A9 9 0 0 0 60 71.8a.82.82 0 0 1 .77-.52 1.07 1.07 0 0 1 1 1c0 .86-3.1 5-4.43 5a1.07 1.07 0 0 1-1.02-1.06zm9.26.62a2.75 2.75 0 0 1-3 2.72c-1.82 0-2.21-.61-2.21-1.15a.94.94 0 0 1 .89-1 .86.86 0 0 1 .21 0 4.46 4.46 0 0 0 1.07.17c.65 0 1.07-.29 1.07-1.24V69.1a.94.94 0 0 1 1-1 .92.92 0 0 1 1 1v5.52zm5-1.13a9.46 9.46 0 0 0-3-2.91.88.88 0 0 1-.44-.73.93.93 0 0 1 .92-.89c.85 0 4.36 2.77 4.36 3.95a1.12 1.12 0 0 1-1.08 1.08.91.91 0 0 1-.75-.49zm8.7 4.78c-.08-2 .13-3.64.23-5.67.06-1.25.19-3.13.15-4.32 0-1.41 2.13-1.3 2.09 0s-.17 3-.27 4.31a53.19 53.19 0 0 0-.34 5.63c.11 2.8 3.53 2.61 6.86 0a1.07 1.07 0 1 1 1.32 1.67c-3.73 3-9.87 3.55-10.04-1.62zm18.92-1.42a2.64 2.64 0 0 1 1.53-3.6 3.79 3.79 0 0 1 1.65-.17c0-.43 0-1-.06-1.56-1.61.16-3.2.39-4.19.54-1.38.21-2.28.46-2.86.56a1 1 0 1 1-.15-1.94c.76-.13 2-.27 2.81-.4 1-.16 2.69-.36 4.37-.52v-.34c0-1.19-.09-1.27-.09-1.88a1 1 0 0 1 2-.06c0 .44 0 1.32-.08 1.84v.29c.56 0 1.06-.06 1.48-.06h2.91c1.61 0 1.54 2.07 0 1.95-1.36-.11-1.82-.11-3-.13h-1.39v1.76c0 .27 0 .67.06 1.1 1.71 2.68-.32 6.74-2.36 8.37-1.28 1-3-.34-1.28-1.53a6.81 6.81 0 0 0 2.18-2.82 2.44 2.44 0 0 1-3.53-1.4zm3.22-2a1.26 1.26 0 0 0-1.23-.08 1.18 1.18 0 0 0-.55 1.46 1.14 1.14 0 0 0 2.2-.33.89.89 0 0 0-.11-.73 3.11 3.11 0 0 0-.31-.33zm4.62-6a6.49 6.49 0 0 0-1.34-1.38c-.89-.57 0-1.59.86-1.11a6.65 6.65 0 0 1 1.69 1.47c.59.96-.71 1.87-1.21 1.03zm2.34-1.06a11.88 11.88 0 0 0-1.41-1.4c-.9-.54 0-1.57.82-1.13a6.47 6.47 0 0 1 1.75 1.42.79.79 0 0 1-1.16 1.11zm11.3 13.66c-1.78.29-1.92-1.82-.38-2a10.39 10.39 0 0 0 5.67-2.27c1.63-1.44 1.75-3 .86-4-1.22-1.4-3.39-1.36-5.11-.84a18.9 18.9 0 0 0-2.75 1.1c-.87.42-1.73.86-2.67 1.3a1.07 1.07 0 1 1-.94-1.91 44.31 44.31 0 0 1 6-2.24c2.19-.56 5.1-.54 6.86 1.3 2.07 2.16 1.31 4.91-1 6.86a13.34 13.34 0 0 1-6.54 2.7zm19.1-1.66a16.51 16.51 0 0 1-2.09 1.31c-1.19.61-3 .3-2.8-2.26a7.52 7.52 0 0 1 3.43-5.05c.25-.16.52-.31.81-.46.06-.73.13-1.5.23-2.28A7.13 7.13 0 0 1 136 73a.88.88 0 1 1 .54-1.68 5.79 5.79 0 0 0 2.07.15c.08-.55.17-1.13.25-1.7.21-1.42 2.07-1.12 1.86 0-.08.48-.18 1-.25 1.4a20.26 20.26 0 0 0 2.59-.74c1.11-.43 1.95 1.2.44 1.7a23.39 23.39 0 0 1-3.32.84l-.25 1.71a7.76 7.76 0 0 1 2-.42h.23c.14-1.13 1.9-.77 1.83.15 5.59 1 5.3 8.07-1.23 10.22-1.73.57-2.21-1.21-.63-1.73 4.77-1.55 5-6.07 1.49-6.93a12.39 12.39 0 0 1-3.31 4.77 1.76 1.76 0 0 0 .21.38c.67 1.11-.92 2.34-1.65 1zm-.75-4.71a5.43 5.43 0 0 0-2.45 3.6c-.06.77.46.85 1 .58a15.94 15.94 0 0 0 1.7-1.11 15.37 15.37 0 0 1-.25-3.08zm3.66-1.42a8.26 8.26 0 0 0-2 .52 12.39 12.39 0 0 0 0 2.61 9.07 9.07 0 0 0 2-3.13zm13.74 7.56c-.57 1.29-2.61.73-1.8-.9a59.65 59.65 0 0 0 3.34-8.32 5.56 5.56 0 0 1-2.79-.26c-1-.43-.79-2.17.65-1.65a5.21 5.21 0 0 0 2.64.11 8 8 0 0 0 0-2.07c-.07-1.09 1.73-1.15 1.92-.09a6.47 6.47 0 0 1 0 1.53c.27-.13.5-.27.72-.4a.91.91 0 1 1 .76 1.62 11.75 11.75 0 0 1-1.93.77 75.57 75.57 0 0 1-3.51 9.66zm4.66-.86c-.83-.92.36-2.43 1.36-1.42s2.15.9 4.39.71a1 1 0 1 1 .25 2c-2.78.53-5.12-.35-6-1.29zm2.16-6.69c-1 .36-1.59-1.21-.32-1.65a7.16 7.16 0 0 1 4.6.1c1.28.46.76 2.15-.44 1.74a6.83 6.83 0 0 0-3.84-.19zm13.07 7.55c-.57 1.29-2.6.73-1.8-.9a58.2 58.2 0 0 0 3.36-8.32 5.59 5.59 0 0 1-2.8-.26c-1-.43-.79-2.17.65-1.65a5.25 5.25 0 0 0 2.65.11 9 9 0 0 0 0-2.07c-.08-1.09 1.72-1.15 1.91-.09a5.56 5.56 0 0 1 0 1.53c.27-.13.5-.27.73-.4a.91.91 0 1 1 .75 1.62 12.25 12.25 0 0 1-1.94.77 75.57 75.57 0 0 1-3.51 9.66zm4.66-.86c-.82-.92.37-2.43 1.36-1.42s2.15.9 4.39.71a1 1 0 1 1 .25 2c-2.78.53-5.16-.35-6.01-1.29zm2.17-6.69c-1 .36-1.59-1.21-.33-1.65a7.16 7.16 0 0 1 4.6.1c1.28.46.77 2.15-.44 1.74a6.79 6.79 0 0 0-3.83-.19zM198 80.85c-2.26 2.43-4.27 1.58-4.79-.83a6.14 6.14 0 0 1 2.11-5.46 12.83 12.83 0 0 1-.36-1.25c-.1-.38-.29-1.26-.37-1.66-.32-1.6 1.84-1.58 1.92-.22a15.11 15.11 0 0 0 .19 1.59 3.34 3.34 0 0 0 .1.43 2.4 2.4 0 0 1 .38-.21 7.9 7.9 0 0 1 3.28-.81 12.09 12.09 0 0 0 .25-2.07c0-1.34 2-1.19 1.89.21a11.57 11.57 0 0 1-.27 2 4.9 4.9 0 0 1 3.86 3.47c1 3.55-1.36 6.19-4.68 7.38-1.46.54-2.39-1.28-.73-1.78 3.34-1 4.08-3.22 3.62-5a3.38 3.38 0 0 0-2.47-2.57c-.06.17-.11.36-.19.56a22.29 22.29 0 0 1-1.95 3.87c.07.05.15.13.25.19a.82.82 0 0 1 .13 1.19.93.93 0 0 1-1.26.19l-.16-.1c-.27.32-.52.61-.75.88zm-2.08-4.68a4.2 4.2 0 0 0-1.08 3.22c.29 1.49 1.19 1.07 1.73.51a13 13 0 0 0 .92-1.09 10.31 10.31 0 0 1-1.59-2.64zm1.85-1.57a3.14 3.14 0 0 0-.55.34 8.47 8.47 0 0 0 1.3 2.34 15.69 15.69 0 0 0 1.5-3.11c0-.07.05-.17.07-.26a6 6 0 0 0-2.34.69zm19.67.4a6.36 6.36 0 0 1 .61-1c.31-.4.21-.38-.15-.27-1.44.46-1.11.46-2.42 1-.61.23-1.15.42-1.72.58-1.69.46-2.19-1.75-.65-2.07.4-.1 1.51-.31 2.12-.46.94-.23 2.61-.62 4.57-1.17a25.07 25.07 0 0 1 5.2-1.13 1.12 1.12 0 0 1 1.3 1.47c-.11.33-.54.71-1.88.63a8.41 8.41 0 0 0-2.85.54 5.5 5.5 0 0 0-2.45 2.24c-1.69 2.82-.41 6.85 3.89 6.69 2-.07 2.12 2.19.09 2.17-5.76-.02-7.75-5.33-5.66-9.22zm16.93 6.76a9.9 9.9 0 0 1-2.17-6.13 20.34 20.34 0 0 1-.09-2.13 1 1 0 1 1 1.95 0v1.66c.08 2 .44 3.91 1.52 4.95.5.48.74.53 1.17 0a7.67 7.67 0 0 0 .63-1.13.94.94 0 0 1 1.74.69 8.71 8.71 0 0 1-.74 1.47c-1.23 1.95-2.94 1.77-4.01.62zm10.37-3.37a6.06 6.06 0 0 0-2.13-3.72c-.92-.63.12-2 1.27-1.18a7.31 7.31 0 0 1 2.87 4.44 1 1 0 1 1-2.01.46zm9.45 4.16c-1.73-3.32-.85-7-.63-9.31.09-1.1.21-1.71.24-2.53a.93.93 0 0 1 1.86 0c0 .6-.17 1.59-.3 2.57-.23 1.61-.79 3.26-.5 5.16.06.32.17.46.32.06.1-.23.31-.62.41-.85a.76.76 0 1 1 1.41.56 10.19 10.19 0 0 0-.95 3.35c0 .21.11.77-.16 1.11a1 1 0 0 1-1.7-.12zm9.69-9.7c.43-.09.81-.17 1.14-.27 1.22-.34 2 1.33.34 1.67-.5.12-1 .23-1.51.33 0 .55 0 1.13.07 1.9.18 3.83-.82 6.61-3.81 8.72-1.11.78-2.32-.71-1.13-1.48 2.45-1.59 3.22-3.93 3.14-7.21 0-.59 0-1.13-.06-1.65a14.22 14.22 0 0 1-3.22.14.9.9 0 1 1 .31-1.74 12.11 12.11 0 0 0 2.89-.1v-.5a11.84 11.84 0 0 0-.21-2.26c-.15-1.42 1.75-1.34 2-.29a9.44 9.44 0 0 1 .09 2.28zm16.4 8.93c1.4-1.24 1.35-3.06.25-3.79a5 5 0 0 0-5 .33 4.1 4.1 0 0 0-1.61 1.43c-.69 1-2.6-.11-1.42-1.28a68.9 68.9 0 0 0 5.79-6.19c.21-.27 0-.19-.13-.12a15.41 15.41 0 0 1-3.22 1c-1.52.33-1.8-1.57-.5-1.72a31.92 31.92 0 0 0 4.22-.94c1.53-.45 2.79.92 1.84 2-.62.69-1.38 1.44-2.15 2.15s-1.53 1.39-2.22 2.07a5.87 5.87 0 0 1 5.38-.06c2.76 1.65 1.86 5-.15 6.48s-4.89 1.43-6.35.47c-2-1.32-1.13-3.69 1.14-3.77a2.71 2.71 0 0 1 3 2.59 2.54 2.54 0 0 0 1.13-.65zm-4.08-.57c-.84.08-.88.86-.27 1.19a3.58 3.58 0 0 0 1.61.29c.02-.89-.49-1.56-1.34-1.48zM291.58 84c-1.84-1-1.87-3.14.33-4a7.6 7.6 0 0 1 3.81-.15 11.45 11.45 0 0 0 0-1.19c-.23-3.83-.44-5.65-.42-8.39a1 1 0 0 1 2 0c-.05.93-.07 1.82-.05 2.76h.7a4.33 4.33 0 0 0 1.42-.44c1.21-.69 2.46 1 1.15 1.7a4.36 4.36 0 0 1-1.2.41c-.43.07-.85.11-1.17.15a4 4 0 0 1-.85 0c0 1.07.1 2.26.14 3.66v1.82a8 8 0 0 1 2.6 1.44c1.37 1.17 0 3.12-1.34 1.72a7.49 7.49 0 0 0-1.55-1.21 4 4 0 0 1-5.57 1.72zm.86-2.53a.55.55 0 0 0 0 1 2.17 2.17 0 0 0 3-1 4.93 4.93 0 0 0-3-.05zm19.28 2.19c3.44-2.41 4.49-5.81 3.7-8-.53-1.49-2-1.57-3.29-.78a12.59 12.59 0 0 1-1.86.88 1 1 0 1 1-.6-2c.5-.17 1.12-.38 1.65-.61 2-.86 4.77-.79 5.79 1.42 1.48 3.2-.15 7.74-4 10.56-1.25.87-2.52-.66-1.39-1.47zm-.4-13.7c-1.09-.62-.29-2.11 1.06-1.5a12.81 12.81 0 0 0 3 .85c1.57.27.94 2.2-.48 1.93a12.33 12.33 0 0 1-3.58-1.24zm14.58 13.49c-1.54-3.77 0-9.45.32-11.73a.93.93 0 1 1 1.86.12c-.3 1.55-1.45 6-1 7.84.05.24.13.19.21 0s.25-.47.32-.61a.77.77 0 0 1 1.34.75 10.12 10.12 0 0 0-1.13 2.68c-.11.52.12 1.11-.36 1.54s-1.18.35-1.56-.59zm5.1-1.36a1 1 0 0 1 1.36-1.32c1 .94 3.34.63 4.83.32s1.65 1.71.39 2c-2.02.55-5.17.49-6.58-1zm1.1-7.65a.9.9 0 1 1-.27-1.78 11.52 11.52 0 0 1 5-.11.94.94 0 1 1-.33 1.84 9.68 9.68 0 0 0-4.37.05zm14.61 10.79a2.19 2.19 0 1 1 2.18-2.18 2.18 2.18 0 0 1-2.18 2.18zm0-3.62a1.44 1.44 0 0 0-1.46 1.44 1.46 1.46 0 1 0 2.91 0 1.44 1.44 0 0 0-1.45-1.44z" fill="#040000" data-name="レイヤー 1"/></g></svg>