<svg xmlns="http://www.w3.org/2000/svg" viewBox="0 0 500 183.04"><path d="M50.64 12.54c-1.75 4.25-7.15 4.53-7.21 4.53a.88.88 0 0 1-.89-.89.79.79 0 0 1 .79-.8c2.64-.28 4.54-1.25 5.43-2.84h-4.69a.68.68 0 0 1-.68-.72.7.7 0 0 1 .68-.74h5.2c0-.23.06-.48.08-.72a.88.88 0 0 1 .07-.29h-3.07c-1.36 0-2.07-.68-2.1-1.61V5.54c0-.76.56-1.54 2-1.57h2.94c-.55-.19-1.1-.36-1.29-.42a.55.55 0 0 1-.45-.55.81.81 0 0 1 .85-.7 7.62 7.62 0 0 1 2.26.62A9.66 9.66 0 0 0 52.67 2s-.1-.05-.21-.05c-1.58 0-5 0-6.72.09a.71.71 0 0 1-.78-.7.74.74 0 0 1 .78-.74h8.21c1 0 1.48.44 1.48.93s0 1-3.68 2.35V4h2.79a1.86 1.86 0 0 1 2 1.46c0 .41.06.89.06 1.36s0 1.12-.06 1.63a1.92 1.92 0 0 1-2.07 1.65c-1.1 0-2.22.06-3.35.06a1.51 1.51 0 0 1 .07.4v.11c0 .16 0 .33-.07.48h4.28c1 0 1.82.57 1.82 1.5v.15c-.13 1.46-.51 3.91-4.15 3.91a11.13 11.13 0 0 1-2.18-.25.8.8 0 0 1-.63-.82.82.82 0 0 1 .8-.87.9.9 0 0 1 .23 0 10.29 10.29 0 0 0 2 .25 1.93 1.93 0 0 0 1.67-.59 2.92 2.92 0 0 0 .47-1.48c0-.25-.15-.36-.45-.38zm-1.16-7.36h-2.69c-.69 0-.86.32-.88.68v.46h3.58zm0 2.37H45.9c0 .89.11 1.2.91 1.21s1.65 0 2.67 0zm5.27-1.19V5.9c0-.72-.25-.72-3.59-.72v1.18zm-3.6 1.19v1.23h2.73c.73 0 .87-.6.87-1.21zm12.56 9.16a.86.86 0 0 1-.87-.87.85.85 0 0 1 .57-.78 12.65 12.65 0 0 0 3.89-2.56c-.59-.34-1.2-.64-1.75-.91a.8.8 0 0 1-.49-.72.87.87 0 0 1 .85-.85 10.44 10.44 0 0 1 2.54 1.21A19.54 19.54 0 0 0 70 9.07a.85.85 0 0 1 .74-.44 1 1 0 0 1 1 .91c0 .15 0 .59-1.75 2.6 2 1.37 2.18 1.94 2.18 2.26a1 1 0 0 1-.94 1 .91.91 0 0 1-.69-.36 10 10 0 0 0-1.74-1.61c-2.64 2.57-4.8 3.28-5.09 3.28zm3.13-13.3c-1.76 2.74-2.39 2.83-2.69 2.83a.88.88 0 0 1-.93-.8.84.84 0 0 1 .32-.62A12.34 12.34 0 0 0 66.4.46a.78.78 0 0 1 .74-.46 1 1 0 0 1 1 .85c0 .14 0 .33-.38 1h8.42a.81.81 0 1 1 0 1.61zm-2.26 4.75a.76.76 0 1 1 0-1.52h9.07a1.93 1.93 0 0 1 2.07 1.82v1.94c0 3.28 1.08 4.19 1.25 4.19s.44-.44.57-1.5a.74.74 0 0 1 .78-.68.88.88 0 0 1 .93.87c0 1-.76 3.3-2.32 3.3-.39 0-3-.13-3-7.36 0-.51 0-1.06-.84-1.06zM67 5.69a.69.69 0 1 1 0-1.38h7.61a.69.69 0 1 1 0 1.38zm23.46-2.88c.3-.12.59-.23.8-.34 1-.63 2.06.94.66 1.65a11.08 11.08 0 0 1-2.09.62 18.4 18.4 0 0 1-.91 1.92 2.76 2.76 0 0 1 3.19 1.65c.78-.4 1.57-.8 2.31-1.12a14.89 14.89 0 0 0 1.48-.7 1 1 0 1 1 1.1 1.7 21.51 21.51 0 0 1-2 .78c-.8.31-1.65.69-2.41 1a17.79 17.79 0 0 1 0 2.08 1.13 1.13 0 0 1-1 1.18c-.47 0-.91-.34-.85-1.08v-1.24c-.17.1-.34.19-.49.29-2.35 1.52-2.07 2.65-1 3.19s2.86.13 3.75-.16c1.67-.51 2.2 1.54.46 2-1.12.28-3.7.57-5.18-.27-2.56-1.44-2.11-4 1.33-6.26.26-.17.57-.38.93-.59-.52-1.59-2-1.4-3.21 0l-.08.08a3.9 3.9 0 0 1-.43.49c-1 .93-2.43-.15-1.29-1.18A8.94 8.94 0 0 0 87 6.79a15.07 15.07 0 0 0 .9-1.69 3.75 3.75 0 0 1-2.36-.21c-1.36-.68-.43-2.46.9-1.57a2.9 2.9 0 0 0 1.78 0h.28a7.56 7.56 0 0 0 .21-1.59c.08-1.14 1.86-1 1.9-.1a3.7 3.7 0 0 1-.15 1.1zm14.2 7.68a8.06 8.06 0 0 1-2 .57.9.9 0 0 1-.93-.91.83.83 0 0 1 .67-.83c.74-.19 1.5-.42 2.25-.65v-3h-1.8a.79.79 0 0 1-.81-.83.79.79 0 0 1 .81-.84h1.8V1a.87.87 0 0 1 .91-.9.85.85 0 0 1 .89.9v3h1.36a.8.8 0 0 1 .84.84.8.8 0 0 1-.84.83h-1.36v2.41c.49-.19 1-.38 1.38-.57a.71.71 0 0 1 .27 0 .78.78 0 0 1 .7.83c0 .57-.26.68-2.37 1.54v2.06c0 .31.06 2 .08 2.7v.07c0 1.2-.78 2.13-2.43 2.13-1 0-1.71-.17-1.71-1a.8.8 0 0 1 .74-.87.5.5 0 0 1 .17 0 2.82 2.82 0 0 0 .61.08c.4 0 .77-.14.77-.63zm4.2-3.15a.79.79 0 0 1-.84-.78.78.78 0 0 1 .84-.77h3.41V4.14h-2.56a.77.77 0 1 1 0-1.54h2.54V1a.91.91 0 0 1 1.82 0v1.6H117a.75.75 0 0 1 .81.76.75.75 0 0 1-.81.78h-2.9v1.67h3.92a.75.75 0 0 1 .8.77.77.77 0 0 1-.8.78zm7.14 3.21v1.23l.07 2.66v.05c0 1-.81 2.39-3.07 2.39-.76 0-2 0-2-1a.84.84 0 0 1 .84-.89.72.72 0 0 1 .19 0 6.1 6.1 0 0 0 1.1.13c.66 0 1.15-.23 1.15-1v-3.54h-5.4a.79.79 0 0 1-.84-.78.78.78 0 0 1 .84-.78h5.4V8.3a.82.82 0 0 1 .9-.78.81.81 0 0 1 .87.78L116 9h2.07a.75.75 0 0 1 .79.78.76.76 0 0 1-.79.78zm-4.54 3.3a5 5 0 0 0-1.57-1.33.64.64 0 0 1-.4-.59.84.84 0 0 1 .87-.79c.5 0 2.62 1.1 2.62 2.08a1 1 0 0 1-.87 1 .84.84 0 0 1-.62-.37zM129.5 16c-1.5.25-1.65-1.57-.34-1.76a7.45 7.45 0 0 0 4-1.6c1.13-1 1.19-2.05.62-2.69-.81-.93-2.31-.91-3.55-.55a33 33 0 0 0-3.88 1.76.94.94 0 1 1-.82-1.67 35.29 35.29 0 0 1 4.36-1.63c1.6-.4 3.78-.42 5.11 1 1.59 1.65.94 3.75-.78 5.2A9.52 9.52 0 0 1 129.5 16zm17.63-9.06a6.18 6.18 0 0 1 .61-1c.3-.4.21-.38-.15-.27-1.42.46-1.1.46-2.39.95a17.12 17.12 0 0 1-1.71.57c-1.67.45-2.16-1.73-.64-2 .4-.09 1.5-.3 2.1-.46.93-.22 2.58-.6 4.52-1.15a25.24 25.24 0 0 1 5.18-1.12 1.12 1.12 0 0 1 1.29 1.46c-.12.32-.54.7-1.86.63a8.06 8.06 0 0 0-2.83.53 5.46 5.46 0 0 0-2.43 2.22c-1.67 2.78-.4 6.77 3.85 6.62 2-.08 2.11 2.16.1 2.14-5.77-.06-7.7-5.3-5.64-9.12zm16.1 9.68a7.07 7.07 0 0 0-2.33-2 .86.86 0 0 1-.51-.76.84.84 0 0 1 .89-.84c.66 0 3.7 1.67 3.7 3a1 1 0 0 1-1 1 .88.88 0 0 1-.75-.4zm12.19-.49a.92.92 0 0 1-1.82 0l.06-6.28c-1.16 2.18-1.61 2.63-2.14 2.63a.92.92 0 0 1-.93-.87.82.82 0 0 1 .26-.59 16.9 16.9 0 0 0 2.85-4.34v-.51h-1.67a.77.77 0 0 1-.82-.79.79.79 0 0 1 .84-.8h1.65V2.82a10.08 10.08 0 0 1-1.57.24.81.81 0 0 1-.78-.87.69.69 0 0 1 .61-.72A14.3 14.3 0 0 0 176.13.4a.59.59 0 0 1 .2 0 1 1 0 0 1 .88.89c0 .46-.31.7-1.79 1.14v2.2h1.48a.75.75 0 0 1 .77.8.73.73 0 0 1-.75.79h-1.5v.83a.65.65 0 0 1 .26.08c.21.11 1.71 1.13 1.71 1.84a.87.87 0 0 1-.81.85.69.69 0 0 1-.59-.34l-.57-.78c0 2.94.09 7.48.09 7.48zm6.19-11c0 1.39-.08 3.28-.1 5.12a18.87 18.87 0 0 0 2.94-7.66.84.84 0 0 1 .91-.68.9.9 0 0 1 1 .79 19.64 19.64 0 0 1-1.19 4.3 1 1 0 0 1 .46-.11.94.94 0 0 1 .72.36 9.33 9.33 0 0 1 1.84 4 1 1 0 0 1-1 1 .83.83 0 0 1-.84-.72 8.66 8.66 0 0 0-1.4-3.38.79.79 0 0 1-.14-.25 18.49 18.49 0 0 1-3.3 5.14v.91c0 .71.29.9 1.33.9 1.33 0 1.86-.4 1.86-1.88a.81.81 0 0 1 .85-.89.93.93 0 0 1 1 1c0 3.17-2 3.53-3.79 3.53-2 0-2.79-.41-2.93-1.95a8.19 8.19 0 0 1-3.18 1.78.93.93 0 0 1-.95-.93.85.85 0 0 1 .61-.79 11.36 11.36 0 0 0 3.51-2.32V5.19a.8.8 0 0 1 .88-.78.83.83 0 0 1 .89.8zm-4.37 7.74a.78.78 0 0 1-.83-.76 1 1 0 0 1 .13-.47 7.93 7.93 0 0 0 .91-3.59.78.78 0 0 1 .82-.76c.13 0 .81 0 .81.93a10.15 10.15 0 0 1-.87 4 1.08 1.08 0 0 1-.97.68zm5.22-9A6.23 6.23 0 0 0 180 2.3a.77.77 0 0 1-.51-.71.91.91 0 0 1 .91-.87c.39 0 3.58 1 3.58 2.41a1 1 0 0 1-.89 1 .78.78 0 0 1-.63-.24zM198 12.69c-2.23 2.41-4.23 1.58-4.74-.81a6.06 6.06 0 0 1 2.09-5.41c-.13-.4-.27-.82-.36-1.23s-.29-1.26-.36-1.65c-.33-1.59 1.82-1.59 1.89-.21a14.78 14.78 0 0 0 .19 1.62 3.2 3.2 0 0 0 .1.42 2.82 2.82 0 0 1 .38-.21 7.86 7.86 0 0 1 3.24-.8 11.79 11.79 0 0 0 .25-2c0-1.33 1.95-1.18 1.88.2a13.41 13.41 0 0 1-.27 2A4.83 4.83 0 0 1 206.1 8c1 3.51-1.34 6.12-4.62 7.3-1.45.53-2.38-1.27-.73-1.76 3.3-1 4-3.19 3.59-5A3.34 3.34 0 0 0 201.89 6a5.17 5.17 0 0 1-.19.55 21.49 21.49 0 0 1-1.93 3.83c.07.05.15.13.24.19a.81.81 0 0 1 .14 1.17.9.9 0 0 1-1.25.19l-.16-.09a10.87 10.87 0 0 1-.74.85zm-2.06-4.63a4.18 4.18 0 0 0-1.07 3.19c.29 1.48 1.18 1.06 1.71.51a9.85 9.85 0 0 0 .91-1.08 10.42 10.42 0 0 1-1.55-2.62zm1.84-1.55a3.14 3.14 0 0 0-.55.34 8.28 8.28 0 0 0 1.29 2.31A15.58 15.58 0 0 0 200 6.09c0-.08.05-.17.07-.27a6.18 6.18 0 0 0-2.29.69zm19.75.43a6.18 6.18 0 0 1 .61-1c.3-.4.21-.38-.15-.27-1.43.46-1.11.46-2.4.95a16.16 16.16 0 0 1-1.7.57c-1.67.45-2.16-1.73-.65-2 .4-.09 1.5-.3 2.11-.46.93-.22 2.58-.6 4.51-1.15A25.38 25.38 0 0 1 225 2.43a1.12 1.12 0 0 1 1.29 1.46c-.11.32-.53.7-1.86.63a8 8 0 0 0-2.82.53 5.41 5.41 0 0 0-2.43 2.22c-1.67 2.78-.4 6.77 3.85 6.62 2-.08 2.1 2.16.09 2.14-5.68-.03-7.66-5.27-5.59-9.09zm16.96 6.66a9.81 9.81 0 0 1-2.14-6.07 17.86 17.86 0 0 1-.1-2.1 1 1 0 1 1 1.94 0v1.65c.07 2 .44 3.87 1.5 4.89.49.47.74.53 1.15 0a6.7 6.7 0 0 0 .63-1.12.94.94 0 0 1 1.73.69 8.58 8.58 0 0 1-.74 1.46c-1.22 1.91-2.91 1.74-3.97.6zm10.26-3.34a6 6 0 0 0-2.1-3.68c-.91-.62.11-2 1.25-1.17a7.23 7.23 0 0 1 2.85 4.4 1 1 0 0 1-2 .45zm9.61 4.99c-.57 1.27-2.58.72-1.78-.89a59.76 59.76 0 0 0 3.32-8.23 5.59 5.59 0 0 1-2.77-.27c-1-.42-.78-2.14.64-1.63a4.93 4.93 0 0 0 2.62.11 7.78 7.78 0 0 0 0-2c-.07-1.09 1.71-1.14 1.9-.1a5.49 5.49 0 0 1 0 1.52c.26-.13.49-.27.72-.4a.9.9 0 1 1 .74 1.64 12 12 0 0 1-1.92.76 73.69 73.69 0 0 1-3.47 9.49zm4.64-.85c-.81-.91.36-2.41 1.35-1.41s2.12.9 4.34.71a1 1 0 1 1 .25 2c-2.78.5-5.13-.37-5.94-1.3zm2.14-6.62c-1 .36-1.57-1.2-.32-1.63a7.07 7.07 0 0 1 4.55.09c1.28.46.76 2.13-.43 1.73a6.69 6.69 0 0 0-3.83-.19zm15.03 2.39a.88.88 0 0 1-1.74 0l.07-3.91A16.45 16.45 0 0 1 272.11 9a.9.9 0 0 1-.59.25.91.91 0 0 1-.87-.88.78.78 0 0 1 .36-.64 15.86 15.86 0 0 0 3.44-3.62h-2.26a.76.76 0 0 1-.82-.77.79.79 0 0 1 .84-.78h2.27V.95 1a.87.87 0 0 1 1.74 0s0 .66-.06 1.61H278a.72.72 0 0 1 .74.76.75.75 0 0 1-.72.79h-1.93v1a.71.71 0 0 1 .36-.09c.19 0 2.2.91 2.2 1.8a.89.89 0 0 1-.78.89.69.69 0 0 1-.53-.27 7.69 7.69 0 0 0-1.25-1.15c0 2.37.09 3.81.09 3.81zm-5.27 5.35a.81.81 0 0 1 .49-.74 4.9 4.9 0 0 0 1.73-1.78.77.77 0 0 1 .74-.54.93.93 0 0 1 .93.84c0 .8-1.79 3.19-3 3.19a1 1 0 0 1-.89-.97zm8.23 1.23c-3.22 0-3.72-.76-3.72-2.16v-1.52c0-.8 0-1.54.93-1.54a.84.84 0 0 1 .91.8v2.07c0 .78.68.81 1.95.81 1.69 0 2.43-.11 2.43-1a.72.72 0 0 1 .81-.7c.5 0 1 .28 1 .74-.02 2.12-1.27 2.5-4.31 2.5zm.4-3.58a5.49 5.49 0 0 0-1.61-1.35.66.66 0 0 1-.36-.55.89.89 0 0 1 .91-.8c.32 0 2.61 1 2.61 2.07a1 1 0 0 1-.93 1 .81.81 0 0 1-.62-.37zm4.89-2.53h-3.34a1.65 1.65 0 0 1-1.76-1.7V2.69A1.66 1.66 0 0 1 281.1 1h3.32a1.74 1.74 0 0 1 1.82 1.63c0 .9.06 2 .06 3.15s0 2.24-.06 3.1a1.8 1.8 0 0 1-1.82 1.76zm.27-5.52h-3.85v1.35h3.85zm0-1.36v-.61c0-.72-.25-.74-2-.74-1.42 0-1.77 0-1.8.76v.59zm-3.81 4.06v.74c0 .7.41.72 1.68.72 1.9 0 2.07 0 2.09-.74v-.72zm5.42 8.08a.82.82 0 0 1-.72-.46 6.75 6.75 0 0 0-1.84-2 .74.74 0 0 1-.34-.59.85.85 0 0 1 .89-.78c.74 0 3 1.9 3 2.83a1 1 0 0 1-1.01 1zm8.17-2.3a9.75 9.75 0 0 1-2.14-6.07 17.86 17.86 0 0 1-.1-2.1 1 1 0 1 1 1.94 0v1.65c.07 2 .43 3.87 1.49 4.89.5.47.74.53 1.16 0a6.7 6.7 0 0 0 .63-1.12.93.93 0 0 1 1.72.69 8.58 8.58 0 0 1-.74 1.46c-1.21 1.91-2.9 1.74-3.96.6zm10.26-3.34a6 6 0 0 0-2.1-3.68c-.91-.62.11-2 1.25-1.17a7.26 7.26 0 0 1 2.84 4.4 1 1 0 1 1-1.99.45zm14.39-7.45c.3-.12.59-.23.8-.34 1-.63 2.06.94.66 1.65a11.31 11.31 0 0 1-2.09.62 18.4 18.4 0 0 1-.91 1.92 2.76 2.76 0 0 1 3.19 1.65c.78-.4 1.57-.8 2.31-1.12a14.89 14.89 0 0 0 1.48-.7 1 1 0 1 1 1.06 1.7 20.15 20.15 0 0 1-2 .78c-.8.31-1.65.69-2.41 1a17.79 17.79 0 0 1 0 2.08 1.13 1.13 0 0 1-1 1.18c-.47 0-.91-.34-.85-1.08v-1.24c-.17.1-.34.19-.49.29-2.35 1.52-2.07 2.65-1 3.19s2.86.13 3.75-.16c1.67-.51 2.2 1.54.46 2-1.12.28-3.7.57-5.18-.27-2.56-1.44-2.11-4 1.33-6.26.26-.17.56-.38.93-.59-.52-1.59-2-1.4-3.21 0l-.08.08a3.9 3.9 0 0 1-.43.49c-1 .93-2.43-.15-1.29-1.18a8.94 8.94 0 0 0 1.53-1.78 15.07 15.07 0 0 0 .9-1.69 3.75 3.75 0 0 1-2.36-.21c-1.36-.68-.43-2.46.9-1.57a2.9 2.9 0 0 0 1.78 0h.28a8.28 8.28 0 0 0 .21-1.59c.08-1.14 1.86-1 1.9-.1a3.7 3.7 0 0 1-.15 1.1zm16.34 9.08c0 .31 0 2 .06 2.7v.07c0 1.2-.78 2.13-2.47 2.13-.83 0-1.74-.12-1.74-1a.78.78 0 0 1 .74-.85.52.52 0 0 1 .17 0 3.09 3.09 0 0 0 .62.08c.42 0 .82-.14.82-.63v-3.57a9.73 9.73 0 0 1-2.18.74.85.85 0 0 1-.86-.87.94.94 0 0 1 .74-.91c.76-.23 1.54-.49 2.3-.78V5.72h-2.11a.8.8 0 0 1-.83-.83.8.8 0 0 1 .83-.84h2.11V1a.87.87 0 0 1 .91-.9.85.85 0 0 1 .89.9v3H337a.8.8 0 0 1 .83.84.8.8 0 0 1-.83.83h-1.56v2.58c.63-.26 1.18-.51 1.63-.74a1.16 1.16 0 0 1 .38-.09.8.8 0 0 1 .76.81c0 .61-.49.86-2.77 1.82zm6.68-8.21h-3.89a.82.82 0 0 1-.86-.83.82.82 0 0 1 .86-.84h8.17a.84.84 0 1 1 0 1.67H344v10.45c0 1.1-.65 2.58-3 2.58s-2.17-.64-2.17-1a.92.92 0 0 1 .8-1 1 1 0 0 1 .21 0 4.74 4.74 0 0 0 1.16.19c.62 0 1.08-.29 1.08-1.18zM357 9.85a8.59 8.59 0 0 1 3.76-1.64c4-.53 5.79 3 3.39 5.83a8.32 8.32 0 0 1-5.1 2.48c-1.82.25-1.91-1.65-.49-1.82a6.33 6.33 0 0 0 3.9-1.7c1.39-1.55 1.07-3.35-1.51-3.14a5.64 5.64 0 0 0-3.34 1.74c-.34.36-.44.91-1.08 1.08-.84.23-1.48-.59-1.35-1.55s.42-3 .7-4.88a6.71 6.71 0 0 1-1.78-.06c-1.4-.22-1.25-2.14.26-1.8a4.56 4.56 0 0 0 1.81 0c.19-1.21.38-2.26.51-2.84a.94.94 0 1 1 1.82.45c-.13.44-.27 1.06-.42 1.77a8.74 8.74 0 0 0 1-.61c1.31-.93 2.5 1 .74 1.78a22.15 22.15 0 0 1-2.15.89c-.29 1.68-.57 3.35-.67 4.02zm19.79 3.98a16.82 16.82 0 0 1-2.07 1.29c-1.18.61-3 .3-2.77-2.24a7.42 7.42 0 0 1 3.39-5l.8-.45c.06-.72.13-1.48.23-2.26A7 7 0 0 1 374 5a.88.88 0 1 1 .53-1.67 5.65 5.65 0 0 0 2.05.15c.07-.55.17-1.11.24-1.68.21-1.41 2.05-1.1 1.84 0-.07.48-.17 1-.24 1.39a19.82 19.82 0 0 0 2.58-.76c1.1-.42 1.93 1.19.43 1.69a23.86 23.86 0 0 1-3.28.83c-.09.61-.17 1.16-.24 1.69a7.53 7.53 0 0 1 2-.42h.23c.13-1.11 1.87-.75 1.8.16 5.54 1 5.25 8-1.22 10.11-1.7.57-2.18-1.2-.62-1.71 4.72-1.54 4.91-6 1.48-6.87a12.29 12.29 0 0 1-3.28 4.73 2.75 2.75 0 0 0 .2.38c.67 1.1-.91 2.31-1.63 1zm-.74-4.67a5.34 5.34 0 0 0-2.43 3.57c-.06.76.45.83.95.57a16.77 16.77 0 0 0 1.69-1.1 14.37 14.37 0 0 1-.21-3.04zm3.62-1.4a8.43 8.43 0 0 0-1.95.51 12.86 12.86 0 0 0 0 2.58 8.79 8.79 0 0 0 2-3.09zm14.15 6.62c-1.71-3.28-.84-6.89-.63-9.22.1-1.08.21-1.69.25-2.5a.92.92 0 0 1 1.84 0 23.33 23.33 0 0 1-.28 2.58c-.22 1.59-.77 3.22-.49 5.1.06.32.17.45.32.06.1-.23.31-.61.4-.84a.75.75 0 1 1 1.4.55 9.94 9.94 0 0 0-.94 3.32c0 .21.11.76-.16 1.1a1 1 0 0 1-1.71-.15zm9.6-9.6c.41-.09.79-.17 1.11-.26 1.22-.35 2 1.3.35 1.65l-1.5.32c0 .55 0 1.12.07 1.88.17 3.79-.81 6.54-3.77 8.63-1.1.77-2.3-.7-1.12-1.46 2.43-1.58 3.19-3.89 3.11-7.14 0-.58 0-1.12-.06-1.63a13.86 13.86 0 0 1-3.18.13.89.89 0 1 1 .3-1.72 11.38 11.38 0 0 0 2.86-.1v-.49a12.65 12.65 0 0 0-.2-2.24c-.16-1.4 1.72-1.32 1.95-.28a9.25 9.25 0 0 1 .09 2.26zm10.24 10.47c-.57 1.27-2.58.72-1.79-.89a57.3 57.3 0 0 0 3.32-8.23 5.6 5.6 0 0 1-2.77-.27c-1-.42-.77-2.14.65-1.63a4.93 4.93 0 0 0 2.62.11 8.24 8.24 0 0 0 0-2c-.08-1.09 1.71-1.14 1.89-.1a5.49 5.49 0 0 1 0 1.52c.27-.13.5-.27.72-.4A.91.91 0 1 1 419 5a11.87 11.87 0 0 1-1.91.76 75.23 75.23 0 0 1-3.43 9.49zm4.61-.85c-.82-.91.36-2.41 1.34-1.41s2.13.9 4.35.71a1 1 0 1 1 .25 2c-2.76.5-5.11-.37-5.94-1.3zm2.14-6.62c-1 .36-1.57-1.2-.32-1.63a7.06 7.06 0 0 1 4.55.09c1.27.46.76 2.13-.43 1.73a6.69 6.69 0 0 0-3.8-.19zm16.03 7.36a8.74 8.74 0 0 0 3.3-10c-.63-1.9-2.43-1.2-3 0a6.25 6.25 0 0 0-.49 3.59c.09 1.84-2 1.82-2.07.45a16.89 16.89 0 0 1 .44-4.38c.21-1 .57-2.22.72-3.38a1 1 0 0 1 1.9.17 5.77 5.77 0 0 1-.5 1.77c-.24.51-.05.26.13 0 1.39-1.79 3.86-1 4.63 1.14a10.34 10.34 0 0 1-3.75 12.1c-1.52 1.16-2.9-.42-1.31-1.46zm14.9 1.86a2.16 2.16 0 1 1 2.16-2.16 2.15 2.15 0 0 1-2.16 2.16zm0-3.58a1.43 1.43 0 1 0 1.44 1.42 1.42 1.42 0 0 0-1.44-1.39zM42.32 48.13a1 1 0 0 1 .57-.84 5.13 5.13 0 0 0 1.73-2.08.82.82 0 0 1 .81-.63.91.91 0 0 1 1 .88c0 1-1.78 3.6-3 3.6a1 1 0 0 1-1.11-.93zm8.5-5.73c-1.4 0-2.83 0-4-.07-1.37-.06-2.28-.57-2.34-2v-2.07c0-3.07 0-4.19 2.59-4.29 1.07 0 2.38-.06 3.65-.06s2.52 0 3.47.06c1.42.06 2.41.61 2.46 2.15 0 .74.06 1.63.06 2.48 0 2.16-.07 3.62-2.58 3.78-1.02 0-2.13.02-3.31.02zm-1.14-7.06c-1 0-1.93 0-2.64.08-.91.06-.92.68-.92 2h3.56zm0 3.48h-3.56c0 1.31 0 2 1 2l2.58.07zm1 11c-.48 0-.95 0-1.39-.06a2.05 2.05 0 0 1-2.16-2.22V44.2a.84.84 0 0 1 .93-.76.82.82 0 0 1 .89.76v3c0 .89.76.93 1.95.93 1.79 0 2.36-.38 2.36-1.33a.84.84 0 0 1 .94-.8.92.92 0 0 1 1 .93c.02 2.89-2.84 2.93-4.51 2.93zm1.15-4.42a6.91 6.91 0 0 0-2.04-1.4.69.69 0 0 1-.45-.64.85.85 0 0 1 .87-.82c.32 0 3.19 1.1 3.19 2.24a1 1 0 0 1-.93 1 .85.85 0 0 1-.63-.34zm3.06-8v-1.17c-.06-.84-.44-.88-3.51-.88v2zm-3.55 1.43v2.07c.84 0 1.71 0 2.56-.07s1-.88 1-2zm6.86 9.57a1 1 0 0 1-.86-.54 6.63 6.63 0 0 0-2.2-2.27.68.68 0 0 1-.34-.59 1 1 0 0 1 1-.86c.74 0 3.45 2.15 3.45 3.21a1 1 0 0 1-1.05 1.05zm7.92-1.6A9.76 9.76 0 0 1 64 40.73a19.83 19.83 0 0 1-.09-2.1 1 1 0 1 1 1.93 0v1.65c.08 2 .44 3.87 1.5 4.89.49.48.74.53 1.16 0a6.62 6.62 0 0 0 .59-1.17.94.94 0 0 1 1.73.69 8.58 8.58 0 0 1-.74 1.46c-1.21 1.96-2.9 1.79-3.96.65zm10.26-3.34a6 6 0 0 0-2.11-3.68c-.91-.62.12-2 1.25-1.17A7.26 7.26 0 0 1 78.37 43a1 1 0 1 1-1.99.46zm13.88-4.61c1.59-.13 2.81.8 2.88 2.92A11.3 11.3 0 0 1 92.5 46a3.68 3.68 0 0 1-4.5 2.28c-1.5-.43-.89-2.18.27-1.89a1.81 1.81 0 0 0 2.4-1 8.41 8.41 0 0 0 .61-3.28c0-1.16-.4-1.71-1.27-1.63l-.87.09a28 28 0 0 1-3.68 7.63c-.91 1.29-2.89.19-1.65-1.2a18.22 18.22 0 0 0 3.35-6.16h-.22a13.08 13.08 0 0 1-2 .26.91.91 0 1 1-.06-1.82c.59-.06 1.18 0 1.86-.09l1-.1a20.47 20.47 0 0 0 .59-3c.13-1.23 2.07-1.12 1.91.16a23.19 23.19 0 0 1-.55 2.67zm7 4.27a6.87 6.87 0 0 0-2.71-3.26c-.93-.51-.1-1.94 1.08-1.25a7.84 7.84 0 0 1 3.37 3.6c.46 1.25-1.25 2.09-1.76.91zm-1.73-5.84c-1-.36-.3-1.54.59-1.25A6.07 6.07 0 0 1 98 37.09c.77.74-.25 1.93-.91 1.23a6.69 6.69 0 0 0-1.58-1.04zm1.63-1.69c-1-.32-.37-1.54.54-1.29a6.28 6.28 0 0 1 2 1c.79.72-.21 2-.89 1.27a6.52 6.52 0 0 0-1.67-.98zm8.93 11.99c-1.71-3.28-.83-6.89-.62-9.22.09-1.08.2-1.69.24-2.5a.92.92 0 0 1 1.84 0c0 .58-.17 1.57-.3 2.54-.23 1.59-.78 3.22-.49 5.1 0 .32.17.45.32.06.09-.23.3-.61.4-.84a.75.75 0 1 1 1.4.55 10.06 10.06 0 0 0-.95 3.32c0 .21.12.76-.15 1.1a1 1 0 0 1-1.69-.11zm9.6-9.6c.42-.09.8-.17 1.12-.26 1.21-.35 2 1.3.34 1.65l-1.5.32c0 .55 0 1.12.08 1.88.17 3.79-.82 6.54-3.78 8.63-1.1.78-2.29-.7-1.12-1.46 2.43-1.58 3.19-3.89 3.12-7.14 0-.58 0-1.12-.06-1.63a14 14 0 0 1-3.19.14.89.89 0 1 1 .31-1.73 11.39 11.39 0 0 0 2.86-.1v-.49a11.6 11.6 0 0 0-.21-2.24c-.15-1.4 1.73-1.32 2-.28a8.71 8.71 0 0 1 .1 2.26zm9.74.49a.87.87 0 1 1 .55-1.63 5.11 5.11 0 0 0 2.6-.05 13 13 0 0 0 .38-1.92.91.91 0 0 1 1.8.17 6 6 0 0 1-.27 1.16c.23-.12.44-.21.61-.32.85-.61 2.05.56.83 1.44a7.28 7.28 0 0 1-2 .87 48.2 48.2 0 0 1-3.39 6.39c-.7 1.14-2.53.4-1.69-.83a37.74 37.74 0 0 0 3.11-5.18 5.15 5.15 0 0 1-2.53-.1zm3.26 10.68c-1.76-.89-2-2.94 0-3.81a6.2 6.2 0 0 1 3.64-.36v-.66c0-.48 0-1-.05-1.43a5.4 5.4 0 0 1 .09-1.27.87.87 0 0 1 1.71.34 3.7 3.7 0 0 0-.12.9v1.46c0 .36.06.76.08 1.17a7 7 0 0 1 2.31 1.51c1.09 1.2-.45 2.54-1.36 1.44a5.75 5.75 0 0 0-1.08-1 3.81 3.81 0 0 1-5.22 1.71zm.61-2.48a.57.57 0 0 0 0 1.1c1.13.57 2.67 0 2.88-1v-.19a3.79 3.79 0 0 0-2.88.09zm4.23-7c-1.05.06-1.12-1.52.09-1.63a6 6 0 0 1 3.49.66c1.29.78.31 2.35-.62 1.77a4.87 4.87 0 0 0-2.96-.8zm17.75 9.56a35.18 35.18 0 0 0-4-6.17c-1.25-1.46-1.25-2.8.23-4.34a46.87 46.87 0 0 0 3.89-4.29 1.06 1.06 0 1 1 1.69 1.29c-.95 1.16-3 2.81-4.14 4-.82.81-.85 1.38-.23 2.16 1.9 2.37 3.51 4.15 4.44 6.18.57 1.27-1.27 2.38-1.88 1.17zm12.88.59a7.21 7.21 0 0 0-2.34-2 .86.86 0 0 1-.51-.76.84.84 0 0 1 .89-.84c.67 0 3.7 1.67 3.7 3a1.05 1.05 0 0 1-1 1.05.87.87 0 0 1-.74-.45zm15.44-11.08a17.21 17.21 0 0 1-3 .23c-1.46 0-1.54-2 .19-1.8a11.17 11.17 0 0 0 2.94-.14v-2.5a1 1 0 0 1 1.93 0c-.05.68-.09 1.44-.11 2.2l1.29-.28c1.25-.29 1.76 1.48.11 1.74l-1.42.25v2.1c.45-.13.93-.26 1.44-.43 1.4-.46 2.12 1.29.44 1.76-.67.19-1.27.36-1.82.49 0 .65.07 1.24.13 1.79s.11 1.19.15 1.87a9.2 9.2 0 0 1 2.35 1.35c1.27 1 0 2.77-1.15 1.67a8.75 8.75 0 0 0-1.39-1 3.87 3.87 0 0 1-5.31 1.72c-1.8-.89-1.92-3 .15-3.89a6.42 6.42 0 0 1 3.62-.32c0-.4-.05-.79-.09-1.23s-.08-1-.11-1.57a10.25 10.25 0 0 1-3.46.2.94.94 0 1 1 .4-1.82 7.82 7.82 0 0 0 3-.17c0-.72-.08-1.46-.09-2.2zm-2.45 8.46a.57.57 0 0 0-.06 1.08 2.09 2.09 0 0 0 2.91-1.06 4.14 4.14 0 0 0-2.85-.02zm21.53 2.03c-1.5.25-1.65-1.57-.34-1.76a7.39 7.39 0 0 0 4-1.6c1.14-1 1.2-2 .63-2.69-.82-.93-2.31-.91-3.55-.55a33.11 33.11 0 0 0-3.89 1.76.93.93 0 1 1-.81-1.67 35.29 35.29 0 0 1 4.36-1.63c1.6-.4 3.78-.42 5.1 1 1.6 1.65 1 3.76-.77 5.2a9.52 9.52 0 0 1-4.73 1.94zm17.95-5.1a2.63 2.63 0 0 1 1.52-3.57 3.7 3.7 0 0 1 1.63-.17c0-.42 0-1-.06-1.54-1.59.16-3.17.38-4.15.54-1.37.2-2.26.45-2.83.55a1 1 0 1 1-.15-1.92c.76-.13 2-.27 2.79-.4 1-.15 2.65-.36 4.32-.51v-.34c0-1.18-.09-1.25-.09-1.86a1 1 0 0 1 2-.06c0 .44 0 1.31-.07 1.82v.29c.55 0 1-.06 1.46-.06h2.88c1.59 0 1.52 2.05 0 1.94-1.35-.12-1.8-.12-3-.14h-1.38v1.74c0 .27 0 .67.05 1.09 1.69 2.65-.32 6.67-2.33 8.29-1.27 1-2.92-.34-1.27-1.52a6.74 6.74 0 0 0 2.16-2.79 2.43 2.43 0 0 1-3.48-1.38zm3.19-2a1.24 1.24 0 0 0-1.22-.08 1.17 1.17 0 0 0-.55 1.44 1.13 1.13 0 0 0 2.19-.32.85.85 0 0 0-.12-.72 1.83 1.83 0 0 0-.3-.31zm20.1 7.1a35.18 35.18 0 0 0-4-6.17c-1.25-1.46-1.25-2.8.23-4.34a46.87 46.87 0 0 0 3.85-4.29 1.06 1.06 0 1 1 1.69 1.29c-1 1.16-3 2.81-4.14 4-.82.81-.85 1.38-.23 2.16 1.9 2.37 3.51 4.15 4.44 6.18.61 1.27-1.23 2.38-1.84 1.17zm2.09-9a6.53 6.53 0 0 0-1.35-1.38c-.87-.57.08-1.54.89-1.07a6.07 6.07 0 0 1 1.65 1.45c.59.88-.7 1.77-1.2.97zm2-1.38a6.38 6.38 0 0 0-1.38-1.31c-.9-.53 0-1.58.83-1.14a6.5 6.5 0 0 1 1.73 1.4c.61.86-.68 1.83-1.19 1.02zm9.49-.38a.87.87 0 1 1 .55-1.63 5.08 5.08 0 0 0 2.59-.05 11.86 11.86 0 0 0 .38-1.92.91.91 0 0 1 1.81.17 6.81 6.81 0 0 1-.27 1.16c.23-.12.44-.21.61-.32.85-.61 2.05.56.83 1.44a7.28 7.28 0 0 1-2 .87 48.2 48.2 0 0 1-3.39 6.39c-.71 1.14-2.53.4-1.69-.83a37.74 37.74 0 0 0 3.08-5.18 5.15 5.15 0 0 1-2.5-.1zm3.26 10.68c-1.77-.89-2-2.94 0-3.81a6.19 6.19 0 0 1 3.64-.36v-.66c0-.48 0-1-.06-1.43a6 6 0 0 1 .1-1.27.87.87 0 0 1 1.71.34 3.7 3.7 0 0 0-.12.9v1.46c0 .36.06.76.08 1.17a7 7 0 0 1 2.31 1.51c1.08 1.2-.45 2.54-1.36 1.44a5.52 5.52 0 0 0-1.09-1 3.8 3.8 0 0 1-5.21 1.71zm.6-2.48a.58.58 0 0 0 0 1.1c1.14.57 2.68 0 2.89-1v-.19a3.82 3.82 0 0 0-2.89.09zm4.24-7c-1.05.06-1.12-1.52.09-1.63a6 6 0 0 1 3.49.66c1.29.78.3 2.35-.63 1.77a4.84 4.84 0 0 0-2.95-.8zm8.69 8.46a1 1 0 0 1 .57-.84 5.11 5.11 0 0 0 1.72-2.08.84.84 0 0 1 .82-.63.92.92 0 0 1 1 .88c0 1-1.79 3.6-3 3.6a1 1 0 0 1-1.11-.93zm8.5-5.73c-1.41 0-2.83 0-4-.07-1.36-.06-2.27-.57-2.33-2v-2.07c0-3.07 0-4.19 2.6-4.29 1.06 0 2.37-.06 3.64-.06s2.53 0 3.48.06c1.42.06 2.4.61 2.46 2.15 0 .74.06 1.63.06 2.48 0 2.16-.08 3.62-2.58 3.78-1.04 0-2.18.02-3.33.02zm-1.14-7.06c-1 0-1.94 0-2.64.08-.91.06-.93.68-.93 2h3.57zm0 3.48h-3.57c0 1.31 0 2 1 2l2.58.07zm1 11c-.47 0-.95 0-1.38-.06a2.05 2.05 0 0 1-2.16-2.22V44.2a.85.85 0 0 1 .93-.76.82.82 0 0 1 .89.76v3c0 .89.76.93 1.95.93 1.78 0 2.35-.38 2.35-1.33a.85.85 0 0 1 .93-.84.93.93 0 0 1 1 .93c.03 2.93-2.84 2.97-4.51 2.97zm1.16-4.42a7 7 0 0 0-2.05-1.4.69.69 0 0 1-.45-.64.85.85 0 0 1 .87-.82c.32 0 3.19 1.1 3.19 2.24a1 1 0 0 1-.93 1 .85.85 0 0 1-.63-.34zm3.05-8v-1.17c-.06-.84-.44-.88-3.51-.88v2zm-3.54 1.43v2.07c.83 0 1.7 0 2.56-.07s1-.88 1-2zm6.85 9.58a1 1 0 0 1-.86-.54 6.63 6.63 0 0 0-2.2-2.27.65.65 0 0 1-.34-.55 1 1 0 0 1 1-.86c.74 0 3.45 2.15 3.45 3.21a1 1 0 0 1-1.05 1zm7.91-1.61a9.81 9.81 0 0 1-2.14-6.07 17.86 17.86 0 0 1-.1-2.1 1 1 0 1 1 1.94 0v1.65c.07 2 .44 3.87 1.5 4.89.49.48.74.53 1.15 0a6.7 6.7 0 0 0 .63-1.12.94.94 0 0 1 1.73.69 8.58 8.58 0 0 1-.74 1.46c-1.22 1.91-2.91 1.74-3.97.6zm10.26-3.34a6 6 0 0 0-2.1-3.68c-.91-.62.11-2 1.25-1.17a7.26 7.26 0 0 1 2.85 4.4 1 1 0 0 1-2 .45zM318.73 36a7.12 7.12 0 0 0 .8-.34c1-.63 2.07.95.66 1.65a11.18 11.18 0 0 1-2.08.62 18.54 18.54 0 0 1-.92 1.92 2.77 2.77 0 0 1 3.19 1.65c.78-.4 1.58-.8 2.32-1.12a15.91 15.91 0 0 0 1.47-.7 1 1 0 1 1 1.07 1.71c-.61.3-1.05.39-2.05.77-.8.31-1.65.69-2.41 1a14.28 14.28 0 0 1 0 2.08 1.13 1.13 0 0 1-1 1.18c-.47 0-.91-.34-.85-1.08v-1.23l-.5.28c-2.35 1.52-2.06 2.66-1 3.19s2.86.13 3.75-.16c1.67-.51 2.2 1.54.46 2-1.12.28-3.7.57-5.18-.27-2.56-1.44-2.11-4 1.33-6.26.26-.17.57-.38.93-.59-.51-1.59-2-1.4-3.21 0l-.07.08a3.86 3.86 0 0 1-.44.49c-1 .93-2.43-.15-1.29-1.18a9.31 9.31 0 0 0 1.61-1.69 16.85 16.85 0 0 0 .89-1.69 3.79 3.79 0 0 1-2.35-.2c-1.37-.69-.44-2.47.89-1.58a2.91 2.91 0 0 0 1.78 0h.29a7.58 7.58 0 0 0 .2-1.59c.08-1.14 1.86-1 1.9-.1a3.7 3.7 0 0 1-.15 1.1zm13.81 4.52c-1.12 1.41-1.57 1.65-2 1.65a.88.88 0 0 1-.89-.85.85.85 0 0 1 .32-.66 16.94 16.94 0 0 0 4.17-6.38.89.89 0 0 1 .84-.61 1 1 0 0 1 1 .95 15.1 15.1 0 0 1-1.67 3.29l-.21 11.43a.9.9 0 0 1-1 .86.84.84 0 0 1-.93-.82zm8.46 1.12a33.11 33.11 0 0 1-1.86 5.48c1.58-.18 3.15-.43 4.57-.7a15.12 15.12 0 0 0-1.29-1.72.84.84 0 0 1-.22-.57.82.82 0 0 1 .85-.78 1 1 0 0 1 .76.36c2.31 2.6 2.94 4.12 2.94 4.61a1.08 1.08 0 0 1-1.06 1.06.9.9 0 0 1-.86-.68c-.09-.29-.21-.57-.32-.84a61.34 61.34 0 0 1-8.67 1.41.89.89 0 0 1-.83-1 .78.78 0 0 1 .74-.87c.49 0 1-.06 1.53-.1a30.25 30.25 0 0 0 1.79-5.67h-3.11a.81.81 0 0 1-.9-.79.86.86 0 0 1 .9-.88h9.92a.84.84 0 1 1 0 1.67zm-3.62-4.57a.81.81 0 0 1-.89-.82.87.87 0 0 1 .89-.89h7.11a.85.85 0 0 1 .91.86.84.84 0 0 1-.91.85zm21.92 9.26a1.74 1.74 0 0 0 1.7 1.25 9.49 9.49 0 0 0 3-.61c1.44-.64 2.12 1.31.61 1.88a10 10 0 0 1-4.31.46 2.91 2.91 0 0 1-2.49-2c-.41-1-1.82-1.17-3.05.8-.66 1.06-1.21 1.16-1.59 1.18-.63 0-1.48-.59-.65-1.54a30.66 30.66 0 0 1 2.28-2.39c.66-.59 1.19-1.18 1.8-1.77.87-.85 2.11-2.12 3.05-3.22.21-.25.08-.21-.09-.13a18.56 18.56 0 0 1-3.91 1.49c-1.61.37-1.88-1.61-.57-1.8a19.38 19.38 0 0 0 3.34-.89 6.43 6.43 0 0 1 1.48-.49c1.58-.21 2.73 1.21 1.75 2.24s-3.76 3.58-4.71 4.53a1.79 1.79 0 0 1 2.36 1.01zm-2.25-10.68c-1-.78.17-2 1.29-1.31a11.65 11.65 0 0 0 2.37 1.14c1.38.47.47 2.18-.84 1.72a11.65 11.65 0 0 1-2.82-1.55zM378 49.89c-1.53.31-2-1.57-.41-1.89a9 9 0 0 0 2.54-.82c2.09-1.21 2.65-2.52 2.26-3.28s-1.79-1-3.8-.13A11.82 11.82 0 0 0 376 45.4c-1.12 1.08-1.88.55-2.22-.12a6.55 6.55 0 0 1-.15-3.22c.15-1.39.4-2.85.55-3.81.19-1.22 1.91-1.18 1.74.19-.09.79-.3 1.86-.45 2.77a4.84 4.84 0 0 0-.11 2c.05.15.15.15.32.06.38-.21 1.27-.71 2.16-1.09 5.73-2.48 9.77 2.64 3.36 6.57a10.19 10.19 0 0 1-3.2 1.14zm-.07-12.1c-.91.23-1.6-1-.8-1.42.1-.06.29-.15.15-.25a6.25 6.25 0 0 1-1.34-.89c-.82-.89.43-1.9 1.38-1.21.34.24 1 .53 1.54.89a2 2 0 0 1 1.08 1.38 1.24 1.24 0 0 1-1.2 1.33c-.29.04-.56.1-.86.17zM393 47.12c-.85 1.5-2.77.35-1.72-.89a1.38 1.38 0 0 1 .15-.17 38.35 38.35 0 0 0 2.82-4.23c0-.38.06-.74.1-1.12a6.48 6.48 0 0 0-1.44.69c-1.31.83-1.9-1-.88-1.5.69-.33 1.6-.7 2.49-1 .13-1.42.28-2.69.38-3.52a.88.88 0 1 1 1.74.19c-.13.68-.26 1.63-.4 2.73.61-.08 1.14.49.86 1.38.23-.21.45-.42.66-.59 2.94-2.41 5.69-2.23 5.45 1.54-.08 1.14-.38 3.15-.48 4.23-.19 2.16.93 1.94 2.2.59a.93.93 0 1 1 1.37 1.25c-2.41 2.64-5.81 2.33-5.37-1.86.1-1 .44-3 .49-4.19.06-1.35-.22-2.37-2.88-.17a23.2 23.2 0 0 0-2.71 2.46 27.23 27.23 0 0 0 .15 5.64 1 1 0 1 1-1.92.15 30.72 30.72 0 0 1 0-3.51c-.39.63-.73 1.35-1.06 1.9zm20.4 1.33c-.57 1.27-2.58.72-1.79-.89a57.3 57.3 0 0 0 3.32-8.23 5.6 5.6 0 0 1-2.77-.27c-1-.41-.77-2.14.65-1.63a4.92 4.92 0 0 0 2.62.11 8.75 8.75 0 0 0 0-2c-.08-1.08 1.7-1.14 1.89-.1a5.5 5.5 0 0 1 0 1.52c.27-.13.5-.27.72-.4a.9.9 0 1 1 .74 1.63 11.87 11.87 0 0 1-1.91.76 75.23 75.23 0 0 1-3.47 9.5zm4.6-.85c-.82-.91.36-2.41 1.34-1.4s2.13.89 4.35.7a1 1 0 1 1 .24 2c-2.74.5-5.09-.37-5.93-1.3zm2.15-6.6c-1 .36-1.58-1.2-.32-1.63a7.06 7.06 0 0 1 4.55.09c1.27.46.76 2.13-.44 1.73a6.65 6.65 0 0 0-3.79-.19zm16.03 7.34a8.74 8.74 0 0 0 3.3-10c-.63-1.9-2.43-1.19-3 0a6.25 6.25 0 0 0-.49 3.59c.09 1.84-2 1.82-2.07.45a16.89 16.89 0 0 1 .44-4.38c.2-1 .57-2.22.72-3.38a1 1 0 0 1 1.89.17 5.51 5.51 0 0 1-.49 1.77c-.25.51-.06.26.13 0 1.39-1.79 3.85-1 4.63 1.14a10.36 10.36 0 0 1-3.75 12.1c-1.49 1.2-2.91-.42-1.31-1.46zm14.9 1.9a2.17 2.17 0 1 1 2.16-2.17 2.16 2.16 0 0 1-2.16 2.17zm0-3.59a1.42 1.42 0 0 0-1.44 1.42 1.44 1.44 0 1 0 1.44-1.42zM81.05 80.19a1 1 0 0 1-1-1 1.15 1.15 0 0 1 .34-.77 9.71 9.71 0 0 0 2.11-3.82.91.91 0 0 1 .91-.7 1 1 0 0 1 1 .93 12.29 12.29 0 0 1-2.33 4.84 1.31 1.31 0 0 1-1.03.52zm8 2.89c-2 0-3.66-.25-3.66-2.51s.09-5.8.15-8.72a.9.9 0 0 1 1-.9.89.89 0 0 1 1 .86c-.09 2.92-.17 6.31-.19 8.46 0 .81.67 1 1.88 1 1.58 0 2.66-.13 2.66-2.2a.89.89 0 0 1 .93-1 1 1 0 0 1 1.08 1.1c-.03 3.91-2.84 3.91-4.81 3.91zm1-12.54a12.3 12.3 0 0 0-3.51-1.71.69.69 0 0 1-.53-.68 1 1 0 0 1 1-1 13 13 0 0 1 4.28 1.77.93.93 0 0 1 .4.77 1.1 1.1 0 0 1-1 1.09 1.08 1.08 0 0 1-.56-.24zm5.52 7.83a13.76 13.76 0 0 0-3.2-3.26.85.85 0 0 1-.38-.68.94.94 0 0 1 1-.88 1.17 1.17 0 0 1 .61.19c2.18 1.43 4 3.15 4 4a1.14 1.14 0 0 1-1.1 1.11 1 1 0 0 1-.85-.48zm12.92-6.32c1.59-.13 2.8.8 2.88 2.93a11.16 11.16 0 0 1-.65 4.23 3.67 3.67 0 0 1-4.45 2.27c-1.5-.43-.9-2.18.26-1.89a1.82 1.82 0 0 0 2.41-1 8.38 8.38 0 0 0 .61-3.28c0-1.16-.4-1.71-1.27-1.63l-.88.09a28 28 0 0 1-3.68 7.63c-.91 1.29-2.88.19-1.65-1.2a18.22 18.22 0 0 0 3.36-6.2h-.23a12.84 12.84 0 0 1-2 .26.91.91 0 1 1-.06-1.82c.59-.06 1.17 0 1.86-.09l1-.1a20.65 20.65 0 0 0 .58-3c.14-1.24 2.07-1.12 1.92.15a25.55 25.55 0 0 1-.55 2.67zm7 4.27a6.84 6.84 0 0 0-2.72-3.26c-.93-.51-.09-1.94 1.09-1.25a7.89 7.89 0 0 1 3.37 3.6c.46 1.25-1.23 2.09-1.76.91zm-1.73-5.84c-1-.36-.3-1.54.59-1.25a5.92 5.92 0 0 1 1.93 1.06c.78.74-.24 1.94-.91 1.23a6.44 6.44 0 0 0-1.63-1.04zm1.63-1.69c-1-.32-.38-1.53.53-1.29a6.08 6.08 0 0 1 2 1c.8.72-.2 2-.89 1.27a6.28 6.28 0 0 0-1.66-.98zm7.97 8.21c-1 .51-1.32.7-1.68.7a.91.91 0 0 1-.91-.91.85.85 0 0 1 .55-.78c.74-.32 1.42-.61 2-.93V72h-1.59a.84.84 0 0 1 0-1.67h1.59v-3a.86.86 0 0 1 .91-.89.84.84 0 0 1 .87.89v3h1a.84.84 0 1 1 0 1.67h-1v2l.68-.44a.73.73 0 0 1 .4-.13.79.79 0 0 1 .76.79c0 .46-.27.69-1.84 1.65v2.38c0 .27.06 2 .08 2.69v.07c0 1.2-.78 2.13-2.41 2.13-1.2 0-1.71-.28-1.71-1a.8.8 0 0 1 .74-.87.5.5 0 0 1 .17 0 2.82 2.82 0 0 0 .61.08c.4 0 .77-.14.77-.63zm9.53 1v3.36c1.57 0 2 0 2-.63v-1.48c0-.36.43-.72.87-.72.89 0 .89.61.89 1.2v1.33c0 1-.58 1.7-2 1.76h-2.67c-4.21 0-4.57 0-4.57-2.68v-.94c0-.46.45-.69.89-.69s.81.21.81.67v1.06c0 1.08 0 1.08 2 1.08V78h-3.85a.76.76 0 1 1 0-1.52h3.85v-1.3h-2.88a.77.77 0 0 1-.83-.76.76.76 0 0 1 .83-.73h7.53a.72.72 0 0 1 .76.73.73.73 0 0 1-.76.76h-2.86v1.33h3.92a.76.76 0 1 1 0 1.52zm-4.84-8.17a.86.86 0 0 1-1-.86.81.81 0 0 1 .86-.81 25.71 25.71 0 0 0 7.33-1.16 1 1 0 0 1 .32-.06.88.88 0 0 1 .86.89.78.78 0 0 1-.63.78 38.25 38.25 0 0 1-7.74 1.21zm1.27 3.54a.71.71 0 0 1-.7-.55 3.6 3.6 0 0 0-.89-1.46.66.66 0 0 1-.23-.45.84.84 0 0 1 .87-.72c.8 0 1.88 1.65 1.88 2.31a.9.9 0 0 1-.93.86zm2.79-.39a.69.69 0 0 1-.7-.61 3.64 3.64 0 0 0-.68-1.48.61.61 0 0 1-.16-.4.8.8 0 0 1 .84-.72c.81 0 1.59 1.57 1.59 2.33a.88.88 0 0 1-.89.9zm2.33.3a.85.85 0 0 1-.91-.72.8.8 0 0 1 .19-.48 8.69 8.69 0 0 0 1.33-2.39.67.67 0 0 1 .66-.43 1 1 0 0 1 1 .87 7.29 7.29 0 0 1-1.58 2.79 1 1 0 0 1-.69.35zm9.78 7.05c-.85 1.49-2.77.34-1.72-.9a1.38 1.38 0 0 1 .15-.17 38.35 38.35 0 0 0 2.82-4.26c0-.38.06-.74.1-1.12a6.48 6.48 0 0 0-1.44.69c-1.31.83-1.9-1-.88-1.5.69-.32 1.6-.7 2.49-1 .13-1.42.28-2.69.38-3.52a.88.88 0 1 1 1.74.19c-.13.68-.26 1.63-.39 2.73.6-.08 1.13.49.85 1.38.23-.21.45-.42.66-.59 2.94-2.41 5.69-2.23 5.45 1.54-.08 1.14-.38 3.15-.48 4.23-.19 2.16.93 1.94 2.2.59a.93.93 0 1 1 1.37 1.25c-2.41 2.64-5.81 2.33-5.37-1.86.1-1 .44-3 .49-4.19.06-1.35-.22-2.37-2.88-.17a22.47 22.47 0 0 0-2.71 2.47 27.16 27.16 0 0 0 .15 5.63 1 1 0 1 1-1.92.15 30.72 30.72 0 0 1 0-3.51c-.41.66-.75 1.39-1.06 1.94zm21.1-1.26l-2.53.06a.67.67 0 0 1-.74-.66.7.7 0 0 1 .76-.67h2.53V77c-2.79 0-3-.05-3-2.69 0-2.33.53-2.35 3.05-2.35v-.78h-2.89a.7.7 0 0 1-.76-.68.71.71 0 0 1 .76-.69h2.89v-.79h-2.38a.74.74 0 0 1-.79-.76.72.72 0 0 1 .78-.72h1.16a22.07 22.07 0 0 0 4.67-.53.58.58 0 0 1 .19 0 .78.78 0 0 1 .77.78c0 .57-.38.76-2.88 1v.93h2.81a.72.72 0 0 1 .78.69v.13a.73.73 0 0 1 .43-.11h1.56v-3a.82.82 0 0 1 .87-.84.85.85 0 0 1 .91.84v3h1.43a2 2 0 0 1 2 2.1v1.69c0 3.64-.35 8.37-3.88 8.37a5.31 5.31 0 0 1-1.64-.29.87.87 0 0 1-.61-.85.83.83 0 0 1 .81-.89 1.16 1.16 0 0 1 .36 0 3.41 3.41 0 0 0 1 .19c.81 0 2.18-.49 2.18-6.73v-1.31a.65.65 0 0 0-.7-.72h-1c-.13 4-1.19 8.31-4.76 10.74a1 1 0 0 1-.62.21.88.88 0 0 1-.89-.88.9.9 0 0 1 .43-.74c.29-.19.57-.42.82-.62a53.82 53.82 0 0 1-6.91 1.21.76.76 0 0 1-.76-.8.69.69 0 0 1 .67-.74c1-.07 2.1-.17 3.15-.32zm0-4.09h-1.56v.34c.06.57.23.59 1.54.59zm0-1.88c-1.42 0-1.51 0-1.55.68V74h1.55zm1.57 5.9v1c.87-.15 1.67-.32 2.37-.49a.52.52 0 0 1 .17 0 .62.62 0 0 1 .57.49c1.84-2.14 2.31-4.95 2.39-7.79h-1.56a.77.77 0 0 1-.79-.82 1.18 1.18 0 0 1 0-.25 1 1 0 0 1-.44.1h-2.81V72c2.49 0 3.09 0 3.09 2.43 0 2.58-.38 2.63-3.09 2.63v.73l2.37-.06a.65.65 0 0 1 .7.64.66.66 0 0 1-.72.65zm1.54-5.33c0-.61-.25-.61-1.56-.61V74h1.56zM166.87 75v.93c1.2 0 1.54 0 1.56-.61V75zm18.3 5a9.81 9.81 0 0 1-2.17-6.07 17.86 17.86 0 0 1-.1-2.1 1 1 0 1 1 1.94 0v1.65c.07 2 .43 3.87 1.5 4.89.49.48.74.53 1.15 0a7 7 0 0 0 .63-1.11.93.93 0 0 1 1.73.68 9.38 9.38 0 0 1-.74 1.46c-1.19 1.91-2.88 1.74-3.94.6zm10.26-3.34a6 6 0 0 0-2.1-3.68c-.91-.62.11-2 1.25-1.17a7.25 7.25 0 0 1 2.84 4.4 1 1 0 1 1-1.99.45zm12.63-3.32a6.18 6.18 0 0 1 .61-1c.3-.4.21-.38-.15-.27-1.43.46-1.1.46-2.4 1a16.16 16.16 0 0 1-1.7.57c-1.67.45-2.16-1.73-.65-2 .4-.09 1.5-.3 2.11-.45.93-.23 2.58-.61 4.51-1.16a25.38 25.38 0 0 1 5.18-1.12 1.12 1.12 0 0 1 1.29 1.46c-.11.32-.53.7-1.86.63a8 8 0 0 0-2.82.53 5.46 5.46 0 0 0-2.43 2.22c-1.67 2.79-.4 6.77 3.85 6.62 2-.08 2.1 2.16.09 2.14-5.69-.1-7.69-5.35-5.63-9.17zm16.1 9.66a7.17 7.17 0 0 0-2.33-2 .86.86 0 0 1-.51-.76.84.84 0 0 1 .89-.84c.66 0 3.7 1.67 3.7 3a1.06 1.06 0 0 1-1 1 .88.88 0 0 1-.75-.4zm15.6-5.48c0 .79.52.81 2 .81 1.87 0 1.87 0 1.87-2.08v-3.08a.77.77 0 0 1 1.54 0v4.67a1.8 1.8 0 0 1-1.8 1.9c-.49 0-1.08.05-1.69.05-2.14 0-3.37 0-3.41-1.89v-4.35a1 1 0 0 1-.32.06 1 1 0 0 1-.36-.06V81a1.89 1.89 0 0 1-2.12 2c-1.65 0-1.67-.78-1.67-1a.74.74 0 0 1 .74-.76.5.5 0 0 1 .17 0 2.44 2.44 0 0 0 .55.06c.4 0 .74-.13.76-.7s0-2 0-3.61h-1.75a15.31 15.31 0 0 1-1 5.49 1 1 0 0 1-.87.6.82.82 0 0 1-.86-.76.71.71 0 0 1 .08-.32c.4-.83 1.14-2.82 1.14-8.38 0-1.73-.06-3.38-.08-4.63V69c0-1.63 1.35-1.65 2.35-1.65h.93a1.59 1.59 0 0 1 1.59 1.65v3a14.67 14.67 0 0 0 2.45-4.78.76.76 0 0 1 .76-.57.85.85 0 0 1 .91.8 7.34 7.34 0 0 1-.6 1.76h4.85a2 2 0 0 1 2.05 2.05c0 1 .08 2 .08 3 0 5.14-.93 8.69-4.39 8.69a6.66 6.66 0 0 1-1.7-.25.82.82 0 0 1-.57-.85.77.77 0 0 1 .72-.85h.23a5.37 5.37 0 0 0 1.29.19c.87 0 2.63-.24 2.63-7 0-3.11 0-3.48-.79-3.48h-5.18a15.45 15.45 0 0 1-1.18 1.91.64.64 0 0 1 .68.61v3.81a.76.76 0 0 1 .18-.48 8 8 0 0 0 1.03-1.83 6.88 6.88 0 0 0-.86-.55.54.54 0 0 1-.3-.51.65.65 0 0 1 .61-.67c.15 0 .2 0 1 .48a11.23 11.23 0 0 0 .31-1.6.62.62 0 0 1 .66-.58.73.73 0 0 1 .76.74 10.32 10.32 0 0 1-.55 2.27c.66.53.93.82.93 1.2a.78.78 0 0 1-.68.79.54.54 0 0 1-.44-.24c-.1-.14-.21-.27-.32-.4-.91 2.09-1.43 2.16-1.67 2.16a.69.69 0 0 1-.7-.64zm-3.77-6V69.4c0-.51-.17-.59-.87-.59-.48 0-.82.09-.82.59v2.14zm0 1.5h-1.69v2.47h1.7zm23.8-.97c1.59-.13 2.8.8 2.88 2.93a11.16 11.16 0 0 1-.65 4.23 3.67 3.67 0 0 1-4.45 2.27c-1.5-.43-.9-2.18.26-1.89a1.82 1.82 0 0 0 2.41-1 8.38 8.38 0 0 0 .61-3.28c0-1.16-.4-1.71-1.27-1.63l-.88.09a28 28 0 0 1-3.7 7.6c-.91 1.29-2.88.19-1.65-1.2a18.22 18.22 0 0 0 3.38-6.17h-.23a12.84 12.84 0 0 1-2 .26.91.91 0 1 1-.06-1.82c.59-.06 1.17 0 1.86-.09l.95-.1a20.65 20.65 0 0 0 .58-3c.14-1.24 2.07-1.12 1.92.15a25.55 25.55 0 0 1-.55 2.67zm7 4.27a6.84 6.84 0 0 0-2.72-3.26c-.93-.51-.09-1.94 1.08-1.25a7.86 7.86 0 0 1 3.38 3.6c.47 1.25-1.25 2.09-1.76.91zM265 70.48c-1-.36-.3-1.54.59-1.25a5.92 5.92 0 0 1 1.93 1.06c.78.74-.24 1.94-.91 1.23a6.44 6.44 0 0 0-1.61-1.04zm1.63-1.69c-1-.32-.38-1.53.53-1.29a6.18 6.18 0 0 1 2 1c.8.72-.2 2-.89 1.27a6.28 6.28 0 0 0-1.6-.98zM275.74 80a9.75 9.75 0 0 1-2.14-6.07 17.86 17.86 0 0 1-.1-2.1 1 1 0 1 1 1.94 0v1.65c.07 2 .43 3.87 1.49 4.89.5.48.74.53 1.16 0a7.94 7.94 0 0 0 .63-1.11.93.93 0 0 1 1.72.68 8.58 8.58 0 0 1-.74 1.46c-1.21 1.91-2.9 1.74-3.96.6zM286 76.66a6 6 0 0 0-2.1-3.66c-.91-.62.11-2 1.25-1.17a7.29 7.29 0 0 1 2.84 4.4 1 1 0 1 1-1.99.43zm13.46 5.77c-1.5.25-1.65-1.57-.34-1.76a7.45 7.45 0 0 0 4-1.6c1.14-1 1.2-2 .63-2.69-.82-.93-2.32-.91-3.55-.55a34 34 0 0 0-3.89 1.76.93.93 0 1 1-.81-1.67 35.29 35.29 0 0 1 4.36-1.63c1.59-.4 3.77-.41 5.1 1 1.59 1.65.95 3.76-.78 5.2a9.49 9.49 0 0 1-4.72 1.94zm14.23-.72a17.24 17.24 0 0 1-.3-6.66c.25-2.29.66-4.42.76-5.65a1 1 0 1 1 1.91 0c-.13.85-.45 2.5-.7 4.11a22.33 22.33 0 0 0-.36 4c0 .34.06.4.25 0 .06-.12.19-.46.23-.55.43-.91 1.87-.27 1.19 1.15a15.42 15.42 0 0 0-.59 1.5c-.15.48-.26.89-.34 1.2-.15.53.1 1.06-.38 1.51s-1.36.41-1.67-.61zm5.9.4a2.15 2.15 0 0 1 .29-4 5.41 5.41 0 0 1 3.34-.22c0-.31 0-.59-.06-1-.06-.78-.1-2.24-.15-3.74a12.87 12.87 0 0 1-3.11.13c-1.31-.11-1.09-2 .38-1.8a8 8 0 0 0 2.67-.05v-2.62c0-1.24 1.9-1.06 1.82 0 0 .53-.05 1.33-.05 2.26.32-.1.66-.17 1-.27 1.24-.38 2 1.35.42 1.75l-1.37.32c0 1.48.08 3 .12 3.89 0 .47.09 1.1.11 1.71a8.81 8.81 0 0 1 2.15 1.38c1.08 1-.27 2.64-1.22 1.63a8.79 8.79 0 0 0-1.17-1 3.78 3.78 0 0 1-5.17 1.63zm3.41-2.49a3.41 3.41 0 0 0-2.61-.11.63.63 0 0 0-.12 1.12 2 2 0 0 0 2.75-1zm4-9.48a1.91 1.91 0 0 1 0-3.81 1.91 1.91 0 1 1 0 3.81zm0-2.83a.89.89 0 0 0-.89.93.86.86 0 0 0 .89.89.9.9 0 0 0 .93-.89.93.93 0 0 0-.86-.93zM335.36 80a9.81 9.81 0 0 1-2.14-6.07 17.86 17.86 0 0 1-.1-2.1 1 1 0 1 1 1.94 0v1.65c.07 2 .43 3.87 1.5 4.89.49.48.74.53 1.15 0a7 7 0 0 0 .63-1.11.93.93 0 0 1 1.73.68 9.38 9.38 0 0 1-.74 1.46c-1.22 1.91-2.91 1.74-3.97.6zm10.26-3.34a6 6 0 0 0-2.1-3.68c-.91-.62.11-2 1.25-1.17a7.26 7.26 0 0 1 2.85 4.4 1 1 0 0 1-2 .45zm8.75 5.01c-1.52-3.73 0-9.35.32-11.61a.92.92 0 1 1 1.84.12c-.3 1.53-1.44 6-1 7.76.06.24.14.18.21 0s.25-.47.32-.6a.76.76 0 0 1 1.33.74 9.79 9.79 0 0 0-1.12 2.65c-.11.51.12 1.1-.36 1.52s-1.16.35-1.54-.58zm5.08-1.34A.94.94 0 0 1 360.8 79c1 .93 3.3.62 4.78.32s1.63 1.69.38 2c-2.03.54-5.14.49-6.51-.99zm1.08-7.57a.9.9 0 1 1-.26-1.77 11.56 11.56 0 0 1 5-.11.93.93 0 1 1-.32 1.82 9.51 9.51 0 0 0-4.42.06zm14-1.08a.87.87 0 1 1 .55-1.64 5.12 5.12 0 0 0 2.6-.05 11.86 11.86 0 0 0 .38-1.92.91.91 0 0 1 1.8.17 5.82 5.82 0 0 1-.26 1.16 5.66 5.66 0 0 0 .61-.32c.85-.61 2 .57.83 1.44a7.28 7.28 0 0 1-2 .87 48.2 48.2 0 0 1-3.39 6.39c-.71 1.14-2.53.4-1.69-.83a37.74 37.74 0 0 0 3.04-5.18 5.32 5.32 0 0 1-2.47-.09zm3.27 10.67c-1.77-.89-2-2.94 0-3.81a6.19 6.19 0 0 1 3.64-.36v-.66c0-.48 0-1-.06-1.42a5.45 5.45 0 0 1 .1-1.28.87.87 0 0 1 1.7.35 4.14 4.14 0 0 0-.11.89v1.46c0 .36.06.76.08 1.17a7 7 0 0 1 2.31 1.52c1.08 1.2-.46 2.54-1.37 1.44a5.18 5.18 0 0 0-1.08-1 3.8 3.8 0 0 1-5.21 1.7zm.6-2.48a.58.58 0 0 0 0 1.1c1.14.57 2.68 0 2.89-1v-.18a3.77 3.77 0 0 0-2.89.08zm4.23-7c-1 .06-1.12-1.52.1-1.63a6 6 0 0 1 3.49.66c1.29.78.3 2.35-.63 1.77a4.85 4.85 0 0 0-2.96-.8zM402.19 80c1.38-1.23 1.33-3 .25-3.75a5 5 0 0 0-5 .32 4.24 4.24 0 0 0-1.55 1.43c-.68 1-2.58-.11-1.4-1.27a69 69 0 0 0 5.73-6.13c.21-.26 0-.19-.14-.11a15.82 15.82 0 0 1-3.18 1c-1.5.32-1.79-1.56-.5-1.71a29.52 29.52 0 0 0 4.18-.93c1.51-.44 2.77.91 1.82 2-.61.69-1.37 1.43-2.13 2.13s-1.51 1.38-2.2 2a5.77 5.77 0 0 1 5.33-.06c2.73 1.63 1.84 5-.15 6.41s-4.84 1.42-6.28.48c-2-1.31-1.12-3.67 1.12-3.74a2.69 2.69 0 0 1 3 2.56 2.53 2.53 0 0 0 1.1-.63zm-4-.57c-.84.08-.87.86-.27 1.18a3.41 3.41 0 0 0 1.6.28c-.02-.89-.52-1.51-1.37-1.44zM413 83.44a2.17 2.17 0 1 1 2.16-2.17 2.17 2.17 0 0 1-2.16 2.17zm0-3.59a1.42 1.42 0 0 0-1.44 1.42 1.44 1.44 0 1 0 1.44-1.42zM87 109.49c.27-.4.33-.48-.07-.35a16.94 16.94 0 0 0-2 .86 1.89 1.89 0 0 1-1.65.21.94.94 0 0 1 .2-1.79 8.42 8.42 0 0 0 2.19-.7c1.55-1.36 3.26-4.31 4.38-6a1 1 0 1 1 1.78 1.06 35.58 35.58 0 0 1-3.83 4.47c-.21.19.06.11.13.07a5.6 5.6 0 0 1 .63-.21 17.57 17.57 0 0 1 4.21-.77 1 1 0 0 1 1 1.38c-.17.36-.65.65-1.6.53a9.4 9.4 0 0 0-2.2.19 2.24 2.24 0 0 0-1.67 1.29 2.78 2.78 0 0 0 2.68 4.42c1.82-.11 1.82 2.37-.27 2.16-4.38-.43-5.52-4.45-3.91-6.82zm-1.55-4.94a3.46 3.46 0 0 0-1.18-1.4c-.93-.57.17-1.92 1.22-1.23a4 4 0 0 1 1.66 1.78 1 1 0 0 1-.53 1.23.83.83 0 0 1-1.17-.38zm21.55 8.18c0-.87.13-1.4.09-2.26-.09-2.1-3-.32-3.51.63a10.08 10.08 0 0 0-1.19 2.58c-.34 1.46-.76 1.55-1.14 1.61a1 1 0 0 1-1.12-1.46 33.46 33.46 0 0 1 3-5.75c1.1-1.71 2.08-3.32 3-4.8.32-.53.84-1.19 1-1.57a1 1 0 0 1 1.76 1 4.09 4.09 0 0 1-.44.67c-.15.19-.34.39-.55.64a29.77 29.77 0 0 0-2 2.52c-.49.71-.87 1.31-1.29 1.94-.13.19-.07.15.06 0 .68-.61 4-1.5 4.23 1.7.06.74-.09 1.39-.09 2.09 0 1.69 1.63 1.48 2.75.48a6.55 6.55 0 0 0 1.72-2.66c.55-1.4 2.54-.44 1.82 1a9.16 9.16 0 0 1-2.39 3.14c-1.98 1.67-5.77 2.08-5.71-1.5zm15-7.85a.87.87 0 1 1 .55-1.64 5.12 5.12 0 0 0 2.6 0 13 13 0 0 0 .38-1.92.91.91 0 0 1 1.8.17 6.63 6.63 0 0 1-.26 1.16 6.54 6.54 0 0 0 .6-.32c.86-.61 2 .57.84 1.44a7.41 7.41 0 0 1-2 .87 47.12 47.12 0 0 1-3.4 6.39c-.7 1.14-2.52.4-1.69-.83a36.23 36.23 0 0 0 3.12-5.18 5.32 5.32 0 0 1-2.54-.14zm3.26 10.68c-1.76-.9-2-2.94 0-3.82a6.19 6.19 0 0 1 3.64-.36v-.66c0-.48 0-1-.06-1.42a6.08 6.08 0 0 1 .09-1.28.87.87 0 0 1 1.71.35 4.14 4.14 0 0 0-.11.89v1.46c0 .36.05.76.07 1.17a7 7 0 0 1 2.32 1.52c1.08 1.2-.46 2.54-1.37 1.44a5.18 5.18 0 0 0-1.08-1 3.81 3.81 0 0 1-5.24 1.71zm.61-2.49a.58.58 0 0 0 0 1.1c1.14.57 2.67 0 2.88-1v-.19a3.79 3.79 0 0 0-2.91.09zm4.23-7c-1 .06-1.12-1.52.1-1.63a6 6 0 0 1 3.49.66c1.29.78.3 2.36-.63 1.77a4.85 4.85 0 0 0-2.99-.8zm9.84 2.28a.84.84 0 1 1 0-1.67h6.23v-2.32h-3c-1 1.82-1.57 2.13-2.1 2.13a.91.91 0 0 1-1-.8 1 1 0 0 1 .34-.66 9.94 9.94 0 0 0 2.43-4.21.65.65 0 0 1 .68-.46c.51 0 1.1.38 1.1.87a6.94 6.94 0 0 1-.57 1.46h2.15v-2.12a.86.86 0 0 1 1-.84.89.89 0 0 1 1 .84v2.12h4.42a.84.84 0 1 1 0 1.67H148v2.32h6.24a.84.84 0 1 1 0 1.67zm10.53 7.74h-6.75c-1.38-.06-2.11-.8-2.16-1.84v-2.43c0-.85.6-1.75 2.12-1.78h6.92a2 2 0 0 1 2 1.63v2.56a2 2 0 0 1-2.13 1.86zm.27-3c0-1.14 0-1.48-.89-1.5s-1.58 0-2.49 0h-3.13c-.89 0-.87.61-.87 1.4 0 1 0 1.43.89 1.46s1.78 0 2.77 0h2.86c.86 0 .86-.6.86-1.36zm18.93-10.51a2.35 2.35 0 0 1 2.39 2.14c0 1.14.05 2.75.05 4.37 0 1.78 0 3.53-.05 4.51a2.38 2.38 0 0 1-2.45 2.28c-1.23 0-2.6.05-3.91.05-1.16 0-2.29 0-3.26-.05-1.71-.08-2.56-.86-2.62-2.22 0-1.2-.06-2.92-.06-4.69 0-1.55 0-3.15.06-4.38s1-2 2.47-2l1.78-.06a13.71 13.71 0 0 0 .42-2.06.89.89 0 0 1 1-.78c.55 0 1.14.32 1.14.85a9.16 9.16 0 0 1-.57 2c1.33-.04 2.64 0 3.61.04zm.58 5.35v-2.52c-.06-1.31-.35-1.31-4.27-1.31s-4.25 0-4.31 1.31c0 .7-.06 1.57-.06 2.52zm-8.67 1.63c0 1.29 0 2.52.06 3.38 0 1.25.44 1.31 4.29 1.31 3.58 0 4.23 0 4.29-1.37 0-.91.05-2.09.05-3.32zm25.29-4.1a15 15 0 0 1-3.83 7.69c-1.46 1.34-3.06.6-3.89-1-1.2-2.35.07-5.88 2.62-7.64A7.93 7.93 0 0 1 190 104a5.61 5.61 0 0 1 1.76 8 8 8 0 0 1-4.62 3.13c-1.67.43-2.26-1.48-.63-1.86a5.91 5.91 0 0 0 3.53-2.12 4.1 4.1 0 0 0-1.05-5.81 4.94 4.94 0 0 0-2.35-.76.93.93 0 0 1 .23.88zm-4.21.36c-1.77 1.37-2.72 3.89-1.92 5.35.29.55.78.84 1.25.42a11.35 11.35 0 0 0 2.94-6.32 1.41 1.41 0 0 1 .17-.58 6.26 6.26 0 0 0-2.44 1.13zm20.82 9.18a1 1 0 1 1-2 .07c.13-3.07.19-10.51.11-13.24a1 1 0 0 1 2 0v4.44a1.83 1.83 0 0 1 .32 0 11.74 11.74 0 0 1 4.55 1.65c1 .83-.09 2.48-1.17 1.69a11.8 11.8 0 0 0-3.7-1.54c-.15 2.67-.15 5.4-.11 6.93zm2.75-11.14c-1-.36-.31-1.57.62-1.29a6.39 6.39 0 0 1 2 1.06c.8.78-.26 2-.94 1.29a7.3 7.3 0 0 0-1.68-1.05zm1.68-1.76c-1-.33-.36-1.56.57-1.31a6.56 6.56 0 0 1 2 1c.84.74-.21 2-.91 1.33a6.79 6.79 0 0 0-1.66-1.01zm16.25 6.38c1.54-.44 3.08-.87 4.23-1.18 1.48-.38 1.73 1.45.55 1.71s-2.63.67-4.24 1.14c.6 1.92 1.15 3.7 1.51 4.82a1.06 1.06 0 0 1-.62 1.38.88.88 0 0 1-1.2-.68c-.3-1.18-.83-3-1.44-5-1.69.51-3.34 1-4.5 1.42s-1.82-1.34-.39-1.78c1.1-.34 2.69-.83 4.38-1.33-.21-.66-.42-1.33-.61-2-1.18.32-2.33.64-3.32.87-1.36.32-1.73-1.4-.47-1.69 1-.22 2.16-.51 3.28-.81-.38-1.22-.74-2.26-1-3-.44-1.29 1.5-1.59 1.8-.55.19.68.53 1.76.91 3 1.09-.3 2.11-.64 3-.92a.87.87 0 1 1 .47 1.68c-.85.27-1.87.59-2.95.9zm16.22 6.52a1 1 0 1 1-2 .07c.14-3.07.19-10.51.12-13.24a1 1 0 0 1 2 0c0 .93 0 2.58-.06 4.44a1.94 1.94 0 0 1 .33 0 11.8 11.8 0 0 1 4.55 1.65c1 .83-.1 2.48-1.18 1.69a11.61 11.61 0 0 0-3.7-1.54c-.1 2.67-.1 5.4-.06 6.93zm2.75-11.14c-1-.36-.3-1.57.63-1.29a6.5 6.5 0 0 1 2 1.06c.8.78-.26 2-.95 1.29a7.09 7.09 0 0 0-1.68-1.05zm1.69-1.76c-1-.33-.36-1.56.57-1.31a6.56 6.56 0 0 1 2 1c.83.74-.21 2-.91 1.33a7 7 0 0 0-1.66-1.01zm16.63 6.38c1.54-.44 3.07-.87 4.23-1.18 1.48-.38 1.73 1.45.55 1.71s-2.64.67-4.25 1.14c.61 1.92 1.16 3.7 1.52 4.82a1.06 1.06 0 0 1-.63 1.38.87.87 0 0 1-1.19-.68c-.31-1.18-.84-3-1.44-5-1.69.51-3.34 1-4.5 1.42s-1.82-1.34-.4-1.78c1.1-.34 2.69-.83 4.38-1.33-.21-.66-.41-1.33-.6-2-1.18.32-2.34.64-3.32.87-1.37.32-1.73-1.4-.48-1.69 1.05-.22 2.17-.51 3.28-.81-.38-1.22-.74-2.26-1-3-.44-1.29 1.5-1.59 1.8-.55.19.68.53 1.76.91 3 1.08-.3 2.11-.64 3-.92a.87.87 0 1 1 .47 1.68c-.85.27-1.88.59-3 .9zm13.55 6.39c-1.52-3.73 0-9.35.32-11.61a.92.92 0 1 1 1.84.12c-.3 1.53-1.44 6-1 7.76.05.24.13.19.21 0a5.2 5.2 0 0 1 .32-.61.76.76 0 0 1 1.33.74 9.16 9.16 0 0 0-1.12 2.65c-.12.51.11 1.1-.36 1.52s-1.19.36-1.54-.57zm5.08-1.34a.94.94 0 0 1 1.35-1.31c1 .93 3.3.62 4.78.32s1.63 1.69.38 2c-2.06.52-5.17.46-6.54-1.01zm1.09-7.57a.9.9 0 1 1-.27-1.77 11.6 11.6 0 0 1 5-.11.93.93 0 1 1-.32 1.82 9.65 9.65 0 0 0-4.44.1zm17.67 6.52c.11 2.72 3.07 2.6 4.06.5.66-1.43.13-2.68-.93-3.84s.64-2.08 1.48-1.12c1.48 1.71 2 3.51 1.29 5.43-1.37 3.6-7.42 4.23-7.57-.83a16 16 0 0 1 0-1.69 10.34 10.34 0 0 1-1.47-.23c-1.53-.42-.94-2.22.14-1.86a6.31 6.31 0 0 0 1.46.28c.07-.83.17-1.66.26-2.52a8.71 8.71 0 0 1-1.57-.32c-1.44-.49-.61-2.24.4-1.82a5.56 5.56 0 0 0 1.36.36c0-.23.06-.47.08-.7.11-1.2.15-1.92.21-2.81.09-1.33 1.9-1 1.9.09a22.46 22.46 0 0 1-.33 2.74c0 .22-.05.45-.07.68a3.25 3.25 0 0 0 .47-.1.89.89 0 1 1 .44 1.73 6.38 6.38 0 0 1-1.16.19c-.11.85-.21 1.67-.28 2.47a6.37 6.37 0 0 0 .91-.18.91.91 0 1 1 .6 1.71 6.94 6.94 0 0 1-1.69.31c-.01.55-.01 1.05.01 1.53zm14.6 3.08l.22-9.3c-1.27 1.46-1.57 1.59-2 1.59a.87.87 0 0 1-.89-.83.89.89 0 0 1 .3-.65 17.45 17.45 0 0 0 4.23-5.84.8.8 0 0 1 .76-.49 1 1 0 0 1 1.05.95c0 .15 0 .47-1.69 2.9l-.23 11.67a.89.89 0 0 1-.93.83.8.8 0 0 1-.87-.82zm4.26-13.91a.8.8 0 0 1 .88-.76.82.82 0 0 1 .89.78l.07 8.84a23.42 23.42 0 0 0 2.07-1.18.79.79 0 0 1 .42-.13.77.77 0 0 1 .74.76.76.76 0 0 1-.4.66c-.8.54-5 3-5.77 3a.83.83 0 0 1-.83-.83.85.85 0 0 1 .59-.78l1.46-.67zm1.2 14.51a.84.84 0 0 1-.34-1.65c5.1-2.1 5.92-6.45 5.92-11.32v-1.63a1 1 0 0 1 1.91 0v1.12a19.61 19.61 0 0 1-1.5 8.29c.78.32 3.34 2.84 3.34 3.87a1.19 1.19 0 0 1-1.12 1.12.83.83 0 0 1-.79-.59 9.21 9.21 0 0 0-2.17-3.07 8.67 8.67 0 0 1-5.25 3.86zm3.38-9.77a7.65 7.65 0 0 0-1.88-1.67.7.7 0 0 1-.4-.6.84.84 0 0 1 .85-.76c.44 0 3 1.44 3 2.41a1 1 0 0 1-.93 1 .73.73 0 0 1-.64-.38zm12.72 8.46c-.57 1.27-2.58.72-1.79-.89a57.3 57.3 0 0 0 3.32-8.23 5.49 5.49 0 0 1-2.77-.27c-1-.41-.77-2.14.65-1.63a5 5 0 0 0 2.62.12 8.31 8.31 0 0 0 0-2c-.08-1.08 1.71-1.14 1.9-.1a6.4 6.4 0 0 1 0 1.52c.26-.13.49-.26.72-.4a.9.9 0 1 1 .74 1.63 12.39 12.39 0 0 1-1.92.76 74.64 74.64 0 0 1-3.47 9.49zm4.61-.85c-.82-.91.36-2.41 1.34-1.4s2.13.89 4.35.7a1 1 0 1 1 .25 2c-2.73.5-5.08-.37-5.91-1.3zm2.14-6.62c-1 .36-1.57-1.2-.32-1.63a7.06 7.06 0 0 1 4.55.09c1.27.46.76 2.13-.43 1.73a6.69 6.69 0 0 0-3.77-.19zm24.17 6.15v2.21a.75.75 0 1 1-1.5 0v-2.21h-2.75a.72.72 0 0 1 0-1.43h.55v-2.35a.69.69 0 0 1-.36-.25v.12c-.91 4.23-4.08 6.81-5 6.81a.89.89 0 0 1-.82-.86.65.65 0 0 1 .44-.58 6.6 6.6 0 0 0 2.83-2.72 5.72 5.72 0 0 0-.48-.32.59.59 0 0 1-.3-.51.84.84 0 0 1 .76-.8 1.33 1.33 0 0 1 .66.33 5.43 5.43 0 0 0 .4-1.43c0-.24-.15-.34-.38-.34h-.53a11.13 11.13 0 0 1-1.5 2.62.58.58 0 0 1-.47.24.85.85 0 0 1-.59-.26v.43c0 1.6-1.31 1.81-2.56 1.81h-.93a1.67 1.67 0 0 1-1.5-1.78v-9.72a1.58 1.58 0 0 1 1.61-1.68h1.73a1.61 1.61 0 0 1 1.65 1.61v8.4a9 9 0 0 0 1.46-2.81.75.75 0 0 1-.21 0 .72.72 0 0 1-.8-.7v-.74c0-.61 0-1.73 1.77-1.84a.4.4 0 0 1-.1-.15 2.75 2.75 0 0 0-.66-1 .58.58 0 0 1-.15-.38.82.82 0 0 1 .85-.68c.68 0 1.39 1.29 1.39 1.63a.81.81 0 0 1-.27.57h1.77a.6.6 0 0 1-.33-.43 3.12 3.12 0 0 0-.45-1.16.47.47 0 0 1-.08-.27c0-.34.42-.59.82-.59.79 0 1.21 1.45 1.21 1.71a.8.8 0 0 1-.55.74h1.21a10.47 10.47 0 0 0 1.12-2.33.63.63 0 0 1 .65-.4c.45 0 1 .3 1 .72a7.87 7.87 0 0 1-1.05 2h.48c1.89 0 1.95 1.23 1.95 2s0 1.24-.91 1.24c-.42 0-.83-.23-.83-.67v-.64c0-.59-.33-.63-1-.63h-3.22c-2.85 0-3 .06-3 .67v.11a.55.55 0 0 1 .26-.06.77.77 0 0 1 .8.71 4.13 4.13 0 0 1-.13.55h.57a1.32 1.32 0 0 1 1.38.79.71.71 0 0 1 .68-.38h1.92v-.71a.75.75 0 0 1 1.5 0v.71h.95a.68.68 0 0 1 .72.7.69.69 0 0 1-.72.7h-.95v2.31h1.38a.72.72 0 0 1 0 1.43zm-10.62-7.31h-1.83v2.11h1.84zm0-1.5v-1.85c0-.37-.21-.56-.87-.56-.23 0-.9 0-.9.57v1.84zm-1.81 5.11v2.08c0 .64.27.55.93.55.84 0 .84-.34.84-.57v-2.06zm5.64-7.59c-.61 0-1.31 0-1.31-.82a.75.75 0 0 1 .8-.77h1.35a27.76 27.76 0 0 0 5.54-.55.62.62 0 0 1 .19 0 .86.86 0 0 1 .85.84c0 .32-.21.63-.72.74a37.51 37.51 0 0 1-6.72.56zm5.31 7.55h-.82v2.31h.82zm8.56 6.73a.83.83 0 0 1-.91-.78c.14-3.47.1-9.47.14-13.59 0-1.85 1.31-1.85 3.24-1.85h1.84a1.64 1.64 0 0 1 1.73 1.49v2c0 2.39 0 2.87-3.78 2.87h-1.31v1.71c0 2 0 4.7-.07 7.38a.83.83 0 0 1-.88.77zm4.41-13.67v-.59c0-.53-.14-.59-1.65-.59s-1.69.06-1.73.74v.44zM374 104.1v1.16h1.41c1.83 0 2-.07 2-.6v-.57zm7.36 10.32h-3.28a1.84 1.84 0 0 1-1.88-1.77v-.91c0-.85 0-1.84.08-2.6a1.74 1.74 0 0 1 1.78-1.68h3.34a1.77 1.77 0 0 1 1.7 1.54c0 .67.07 1.5.07 2.28v1.34a1.87 1.87 0 0 1-1.82 1.8zm-3.7-2.92c0 1.48 0 1.49 2 1.49 1.4 0 1.95 0 2-.75v-.74zm4-1.35v-.59c0-.7-.4-.76-1.69-.76h-1.44a.73.73 0 0 0-.74.76v.57zm2.65-3.49c-2.24 0-3.81 0-3.87-1.67v-3.2a1.6 1.6 0 0 1 1.69-1.49h3.3c1.4.07 2 .83 2 1.68v11.97c0 1.35-.66 2.53-2.83 2.53-1.32 0-2-.17-2-1a.76.76 0 0 1 .74-.83h.15a6.56 6.56 0 0 0 1 .12c.63 0 1.1-.23 1.12-1.16v-6.98c-.29.01-.79.03-1.34.03zm1.35-3.81c0-1.16 0-1.18-1.78-1.18-1.52 0-1.73 0-1.77.61v.57zm0 1.25h-3.61v.57c0 .53.08.6 2.09.6h1.5zm14.16-1.69a7.12 7.12 0 0 0 .8-.34c1-.63 2.06 1 .66 1.65a11 11 0 0 1-2.09.63 19.29 19.29 0 0 1-.91 1.91 2.77 2.77 0 0 1 3.19 1.65c.78-.4 1.57-.8 2.31-1.12a14.89 14.89 0 0 0 1.48-.7 1 1 0 1 1 1.07 1.71c-.61.3-1.05.4-2.05.78-.8.3-1.65.68-2.41 1a15.84 15.84 0 0 1 0 2.08 1.13 1.13 0 0 1-1 1.18c-.47 0-.91-.34-.85-1.08v-1.23c-.18.09-.35.19-.5.28-2.35 1.52-2.07 2.66-1 3.19s2.86.13 3.75-.15c1.67-.52 2.2 1.53.46 2-1.12.28-3.7.57-5.18-.27-2.56-1.44-2.11-4 1.33-6.26.26-.17.57-.38.93-.59-.52-1.59-2-1.4-3.21 0l-.07.08a4.81 4.81 0 0 1-.44.49c-1 .93-2.43-.15-1.29-1.17a9.7 9.7 0 0 0 1.54-1.79 16.85 16.85 0 0 0 .89-1.69 3.83 3.83 0 0 1-2.36-.2c-1.36-.69-.43-2.47.9-1.58a2.91 2.91 0 0 0 1.78 0h.28a7.56 7.56 0 0 0 .21-1.59c.08-1.14 1.86-1 1.9-.1a3.7 3.7 0 0 1-.15 1.1zM414 116.22a7.28 7.28 0 0 0-2.33-2 .83.83 0 0 1 .37-1.6c.67 0 3.7 1.67 3.7 3a1.05 1.05 0 0 1-1 1 .87.87 0 0 1-.74-.4zM32.68 145.63c-.26.43-.55.94-.89 1.53-.77 1.37-2.58.31-1.74-.95a5.63 5.63 0 0 1 .57-.75 29.08 29.08 0 0 0 2.52-4.63v-.46a.31.31 0 0 0-.25 0 11.68 11.68 0 0 0-1.36.82c-1.37.85-2-1-.92-1.56.71-.32 1.73-.82 2.7-1.21.13-1.39.24-2.58.32-3.4.11-1.33 2-1.06 1.86.06-.1.68-.23 1.61-.36 2.71.74 0 1.25.93.4 2.14-.1.14-.38.67-.76 1.35v.1a13.37 13.37 0 0 1 1.63-1c3.38-1.8 6.39-1.17 7.76.38s1.06 4.12-1.8 6.19a11.82 11.82 0 0 1-2.7 1.38 1 1 0 1 1-.6-1.93 10.44 10.44 0 0 0 2-.93c2-1.35 2.24-2.83 1.4-3.7s-2.83-1.14-5.44.21a11 11 0 0 0-2.39 1.59 23.52 23.52 0 0 0 .15 4.51 1 1 0 0 1-.88 1.22c-.51.07-1.06-.23-1.13-1a18.05 18.05 0 0 1 0-2.8zm19.5 2.42c-.57 1.27-2.58.73-1.78-.89a58.51 58.51 0 0 0 3.32-8.23 5.48 5.48 0 0 1-2.77-.27c-1-.41-.78-2.14.64-1.63a5 5 0 0 0 2.62.12 7.85 7.85 0 0 0 0-2.05c-.07-1.08 1.71-1.14 1.9-.1a5.5 5.5 0 0 1 0 1.52 8 8 0 0 0 .72-.4.9.9 0 1 1 .74 1.63 11.64 11.64 0 0 1-1.92.76 73.12 73.12 0 0 1-3.47 9.54zm4.61-.85c-.81-.91.36-2.41 1.35-1.4s2.12.89 4.34.7a1 1 0 1 1 .25 1.95c-2.73.55-5.1-.32-5.94-1.25zm2.15-6.62c-1 .36-1.58-1.19-.33-1.63a7.09 7.09 0 0 1 4.56.09c1.27.46.75 2.13-.44 1.73a6.66 6.66 0 0 0-3.79-.19zm13.53 4.55c-.08-2 .13-3.6.23-5.61 0-1.24.19-3.09.15-4.27a1 1 0 0 1 2.07 0c0 1.2-.17 3-.27 4.27a52.28 52.28 0 0 0-.34 5.58c.11 2.77 3.49 2.58 6.79 0a1.05 1.05 0 1 1 1.31 1.65c-3.7 2.95-9.77 3.51-9.94-1.62zm19.12 2.92c-.57 1.27-2.58.73-1.79-.89a57.3 57.3 0 0 0 3.32-8.23 5.49 5.49 0 0 1-2.77-.27c-1-.41-.77-2.14.65-1.63a5 5 0 0 0 2.62.12 8.84 8.84 0 0 0 0-2.05c-.08-1.08 1.7-1.14 1.89-.1a5.5 5.5 0 0 1 0 1.52 6.85 6.85 0 0 0 .72-.4.9.9 0 1 1 .74 1.63 11.87 11.87 0 0 1-1.91.76 74.64 74.64 0 0 1-3.47 9.54zm4.61-.85c-.82-.91.36-2.41 1.34-1.4s2.13.89 4.35.7a1 1 0 1 1 .24 1.95c-2.75.55-5.13-.32-5.93-1.25zm2.14-6.62c-1 .36-1.57-1.19-.32-1.63a7.06 7.06 0 0 1 4.55.09c1.27.46.76 2.13-.44 1.73a6.65 6.65 0 0 0-3.79-.19zm15.81 2.07a8.48 8.48 0 0 1 3.76-1.63c4-.53 5.78 3 3.39 5.82a8.32 8.32 0 0 1-5.1 2.48c-1.82.25-1.92-1.64-.5-1.82a6.41 6.41 0 0 0 4-1.7c1.39-1.56 1.06-3.36-1.52-3.15a5.69 5.69 0 0 0-3.34 1.74c-.34.36-.43.91-1.08 1.08-.83.23-1.48-.58-1.34-1.55s.41-3 .7-4.88a7.14 7.14 0 0 1-1.78 0c-1.41-.23-1.26-2.15.26-1.81a4.51 4.51 0 0 0 1.8 0c.19-1.21.38-2.25.51-2.84a.94.94 0 1 1 1.83.45c-.14.44-.27 1.07-.42 1.77a7.43 7.43 0 0 0 1-.61c1.31-.93 2.51 1 .74 1.78a21.33 21.33 0 0 1-2.14.9c-.35 1.63-.64 3.32-.77 3.97zm15.58 5.46a17.22 17.22 0 0 1-.31-6.66c.25-2.29.67-4.42.76-5.65a1 1 0 1 1 1.92 0c-.13.85-.46 2.5-.7 4.11a20.57 20.57 0 0 0-.36 4c0 .34.05.4.24 0 .06-.12.19-.46.23-.55.44-.91 1.88-.27 1.2 1.16a10.94 10.94 0 0 0-.59 1.49c-.15.48-.27.9-.34 1.2-.15.53.09 1.06-.38 1.52s-1.35.41-1.67-.62zm5.9.4a2.14 2.14 0 0 1 .28-4 5.34 5.34 0 0 1 3.34-.23c0-.31 0-.59-.06-1-.05-.78-.09-2.24-.15-3.74a13.37 13.37 0 0 1-3.11.14.93.93 0 1 1 .38-1.81 7.76 7.76 0 0 0 2.67-.05v-2.62c0-1.23 1.89-1.06 1.82 0 0 .53-.06 1.33-.06 2.26.32-.1.66-.17 1-.27 1.23-.38 2.05 1.35.42 1.75-.46.11-.92.23-1.37.32 0 1.48.08 3 .11 3.89 0 .47.1 1.1.12 1.71a9.26 9.26 0 0 1 2.14 1.38c1.08 1-.27 2.64-1.21 1.63a8.9 8.9 0 0 0-1.18-1 3.77 3.77 0 0 1-5.14 1.64zm3.45-2.49a3.44 3.44 0 0 0-2.62-.11.63.63 0 0 0-.11 1.12 2 2 0 0 0 2.75-1zm11.8 2.85a1.3 1.3 0 0 1-1.79-.17 1 1 0 0 1 .52-1.48 7.27 7.27 0 0 0 4-7.46 1 1 0 0 1 1-1.15 1 1 0 0 1 1.14 1.08v.7c.06 0 .1-.06.15-.08a8.29 8.29 0 0 0 3.46-2.38c.28-.4.28-.69-.21-.69-2.13 0-6.26 0-8.92.17-1.67.08-1.57-1.74-.15-1.82 2.75-.13 6.89-.11 9.73-.11 2 0 2.88 1.65 1.56 3.15a11.09 11.09 0 0 1-4.71 3.37 1.21 1.21 0 0 1-1.08-.05 9.56 9.56 0 0 1-4.7 6.92zm16.78-3.59c-1.75 1.07-2.73-.87-1.44-1.49a25.17 25.17 0 0 0 9.25-8.58 1 1 0 1 1 1.69 1c-.85 1.14-1.67 2.16-2.48 3.11-.06 1.93-.1 6.9 0 8.8a1 1 0 1 1-2 .06c0-1.52.09-4.61.11-6.83a27.63 27.63 0 0 1-5.13 3.93zm19.04 3.5c-1.86.64-2.16-1.39-.83-1.75a6.24 6.24 0 0 0 4.81-6c-2.1 0-4.19.08-5.52.12a.87.87 0 0 1-1-.86 1 1 0 0 1 1.08-.93l11.76-.09a.84.84 0 0 1 .93.91.93.93 0 0 1-1 .85h-4.25a8.43 8.43 0 0 1-5.98 7.75zm.68-11.41a.9.9 0 1 1 0-1.78c2.39 0 4.08-.06 6.56-.11a.86.86 0 0 1 1 .87.88.88 0 0 1-.89.91c-2.63.04-4.64.11-6.67.11zm9.49.42a6.57 6.57 0 0 0-1.27-1.42c-.86-.61.09-1.54.89-1a6 6 0 0 1 1.61 1.51c.57.89-.78 1.77-1.23.91zm2.35-1.15a12.42 12.42 0 0 0-1.33-1.37c-.87-.57 0-1.56.86-1.08a6.42 6.42 0 0 1 1.65 1.46.77.77 0 0 1-1.18.99zm7.1 12.23a1.28 1.28 0 0 1-1.78-.17c-.33-.44-.25-1.1.51-1.48a7.25 7.25 0 0 0 4-7.46 1 1 0 0 1 1-1.15 1 1 0 0 1 1.14 1.08v.7c.06 0 .1-.06.16-.08a8.25 8.25 0 0 0 3.45-2.38c.28-.4.28-.69-.21-.69-2.13 0-6.26 0-8.92.17-1.67.08-1.57-1.74-.15-1.82 2.75-.13 6.89-.11 9.73-.11 2 0 2.89 1.65 1.56 3.15a11 11 0 0 1-4.71 3.37 1.21 1.21 0 0 1-1.1 0 9.53 9.53 0 0 1-4.68 6.87zm24.21-5.63a2 2 0 1 1 2-2 2 2 0 0 1-2 2zm15.01 5.54c-1.86.64-2.16-1.39-.83-1.75a6.26 6.26 0 0 0 4.82-6c-2.11 0-4.2.08-5.52.12a.87.87 0 0 1-1-.86 1 1 0 0 1 1.08-.93l11.76-.09a.83.83 0 0 1 .93.91.93.93 0 0 1-1 .85h-4.25a8.43 8.43 0 0 1-5.99 7.75zm.69-11.41a.9.9 0 1 1 0-1.78c2.39 0 4.08-.06 6.57-.11a.86.86 0 0 1 1 .87.88.88 0 0 1-.9.91c-2.63.04-4.64.11-6.67.11zm9.48.42a6.57 6.57 0 0 0-1.27-1.42c-.85-.61.09-1.54.89-1a5.89 5.89 0 0 1 1.61 1.51c.57.89-.78 1.77-1.23.91zm2.35-1.15a11.57 11.57 0 0 0-1.33-1.37c-.87-.57 0-1.56.86-1.08a6.26 6.26 0 0 1 1.65 1.46.77.77 0 0 1-1.18.99zm15.46 3.88a9.44 9.44 0 0 1-5 8.67c-1.52.88-2.28-.87-1.1-1.51a7.59 7.59 0 0 0 4.25-7.08v-.44h-3v2.83a1 1 0 0 1-1 1 .89.89 0 0 1-.94-1c0-.78.05-1.77.05-2.81-1.19 0-2.37.07-3.43.13a.89.89 0 1 1-.11-1.76c1.13 0 2.33-.06 3.52-.08 0-.89 0-1.72-.07-2.37a.94.94 0 1 1 1.88-.08c0 .63.05 1.48.07 2.41l3.06-.05v-2.45a1 1 0 1 1 1.89 0v2.45h3.57c1.78 0 1.39 1.88.06 1.84s-2.37-.06-3.61-.06zm1.07-4.09c-.95-.4-.25-1.5.62-1.18a6.13 6.13 0 0 1 1.86 1.1c.72.78-.36 1.9-1 1.18a6 6 0 0 0-1.48-1.1zm1.67-1.6c-.95-.36-.27-1.51.6-1.23a6.23 6.23 0 0 1 1.88 1c.76.74-.28 1.94-.93 1.24a6.22 6.22 0 0 0-1.55-1.01zm8.33 10.45c-1.74 1.07-2.73-.87-1.44-1.49a25.27 25.27 0 0 0 9.26-8.58 1 1 0 1 1 1.68 1c-.85 1.14-1.66 2.16-2.48 3.11-.06 1.93-.09 6.9 0 8.8a1 1 0 1 1-2 .06c0-1.52.09-4.61.11-6.83a27.3 27.3 0 0 1-5.13 3.93zm20.81-4.87a7 7 0 0 0-2.81-1.4c-1.14-.27-.66-2.19.78-1.79a12.42 12.42 0 0 1 3.34 1.44 1.12 1.12 0 0 1 .24 1.58 1 1 0 0 1-1.55.17zm-1.18 7.83a1.08 1.08 0 1 1-.64-2c3.81-1 7.64-4.9 9.56-8.62a1 1 0 1 1 1.72 1.12c-2.35 4.26-6.27 8.12-10.64 9.5zm23.11-5a2 2 0 1 1 2-2 2 2 0 0 1-2 2zm15.11 5.54c-1.86.64-2.16-1.39-.83-1.75a6.3 6.3 0 0 0 4.84-6c-2.11 0-4.2.1-5.52.14a.87.87 0 0 1-1-.86 1 1 0 0 1 1.08-.93l11.76-.09a.83.83 0 0 1 .93.91.93.93 0 0 1-1 .85h-4.27a8.45 8.45 0 0 1-5.99 7.73zm8.18-11.54c-2.62 0-5.46.12-7.49.12a.9.9 0 1 1 0-1.77c2.39 0 4.92-.06 7.4-.11a.88.88 0 1 1 .08 1.76zm16.87-.78c.81-.05 1.74-.13 2.5-.17 1.46-.07 2.73 1 2 2.3-2.32 4.42-4.93 8.27-10.26 10.38-1.62.62-2.39-1.24-.82-1.79a15.94 15.94 0 0 0 8.75-8.48c.15-.36 0-.72-.46-.7-.8 0-2.18.15-3 .25a23.13 23.13 0 0 1-4.27 4.59c-1.27.85-2.39-.78-1.1-1.58 1.82-1.12 4.28-4.61 5.16-6.1.62-1.07 2.52-.16 1.63 1.11zm10.88 10.48c3.59-1.56 7.27-6.13 8.52-10.12a1.1 1.1 0 1 1 2.11.61c-2 4.71-5.18 9.16-9.68 11.31-1.42.66-2.58-1.1-.95-1.8zm26.83.39c-2.36.08-3.66.06-5.5 0s-2.91-1.06-3-2.65c-.06-1.88-.06-3.25 0-4.88.05-1.4.91-2.52 2.9-2.62s3.89-.05 5.73 0a2.67 2.67 0 0 1 2.69 2.41c.06 1.73.06 3.42 0 5a2.66 2.66 0 0 1-2.82 2.74zm.87-7.09a1.26 1.26 0 0 0-1.4-1.33c-1.64-.06-3.13-.06-4.61 0-1.07 0-1.39.57-1.43 1.35a38.12 38.12 0 0 0 0 4c0 .83.42 1.2 1.46 1.23a43.92 43.92 0 0 0 4.59 0 1.28 1.28 0 0 0 1.37-1.27c.06-1.22.08-2.71.02-3.98zm11.74 2.56a6.74 6.74 0 0 0-2.35-1c-1.14-.19-.78-2 .6-1.72a9.56 9.56 0 0 1 2.77.94 1 1 0 0 1 .44 1.43 1 1 0 0 1-1.46.35zm0 6a1 1 0 1 1-.63-2c3.78-1 8-5.2 10-9 .63-1.18 2.52-.4 1.69 1.1-2.45 4.37-6.75 8.43-11.06 9.86zm2.2-9.34a6.91 6.91 0 0 0-2.07-1.46c-1.08-.43-.32-2.12 1-1.55a10.59 10.59 0 0 1 2.52 1.57 1 1 0 1 1-1.42 1.44zm4.12-3.45c-1-.4-.21-1.54.66-1.21a6 6 0 0 1 1.88 1.13c.74.8-.36 2-1 1.22a6.61 6.61 0 0 0-1.54-1.15zm1.72-1.61c-1-.38-.28-1.54.61-1.25a6 6 0 0 1 1.92 1.08c.75.76-.31 1.95-.95 1.23a7.16 7.16 0 0 0-1.58-1.1zm9.6 7.77a.91.91 0 0 1-1-.91 1 1 0 0 1 1-1h11.91a.94.94 0 1 1 0 1.87zm24.03-2.42a6.27 6.27 0 0 1 .61-1c.3-.4.2-.38-.16-.27-1.42.46-1.1.46-2.39.95a16.16 16.16 0 0 1-1.7.57c-1.67.46-2.18-1.73-.67-2 .4-.09 1.5-.3 2.11-.45.93-.23 2.6-.61 4.53-1.16a25.22 25.22 0 0 1 5.16-1.12 1.12 1.12 0 0 1 1.29 1.46c-.11.32-.53.7-1.86.63a7.89 7.89 0 0 0-2.8.53 5.52 5.52 0 0 0-2.45 2.22c-1.67 2.79-.4 6.77 3.85 6.62 2-.08 2.12 2.16.11 2.14-5.73-.06-7.7-5.31-5.63-9.12zm5.84 1.25c-1-.44-.24-1.61.69-1.27a6.31 6.31 0 0 1 2 1.19c.77.84-.4 2.05-1.07 1.27a7.15 7.15 0 0 0-1.62-1.19zm1.92-1.65c-1-.4-.29-1.61.64-1.31a6.15 6.15 0 0 1 2 1.14c.8.79-.32 2-1 1.29a6.49 6.49 0 0 0-1.64-1.12zM128.53 182.2a.8.8 0 0 1-.89-.81.88.88 0 0 1 .89-.91H135v-3.42h-3.57a.81.81 0 0 1-.89-.82.86.86 0 0 1 .89-.87H135v-2.9h-3.38a22.51 22.51 0 0 1-2.11 3.09 1.08 1.08 0 0 1-.83.44.89.89 0 0 1-.91-.86.93.93 0 0 1 .24-.6 17 17 0 0 0 3.38-6.21.86.86 0 0 1 .87-.64 1 1 0 0 1 1.07.87.74.74 0 0 1-.06.28c-.25.67-.51 1.31-.8 1.94H135v-3.28a1 1 0 1 1 1.95 0v3.38h5.12a.85.85 0 1 1 0 1.69h-5.12v2.9h3.83a.85.85 0 1 1 0 1.69h-3.83v3.42h6.34a.83.83 0 0 1 .85.87.8.8 0 0 1-.85.85zm26.95-7.6a14.1 14.1 0 0 1 4.12.83 3 3 0 0 0-.27-2c-.53-.89 1.18-1.61 1.81-.44a4.71 4.71 0 0 1 .19 3.15 16.16 16.16 0 0 1 2.61 1.61c1.2.93-.09 2.68-1.17 1.69a12.74 12.74 0 0 0-2.07-1.53 9.33 9.33 0 0 1-3.6 3.85c-1.33.78-2.28-.7-1-1.46a8.19 8.19 0 0 0 3-3.21 11.81 11.81 0 0 0-4.42-.95 9 9 0 0 1-2.43 3.47c-1.14.9-2.81 1-3.62 0-1-1.21-.27-3.18 1.91-4.15a10.91 10.91 0 0 1 3.12-.82c.66-1.42 1.53-3.14 2.06-4.34.12-.27.17-.42-.11-.34a10 10 0 0 1-2.24.45.9.9 0 0 1-.06-1.8 25.61 25.61 0 0 0 2.73-.47c1.73-.34 2.49.77 1.64 2.16s-1.56 2.86-2.24 4.29zm-4.48 2.27c-.49.25-1.38 1-1.06 1.52s.91.21 1.25-.06a6.54 6.54 0 0 0 1.58-2 6.35 6.35 0 0 0-1.77.54zm24-2.43c-1.06 0-2.1 0-3-.05a2.21 2.21 0 0 1-2.41-2.43v-3.32a1 1 0 0 1 1.91 0v2.87c0 1.25.4 1.27 3.53 1.27v-5.68a.89.89 0 0 1 1-.83.9.9 0 0 1 1 .83v5.68l2.44-.06c1.2 0 1.26-.78 1.26-2.2 0-.63 0-1.27-.06-1.82a.86.86 0 0 1 .93-.84.92.92 0 0 1 1 .88v3.22a2.44 2.44 0 0 1-2.58 2.47c-.94 0-2 .05-3 .05v6.15c1.17 0 2.31 0 3.17-.06 1.11-.05 1.25-.68 1.25-2.29 0-.72 0-1.48-.06-2a.85.85 0 0 1 .93-.83.93.93 0 0 1 1 .87v3.53a2.46 2.46 0 0 1-2.58 2.5c-1.31.06-3.08.08-4.8.08s-3.42 0-4.59-.08a2.23 2.23 0 0 1-2.41-2.46v-3.63a1 1 0 0 1 1.91 0v1.94c0 1.95 0 2.39 1.16 2.44.86 0 2 .06 3.11.06zm16.71 3.89c-.08-2 .13-3.6.23-5.61.05-1.23.19-3.09.15-4.27a1 1 0 0 1 2.07 0c0 1.2-.17 3-.27 4.27a52.28 52.28 0 0 0-.34 5.58c.11 2.77 3.49 2.58 6.79 0a1.05 1.05 0 1 1 1.31 1.65c-3.65 2.95-9.77 3.51-9.94-1.62zm22.14-5.33a7 7 0 0 1 .6-1c.31-.4.21-.38-.15-.27-1.42.46-1.1.46-2.39.95a17 17 0 0 1-1.7.57c-1.67.46-2.17-1.72-.65-2.05.4-.09 1.5-.3 2.11-.45.93-.23 2.58-.61 4.51-1.16a25.93 25.93 0 0 1 5.18-1.12 1.12 1.12 0 0 1 1.29 1.46c-.11.33-.53.7-1.86.63a8.06 8.06 0 0 0-2.83.53 5.43 5.43 0 0 0-2.42 2.22c-1.67 2.79-.4 6.77 3.85 6.62 2-.08 2.1 2.16.09 2.14-5.73-.07-7.7-5.31-5.63-9.07zm16.96 6.61a9.78 9.78 0 0 1-2.14-6.08 17.86 17.86 0 0 1-.1-2.1 1 1 0 1 1 1.94 0v1.65c.07 2 .43 3.87 1.49 4.89.5.48.74.54 1.16 0a7.6 7.6 0 0 0 .63-1.12.93.93 0 0 1 1.72.68 8.58 8.58 0 0 1-.74 1.46c-1.21 1.92-2.9 1.75-3.96.62zm10.26-3.34a6 6 0 0 0-2.1-3.68c-.91-.63.11-2 1.25-1.18a7.32 7.32 0 0 1 2.84 4.4 1 1 0 1 1-1.99.46zm15.15 5.73a35.27 35.27 0 0 0-4-6.16c-1.26-1.46-1.26-2.81.22-4.35a46.74 46.74 0 0 0 3.89-4.28 1.06 1.06 0 1 1 1.69 1.29c-.95 1.15-3 2.8-4.13 4-.82.82-.86 1.38-.23 2.16 1.89 2.37 3.51 4.16 4.44 6.19.56 1.28-1.28 2.4-1.88 1.15zm14.16.45c-1.91.66-2.39-1.42-1-1.76a6.47 6.47 0 0 0 4.72-5.49c-2.05 0-4.1 0-5.59.08a.86.86 0 1 1 0-1.71h5.63v-2.28a21.29 21.29 0 0 1-3.72.32c-1.4 0-1.34-1.84 0-1.74a20.06 20.06 0 0 0 7-1.24c1.63-.68 2 1.27.95 1.64a22.65 22.65 0 0 1-2.29.64v2.66h4.62a.86.86 0 1 1 0 1.71c-1.05 0-2.75-.06-4.63-.06a8.33 8.33 0 0 1-5.69 7.23zm18.19-7.08a.91.91 0 0 1-1-.91 1 1 0 0 1 1-1h11.91a.94.94 0 1 1 0 1.87zm19.33 6.3c-1.43.23-1.88-1.71-.37-1.91.31 0 .65-.08 1-.14a62 62 0 0 0 3.4-9.59 1.05 1.05 0 1 1 2.05.39 90.13 90.13 0 0 1-3.27 8.82c2-.36 4.06-.81 5.54-1.17a10.28 10.28 0 0 0-1.44-1.56c-.87-.76.36-2.08 1.42-1.14s2.89 2.76 3.49 4.46a1.11 1.11 0 0 1-.6 1.39 1 1 0 0 1-1.29-.57 9.43 9.43 0 0 0-.5-1c-2.47.68-6.49 1.53-9.43 2.02zm22.24-8.67a7 7 0 0 1 .6-1c.31-.4.21-.38-.15-.27-1.42.46-1.1.46-2.39.95a16.16 16.16 0 0 1-1.7.57c-1.67.46-2.19-1.72-.67-2.05.4-.09 1.5-.3 2.11-.45.93-.23 2.6-.61 4.53-1.16a25.9 25.9 0 0 1 5.16-1.12 1.12 1.12 0 0 1 1.29 1.46c-.11.33-.53.7-1.86.63a8 8 0 0 0-2.81.53 5.49 5.49 0 0 0-2.44 2.22c-1.67 2.79-.4 6.77 3.85 6.62 2-.08 2.12 2.16.11 2.14-5.77-.07-7.7-5.31-5.63-9.07zm5.86 1.2c-1-.44-.25-1.61.68-1.27a6.35 6.35 0 0 1 2 1.19c.77.84-.4 2-1.07 1.27a7.15 7.15 0 0 0-1.61-1.19zm1.92-1.65c-1-.4-.29-1.61.64-1.31a6.15 6.15 0 0 1 2 1.14c.8.79-.32 2.05-1 1.29a6.67 6.67 0 0 0-1.66-1.12zm11.57 4.38a2.63 2.63 0 0 1 1.52-3.57 3.86 3.86 0 0 1 1.63-.17c0-.41 0-1-.06-1.53-1.59.15-3.17.38-4.15.53-1.37.21-2.26.45-2.83.55-1.27.23-1.65-1.67-.15-1.92.76-.13 2-.26 2.79-.4s2.65-.36 4.32-.51v-.34c0-1.18-.09-1.25-.09-1.86a1 1 0 0 1 2-.06c0 .44 0 1.31-.08 1.83v.28c.55 0 1.05-.06 1.46-.06h2.89c1.59 0 1.52 2.05 0 1.94a28.9 28.9 0 0 0-3-.13h-1.38v1.75c0 .26 0 .66.06 1.08 1.69 2.66-.32 6.68-2.33 8.29-1.27 1-2.92-.34-1.27-1.52a6.75 6.75 0 0 0 2.16-2.79 2.42 2.42 0 0 1-3.49-1.39zm3.19-2a1.24 1.24 0 0 0-1.22-.08 1.17 1.17 0 0 0-.55 1.44 1.13 1.13 0 0 0 2.18-.32.86.86 0 0 0-.11-.72 3.06 3.06 0 0 0-.3-.31zm13.16 8.07a2.17 2.17 0 1 1 2.17-2.16 2.16 2.16 0 0 1-2.17 2.16zm0-3.59a1.43 1.43 0 0 0-1.44 1.43 1.45 1.45 0 1 0 1.44-1.43z"/></svg>