<svg xmlns="http://www.w3.org/2000/svg" viewBox="0 0 99.32 157.99"><path d="M94.26 138.92a58.52 58.52 0 0 1-7.37 2.83 66.11 66.11 0 0 1-24 2.84c-19.15-1.34-39.59-12-44.39-34.3-.19-.87-.36-1.74-.49-2.64a48.28 48.28 0 0 1-.56-6.62 58 58 0 0 1 .26-6.63L9 101l-8.72 6.65c-3.2 33.26 21.94 48.56 45.17 50.19 12.76.9 29-2.13 41.44-11.79l8.72-6.62c1.27-1 2.51-2.06 3.7-3.2a57.11 57.11 0 0 1-5.05 2.69zM71.01 40.94l8.73-6.63 8.73-6.62H34.49l2.18-14.44 2-13.25-17.45 13.25-4.18 27.69h53.97zm1.26 31.78H51.5l2.23-18.66-17.46 13.25L34.05 86h20.77c10.71 0 25.32 3.63 24.1 21.21a28.73 28.73 0 0 1-2.63 10.52 30.49 30.49 0 0 0 5.76-1.94c7.6-3.47 13.54-10.35 14.33-21.83C97.6 76.36 83 72.72 72.27 72.72z" fill="#040000" data-name="レイヤー 2"/></svg>