<svg xmlns="http://www.w3.org/2000/svg" viewBox="0 0 500 403.6"><path d="M420.4 30c-40.7-40.3-106.3-39.9-146.5.8-24.2 24.5-34.7 59.4-28 93.2-82.5-4.3-159.2-43.4-211.3-107.5C7.3 63.2 21 123.1 66 153c-16.1-1.1-31.9-5.6-46-13.4-.4 49.3 33.8 92 82 102.3-15.1 4-30.9 4.6-46.3 1.7 13.7 41.5 51.9 70 95.6 71.3-42.9 33.6-97.2 48.9-151.3 42.7 116.5 74.3 269.1 57.1 366-41.5 55.3-58.7 84.9-137 82.1-217.6 20.2-14.1 37.7-31.7 51.8-51.8-19 7.8-39.1 12.7-59.6 14.8 21.4-12.7 37.4-32.8 45.2-56.4-20 12-42.1 20.4-65.1 24.9z"/></svg>