<svg xmlns="http://www.w3.org/2000/svg" xmlns:xlink="http://www.w3.org/1999/xlink" viewBox="0 0 500 85.3"><defs><linearGradient id="a" x1="72.8" y1="51.55" x2=".13" y2="51.55" gradientUnits="userSpaceOnUse"><stop offset="0" stop-color="ivory"/><stop offset="1" stop-color="ivory" stop-opacity="0"/></linearGradient><linearGradient id="b" x1="-2407.09" y1="7166.77" x2="-2479.77" y2="7166.77" gradientTransform="rotate(180 -989.945 3609.16)" xlink:href="#a"/></defs><path fill="url(#a)" d="M0 49.81h73.03v3.48H0z"/><path fill="url(#b)" d="M426.97 49.81H500v3.48h-73.03z"/><path d="M321.15 49.8a5.38 5.38 0 0 1-5.37-5.37V30.2a8.86 8.86 0 1 0-17.71 0v28.46a5.38 5.38 0 0 1-10.75 0V8.85a8.86 8.86 0 0 0-17.71 0v67.6a5.38 5.38 0 0 1-10.75 0V23.08a8.86 8.86 0 0 0-17.71 0v35.58a5.38 5.38 0 0 1-10.75 0v-19.6a8.86 8.86 0 1 0-17.71 0v5.37a5.38 5.38 0 0 1-5.38 5.37H73v3.49h134.31a8.87 8.87 0 0 0 8.86-8.86v-5.37a5.38 5.38 0 1 1 10.75 0v19.6a8.86 8.86 0 1 0 17.71 0V23.08a5.38 5.38 0 0 1 10.75 0v53.37a8.86 8.86 0 0 0 17.71 0V8.85a5.38 5.38 0 0 1 10.75 0v49.81a8.86 8.86 0 1 0 17.71 0V30.2a5.38 5.38 0 0 1 10.75 0v14.23a8.87 8.87 0 0 0 8.85 8.86H427V49.8z" fill="ivory"/></svg>