<svg xmlns="http://www.w3.org/2000/svg" viewBox="0 0 499.75 500"><path d="M250 45c66.75 0 75 0 100 1.5a138.25 138.25 0 0 1 46.5 8.5A77.57 77.57 0 0 1 425 75a77.53 77.53 0 0 1 20 27.5 138.22 138.22 0 0 1 8.5 47.5c0 26.25 1.5 34.25 1.5 100s0 75-1.5 100a138.25 138.25 0 0 1-8.5 46.5 82.76 82.76 0 0 1-47.5 47.5 138.25 138.25 0 0 1-46.5 8.5c-26.25 0-34.25 1.5-100 1.5s-75 0-100-1.5a138.38 138.38 0 0 1-48.5-7.5A77.53 77.53 0 0 1 75 425a77.53 77.53 0 0 1-20-27.5 138.22 138.22 0 0 1-8.5-47.5c0-26.25-1.5-34.25-1.5-100s0-75 1.5-100a138.22 138.22 0 0 1 8.5-47.5A77.53 77.53 0 0 1 75 75a77.53 77.53 0 0 1 27.5-20 138.22 138.22 0 0 1 47.5-8.5c26.25 0 34.25-1.5 100-1.5m0-45c-68 0-76.5 0-103 1.5A183.56 183.56 0 0 0 86.25 13 122.54 122.54 0 0 0 42 42a122.54 122.54 0 0 0-29 44.25A183.56 183.56 0 0 0 1.5 147C0 173.5 0 182 0 250s0 76.5 1.5 103A183.56 183.56 0 0 0 13 413.75 122.68 122.68 0 0 0 41.75 458 122.68 122.68 0 0 0 86 486.75a183.56 183.56 0 0 0 60.75 11.5C173.5 500 182 500 250 500s76.5 0 103-1.5a183.56 183.56 0 0 0 60.75-11.5 127.75 127.75 0 0 0 73-73 183.56 183.56 0 0 0 11.5-60.75c0-26.75 1.5-35.25 1.5-103s0-76.5-1.5-103a183.56 183.56 0 0 0-11.5-60.75A122.68 122.68 0 0 0 458 42.25 122.57 122.57 0 0 0 413.75 13 183.56 183.56 0 0 0 353 1.5C326.5 0 318 0 250 0zm0 121.5A128.5 128.5 0 1 0 378.5 250 128.5 128.5 0 0 0 250 121.5zm0 211.75A83.25 83.25 0 1 1 333.25 250 83.25 83.25 0 0 1 250 333.25zM353.5 116.5a30 30 0 1 0 30-30 30 30 0 0 0-30 30z" fill="#fff"/></svg>