<svg xmlns="http://www.w3.org/2000/svg" viewBox="0 0 499.7 500"><path d="M250 44.9c66.7 0 75 0 100 1.6 15.9.1 31.6 3 46.5 8.5 10.9 4.4 20.6 11.2 28.5 19.9 8.6 7.6 15.4 16.9 19.9 27.5 5.5 15.3 8.3 31.3 8.4 47.5 0 25.9 1.4 34.2 1.4 100s0 75-1.4 100c-.2 15.9-3.1 31.6-8.5 46.5-8.4 21.8-25.7 39-47.5 47.4-14.9 5.6-30.6 8.4-46.5 8.5-25.9 0-34.2 1.6-99.9 1.6s-75 0-100-1.6c-16.5.4-33-2.1-48.6-7.5-10.5-4.5-19.9-11.4-27.5-19.9-8.6-7.6-15.5-17-19.9-27.6-5.7-15.2-8.5-31.4-8.4-47.7 0-25.9-1.6-34.3-1.6-100s0-75 1.6-100c0-16.2 2.9-32.3 8.5-47.5C59.6 91.8 66.4 82.5 75 75c7.5-8.6 16.9-15.4 27.5-19.9 15.2-5.7 31.3-8.6 47.5-8.5 25.9-.1 34.2-1.7 100-1.7M250 0c-68 0-76.6 0-103.6 1.6-20.6.3-40.9 4.2-60.1 11.4C69.6 19.3 54.5 29.2 42 42 29.2 54.5 19.3 69.6 13 86.3c-7.3 19.4-11.1 40-11.4 60.8C0 172.9 0 182 0 250.6S0 327 1.6 354.2c.4 20.4 4.2 40.5 11.4 59.5 13 33.5 39.5 60 73.1 72.9 19.5 7.2 40 11.1 60.8 11.5 26.7 1.8 35.2 1.8 103.6 1.8s76.4 0 103.6-1.6c20.8-.4 41.3-4.3 60.8-11.5 33-13 59.1-39.3 71.9-72.4 7.2-19.5 11.1-40 11.5-60.8 0-26.8 1.6-35.2 1.6-103s0-76.6-1.6-103.6c-.4-20.8-4.3-41.3-11.5-60.8-6.2-16.7-16.1-31.8-28.8-44.3-12.4-12.8-27.5-22.7-44.2-29.1-19.4-7.3-40-11.1-60.8-11.4C326.4 0 318 0 250 0z"/><path d="M250 121.5c-71 0-128.5 57.5-128.5 128.5S179 378.5 250 378.5 378.5 321 378.5 250 321 121.5 250 121.5zm0 211.7c-46 .1-83.3-37.2-83.4-83.2-.1-46 37.2-83.3 83.2-83.4 46-.1 83.3 37.2 83.4 83.2v.3c.1 45.9-37 83.1-82.9 83.2-.1-.1-.2-.1-.3-.1z"/><circle cx="383.4" cy="116.5" r="30.1"/></svg>