<svg xmlns="http://www.w3.org/2000/svg" viewBox="0 0 500 215.7"><path d="M265.8 128.1c-.6.3-1.4 0-1.7-.6-.3-.6 0-1.4.6-1.7.1 0 .2-.1.3-.1 4.3-1.7 7.9-4.9 10.1-9 .2-.4.1-.8-.4-.8-1.5 0-4.8.1-7 .1-.6-.1-1.1-.7-1-1.3.1-.5.5-1 1-1 1.8 0 5.3-.1 7.7-.1 2.2 0 3.4 1.4 2.5 3-.8 1.4-1.7 2.8-2.7 4.1 2.3 1.3 4.4 2.9 6.2 4.8 1 1.4-.9 3.2-2 1.8-1.6-1.9-3.5-3.5-5.6-4.8-2.1 2.5-4.9 4.4-8 5.6zm25.9-3.6c-2.2 1.4-3.5-1.1-1.8-1.9 4.8-2.6 8.8-6.3 11.8-10.9.3-.6 1-.9 1.7-.6.6.3.9 1 .6 1.7 0 .1-.1.1-.1.2-1.1 1.4-2.1 2.7-3.2 4-.1 2.5-.1 8.8 0 11.2.1.7-.4 1.3-1.1 1.4-.7.1-1.3-.4-1.4-1.1v-.3c0-1.9.1-5.9.1-8.7-2 1.9-4.2 3.6-6.6 5zm22-4c-.6.1-1.2-.4-1.3-1v-.1c0-.7.5-1.2 1.2-1.2h15.2c.6 0 1.2.5 1.2 1.1v.1c0 .6-.5 1.2-1.1 1.2h-15.2zm26.6-1c-.5-1-1.1-1.9-2-2.6-1.1-.9.5-2.6 1.8-1.5.9.8 1.7 1.8 2.4 2.9.4.6.2 1.4-.4 1.8h-.1c-.6.3-1.3.1-1.7-.5.1 0 0 0 0-.1zm0 7.3c5.4-2.2 9.3-7 10.6-12.6.1-.7.8-1.2 1.6-1.1.7.1 1.2.8 1.1 1.6 0 .1 0 .2-.1.3-1.6 6.3-6 11.5-11.9 14.2-2 .7-2.8-1.7-1.3-2.4zm4.4-9c-.3-1.1-.9-2-1.6-2.9-1-1.1.8-2.5 2-1.2.8 1 1.5 2.1 2 3.2.3.7 0 1.4-.7 1.7h-.1c-.6.2-1.4-.1-1.6-.8.1.1 0 .1 0 0zM1.1 142.1c-1.9-5.8-.8-11.9-.1-15.8.2-1.6.5-3 .7-4.5.3-2 3.5-1.6 3.2.2-.2 1.3-.6 2.8-.9 4.4-.6 3.5-1.4 6-1.2 8.4.1.9.2 1.3.6.3.1-.2.3-.5.4-.7.8-1.9 3-.2 2.2 1.2-.8 1.6-1.4 3.3-1.6 5-.1.6.1 1.9-.5 2.4s-2.3.8-2.8-.9zm9.7.4c-1.7-.5-2.7-2.3-2.2-4 .3-1.2 1.3-2.1 2.5-2.3 1.7-.7 3.6-.9 5.4-.5v-.6c-.3-1.6-.3-2.8-.3-4.1-2.1.5-4.2.6-6.3.2-.8-.2-1.2-1-1-1.8.2-.8 1-1.2 1.8-1 .1 0 .2.1.3.1 1.8.3 3.6.2 5.3-.4-.1-.9-.2-1.8-.5-2.6-.3-1.6 2.4-2.1 3-.6.3.8.4 1.6.4 2.4.5-.2.9-.4 1.3-.5 1.8-.9 3.3 1.6 1 2.7l-2.4.9c-.1 1.5-.1 3 0 4.5 0 .5.1 1.2.2 1.8 1.4.6 2.6 1.4 3.7 2.4 1.5 1.4-.4 4.1-2 2.4-.6-.6-1.2-1.1-1.9-1.6-1.3 2.9-4.8 4.2-7.7 2.9-.5-.2-.6-.2-.6-.3zm.2-18.7c-.7-.2-1.2-1-1-1.7.2-.7 1-1.2 1.7-1 2.7.1 5.4-.3 8-1 1.9-.6 3.1 2.2.6 2.8-3.1 1-6.3 1.3-9.3.9zm5.3 14.6c-1.4-.5-2.9-.5-4.3 0-.5.2-.8.7-.6 1.2.1.3.3.5.6.6 1.4.8 3.2.4 4.1-1l.3-.6v-.2zm24.6 4.1c5.6-4 7.4-9.6 6.1-13.2-.9-2.5-3.2-2.6-5.4-1.3-1 .6-2 1.1-3.1 1.5-.8.5-1.9.2-2.4-.7-.5-.8-.2-1.9.7-2.4.2-.1.5-.2.7-.2.8-.3 1.8-.6 2.7-1 3.2-1.4 7.9-1.3 9.5 2.3 2.4 5.3-.3 12.7-6.6 17.4-2 1.5-4.1-1.1-2.2-2.4zm-.7-22.6c-1.8-1-.5-3.5 1.7-2.5 1.6.7 3.2 1.1 4.8 1.4 2.6.4 1.6 3.6-.8 3.2-1.9-.4-3.9-1.1-5.7-2.1zm27 17.3c-.1-3.2.2-6 .4-9.3.1-2 .3-5.1.3-7.1.1-.9.9-1.6 1.9-1.6.8.1 1.5.7 1.6 1.6 0 2-.3 5-.4 7.1-.4 3.1-.5 6.2-.6 9.3.2 4.6 5.8 4.3 11.3 0 .7-.7 1.8-.6 2.5.1s.6 1.8-.1 2.5c-.1.1-.2.1-.3.2-6.2 4.8-16.3 5.7-16.6-2.8zm9.1-11.7c-1.7-.7-.4-2.7 1.2-2.1 1.2.5 2.4 1.2 3.4 2 1.3 1.4-.7 3.5-1.8 2.2-.9-.8-1.8-1.5-2.8-2.1zm3.3-2.8c-1.8-.7-.5-2.7 1.1-2.2 1.3.4 2.4 1.1 3.4 1.9 1.4 1.4-.6 3.5-1.7 2.2-.8-.8-1.8-1.4-2.8-1.9zm31.2 3.8c-.4-.4-.6-.5-.9-.5-.3 0-.5.1-.8.5-4 4.1-9.9 8.3-11.4 8.3-.8 0-1.5-.7-1.5-1.5v-.1c0-.7.4-1.2 1-1.5 3.7-1.7 7-4.1 9.8-7 .7-.8 1.7-1.3 2.8-1.3 1.2.1 2.2.6 3.1 1.4 2.9 2.6 6.2 4.8 9.8 6.3.8.4 1.1 1.3.8 2.1-.2.5-.7.9-1.3.9-1.9.1-7.6-4.1-11.4-7.6zm4.8-4.4v1.2c0 .8-.7 1.3-1.4 1.3h-.1c-.7.1-1.4-.4-1.4-1.2V122h-5.9v1.2c0 .8-.7 1.3-1.4 1.3-.7.1-1.3-.4-1.4-1.1V122h-6.1c-.8 0-1.4-.6-1.4-1.4 0-.8.6-1.4 1.4-1.4h6.1v-1.6c.1-.8.9-1.3 1.7-1.2.6.1 1.1.6 1.2 1.2v1.6h5.8v-1.6c.1-.7.7-1.3 1.4-1.2.7-.1 1.4.4 1.4 1.2v1.7h6.3c.8 0 1.4.6 1.4 1.4 0 .8-.6 1.4-1.4 1.4h-6.2zm-15.7 21.5c-.9 0-1.6-.7-1.6-1.6 0-.6.4-1.2 1-1.4 1.8-.7 3.4-1.9 4.5-3.5.2-.3.6-.5 1-.5.9.1 1.5.8 1.5 1.6.1 1.8-5.1 5.4-6.4 5.4zm11.5-8.5v8.3c0 .8-.7 1.5-1.5 1.5s-1.5-.7-1.5-1.5v-8.3h-5.3c-.7 0-1.3-.5-1.3-1.2v-.1c0-.7.5-1.3 1.3-1.3h5.4v-2.3c0-.8.6-1.4 1.4-1.4.8 0 1.4.6 1.4 1.4v2.4h5.4c.7 0 1.3.6 1.3 1.3s-.6 1.3-1.3 1.3l-5.3-.1zm6.9 7.7c-1.2-1.4-2.7-2.5-4.4-3.2-.5-.2-.8-.7-.8-1.2 0-.8.6-1.5 1.4-1.5 2.3.7 4.3 1.9 6.1 3.6.3.3.5.8.5 1.3 0 .9-.7 1.7-1.6 1.7-.4-.1-.9-.3-1.2-.7zm22 .5c-2.6.8-3.8-2.3-1.2-3 6.2-1.6 10.2-5.5 11.6-9.5.3-.9.2-1.4-1-1.4-3.2 0-9.1 0-12.5.1-.8.2-1.6-.3-1.8-1.2-.2-.8.3-1.6 1.2-1.8h.5c4.1-.1 9.4-.1 13.7-.1 3.2 0 4.7 1.8 3.4 4.8-2.3 5.5-6.1 9.7-13.9 12.1zm10-19.7c-3 0-7.3.1-10.7 0-2.1 0-2.2-3 .2-2.9h10.6c.9-.1 1.6.6 1.7 1.5 0 .7-.5 1.4-1.8 1.4zm21.3 19.7c-3.1 1.1-3.6-2.3-1.4-2.9 4.6-1.1 8-5.2 8.1-9.9-3.5 0-7 .2-9.2.2-.8.1-1.5-.5-1.6-1.2v-.2c0-.9.7-1.6 1.6-1.6h.2c4.5 0 14.4-.1 19.5-.2.8-.1 1.5.4 1.6 1.1v.4c-.1.9-.9 1.5-1.7 1.4-1.7 0-4.3-.1-7.1 0-.3 6-4.3 11.2-10 12.9zm13.6-19.2c-4.4 0-9.1.2-12.5.2-.8.1-1.6-.4-1.7-1.3-.1-.8.4-1.6 1.3-1.7h.4c4 0 8.2-.1 12.3-.2.8 0 1.5.6 1.5 1.4.1.9-.5 1.6-1.3 1.6zm234.1-57.9h-3.4c.7 1.7 2 3.1 3.7 3.8.3.1.5.4.5.8 0 .5-.4.9-.9.9-1.1 0-3.6-2.3-4.4-4.7-1.2 2.7-3.7 4.6-6.6 5.1-.4 0-.8-.3-.8-.8 0-.4.3-.8.7-.8 2.5-.3 4.5-2 5.3-4.3h-3c-.2 0-.3 0-.5-.1v.8c0 1.5-1 1.6-2.5 1.6h-1c-.8-.1-1.4-.8-1.3-1.6v-7.3c-.1-.8.4-1.5 1.1-1.6h2.3c.8 0 1.4.7 1.4 1.5V65c.1-.1.3-.2.5-.2h.5v-3.9c0-.8.4-1.6 1.8-1.6h1.1v-1.6c0-.4.3-.8.7-.8h.1c.5 0 .8.3.9.8v1.6h1.1c1.2 0 1.8.6 1.8 1.5v4h.9c.4 0 .7.3.7.7 0 .3-.3.6-.7.7 0-.1 0-.1 0 0zm-10.9-3.9v-2.5c0-.7-.5-.5-.9-.5-.8 0-.9.2-.9.5v2.5h1.8zm-1.8 1.4v2.9c0 .3.1.5.9.5h.4c.5 0 .5 0 .5-3.4h-1.8zm7.1 1c.1-.6.1-1.2.1-1.8v-2.3c-1.1 0-1.4.1-1.4.7v3.5l1.3-.1zm3.1 0v-3.5c0-.3-.3-.6-1.4-.6v2.3c0 .6 0 1.2-.1 1.7l1.5.1zm14.5-5.2v1.3h1.5c.9 0 1.6.6 1.8 1.5V67c-.1 1-.9 1.7-1.9 1.7h-4.2c-1 .1-1.9-.7-1.9-1.6v-4.6c0-.9.7-1.6 1.6-1.6h1.5v-1.3h-5.1c-.4 0-.8-.3-.8-.7 0-.4.4-.8.8-.8h12.1c.4 0 .8.3.8.7v.1c0 .4-.3.8-.7.8l-5.5-.2zm-5.8 2.8v6.4c0 .7.3 1.1 1.1 1.1h7.8c.7 0 1.1-.4 1.2-1.1v-6.4c0-.4.4-.8.8-.8h.1c.5 0 .8.3.9.8v6.8c0 1.3-1.1 2.3-2.4 2.3h-8.7c-1.2.1-2.2-.8-2.3-1.9v-7.1c0-.4.3-.8.8-.8.3-.1.6.3.7.7zm4.2-.2h-.9c-.4 0-.7.2-.8.6V64h1.6l.1-1.9zm0 3.2h-1.6v1.4c0 .7.3.7 1.6.7v-2.1zM433 64v-1.3c0-.7-.4-.7-1.7-.7v2h1.7zm-.8 3.4c.5 0 .7-.2.8-.7v-1.4h-1.7v2.1h.9zm-283-28.7c.1-5.6.2-12.2.2-18.5 0-5.5 0-10.6-.1-14.7v-.2c0-3.7 2.1-5.3 4.5-5.3 2.2 0 4.2 1.1 5.4 3 3.4 5.5 12.5 22.5 16.7 28.7.3.5.6.8.8.8s.4-.2.4-2.3c0-5.1-.2-22.2-.3-27.2.3-1.8 2-2.9 3.8-2.6 1.3.2 2.3 1.2 2.6 2.5V3c-.1 3.8-.2 9.1-.2 14.5 0 6.9 0 14.1.2 18.8v.1c.1 2.7-2 5-4.7 5.2h-.3c-1.9 0-3.7-1.1-4.7-2.7-3.8-6-14-24.7-17-29.6-.2-.3-.6-1-.9-1-.3 0-.3.5-.3 3.1 0 5.7.2 21.8.3 27.5v.1c0 1.7-1.5 2.6-3.1 2.6-1.5.2-3-.8-3.2-2.4-.2-.2-.2-.3-.1-.5zm56.5-13.6c.1-.6-.1-1.3-.5-1.8-4-6-9.5-14.1-12.1-18.1-.4-.6-.6-1.2-.7-1.9.1-1.9 1.6-3.3 3.4-3.4 1.1 0 2.1.6 2.6 1.6 2.3 4 6.1 9.7 9.9 15.3.1.3.4.4.6.5.3 0 .5-.1.7-.4 3.6-4.9 6.9-10.1 9.9-15.4.5-.9 1.4-1.5 2.5-1.5 1.9 0 3.5 1.5 3.7 3.4 0 .6-.2 1.1-.5 1.6-2.5 3.9-8.6 13-12.1 18-.5.6-.7 1.4-.6 2.1v13.2c0 1.7-1.4 3.1-3.2 3.1h-.2c-1.8.1-3.3-1.2-3.4-3V25.1zm256.5 110.3l-7-.1c2.2 2.8 5.2 4.8 8.6 5.9.7.2 1.2.8 1.2 1.5 0 1-.9 1.7-1.8 1.7-1.2 0-7.6-2.9-11.5-9.1h-2.8c-4.2 7-10.5 9.8-11.5 9.8-.9 0-1.6-.6-1.7-1.5v-.1c0-.7.5-1.3 1.1-1.4 3.5-1.3 6.5-3.6 8.6-6.7l-7 .1c-.8.1-1.5-.5-1.6-1.3-.1-.8.5-1.5 1.3-1.6h8.8c.5-1.1.8-2.2 1.1-3.4.2-.8.8-1.3 1.6-1.2.9-.1 1.7.6 1.9 1.5-.2 1.1-.5 2.2-1.1 3.1h12c.8-.1 1.5.5 1.6 1.3v.1c0 .8-.7 1.5-1.5 1.5h-.2l-.1-.1zm-23.6 20.7c-.9 0-1.6-.7-1.6-1.6 0-.6.4-1.2 1-1.4 2-.7 3.8-2 5-3.7.3-.3.7-.6 1.1-.6.9.1 1.6.7 1.6 1.6.1 1.7-5.8 5.7-7.1 5.7zm13.4-8.7v5.7c0 2.1-1.6 4.3-5.2 4.3-1.3 0-3.4-.2-3.4-1.9-.1-.8.5-1.4 1.3-1.5h.5c.5.1.9.2 1.4.2 1.2 0 2.3-.5 2.3-1.9v-4.9h-8.1c-.8 0-1.4-.6-1.4-1.4 0-.8.6-1.4 1.4-1.4h19.4c.8 0 1.4.6 1.4 1.4 0 .8-.6 1.4-1.4 1.4H452zm-5.3-5.4c-.7.1-1.4-.5-1.4-1.2v-.1c0-.8.6-1.4 1.3-1.4h7.6c.8.1 1.3.8 1.2 1.5-.1.6-.6 1.1-1.2 1.2h-7.5zm13.6 13.4c-1.4-1.6-3.2-2.8-5.1-3.7-.5-.2-.9-.7-.9-1.2 0-.9.7-1.6 1.5-1.6 2.6.8 4.9 2.1 6.8 3.9.4.3.6.8.6 1.3 0 .9-.7 1.7-1.6 1.8-.5 0-1-.2-1.3-.5zm26.9-23.4l3.4.1c2.7 0 3.6 1.4 3.7 3.2 0 1 .1 2.2.1 3.3v3.4c-.1 3.2-2.5 3.4-7.5 3.4.4 1.1.9 2.2 1.6 3.2 2.4-.8 4.6-1.9 6.7-3.3.2-.2.5-.2.8-.2.9.1 1.7.8 1.7 1.8 0 .6-.4 1.1-.9 1.4-2 1-4.1 1.9-6.2 2.5 2.3 1.8 5.1 2.9 8.1 3.2.8.1 1.3.8 1.3 1.6 0 1-.7 1.7-1.7 1.8h-.1c-6.8-.7-12.4-5.5-14.4-12h-4.2v7.5c1.7-.4 3.3-1 4.8-1.6.2-.1.5-.2.8-.2.8 0 1.4.6 1.4 1.4 0 .8-.6 1.4-1.3 1.6-3.9 1.6-8 2.8-12.2 3.5-.9.1-1.7-.6-1.8-1.5v-.2c.1-.9.7-1.6 1.6-1.6 1.2-.2 2.3-.4 3.5-.7v-18.1c0-2.2 1.1-3.2 3.6-3.4 1.2-.1 2.4-.1 3.7-.1v-2.3c.2-1 1.1-1.6 2-1.5.7.1 1.3.7 1.5 1.5v2.3zm-7.7 8.1v2.8h3c2.7 0 5.3 0 7.4-.2 1.3 0 1.4-.9 1.4-2.7l-11.8.1zm11.9-2.5c0-1.8-.2-2.7-1.4-2.7h-9.2c-1.3 0-1.3.7-1.3 2.7h11.9zm-222.6 56.2c-2.2 2.9-3.3 3.9-4.5 3.9-1.1 0-2-.9-2.1-2 0-.6.3-1.2.7-1.6 4.5-4.5 7.8-10.1 9.7-16.1.2-.9 1.1-1.6 2.1-1.6 1.3 0 2.3 1 2.4 2.2 0 1-1.8 4.8-4 8.8l-.5 26.4c0 1.1-1 2-2.1 2h-.1c-1.1.1-2-.8-2.1-1.8v-.2l.5-20zm31.1-2v4.7c-.1 2.9-1.9 4.3-4.9 4.4-1.6 0-3.6.1-5.7.1-1 6.1-4.8 11.3-10.3 14.1-.4.3-1 .4-1.5.4-1.2 0-2.1-.9-2.2-2 0-.8.5-1.5 1.3-1.8 4.3-2 7.5-5.9 8.5-10.6h-6.7c-1 0-1.8-.8-1.8-1.8v-.1c-.1-.9.7-1.7 1.6-1.8h7.4c.1-1.4.2-3 .2-4.5v-1.1h-9.4c-1-.1-1.7-1-1.6-1.9.1-.8.8-1.5 1.6-1.6h9.4c0-1.7 0-3.6-.1-5.2h-6.5c-1 0-1.9-.8-1.9-1.9s.8-1.9 1.9-1.9h16c2.9 0 4.7 1.5 4.8 4.3v4.4h2.4c1 .1 1.8 1 1.7 2-.1.9-.8 1.6-1.7 1.7l-2.5.1zm-10-.1v1.3c0 1.5 0 3-.2 4.4h4.4c1.8-.1 1.8-.8 1.8-5.6l-6-.1zm6-3.5c0-4.8 0-5.2-1.6-5.2h-4.4v5.2h6zm19 27.2c-1.3 0-2.4-1.1-2.5-2.4 0-.7.4-1.4 1.1-1.7 2.3-1.2 4.3-2.8 6-4.7v-7.3c0-1.2-.5-1.3-2.1-1.3h-1.7c-.9 0-2.5 0-2.5-1.9-.1-1.1.8-2 1.8-2h4.5c2.9.1 4.2 1.4 4.2 4.2 0 2.6-.1 5.7-.1 8.6 2.8 3.6 7.4 4.5 13.7 4.5 4.5 0 9.4-.5 12.8-.8h.2c1.1 0 2.1.8 2.2 2v.1c0 1.2-1 2.2-2.2 2.2-2.8.3-6.9.5-11 .5-10.4 0-13.7-1.6-17.6-5.5-2.3 2.7-5 5.5-6.8 5.5zm5.5-29.4c-1.2-1.6-2.7-2.9-4.4-3.9-.5-.3-.9-.8-.9-1.4.1-1.2 1.1-2 2.3-2 1.3 0 6.9 3.5 6.9 5.7 0 1.3-1.1 2.4-2.4 2.5-.6 0-1.2-.3-1.5-.9zm19.1 20.4v2.5c0 1-.8 1.8-1.8 1.8h-.1c-1 .1-1.9-.6-2.1-1.6v-2.6h-8.3c-.9 0-1.6-.7-1.6-1.6s.7-1.6 1.6-1.6h8.3V201h-6.2c-.9-.2-1.3-1.1-1.1-2 .2-.5.6-.9 1.1-1.1h6.2v-2h-8.1c-.9 0-1.6-.7-1.6-1.6s.7-1.6 1.6-1.6h4.5c-.3-.6-.6-1.1-1-1.6-.1-.2-.2-.4-.2-.6 0-.5.5-.9 1.2-1.1h-5.3c-.9 0-1.6-.7-1.6-1.6s.7-1.6 1.6-1.6h8.8v-2.4h-6.6c-.9 0-1.6-.7-1.6-1.6s.7-1.6 1.6-1.6h6.6V178c.1-1 .9-1.8 2-1.8h.1c1-.1 1.9.6 2 1.6v3.1h7.1c.9 0 1.6.7 1.6 1.6s-.7 1.6-1.6 1.6h-7.1v2.4h9.6c.9 0 1.6.7 1.6 1.6 0 .9-.7 1.6-1.6 1.6h-6.2c.7.2 1.1.8 1.2 1.4 0 .2 0 .3-.1.5-.2.5-.4 1-.7 1.5h4.8c.9 0 1.6.7 1.6 1.6 0 .9-.7 1.6-1.6 1.6h-8.7v2h6.7c.8 0 1.5.6 1.5 1.4v.1c.1.8-.5 1.5-1.3 1.6h-6.9v2.3h9.2c.9 0 1.6.7 1.6 1.6 0 .9-.7 1.6-1.6 1.6l-9.1-.5zm-5.8-17c1.2.7 2 1.8 2.3 3.1.1.1.1.2.1.3h3.1c.4-.9.7-1.8.9-2.7 0-.3.2-.6.5-.8h-6.9zm34.4 25.5c-3.1 1.6-5.3-2.5-2.4-3.9 5.5-2.9 10.3-7 14.1-11.9-1.7-1.1-3.5-2-5.4-2.7-2.4-.9-.7-4.8 2.4-3.6 1.9.8 3.8 1.7 5.6 2.7 2.2-3.3 4.1-6.8 5.6-10.5 1.6-3.8 6.1-1.4 4.7 1.5-1.9 3.9-4.1 7.7-6.5 11.3 1.7 1.1 3.2 2.5 4.5 4.1.8 1.1.6 2.7-.5 3.5-.8.8-2.2.8-3 0l-.3-.3c-1.1-1.3-2.3-2.4-3.6-3.4-4 5.4-9.2 9.9-15.2 13.2zm43.7-21.9c-3.6.2-3.3-3.9-.3-4 2.6-.1 5.7-.2 8.9-.2.3-2 .4-3.9.4-5.9 0-3.4 4.7-3.1 4.7.2 0 1.9-.1 3.8-.4 5.7h5.1c3.5.1 6 1.9 5.9 5.6-.1 4.5-1 11-2.9 14.4-2.1 4.2-7.3 5.9-11.6 3.8-.6-.3-1.2-.7-1.7-1.1-1.1-.7-1.4-2.2-.6-3.2.7-1.1 2.2-1.4 3.2-.6.1.1.2.1.3.2 2.4 1.8 4.7 1 6.3-1.2 1.8-2.6 2.4-8.8 2.5-11.1.1-1.3-.8-2.5-2.2-2.6h-5.1c-1.9 8.1-6.2 17-14.2 21.4-2.9 1.6-5.7-2.2-2.1-4.1 6.1-3.3 9.9-10.1 11.7-17.3-2.9-.2-5.7-.1-7.9 0zm21.9-6.6c-2.3-1-.5-3.7 1.6-2.9 1.6.6 3.1 1.6 4.4 2.7 1.7 1.9-.9 4.6-2.3 2.8-1.1-1-2.3-1.9-3.7-2.6zm4.1-3.8c-2.3-.9-.7-3.6 1.4-3 1.7.6 3.2 1.5 4.5 2.6 1.8 1.8-.7 4.6-2.2 2.9-1.1-1-2.3-1.9-3.7-2.5zm33.7 16.6c-.1 3.3-.2 8.8-.1 13 .1 1.3-.8 2.4-2.1 2.6h-.1c-1.2.1-2.3-.7-2.4-1.9v-.4c.2-4 .6-9 .5-12.6-3.7 3.2-7.8 5.9-12.3 7.9-3 1.2-5-2.8-1.7-4 6.9-2.6 13.9-8.8 16.9-12.2.6-.7.7-1.1-.4-1-2.4 0-7.9.4-10.8.5-3.3.2-3.5-3.9-.2-4.2s10-.3 13.3-.4c4.4-.1 5.2 3.2 2.8 5.9-1.2 1.3-2.4 2.6-3.7 3.9.3.9.4 1.9.3 2.9zm-.1-15.4c-2.3-1.3-4.8-2.1-7.4-2.3-2.4-.1-2.1-3.9.7-3.7 2.5.2 6.7.8 8.9 2.5.9.6 1.2 1.9.5 2.9-.5.9-1.6 1.3-2.5.8l-.2-.2zm10.3 21.3c-2-2-4.4-3.6-7.1-4.7-2.2-.8-.9-4.2 1.9-3.2 3 1 5.7 2.6 8.1 4.7.9.9.9 2.3 0 3.2-.7.8-1.9.9-2.7.1-.1 0-.1-.1-.2-.1zM238.9 84.9H237c-2.9 0-6.5-.1-6.6-3.9v-6c0-3.7 0-7.8.1-9.7.1-3.8 3.5-3.9 6-3.9h1.8c5 .3 6.9 3 6.9 5.6.1 2.3-1.4 4.3-3.6 4.8-.3 0-.5.1-.5.2 0 0 .1.1.5.1 3 .2 5.2 2.7 5 5.7 0 3.3-2.4 6.7-7.7 7.1zm4.2-7.4c0-2.1-1.8-3.8-3.9-3.7h-.1c-.8 0-1.6-.1-2.3-.1-2.8 0-3.1.1-3.1.7 0 3.8 0 5.2.1 6 .1 1.1.5 1.5 3.2 1.5h2c2.3-.2 4.1-2.1 4.1-4.4zm-6.7-12.9c-1.9 0-2.5.2-2.6 1.4v4.2c0 .6.4.6 2.4.6h2.1c1.9 0 3.5-1.5 3.6-3.4 0-1.4-1.1-2.8-3.8-2.8h-1.7zm24.8 21.1c-.7.1-1.3-.4-1.4-1-.1-.7.4-1.3 1-1.4h10.4v-2.7h-7.3c-.7.1-1.3-.3-1.4-1-.1-.7.3-1.3 1-1.4h7.6v-1.7c-.3.2-.6.3-1 .3-.7.1-1.3-.4-1.3-1v-6h-2.9c-.7 4.8-3.5 7.6-4.8 7.6-.7 0-1.3-.5-1.3-1.2v-.1c0-.4.2-.8.5-1 1.7-1.3 2.8-3.2 3.1-5.3H261c-.7.1-1.3-.4-1.3-1.1v-.1c0-.7.6-1.3 1.3-1.2h2.6v-3.5H262c-.7.1-1.3-.5-1.3-1.1v-.1c0-.7.6-1.3 1.3-1.3h11c.7 0 1.2.5 1.2 1.1v.1c0 .6-.4 1.2-1.1 1.2h-1.7v3.5h2.4c.7 0 1.2.6 1.2 1.2s-.6 1.2-1.2 1.2h-2.5v5.6c.3-.3.7-.4 1.1-.4.8 0 1.4.6 1.5 1.3v2h7c.7-.1 1.3.3 1.4 1 .1.7-.3 1.3-1 1.4h-7.4v2.7h9.8c.7 0 1.3.5 1.3 1.3 0 .7-.5 1.2-1.2 1.2h-.1l-22.5-.1zm7.6-22h-2.7v3.5h2.7v-3.5zm7-1c0-.7.5-1.3 1.2-1.3h.1c.7 0 1.3.5 1.4 1.2v9c-.1.7-.7 1.3-1.5 1.2-.6-.1-1.1-.6-1.2-1.2v-8.9zm8.5 10.2c.1 2-1.5 3.7-3.5 3.8h-.6c-2 0-3.1-.5-3.1-1.6 0-.8.5-1.4 1.3-1.5h.4c.5.1.9.2 1.4.2.7 0 1.2-.3 1.3-1.5s0-6.4 0-9.4v-1.6c0-.7.5-1.3 1.2-1.3h.2c.7 0 1.3.5 1.4 1.2v11.7zM105.5 84.8v-5.3c-1.5 1.9-3.3 3.5-5.3 4.7-.2.1-.4.2-.6.2-.5 0-.9-.4-.9-.9 0-.3.2-.6.5-.8 2.2-1.2 4.1-2.8 5.6-4.8h-3.7c-.4 0-.8-.4-.8-.8s.4-.8.8-.8h4.4v-2h-5.3c-.4 0-.8-.3-.8-.7v-.1c0-.4.3-.8.7-.8h5.4v-1.9c0-.4.4-.7.8-.7h.1c.4-.1.8.3.9.7v1.9h5.5c.4 0 .7.4.7.8s-.3.8-.7.8h-5.6v2.2h4.5c.4 0 .7.4.7.8s-.2.8-.6.8h-3.9c1.6 1.9 3.5 3.5 5.7 4.6.3.1.5.4.5.7 0 .6-.5 1-1 1-.8 0-3.8-2.3-5.8-4.8V85c0 .5-.4.7-.9.7s-.9-.2-.9-.7v-.2zm18.8-.1c-1.4.2-1.5-1.5-.3-1.6 1.3-.1 2.6-.6 3.6-1.5s1.1-1.9.6-2.5c-.9-.8-2.1-1-3.2-.5-1.2.4-2.4 1-3.6 1.6-.4.2-1 0-1.2-.4-.2-.4 0-1 .4-1.2 1.3-.6 2.6-1.1 4-1.5 1.6-.5 3.4-.2 4.7.9 1.5 1.5.9 3.5-.7 4.8-1.3 1.1-2.8 1.7-4.3 1.9zm21.4-6.2v.9c0 .9-.1 1.9-.4 2.8-.4 1.9-2.2 3.3-4.1 3.2-1.7 0-2.2-.6-2.2-1.1 0-.5.3-.8.8-.9h.3c.4.1.7.2 1.1.2 1.2.1 2.2-.7 2.4-1.9.2-.8.3-1.5.3-2.3v-.9h-7.3c-.4 0-.8-.3-.8-.7v-.1c0-.4.3-.8.7-.8h7c-.3-.7-.8-1.4-1.5-1.8-.2-.1-.3-.3-.3-.5.1-.5.5-.8.9-.7.2 0 .3 0 .5.1.3.1.5.3.7.5.7-.5 1.4-1.2 2-1.9 0 0 0-.1-.3-.1H144c-1.5 0-3.2 0-4.8.1-.4 0-.8-.3-.8-.7 0-.4.3-.8.8-.8h7.4c1.1 0 1.6.6 1.6 1.2 0 .4-.2.7-.4 1-.9.9-1.9 1.7-2.9 2.4.2.4.4.8.5 1.3h4.8c.4 0 .7.3.7.7v.1c0 .4-.3.8-.7.8l-4.5-.1z" fill="#f6bc9e"/></svg>