<svg xmlns="http://www.w3.org/2000/svg" viewBox="0 0 309.75 133.78"><path d="M164.72 79.35a.77.77 0 1 1-.48-1.45 12.13 12.13 0 0 0 6.27-5.57c.13-.25.07-.49-.25-.49-.95 0-3 .06-4.33.09a.73.73 0 0 1 0-1.45c1.1 0 3.29-.07 4.8-.07 1.35 0 2.11.85 1.53 1.87a25.18 25.18 0 0 1-1.66 2.54 15.36 15.36 0 0 1 3.83 3c.6.84-.53 2-1.23 1.12a15.67 15.67 0 0 0-3.5-3 12.57 12.57 0 0 1-4.98 3.41zm16.05-2.22c-1.37.84-2.15-.68-1.13-1.18a19.77 19.77 0 0 0 7.3-6.76.78.78 0 1 1 1.33.8c-.68.89-1.32 1.7-2 2.45-.05 1.52-.08 5.44 0 6.94a.79.79 0 1 1-1.57 0c0-1.19.07-3.63.09-5.38a21.67 21.67 0 0 1-4.02 3.13zm13.6-2.45a.72.72 0 0 1-.79-.72.76.76 0 0 1 .79-.76h9.39a.73.73 0 0 1 .77.75.72.72 0 0 1-.77.73zm16.5-.63a5.29 5.29 0 0 0-1.21-1.61c-.69-.58.3-1.63 1.11-.9a7.79 7.79 0 0 1 1.48 1.78.79.79 0 0 1-.3 1.11.76.76 0 0 1-1.08-.38zm0 4.53a11.09 11.09 0 0 0 6.54-7.83.84.84 0 1 1 1.61.45 13.2 13.2 0 0 1-7.35 8.8c-1.25.5-1.74-1-.77-1.42zm2.74-5.58a5.3 5.3 0 0 0-1-1.78c-.6-.67.52-1.57 1.22-.73a7.52 7.52 0 0 1 1.23 2 .8.8 0 0 1-.45 1.07.77.77 0 0 1-1-.56zM.66 88.08c-1.19-3.57-.49-7.35-.09-9.77.15-1 .31-1.84.46-2.79.2-1.24 2.17-1 2 .13-.14.8-.37 1.76-.55 2.72-.39 2.17-.86 3.73-.72 5.22.06.58.12.8.37.21a3 3 0 0 0 .23-.43c.51-1.15 1.88-.15 1.39.73a9.26 9.26 0 0 0-1 3.1c-.06.39.07 1.16-.28 1.51S1 89.12.66 88.08zm6 .22a2 2 0 0 1 .16-3.89 5.66 5.66 0 0 1 3.36-.29 2.73 2.73 0 0 0 0-.38C10 82.73 10 82 10 81.22a8.46 8.46 0 0 1-3.89.1.9.9 0 1 1 .62-1.68 7.42 7.42 0 0 0 3.27-.22 7.43 7.43 0 0 0-.3-1.64c-.17-1 1.51-1.29 1.84-.37a3.38 3.38 0 0 1 .24 1.47c.29-.12.56-.22.78-.34 1.09-.54 2.07 1 .6 1.67a14.92 14.92 0 0 1-1.5.56 16.45 16.45 0 0 0 0 2.78c0 .33.08.72.11 1.09a8 8 0 0 1 2.31 1.51c.94.88-.27 2.52-1.27 1.48a7.58 7.58 0 0 0-1.15-1 3.62 3.62 0 0 1-5.04 1.67zm.14-11.57a.86.86 0 1 1 .45-1.66 15 15 0 0 0 4.93-.65c1.17-.35 1.89 1.35.35 1.76a14.53 14.53 0 0 1-5.77.55zm3.27 9a3.65 3.65 0 0 0-2.68 0 .6.6 0 0 0 0 1.13 1.83 1.83 0 0 0 2.68-1zm15.25 2.55c3.49-2.46 4.57-5.92 3.77-8.19-.55-1.53-2-1.6-3.36-.8a13.15 13.15 0 0 1-1.9.9 1.07 1.07 0 1 1-.61-2c.51-.17 1.14-.39 1.68-.62 2-.88 4.87-.8 5.91 1.44 1.5 3.27-.16 7.9-4.07 10.78-1.29.91-2.58-.69-1.42-1.51zm-.42-14c-1.11-.62-.29-2.15 1.08-1.52a13.34 13.34 0 0 0 3 .86c1.6.27 1 2.25-.49 2a12.41 12.41 0 0 1-3.59-1.32zM41.64 85c-.08-2 .14-3.71.23-5.78.06-1.27.2-3.19.16-4.4a1.07 1.07 0 0 1 2.13 0c0 1.23-.17 3.09-.27 4.4a52.87 52.87 0 0 0-.35 5.78c.11 2.85 3.59 2.65 7 0a1.09 1.09 0 1 1 1.35 1.7c-3.82 3.05-10.07 3.61-10.25-1.7zm5.61-7.23c-1.08-.45-.23-1.7.74-1.33a7.35 7.35 0 0 1 2.11 1.25c.82.88-.41 2.17-1.11 1.35a7.22 7.22 0 0 0-1.74-1.24zM49.32 76c-1.09-.41-.29-1.7.71-1.36a6.75 6.75 0 0 1 2.13 1.19c.86.84-.36 2.17-1.08 1.37a7.21 7.21 0 0 0-1.76-1.2zm19.34 2.41c-.24-.22-.39-.31-.57-.31s-.31.09-.51.31c-2.46 2.56-6.12 5.14-7.07 5.14a.93.93 0 0 1-.94-1 1 1 0 0 1 .64-.92 19.83 19.83 0 0 0 6.06-4.36 2.38 2.38 0 0 1 1.73-.8 3 3 0 0 1 1.9.84 22.23 22.23 0 0 0 6.1 3.93 1 1 0 0 1-.34 1.9c-1.1 0-4.66-2.58-7-4.73zm3-2.74v.72a.85.85 0 0 1-.92.81.81.81 0 0 1-.9-.75v-.78h-3.63v.72a.85.85 0 0 1-.91.81.79.79 0 0 1-.88-.75v-.78h-3.78a.85.85 0 1 1 0-1.7h3.78V73a.91.91 0 0 1 1.79 0v1h3.62v-1a.83.83 0 0 1 .92-.76.81.81 0 0 1 .9.76v1h3.91a.85.85 0 1 1 0 1.7zM61.93 89a1 1 0 0 1-1-1 .91.91 0 0 1 .62-.84 6.15 6.15 0 0 0 2.8-2.15.75.75 0 0 1 .65-.31 1 1 0 0 1 .94 1c0 1.02-3.24 3.3-4.01 3.3zM69 83.72v5.13a.91.91 0 0 1-1.82 0v-5.13H63.9a.77.77 0 0 1-.82-.8.8.8 0 0 1 .84-.82h3.28v-1.42a.89.89 0 1 1 1.78 0v1.46h3.36a.81.81 0 0 1 0 1.62zm4.32 4.75a7.61 7.61 0 0 0-2.72-2 .82.82 0 0 1-.51-.74.93.93 0 0 1 .88-.94A9.21 9.21 0 0 1 74.72 87a1.16 1.16 0 0 1 .33.78 1.09 1.09 0 0 1-1 1.08.89.89 0 0 1-.7-.39zm13.6.34c-1.6.49-2.33-1.45-.76-1.86 3.85-1 6.33-3.4 7.21-5.88.19-.53.1-.84-.65-.86-2 0-5.63 0-7.72.09a.93.93 0 1 1-.06-1.83c2.53-.06 5.81-.08 8.47-.06 2 0 2.91 1.11 2.11 3-1.37 3.29-3.75 5.91-8.6 7.4zm6.21-12.2c-1.83 0-4.53.06-6.64 0-1.29 0-1.37-1.84.13-1.82h6.59a1 1 0 0 1 1.06.9c0 .47-.33.92-1.14.92zm13.18 12.18c-1.91.66-2.23-1.43-.86-1.8a6.48 6.48 0 0 0 5-6.16c-2.17 0-4.32.1-5.69.14a.89.89 0 0 1-1-.88 1 1 0 0 1 1.12-1c2.77 0 8.93-.08 12.11-.1a.86.86 0 0 1 1 .94 1 1 0 0 1-1.07.88c-1.08 0-2.68-.06-4.4 0a8.72 8.72 0 0 1-6.21 7.98zm8.43-11.89c-2.7 0-5.63.12-7.72.12a.92.92 0 1 1 0-1.82c2.46 0 5.06-.06 7.62-.12a.91.91 0 1 1 .08 1.82zM259.8 41h-2.13a4.53 4.53 0 0 0 2.27 2.38.53.53 0 0 1 .34.49.56.56 0 0 1-.56.55c-.68 0-2.25-1.43-2.71-2.89a5.55 5.55 0 0 1-4.12 3.13.48.48 0 0 1-.48-.49.51.51 0 0 1 .44-.5 3.93 3.93 0 0 0 3.29-2.67h-1.83a.51.51 0 0 1-.3-.08v.5c0 .92-.62 1-1.54 1h-.61a.91.91 0 0 1-.83-1v-4.54a.86.86 0 0 1 .81-1h1.29a.9.9 0 0 1 .88.9v3.4a.44.44 0 0 1 .29-.1h.29v-2.39c0-.48.26-1 1.12-1h.68v-1a.47.47 0 0 1 .48-.51.51.51 0 0 1 .53.5v1h.7c.72 0 1.12.4 1.13.91s0 1.08 0 1.71v.77h.54a.43.43 0 0 1 .44.44.42.42 0 0 1-.43.44zm-6.71-2.38v-1.56c0-.44-.29-.32-.56-.32-.48 0-.56.1-.56.33v1.55zm-1.17.84v1.77c0 .19.05.32.56.32h.25c.34 0 .34 0 .34-2.08zm4.41.66a6.52 6.52 0 0 0 .08-1.13v-1.4c-.71 0-.84.06-.86.41s0 .68 0 1.15v1zm1.95 0v-2.19c0-.19-.16-.37-.86-.37V39a9.77 9.77 0 0 1-.06 1.08zm8.95-3.28v.81h.93a1.09 1.09 0 0 1 1.1.93v2.89a1.15 1.15 0 0 1-1.16 1.07h-2.59a1.11 1.11 0 0 1-1.2-1.06v-2.81a1 1 0 0 1 1.14-1h.8v-.8h-3.19a.48.48 0 0 1-.51-.48.5.5 0 0 1 .51-.5h7.5a.46.46 0 0 1 .48.49.47.47 0 0 1-.48.49zm-3.59 1.79v3.94c0 .45.17.66.68.69s1.53 0 2.44 0h2.4c.43 0 .7-.24.72-.66s0-1.18 0-1.83v-2.1a.49.49 0 0 1 .53-.48.51.51 0 0 1 .55.5v4.13a1.47 1.47 0 0 1-1.53 1.43h-5.42a1.3 1.3 0 0 1-1.4-1.4v-4.2a.49.49 0 0 1 .5-.5.5.5 0 0 1 .53.49zm2.61-.18h-.54a.43.43 0 0 0-.47.43v.77h1zm0 2h-1v.89c0 .41.16.43 1 .43zm2.06-.77v-.78c0-.42-.27-.44-1.07-.44v1.22zm-.48 2.08c.28 0 .46-.1.47-.43s0-.52 0-.88h-1.08v1.32zM92.44 24c.06-3.48.1-7.57.1-11.46 0-3.38 0-6.59-.07-9.12v-.11C92.47 1 93.79 0 95.27 0a4.08 4.08 0 0 1 3.32 1.83c2.13 3.38 7.77 13.92 10.34 17.77.2.31.37.48.47.48s.24-.11.24-1.42c0-3.18-.1-13.73-.2-16.83a2 2 0 0 1 3.92-.07v.07c-.07 2.36-.1 5.64-.1 9 0 4.29 0 8.72.1 11.66v.07a3.06 3.06 0 0 1-3.08 3.21 3.46 3.46 0 0 1-2.91-1.69C105 20.35 98.69 8.79 96.86 5.71c-.13-.2-.37-.64-.54-.64s-.2.34-.2 1.89c0 3.52.1 13.49.2 17.07v.07c0 1.08-.94 1.59-1.92 1.59a1.75 1.75 0 0 1-2-1.63zm35.05-8.42a1.32 1.32 0 0 0-.34-1.11c-2.47-3.72-5.88-8.76-7.5-11.19a2.18 2.18 0 0 1-.41-1.18 2.18 2.18 0 0 1 2.13-2.1 1.84 1.84 0 0 1 1.62 1c1.42 2.47 3.79 6 6.16 9.49a.48.48 0 0 0 .4.28.45.45 0 0 0 .41-.24A96.21 96.21 0 0 0 136.07 1a1.68 1.68 0 0 1 1.52-.94 2.33 2.33 0 0 1 2.27 2.09 1.84 1.84 0 0 1-.3 1c-1.53 2.44-5.31 8.08-7.51 11.16a1.72 1.72 0 0 0-.4 1.32v8.17a1.93 1.93 0 0 1-2.06 1.9 2 2 0 0 1-2.13-2zm158.93 68.3l-4.35-.07a11.2 11.2 0 0 0 5.35 3.63 1 1 0 0 1 .76.93 1.11 1.11 0 0 1-1.13 1.06c-.72 0-4.71-1.82-7.15-5.66h-1.73c-2.58 4.33-6.5 6.07-7.13 6.07a1 1 0 0 1-1.05-1 .93.93 0 0 1 .7-.88 11 11 0 0 0 5.31-4.15l-4.35.07a.9.9 0 1 1 0-1.79h5.29a9.13 9.13 0 0 0 .66-2.11.93.93 0 0 1 1-.74 1.06 1.06 0 0 1 1.15.92 6.52 6.52 0 0 1-.66 1.95h7.41a.9.9 0 0 1 1 .88.91.91 0 0 1-1 .91zm-14.65 12.83a1 1 0 0 1-1-1 .89.89 0 0 1 .65-.86 6.82 6.82 0 0 0 3.12-2.32.88.88 0 0 1 .68-.35 1.07 1.07 0 0 1 1 1c0 1.05-3.63 3.53-4.45 3.53zm8.31-5.35v3.51c0 1.29-1 2.68-3.22 2.68-.8 0-2.09-.1-2.09-1.16a.87.87 0 0 1 .84-.93 1.36 1.36 0 0 1 .27 0 3.56 3.56 0 0 0 .86.11c.76 0 1.41-.29 1.41-1.17v-3.04h-5a.85.85 0 1 1 0-1.7h12a.85.85 0 0 1 0 1.7zM276.8 88a.83.83 0 0 1-.9-.82.85.85 0 0 1 .9-.87h4.67a.85.85 0 0 1 0 1.69zm8.39 8.28A9 9 0 0 0 282 94a.85.85 0 0 1-.56-.76 1 1 0 0 1 .95-1 10.6 10.6 0 0 1 4.24 2.42 1.15 1.15 0 0 1 .37.82 1.1 1.1 0 0 1-1 1.11 1 1 0 0 1-.81-.33zm16.68-14.48l2.13.07c1.65 0 2.26.84 2.32 2 0 .62.06 1.34.06 2.06v2.09c-.06 2-1.54 2.11-4.63 2.11a8 8 0 0 0 1 2 16.65 16.65 0 0 0 4.13-2.07.84.84 0 0 1 .47-.15 1.16 1.16 0 0 1 1.06 1.09.94.94 0 0 1-.57.84 21.38 21.38 0 0 1-3.84 1.57 10 10 0 0 0 5 2 1 1 0 0 1 .82 1 1.07 1.07 0 0 1-1.09 1.1 10.55 10.55 0 0 1-8.94-7.42h-2.61v4.65a21.67 21.67 0 0 0 3-1 1.42 1.42 0 0 1 .47-.1.87.87 0 0 1 .88.84 1.08 1.08 0 0 1-.8 1 34.8 34.8 0 0 1-7.56 2.16 1 1 0 0 1-1.09-1 1.07 1.07 0 0 1 1-1c.72-.11 1.44-.25 2.16-.41V83.99c0-1.37.71-2 2.23-2.11.72-.05 1.5-.07 2.3-.07V80.4a1.1 1.1 0 0 1 2.17 0zm-4.76 5v1.74h1.87c1.68 0 3.28 0 4.59-.1.8 0 .89-.58.89-1.66zm7.39-1.52c0-1.09-.11-1.68-.89-1.7h-5.68c-.78 0-.8.45-.8 1.68zm-137.93 34.83c-1.36 1.78-2.06 2.39-2.81 2.39a1.27 1.27 0 0 1-1.28-1.22 1.36 1.36 0 0 1 .45-1 24.51 24.51 0 0 0 6-10 1.33 1.33 0 0 1 1.28-1 1.45 1.45 0 0 1 1.47 1.37c0 .61-1.14 3-2.5 5.44l-.3 16.34a1.28 1.28 0 0 1-1.34 1.25 1.21 1.21 0 0 1-1.28-1.19v-.06zm19.28-1.25v2.92c-.09 1.78-1.2 2.66-3.06 2.72-1 0-2.22.06-3.53.06a12 12 0 0 1-6.39 8.75 1.8 1.8 0 0 1-.92.25 1.31 1.31 0 0 1-1.36-1.28 1.3 1.3 0 0 1 .78-1.14 9.52 9.52 0 0 0 5.28-6.58h-4.14a1.11 1.11 0 0 1-1.09-1.17 1.05 1.05 0 0 1 1.06-1.11h4.5c.08-.89.11-1.84.11-2.78v-.7h-5.81a1.1 1.1 0 0 1 0-2.19h5.81c0-1.08 0-2.2-.06-3.22h-4a1.15 1.15 0 0 1 0-2.3h9.89c1.81 0 2.89.92 3 2.67v2.75h1.48a1.16 1.16 0 0 1 0 2.31zm-6.22-.06v.78c0 .92 0 1.84-.11 2.7h2.72c1.11-.06 1.11-.47 1.11-3.45zm3.72-2.19c0-3 0-3.2-1-3.2h-2.75v3.22zm11.78 16.86a1.57 1.57 0 0 1-1.53-1.47 1.17 1.17 0 0 1 .69-1.05 13.57 13.57 0 0 0 3.73-2.89v-4.53c0-.73-.33-.81-1.28-.81h-1.08c-.53 0-1.53 0-1.53-1.19a1.19 1.19 0 0 1 1.17-1.25h2.7c1.77.06 2.61.84 2.61 2.62 0 1.61-.06 3.53-.06 5.3 1.75 2.23 4.61 2.81 8.48 2.81 2.78 0 5.8-.31 7.92-.47h.13a1.29 1.29 0 0 1 1.34 1.33 1.36 1.36 0 0 1-1.39 1.36c-1.72.17-4.28.34-6.84.34-6.47 0-8.5-1-10.92-3.42-1.34 1.57-3.06 3.32-4.14 3.32zm3.39-18.22a8.25 8.25 0 0 0-2.73-2.42 1 1 0 0 1-.55-.86 1.43 1.43 0 0 1 1.42-1.25c.83 0 4.3 2.14 4.3 3.55a1.62 1.62 0 0 1-1.5 1.56 1.1 1.1 0 0 1-.94-.58zm11.83 12.64v1.56a1.11 1.11 0 0 1-1.22 1.08 1.15 1.15 0 0 1-1.28-1.08v-1.56h-5.16a1 1 0 0 1 0-2h5.16v-1.41h-3.86a1 1 0 0 1 0-1.92h3.86v-1.25h-5a1 1 0 1 1 0-2h2.81a5.82 5.82 0 0 0-.59-1 .84.84 0 0 1-.14-.39c0-.33.31-.58.73-.69h-3.31a1 1 0 0 1 0-2h5.47v-1.48h-4.11a1 1 0 0 1 0-2h4.11v-1.59a1.15 1.15 0 0 1 1.28-1.08 1.11 1.11 0 0 1 1.22 1.08V112h4.39a1 1 0 0 1 0 2h-4.39v1.48h5.94a1 1 0 0 1 0 2h-3.83a1.06 1.06 0 0 1 .75.89.54.54 0 0 1-.06.3c-.11.28-.25.59-.41.92h3a1 1 0 0 1 0 2h-5.41v1.25h4.16a.9.9 0 0 1 .95.94.92.92 0 0 1-.95 1h-4.14v1.41h5.67a1 1 0 0 1 0 2zm-3.55-10.53a3 3 0 0 1 1.41 1.94.51.51 0 0 1 .06.2h1.95a6.82 6.82 0 0 0 .55-1.67.63.63 0 0 1 .31-.47zm21.28 15.81c-1.92 1-3.31-1.53-1.5-2.42a27 27 0 0 0 8.72-7.36 17.52 17.52 0 0 0-3.33-1.67c-1.5-.53-.45-3 1.5-2.25a26 26 0 0 1 3.5 1.67 35.77 35.77 0 0 0 3.5-6.5c1-2.34 3.81-.84 2.92.94a64.25 64.25 0 0 1-4 7 12 12 0 0 1 2.78 2.53 1.58 1.58 0 0 1-.31 2.19 1.3 1.3 0 0 1-2-.22 13 13 0 0 0-2.25-2.11 30.62 30.62 0 0 1-9.53 8.2zm27.06-13.56c-2.22.11-2.06-2.42-.2-2.5 1.59-.06 3.53-.11 5.53-.14a27.39 27.39 0 0 0 .23-3.67c0-2.11 2.94-1.89 2.91.11a23.87 23.87 0 0 1-.27 3.53h3.19c2.17.06 3.72 1.2 3.67 3.45-.08 2.8-.61 6.83-1.78 8.91a5.33 5.33 0 0 1-8.2 1.67 1.45 1.45 0 1 1 1.78-2.28c1.5 1.14 2.92.64 3.89-.77 1.09-1.62 1.5-5.45 1.53-6.9a1.49 1.49 0 0 0-1.53-1.63h-3c-1.16 5-3.83 10.55-8.78 13.25-1.78 1-3.53-1.34-1.3-2.53 3.8-2.06 6.14-6.28 7.22-10.7-1.78.06-3.5.14-4.89.2zm13.61-4.08c-1.41-.59-.3-2.28 1-1.81a8.82 8.82 0 0 1 2.75 1.69c1.08 1.17-.53 2.84-1.45 1.75a9.72 9.72 0 0 0-2.3-1.63zm2.53-2.39c-1.41-.56-.41-2.26.89-1.84a9 9 0 0 1 2.81 1.61c1.11 1.11-.45 2.84-1.39 1.78a9.94 9.94 0 0 0-2.31-1.55zm20.89 10.3c-.05 2.06-.13 5.48-.05 8.06a1.45 1.45 0 0 1-1.36 1.59 1.34 1.34 0 0 1-1.48-1.45c.12-2.5.37-5.56.34-7.83a31.78 31.78 0 0 1-7.62 4.89c-1.84.77-3.12-1.73-1.06-2.5 4.28-1.62 8.61-5.45 10.48-7.56.36-.42.41-.67-.23-.64-1.47 0-4.91.22-6.69.3-2.06.12-2.14-2.41-.14-2.58s6.17-.17 8.25-.22c2.72-.09 3.22 2 1.75 3.67a45.9 45.9 0 0 1-2.3 2.41 6.35 6.35 0 0 1 .11 1.86zm-.08-9.53a11.76 11.76 0 0 0-4.56-1.44c-1.47-.09-1.3-2.39.45-2.28 1.53.11 4.14.5 5.5 1.53a1.28 1.28 0 0 1 .31 1.8 1.16 1.16 0 0 1-1.7.39zm6.42 13.17a13 13 0 0 0-4.39-2.89c-1.39-.47-.56-2.61 1.17-2a14.59 14.59 0 0 1 5 2.89 1.41 1.41 0 0 1 0 2 1.2 1.2 0 0 1-1.78 0zm-150.45-74.5h-1.2c-1.82 0-4-.08-4.06-2.43v-3.72c0-2.29 0-4.84.06-6 .06-2.35 2.14-2.39 3.74-2.39h1.09c3.12.21 4.28 1.86 4.28 3.44a3 3 0 0 1-2.25 3c-.19 0-.3.08-.3.11s.07.06.28.08a3.33 3.33 0 0 1 3.12 3.51c-.04 2.05-1.51 4.21-4.76 4.4zm2.55-4.58a2.36 2.36 0 0 0-2.47-2.32c-.47 0-1-.06-1.43-.06-1.75 0-1.92.06-1.92.43 0 2.35 0 3.21.06 3.72.09.7.28.92 2 .92h1.26a2.62 2.62 0 0 0 2.5-2.69zm-4.13-8c-1.2 0-1.58.15-1.63.86v2.61c0 .39.26.39 1.5.39h1.28a2.26 2.26 0 0 0 2.22-2.13c0-.88-.7-1.71-2.35-1.71zm15.35 13.09a.78.78 0 1 1 0-1.54H168v-1.7h-4.5a.76.76 0 1 1 0-1.5h4.47V47.3a1 1 0 0 1-.6.19.74.74 0 0 1-.83-.71v-3.67h-1.82c-.44 3-2.16 4.68-3 4.68a.77.77 0 0 1-.82-.75.79.79 0 0 1 .32-.62 4.75 4.75 0 0 0 1.91-3.29h-1.5a.76.76 0 0 1-.83-.77.78.78 0 0 1 .83-.77h1.58v-2.14h-1a.77.77 0 0 1-.83-.75.79.79 0 0 1 .85-.79h6.93a.73.73 0 0 1 .75.77.72.72 0 0 1-.73.77h-1v2.14h1.51a.77.77 0 0 1 0 1.54h-1.52v3.48a1 1 0 0 1 .68-.27.86.86 0 0 1 .9.89v1.16h4.32a.76.76 0 1 1 0 1.5h-4.32v1.7h6.05a.8.8 0 0 1 .82.8.74.74 0 0 1-.82.74zm4.73-13.64h-1.67v2.16h1.69zm4.34-.58a.77.77 0 0 1 .81-.81.79.79 0 0 1 .84.81v5.52a.83.83 0 0 1-1.65 0zm5.29 6.33a2.24 2.24 0 0 1-2.53 2.31c-1.22 0-1.92-.28-1.92-1a.85.85 0 0 1 .81-.9 1.09 1.09 0 0 1 .25 0 3.89 3.89 0 0 0 .86.15c.43 0 .77-.19.79-.94s0-3.95 0-5.83V38a.78.78 0 0 1 .84-.81.8.8 0 0 1 .85.81v5.12zm-110.8 7.37v-3.28a11.87 11.87 0 0 1-3.29 2.94.73.73 0 0 1-.36.1.58.58 0 0 1-.56-.53.56.56 0 0 1 .33-.49 9.9 9.9 0 0 0 3.45-3h-2.29a.5.5 0 0 1 0-1h2.73v-1.25h-3.29a.46.46 0 0 1-.48-.49.47.47 0 0 1 .48-.5h3.3v-1.18a.46.46 0 0 1 .52-.44.49.49 0 0 1 .55.45v1.18h3.38a.46.46 0 0 1 .44.5.45.45 0 0 1-.44.49h-3.4v1.34h2.79a.47.47 0 0 1 .45.5.45.45 0 0 1-.44.5h-2.38a10.87 10.87 0 0 0 3.54 2.82.53.53 0 0 1 .31.45.66.66 0 0 1-.64.62c-.51 0-2.33-1.44-3.61-3v3.38c0 .29-.27.43-.55.43s-.53-.14-.53-.42zM77 52.49c-.85.13-.94-.9-.2-1a4.23 4.23 0 0 0 2.26-.9c.65-.57.68-1.16.36-1.53a1.94 1.94 0 0 0-2-.31 16.26 16.26 0 0 0-2.21 1 .53.53 0 1 1-.47-1 20.81 20.81 0 0 1 2.48-.93 3.06 3.06 0 0 1 2.9.55c.9.94.54 2.14-.44 3A5.49 5.49 0 0 1 77 52.49zm13.25-3.83a3.14 3.14 0 0 1 0 .54 7.52 7.52 0 0 1-.22 1.73 2.58 2.58 0 0 1-2.56 2c-1.08 0-1.38-.35-1.38-.7a.51.51 0 0 1 .5-.53h.21a2.2 2.2 0 0 0 .69.11A1.46 1.46 0 0 0 89 50.65a5.27 5.27 0 0 0 .21-1.43 4.8 4.8 0 0 0 0-.55h-4.54a.47.47 0 0 1-.49-.49.48.48 0 0 1 .5-.51h4.28a2.31 2.31 0 0 0-.93-1.1.34.34 0 0 1-.21-.31.53.53 0 0 1 .57-.46.83.83 0 0 1 .29.06 2.85 2.85 0 0 1 .45.29A7.45 7.45 0 0 0 90.39 45s0-.07-.18-.07h-.94c-.93 0-2 0-3 .06a.48.48 0 0 1-.5-.48.49.49 0 0 1 .53-.51h4.51c.66 0 1 .36 1 .75a.9.9 0 0 1-.26.63 14.91 14.91 0 0 1-1.79 1.51 4 4 0 0 1 .34.78h3a.44.44 0 0 1 .44.49.47.47 0 0 1-.45.51z" fill="#f6bc9e" data-name="レイヤー 2"/></svg>