<svg xmlns="http://www.w3.org/2000/svg" viewBox="0 0 157.99 15.65"><path d="M0 0h2.69v7l6.83-7h3.32L6.71 6.13l6.56 9.22H9.91L4.88 8l-2.19 2.19v5.16H0zm21.09 15.65a5.89 5.89 0 0 1-2.37-.44A5.07 5.07 0 0 1 17 14a5.27 5.27 0 0 1-1.09-1.85 7.18 7.18 0 0 1-.38-2.37 7.09 7.09 0 0 1 .38-2.34A5.18 5.18 0 0 1 17 5.59a4.94 4.94 0 0 1 1.77-1.21 5.89 5.89 0 0 1 2.37-.45 6 6 0 0 1 2.38.45 5 5 0 0 1 1.76 1.21 5.2 5.2 0 0 1 1.1 1.85 7.09 7.09 0 0 1 .37 2.34 7.18 7.18 0 0 1-.37 2.37A5.29 5.29 0 0 1 25.23 14a5.12 5.12 0 0 1-1.76 1.21 6 6 0 0 1-2.38.44zm0-1.93a2.79 2.79 0 0 0 1.42-.35 3.05 3.05 0 0 0 1-.9 3.81 3.81 0 0 0 .57-1.26 5.66 5.66 0 0 0 .18-1.43 5.82 5.82 0 0 0-.18-1.42 3.67 3.67 0 0 0-.57-1.25 3.05 3.05 0 0 0-1-.9 3.14 3.14 0 0 0-2.84 0 3.05 3.05 0 0 0-1 .9 4.09 4.09 0 0 0-.57 1.25 5.82 5.82 0 0 0-.18 1.42 5.66 5.66 0 0 0 .18 1.43 4.26 4.26 0 0 0 .57 1.26 3.05 3.05 0 0 0 1 .9 2.82 2.82 0 0 0 1.42.35zM30.42 0h2.45v8.73l4.43-4.49h3l-4.24 4.08 4.66 7h-3L34.34 10l-1.47 1.41v4h-2.45zm22.86 15.35h-2.41V13.8a3.37 3.37 0 0 1-1.35 1.35 3.69 3.69 0 0 1-1.81.5 4.11 4.11 0 0 1-3.18-1.08 4.8 4.8 0 0 1-1-3.28v-7H46v6.81a3 3 0 0 0 .56 2.07 2 2 0 0 0 1.57.6 3.1 3.1 0 0 0 1.29-.24 2.31 2.31 0 0 0 .83-.63 2.54 2.54 0 0 0 .47-1 5.09 5.09 0 0 0 .14-1.21V4.24h2.45zM57.47 0h2.45v5.7a3.66 3.66 0 0 1 1.35-1.26 3.93 3.93 0 0 1 2-.51 4.17 4.17 0 0 1 2.88.95 3.63 3.63 0 0 1 1 2.84v7.63h-2.37v-7a3 3 0 0 0-.56-1.9 2 2 0 0 0-1.61-.59 2.67 2.67 0 0 0-1.12.22 2.51 2.51 0 0 0-.84.63 3 3 0 0 0-.54.93 3.59 3.59 0 0 0-.19 1.14v6.56h-2.45zm23.26 12.88a1.27 1.27 0 0 0 .12.64.51.51 0 0 0 .46.2h.26a1.63 1.63 0 0 0 .35-.05v1.7l-.34.1-.42.1c-.14 0-.28 0-.43.06h-.36a2.39 2.39 0 0 1-1.25-.3 1.49 1.49 0 0 1-.64-1 4.45 4.45 0 0 1-1.8 1 6.88 6.88 0 0 1-2.05.32 5.27 5.27 0 0 1-1.44-.2 4 4 0 0 1-1.22-.6 3.05 3.05 0 0 1-.84-1 3.24 3.24 0 0 1-.31-1.43 3.32 3.32 0 0 1 .38-1.68 2.74 2.74 0 0 1 1-1 4.35 4.35 0 0 1 1.37-.53c.51-.11 1-.19 1.54-.25s.87-.14 1.27-.18a5.82 5.82 0 0 0 1.06-.18 1.69 1.69 0 0 0 .74-.4 1.14 1.14 0 0 0 .26-.81 1.25 1.25 0 0 0-.22-.77 1.56 1.56 0 0 0-.56-.46 2.46 2.46 0 0 0-.74-.22 7.27 7.27 0 0 0-.78 0 3.06 3.06 0 0 0-1.7.43 1.7 1.7 0 0 0-.75 1.33h-2.46a3.66 3.66 0 0 1 .52-1.78 3.39 3.39 0 0 1 1.15-1.21 4.48 4.48 0 0 1 1.58-.6 9 9 0 0 1 1.8-.18 7.31 7.31 0 0 1 1.62.18 4.49 4.49 0 0 1 1.43.56 3 3 0 0 1 1 1 2.77 2.77 0 0 1 .38 1.49zm-2.45-3.1a2.89 2.89 0 0 1-1.37.44c-.55 0-1.09.13-1.64.23a4.56 4.56 0 0 0-.75.18 2.4 2.4 0 0 0-.64.32 1.48 1.48 0 0 0-.45.54 2 2 0 0 0-.16.81 1 1 0 0 0 .24.69 1.89 1.89 0 0 0 .57.44 2.71 2.71 0 0 0 .73.22 4 4 0 0 0 .72.07 4.07 4.07 0 0 0 .88-.11 2.59 2.59 0 0 0 .89-.37 2.29 2.29 0 0 0 .7-.65 1.64 1.64 0 0 0 .28-1zM85.06 0h2.45v8.73l4.43-4.49h3l-4.25 4.08 4.66 7h-3L89 10l-1.46 1.41v4h-2.48zm22.85 15.35h-2.41V13.8a3.41 3.41 0 0 1-1.34 1.35 3.76 3.76 0 0 1-1.82.5 4.09 4.09 0 0 1-3.17-1.08 4.75 4.75 0 0 1-1-3.28v-7h2.45v6.81a3.05 3.05 0 0 0 .56 2.07 2 2 0 0 0 1.57.6 3.1 3.1 0 0 0 1.29-.24 2.44 2.44 0 0 0 .84-.63 2.52 2.52 0 0 0 .46-1 5.09 5.09 0 0 0 .14-1.21V4.24h2.45zM120 0h2.68v15.35H120zm7.24 4.24h2.32v1.63h.05a4.14 4.14 0 0 1 1.46-1.45 3.91 3.91 0 0 1 2-.53 4.15 4.15 0 0 1 2.88.95 3.63 3.63 0 0 1 1 2.84v7.63h-2.45v-7a3 3 0 0 0-.56-1.9 2 2 0 0 0-1.61-.59 2.67 2.67 0 0 0-1.12.22 2.51 2.51 0 0 0-.84.63 2.93 2.93 0 0 0-.53.93 3.33 3.33 0 0 0-.2 1.14v6.56h-2.45zM148.74 8a2.3 2.3 0 0 0-.83-1.55 2.65 2.65 0 0 0-1.71-.53 3.47 3.47 0 0 0-1 .16 2.45 2.45 0 0 0-1 .6 3.39 3.39 0 0 0-.75 1.23 5.84 5.84 0 0 0-.3 2.05 5.91 5.91 0 0 0 .16 1.38 3.72 3.72 0 0 0 .52 1.22 2.71 2.71 0 0 0 .91.87 2.51 2.51 0 0 0 1.35.34 2.46 2.46 0 0 0 1.78-.67 3.15 3.15 0 0 0 .87-1.87h2.45a5.42 5.42 0 0 1-1.64 3.32 5 5 0 0 1-3.46 1.15 5.6 5.6 0 0 1-2.31-.44A4.77 4.77 0 0 1 142.1 14a5.21 5.21 0 0 1-1-1.82 7.26 7.26 0 0 1-.35-2.28 7.74 7.74 0 0 1 .25-2.33 5.44 5.44 0 0 1 1-1.9 4.85 4.85 0 0 1 1.71-1.27 5.74 5.74 0 0 1 2.4-.47 6.87 6.87 0 0 1 1.84.25 4.94 4.94 0 0 1 1.55.74 3.9 3.9 0 0 1 1.1 1.25 4.27 4.27 0 0 1 .59 1.83zm6.26 4.5h3v2.9h-3z" fill="#231815"/></svg>