<svg xmlns="http://www.w3.org/2000/svg" viewBox="0 0 500 49.54"><path d="M0 0h8.51v22.12L30.14 0h10.48L21.23 19.39 42 48.58H31.37l-15.92-23.2-6.94 6.87v16.33H0zm66.75 49.54a19.17 19.17 0 0 1-7.52-1.4 16.07 16.07 0 0 1-5.58-3.84 16.61 16.61 0 0 1-3.47-5.86A22.57 22.57 0 0 1 49 31a22.42 22.42 0 0 1 1.19-7.42 16.48 16.48 0 0 1 3.47-5.85 16 16 0 0 1 5.58-3.85 21 21 0 0 1 15 0 16 16 0 0 1 5.58 3.85 16.33 16.33 0 0 1 3.47 5.85A22.42 22.42 0 0 1 84.51 31a22.57 22.57 0 0 1-1.19 7.48 16.46 16.46 0 0 1-3.47 5.86 16.07 16.07 0 0 1-5.58 3.84 19.17 19.17 0 0 1-7.52 1.36zm0-6.13a8.94 8.94 0 0 0 4.49-1.08 9.48 9.48 0 0 0 3.13-2.87 12.4 12.4 0 0 0 1.81-4 17.82 17.82 0 0 0 0-9 12 12 0 0 0-1.81-4 9.58 9.58 0 0 0-3.13-2.83 9.79 9.79 0 0 0-9 0 9.68 9.68 0 0 0-3.13 2.83 12 12 0 0 0-1.8 4 17.82 17.82 0 0 0 0 9 12.38 12.38 0 0 0 1.8 4 9.57 9.57 0 0 0 3.13 2.87 9 9 0 0 0 4.51 1.08zM96.28 0H104v27.63l14-14.22h9.53l-13.42 12.92 14.77 22.25h-9.46L108.67 31.5 104 36v12.58h-7.72zm72.34 48.58H161v-4.9h-.14a10.6 10.6 0 0 1-4.25 4.25 11.54 11.54 0 0 1-5.75 1.61q-6.95 0-10-3.44t-3.1-10.38V13.41h7.76V35c0 3.09.59 5.26 1.77 6.54a6.45 6.45 0 0 0 5 1.9 9.78 9.78 0 0 0 4.08-.75 7.22 7.22 0 0 0 2.66-2 7.78 7.78 0 0 0 1.46-3 15.93 15.93 0 0 0 .44-3.81V13.41h7.76zM181.89 0h7.75v18h.14a11.3 11.3 0 0 1 4.25-4 12.51 12.51 0 0 1 6.3-1.6q5.78 0 9.12 3t3.33 9v24.18H205V26.47q-.14-4.16-1.77-6t-5.1-1.88a8.35 8.35 0 0 0-3.54.72 7.66 7.66 0 0 0-2.65 2 9.1 9.1 0 0 0-1.7 3 10.57 10.57 0 0 0-.62 3.61v20.66h-7.75zm73.62 40.76a4.11 4.11 0 0 0 .38 2 1.55 1.55 0 0 0 1.46.61h.82a4.65 4.65 0 0 0 1.09-.14v5.38c-.28.09-.63.2-1.06.31s-.87.21-1.33.3-.91.16-1.36.21-.84.07-1.15.07a7.43 7.43 0 0 1-4-1 4.7 4.7 0 0 1-2-3.33 13.61 13.61 0 0 1-5.69 3.26 22.36 22.36 0 0 1-6.49 1 16 16 0 0 1-4.56-.65 12.16 12.16 0 0 1-3.85-1.9 9.29 9.29 0 0 1-2.65-3.2 9.85 9.85 0 0 1-1-4.53 10.52 10.52 0 0 1 1.21-5.15 8.9 8.9 0 0 1 3.13-3.2 14.25 14.25 0 0 1 4.36-1.66c1.61-.34 3.23-.6 4.86-.79 1.41-.27 2.75-.46 4-.58a18.87 18.87 0 0 0 3.37-.57 5.24 5.24 0 0 0 2.31-1.26 3.46 3.46 0 0 0 .85-2.55 4 4 0 0 0-.71-2.45 4.92 4.92 0 0 0-1.77-1.47 8.24 8.24 0 0 0-2.35-.68 19.43 19.43 0 0 0-2.45-.17 9.74 9.74 0 0 0-5.38 1.37 5.3 5.3 0 0 0-2.38 4.21h-7.75a11.61 11.61 0 0 1 1.63-5.64 11.21 11.21 0 0 1 3.64-3.61 15 15 0 0 1 5-1.91 30.06 30.06 0 0 1 5.72-.54 24.27 24.27 0 0 1 5.1.54 14.87 14.87 0 0 1 4.53 1.77 10 10 0 0 1 3.23 3.17 8.73 8.73 0 0 1 1.22 4.73zM247.76 31a9.4 9.4 0 0 1-4.36 1.39c-1.73.16-3.45.4-5.17.72a15.6 15.6 0 0 0-2.38.58 7.15 7.15 0 0 0-2 1 4.49 4.49 0 0 0-1.39 1.7 5.8 5.8 0 0 0-.51 2.55 3.26 3.26 0 0 0 .75 2.18 5.45 5.45 0 0 0 1.8 1.39 8.39 8.39 0 0 0 2.32.72 15 15 0 0 0 2.28.2 12.32 12.32 0 0 0 2.78-.34 9.29 9.29 0 0 0 2.83-1.16 7.4 7.4 0 0 0 2.21-2.07 5.25 5.25 0 0 0 .89-3.1zm21.43-31H277v27.63l14-14.22h9.53L287 26.33l14.76 22.25h-9.46L281.57 31.5 277 36v12.58h-7.76zm72.33 48.58h-7.62v-4.9h-.14a10.6 10.6 0 0 1-4.25 4.25 11.52 11.52 0 0 1-5.75 1.61q-6.94 0-10-3.44t-3.09-10.38V13.41h7.75V35c0 3.09.59 5.26 1.77 6.54a6.45 6.45 0 0 0 5 1.9 9.8 9.8 0 0 0 4.09-.75 7.26 7.26 0 0 0 2.65-2 7.64 7.64 0 0 0 1.46-3 15.43 15.43 0 0 0 .44-3.81V13.41h7.76zM379.9 0h8.51v48.58h-8.51zm22.93 13.41h7.35v5.16l.13.14a13.16 13.16 0 0 1 4.63-4.6 12.46 12.46 0 0 1 6.33-1.66q5.79 0 9.12 3t3.33 9v24.13H426V26.47q-.14-4.16-1.77-6t-5.11-1.88a8.34 8.34 0 0 0-3.53.72 7.7 7.7 0 0 0-2.66 2 9.28 9.28 0 0 0-1.7 3 10.57 10.57 0 0 0-.61 3.61v20.66h-7.76zm67.91 11.76a7.29 7.29 0 0 0-2.62-4.93 8.56 8.56 0 0 0-5.41-1.67 10.83 10.83 0 0 0-3.2.52 7.54 7.54 0 0 0-3.13 1.9 10.75 10.75 0 0 0-2.38 3.88 18.37 18.37 0 0 0-.95 6.5 19 19 0 0 0 .51 4.35 11.76 11.76 0 0 0 1.63 3.88 8.87 8.87 0 0 0 2.89 2.76 8.27 8.27 0 0 0 4.29 1A7.77 7.77 0 0 0 468 41.3a9.74 9.74 0 0 0 2.76-5.92h7.76q-1.1 6.87-5.21 10.52t-10.92 3.64a18 18 0 0 1-7.31-1.4 15.52 15.52 0 0 1-5.35-3.81 16.25 16.25 0 0 1-3.3-5.75 22.42 22.42 0 0 1-1.12-7.21 24.47 24.47 0 0 1 1.07-7.37 16.92 16.92 0 0 1 3.26-6 15.43 15.43 0 0 1 5.42-4 18.3 18.3 0 0 1 7.58-1.46 21.3 21.3 0 0 1 5.82.78 15.56 15.56 0 0 1 4.9 2.35 12.33 12.33 0 0 1 3.5 4 13.56 13.56 0 0 1 1.64 5.64zm19.8 14.23H500v9.18h-9.46z" fill="#231815"/></svg>