<svg xmlns="http://www.w3.org/2000/svg" viewBox="0 0 500 68.01"><path d="M11.93.9v26.42a.9.9 0 0 0 1.53.64l10.72-10.44a.93.93 0 0 1 .63-.25h13.67a.9.9 0 0 1 .61 1.56L24.54 32.25a.91.91 0 0 0 0 1.3l15.76 16a.9.9 0 0 1-.65 1.53H25.43a.91.91 0 0 1-.66-.28L13.48 38.93a.9.9 0 0 0-1.55.62v10.62a.9.9 0 0 1-.91.9H.9a.9.9 0 0 1-.9-.9V.9A.9.9 0 0 1 .9 0H11a.9.9 0 0 1 .93.9zm131.43.45v24.9a1.35 1.35 0 0 0 2.3 1l9.83-9.57a1.32 1.32 0 0 1 .94-.38h12.34a1.35 1.35 0 0 1 .91 2.34l-13.36 12.3a1.36 1.36 0 0 0 0 1.94L171 48.77a1.35 1.35 0 0 1-1 2.3h-12.94a1.34 1.34 0 0 1-1-.42l-10.36-10.9a1.36 1.36 0 0 0-2.34.93v9a1.34 1.34 0 0 1-1.36 1.39h-9.22a1.34 1.34 0 0 1-1.35-1.35V1.35A1.35 1.35 0 0 1 132.79 0H142a1.35 1.35 0 0 1 1.36 1.35zM261.74 0H271a1.36 1.36 0 0 1 1.36 1.35v16.88a1.35 1.35 0 0 0 2.22 1 10.25 10.25 0 0 1 2.72-1.7 15.46 15.46 0 0 1 5.86-1c4.27 0 7.48 1.18 9.66 3.53s3.18 5.53 3.18 9.53v20.13a1.35 1.35 0 0 1-1.35 1.35h-9.23a1.35 1.35 0 0 1-1.35-1.35V34a18 18 0 0 0-.39-4.15 4.94 4.94 0 0 0-1.32-2.44 5.63 5.63 0 0 0-3.78-1.41 5.9 5.9 0 0 0-4.65 1.81 7.5 7.5 0 0 0-1.61 5.19v16.72a1.35 1.35 0 0 1-1.32 1.35h-9.22a1.34 1.34 0 0 1-1.35-1.35V1.35A1.35 1.35 0 0 1 261.74 0zm138.44 1.35v24.9a1.35 1.35 0 0 0 2.3 1l9.83-9.57a1.32 1.32 0 0 1 .94-.38h12.34a1.35 1.35 0 0 1 .91 2.34l-13.36 12.3a1.36 1.36 0 0 0-.05 1.94l14.68 14.89a1.35 1.35 0 0 1-1 2.3h-12.89a1.34 1.34 0 0 1-1-.42l-10.38-10.9a1.36 1.36 0 0 0-2.34.93v9a1.34 1.34 0 0 1-1.35 1.35h-9.22a1.34 1.34 0 0 1-1.35-1.35V1.35A1.35 1.35 0 0 1 389.61 0h9.22a1.35 1.35 0 0 1 1.35 1.35zm-291 14.56a25.43 25.43 0 0 0-5.7-8.33A26.07 26.07 0 0 0 94.73 2a31.57 31.57 0 0 0-22.17 0 26 26 0 0 0-8.67 5.57 25.87 25.87 0 0 0-7.71 18.65 25.57 25.57 0 0 0 16.38 24.22 31.57 31.57 0 0 0 22.17 0 26 26 0 0 0 8.73-5.56 25.47 25.47 0 0 0 5.7-8.34 25.79 25.79 0 0 0 2-10.31 25.87 25.87 0 0 0-2-10.32zM96.58 31.7a13.57 13.57 0 0 1-3.07 4.35A14 14 0 0 1 89 38.91a14.65 14.65 0 0 1-10.74 0 13.76 13.76 0 0 1-4.45-2.86 13.94 13.94 0 0 1-3-4.35 13.92 13.92 0 0 1 0-10.94 13.94 13.94 0 0 1 3-4.35 13.78 13.78 0 0 1 4.45-2.87 14.65 14.65 0 0 1 10.74 0 14 14 0 0 1 4.48 2.87 13.57 13.57 0 0 1 3.07 4.35 13.18 13.18 0 0 1 1.12 5.47 13.22 13.22 0 0 1-1.09 5.47zm265.3-24.12A26.27 26.27 0 0 0 353.15 2 31.57 31.57 0 0 0 331 2a25.67 25.67 0 0 0-16.4 24.23 1.35 1.35 0 0 0 1.4 1.35h10.81a1.36 1.36 0 0 0 1.35-1.35 13.18 13.18 0 0 1 1.12-5.47 13.69 13.69 0 0 1 7.48-7.22 14.36 14.36 0 0 1 15.22 2.87 13.39 13.39 0 0 1 3.02 4.35 13.18 13.18 0 0 1 1.12 5.47 1.36 1.36 0 0 0 1.36 1.35h10.8a1.35 1.35 0 0 0 1.35-1.35 26 26 0 0 0-2-10.32 25.43 25.43 0 0 0-5.75-8.33zM228.79 26.23a13.22 13.22 0 0 1-1.12 5.47 13.7 13.7 0 0 1-3.06 4.35 14 14 0 0 1-4.49 2.86 14.65 14.65 0 0 1-10.74 0 13.61 13.61 0 0 1-4.44-2.86 13.8 13.8 0 0 1-3-4.35 13.38 13.38 0 0 1-1.12-5.47 1.35 1.35 0 0 0-1.35-1.36h-10.8a1.36 1.36 0 0 0-1.36 1.36 25.57 25.57 0 0 0 16.38 24.21 31.57 31.57 0 0 0 22.17 0 26.19 26.19 0 0 0 8.74-5.56 25.67 25.67 0 0 0 7.74-18.65 1.36 1.36 0 0 0-1.34-1.36h-10.86a1.36 1.36 0 0 0-1.35 1.36zm259 14.2a1.35 1.35 0 0 0-1.35 1.35 13.22 13.22 0 0 1-1.12 5.47 13.7 13.7 0 0 1-3.06 4.35 14.53 14.53 0 0 1-15.23 2.86 13.61 13.61 0 0 1-4.44-2.86 13.8 13.8 0 0 1-3-4.35 13.37 13.37 0 0 1-1.11-5.47 1.35 1.35 0 0 0-1.36-1.35h-10.8a1.34 1.34 0 0 0-1.32 1.35A25.62 25.62 0 0 0 461.35 66a31.6 31.6 0 0 0 22.18 0 26.27 26.27 0 0 0 8.73-5.57 25.63 25.63 0 0 0 5.7-8.34 26 26 0 0 0 2-10.31 1.35 1.35 0 0 0-1.35-1.35z"/></svg>