<svg xmlns="http://www.w3.org/2000/svg" viewBox="0 0 500 374.68"><path d="M464.4 35.6v303.49H35.6V35.6h428.8M469.26 0H30.74A30.74 30.74 0 0 0 0 30.74v313.2a30.74 30.74 0 0 0 30.74 30.74h438.52A30.74 30.74 0 0 0 500 343.94V30.74A30.74 30.74 0 0 0 469.26 0z"/><path d="M304.79 229.67L438 339.09H62l133.21-109.42-25-25.51L0 343.94a30.74 30.74 0 0 0 30.74 30.74h438.52A30.74 30.74 0 0 0 500 343.94L329.82 204.16z"/><path d="M445.36 35.6L262.53 221.91a17.55 17.55 0 0 1-25.06 0L54.64 35.6h390.72M469.26 0H30.74A30.74 30.74 0 0 0 0 30.74l212.06 216.1a53.17 53.17 0 0 0 75.88 0L500 30.74A30.74 30.74 0 0 0 469.26 0z"/></svg>