<svg xmlns="http://www.w3.org/2000/svg" viewBox="0 0 500 97.94"><path d="M82.1 96.11H61.87l-.3-.84a17.73 17.73 0 0 1-.92-3.81 36.13 36.13 0 0 1-.2-3.82 68.89 68.89 0 0 1 .8-10.48 65.06 65.06 0 0 0 .77-10 10.07 10.07 0 0 0-1.29-5.59 7.21 7.21 0 0 0-3.41-2.74 17.7 17.7 0 0 0-5.26-1.1c-2.07-.12-4.18-.19-6.34-.19h-18.5l-8 38.54H0L19.92 0h41.53a80.62 80.62 0 0 1 8.13.53 30.51 30.51 0 0 1 10.19 3 24 24 0 0 1 8.72 7.53C91 14.47 92.2 19.2 92.2 25.12c0 7.72-2 13.84-6 18.21A26.81 26.81 0 0 1 73.17 51a13.16 13.16 0 0 1 5.61 5.86 25.6 25.6 0 0 1 2.15 10.82 61.12 61.12 0 0 1-.81 9.9 50.33 50.33 0 0 0-.63 9.46 23.45 23.45 0 0 0 .3 3.76A10.3 10.3 0 0 0 81 94.22zm-18.43-2.52h14.27a12 12 0 0 1-.63-2.33 25.25 25.25 0 0 1-.31-4.15 52.78 52.78 0 0 1 .67-9.9 59.35 59.35 0 0 0 .77-9.49A23.18 23.18 0 0 0 76.49 58c-1.2-2.61-3.64-4.62-7.23-6l-.82-.31v-1.93l1-.45c6.33-1.17 11.34-3.75 14.89-7.67s5.31-9.45 5.31-16.52c0-5.38-1.09-9.61-3.23-12.56a21.34 21.34 0 0 0-7.8-6.76 27.63 27.63 0 0 0-9.3-2.8c-3.28-.34-5.92-.52-7.86-.52H22L3.1 93.59h14.07l8-38.54h20.55q3.31 0 6.5.2a19.84 19.84 0 0 1 6 1.27 9.76 9.76 0 0 1 4.58 3.67 12.42 12.42 0 0 1 1.72 7 67.62 67.62 0 0 1-.8 10.36A66.23 66.23 0 0 0 63 87.64a32.43 32.43 0 0 0 .19 3.53 13.77 13.77 0 0 0 .48 2.42zM52.8 45.13H27.27l6.54-31.76h24a43 43 0 0 1 6.48.48 17.17 17.17 0 0 1 5.79 1.9 10.89 10.89 0 0 1 4.2 4.25 13.77 13.77 0 0 1 1.53 6.84c0 5.89-2 10.48-6 13.64s-9.68 4.65-17.01 4.65zM30.36 42.6H52.8c6.75 0 11.93-1.38 15.4-4.12s5.09-6.48 5.09-11.66a11.29 11.29 0 0 0-1.21-5.6A8.42 8.42 0 0 0 68.83 18a14.79 14.79 0 0 0-4.95-1.62 40.44 40.44 0 0 0-6.1-.45H35.86zm104.1 55.34a35.08 35.08 0 0 1-12.31-2.11 27.65 27.65 0 0 1-9.81-6.17 29.24 29.24 0 0 1-6.45-9.73 33.86 33.86 0 0 1-2.32-12.87 49.66 49.66 0 0 1 2.56-15.74 43.45 43.45 0 0 1 7.49-13.76 37.76 37.76 0 0 1 12.2-9.83A36.07 36.07 0 0 1 142.45 24c6.21 0 11.34 1.06 15.27 3.16a25.75 25.75 0 0 1 9.23 8 28.49 28.49 0 0 1 4.46 10.56 54.31 54.31 0 0 1 1.14 10.73 38.61 38.61 0 0 1-.27 4.74c-.18 1.42-.36 2.7-.53 3.84l-.17 1.07H121.1v.08a6.73 6.73 0 0 0 0 .89v2.1c0 4.38 1.15 7.94 3.42 10.58s6.08 3.88 11.44 3.88a17.73 17.73 0 0 0 9.68-2.55 12.56 12.56 0 0 0 5.36-7.54l.26-.91h17.58l-.48 1.62c-2.43 8.21-6.62 14.29-12.45 18.06s-13.03 5.63-21.45 5.63zm8-71.43A33.58 33.58 0 0 0 127 30a35.45 35.45 0 0 0-11.39 9.18 40.91 40.91 0 0 0-7.06 13 47.23 47.23 0 0 0-2.43 14.94A31.23 31.23 0 0 0 108.23 79a26.46 26.46 0 0 0 5.87 8.89 25.2 25.2 0 0 0 8.9 5.58 32.42 32.42 0 0 0 11.43 2c7.92 0 14.66-1.76 20-5.23 4.93-3.19 8.58-8.25 10.89-15h-12.24a15 15 0 0 1-6.15 8.06 20.19 20.19 0 0 1-11 2.94c-6.13 0-10.62-1.6-13.35-4.76s-4-7.22-4-12.22v-2.1a9.93 9.93 0 0 1 .07-1.21c0-.37.12-.8.21-1.27l.21-1h50.4c.12-.83.25-1.74.37-2.7a37.6 37.6 0 0 0 .25-4.43A52.28 52.28 0 0 0 169 46.32a26.13 26.13 0 0 0-4.07-9.63 23.25 23.25 0 0 0-8.34-7.21c-3.59-2.01-8.35-2.97-14.14-2.97zm14.79 29.75h-37.44l.46-1.6a30.65 30.65 0 0 1 7.52-13.45c3.55-3.6 8.35-5.42 14.27-5.42 4.78 0 8.61 1.42 11.38 4.24a14.78 14.78 0 0 1 4.17 10.78v3.08a7.31 7.31 0 0 1-.16 1.36zm-34.05-2.52h31.9v-2.93a12.22 12.22 0 0 0-3.45-9c-2.3-2.34-5.44-3.48-9.58-3.48-5.22 0-9.42 1.57-12.48 4.67a27.42 27.42 0 0 0-6.4 10.74zm92.13 44.2a32.22 32.22 0 0 1-12.28-2.19 24.39 24.39 0 0 1-9-6.28 28.1 28.1 0 0 1-5.57-9.61 37.2 37.2 0 0 1-1.9-12.14 51.79 51.79 0 0 1 2.69-16.66 42.17 42.17 0 0 1 7.84-14 37.53 37.53 0 0 1 12.54-9.56 38.51 38.51 0 0 1 16.69-3.5 36.25 36.25 0 0 1 11 1.63 27 27 0 0 1 9.07 4.81 22.3 22.3 0 0 1 6.12 8.06 25.06 25.06 0 0 1 2.08 11v1.23h-17.53v-1.31c.16-3.82-.81-6.55-2.95-8.36s-5.29-2.78-9.16-2.78a15.72 15.72 0 0 0-9.06 2.72 23.08 23.08 0 0 0-6.59 7 34.34 34.34 0 0 0-4 9.42 39.37 39.37 0 0 0-1.32 9.77 28.84 28.84 0 0 0 .75 6.71 14.17 14.17 0 0 0 2.34 5.1 11.11 11.11 0 0 0 4.19 3.35 15 15 0 0 0 6.54 1.25A15.45 15.45 0 0 0 228 80.38a18.44 18.44 0 0 0 5.69-9.22l.26-.9h17.55l-.45 1.6c-2.52 9-6.83 15.66-12.81 19.83s-13.69 6.25-22.91 6.25zm11-71.43a36.12 36.12 0 0 0-15.65 3.28A35.08 35.08 0 0 0 199 38.72a39.73 39.73 0 0 0-7.37 13.15 49 49 0 0 0-2.56 15.85A34.42 34.42 0 0 0 190.83 79a25.36 25.36 0 0 0 5 8.74 22 22 0 0 0 8.17 5.68 29.79 29.79 0 0 0 11.32 2c8.69 0 15.9-2 21.43-5.8 5.14-3.58 9-9.24 11.35-16.84h-12.32a20.35 20.35 0 0 1-6.21 9.54 20.09 20.09 0 0 1-19.38 2.33 13.63 13.63 0 0 1-5.11-4.12 16.38 16.38 0 0 1-2.77-6 30.75 30.75 0 0 1-.83-7.31 42.07 42.07 0 0 1 1.42-10.47 36.52 36.52 0 0 1 4.28-10.11 25.42 25.42 0 0 1 7.3-7.72A18.23 18.23 0 0 1 225 35.79c4.48 0 8.1 1.13 10.78 3.37 2.48 2.08 3.78 5.13 3.87 9.08h12.41a22 22 0 0 0-1.85-8.7 19.77 19.77 0 0 0-5.43-7.16 24.36 24.36 0 0 0-8.21-4.38 34.16 34.16 0 0 0-10.23-1.49zm57 69.6h-17.51l.31-1.52 14.23-68.76h16.73l-2 9.47c.27-.34.55-.69.84-1a34.09 34.09 0 0 1 5.23-5.1 28.18 28.18 0 0 1 6.24-3.71c3.43-1.46 7.26-1.54 10.91-1.41 1.21.05 2.46.16 3.73.34l1.34.19-3.7 16.82-1.21-.24c-.84-.16-1.67-.29-2.51-.37a23.28 23.28 0 0 0-12 1.78 19.94 19.94 0 0 0-6.78 5.24 28.54 28.54 0 0 0-4.59 7.79 56.41 56.41 0 0 0-2.82 9.48zm-14.42-2.52h12.37l6.08-29a58.46 58.46 0 0 1 2.95-9.91 31.22 31.22 0 0 1 5-8.46 22.3 22.3 0 0 1 7.63-5.9 25.78 25.78 0 0 1 13.31-2c.52 0 1 .12 1.54.2l2.58-11.76c-.71-.07-1.42-.12-2.12-.14-3.26-.13-6.74-.12-9.81 1.2a25.37 25.37 0 0 0-5.68 3.38 31.5 31.5 0 0 0-4.86 4.73 36.62 36.62 0 0 0-3.74 5.32l-.82 1.43-1.91-1.91L294 28.35h-11.59zm80.37 4.35c-7.13 0-12.48-1.76-15.9-5.22s-5.15-8.17-5.15-14c0-1.24 0-2.67.13-4.26a28.71 28.71 0 0 1 .55-4.39l9.26-44.25h17.51l-9 43.32c-.26 1.16-.5 2.24-.72 3.28a13.76 13.76 0 0 0-.3 2.76c0 .51 0 1.3.07 2.37a5.93 5.93 0 0 0 .82 2.71 6.33 6.33 0 0 0 2.54 2.34 12.18 12.18 0 0 0 5.67 1 15.62 15.62 0 0 0 7.34-1.75 22 22 0 0 0 6-4.65 27.41 27.41 0 0 0 4.39-6.45 30.46 30.46 0 0 0 2.52-7.24l7.81-37.7h17.51l-14.5 70.3h-16.61l1.53-7.17a29.65 29.65 0 0 1-21.47 9zm-9.06-69.59l-8.84 42.25a26.09 26.09 0 0 0-.5 4c-.09 1.54-.13 2.91-.13 4.12 0 5.2 1.45 9.2 4.42 12.22s7.68 4.47 14.11 4.47A27.16 27.16 0 0 0 371.59 84l.87-1.2 1.79 1.79-1.92 9h11.45l13.5-65.24h-12.37L377.52 64a33.54 33.54 0 0 1-2.72 7.84 30.11 30.11 0 0 1-4.8 7 24.2 24.2 0 0 1-6.7 5.18 18 18 0 0 1-8.51 2 14.28 14.28 0 0 1-6.91-1.33 8.92 8.92 0 0 1-3.5-3.31 8.51 8.51 0 0 1-1.14-3.84c-.05-1.11-.07-1.94-.07-2.47a16.64 16.64 0 0 1 .35-3.27c.22-1.06.47-2.15.73-3.31l8.34-40.26zm86.5 67.76h-17.51l.31-1.52 14.24-68.76h17.51l-.27 1.51zm-14.42-2.52h12.37l13.51-65.24H425.8zm30.81-76.91h-17.38L429.13 0h17.38zm-14.3-2.52h12.24l2.37-11.64h-12.24zm44.07 82.6a19.5 19.5 0 0 1-7.14-1.13 11.66 11.66 0 0 1-4.63-3.17 11.35 11.35 0 0 1-2.36-4.57 20.33 20.33 0 0 1-.63-5 33.7 33.7 0 0 1 .34-4.5 31.18 31.18 0 0 1 .62-3.44l7.4-35.5h-11.8l2.9-13.65h11.78l4.2-20.33h17.13l-4.2 20.33H500l-2.89 13.65h-13.5l-6.74 32.17c-.35 1.5-.65 2.88-.91 4.18a15.46 15.46 0 0 0-.37 2.9 4.92 4.92 0 0 0 .75 2.88c.18.25.87.84 3.36.84 1.12 0 2.36 0 3.7-.07a20.38 20.38 0 0 0 4-.55l2-.47-3.11 13.75-.77.18a60.59 60.59 0 0 1-6.3 1.07 52.91 52.91 0 0 1-6.34.43zM457.79 37h11.79l-8 38.61a24.78 24.78 0 0 0-.58 3.2 30.22 30.22 0 0 0-.32 4.15 17.22 17.22 0 0 0 .56 4.34 8.83 8.83 0 0 0 1.76 3.52 9 9 0 0 0 3.64 2.46c2.74 1.11 7.15 1.18 12.23.58 1.87-.23 3.63-.51 5.25-.86l1.88-8.34a21 21 0 0 1-2.56.24c-1.38 0-2.63.07-3.78.07-2.73 0-4.5-.62-5.41-1.9a7.27 7.27 0 0 1-1.22-4.34 18.08 18.08 0 0 1 .41-3.4c.26-1.32.58-2.73.93-4.24L481.56 37h13.51l1.82-8.61H483.4L487.59 8h-12l-4.2 20.33h-11.8z"/></svg>