<svg xmlns="http://www.w3.org/2000/svg" viewBox="0 0 498.55 24.95"><g data-name="レイヤー 2"><path d="M1.52 20.22A1.46 1.46 0 0 1 0 18.83a1.67 1.67 0 0 1 .5-1.13 14.05 14.05 0 0 0 3.07-5.56 1.32 1.32 0 0 1 1.33-1 1.42 1.42 0 0 1 1.49 1.35c0 1.11-1.85 5.37-3.4 7.06a2 2 0 0 1-1.47.67zm11.73 4.2c-2.85 0-5.34-.36-5.34-3.65 0-3.12.14-8.46.22-12.72a1.3 1.3 0 0 1 1.41-1.3A1.29 1.29 0 0 1 11 8v.06c-.14 4.26-.25 9.21-.27 12.33 0 1.19 1 1.47 2.73 1.47 2.3 0 3.88-.19 3.88-3.21a1.29 1.29 0 0 1 1.35-1.41 1.49 1.49 0 0 1 1.58 1.6c-.05 5.58-4.15 5.58-7.02 5.58zm1.52-18.28a18.42 18.42 0 0 0-5.12-2.49 1 1 0 0 1-.77-1 1.51 1.51 0 0 1 1.46-1.47 19.18 19.18 0 0 1 6.25 2.57 1.4 1.4 0 0 1 .59 1.14 1.61 1.61 0 0 1-1.53 1.57 1.53 1.53 0 0 1-.88-.32zm8.05 11.42a19.92 19.92 0 0 0-4.68-4.75 1.27 1.27 0 0 1-.55-1A1.38 1.38 0 0 1 19 10.54a1.69 1.69 0 0 1 .89.27c3.18 2.08 5.75 4.6 5.75 5.84A1.66 1.66 0 0 1 24 18.28a1.45 1.45 0 0 1-1.18-.72zM42 8.35c2.33-.19 4.1 1.16 4.21 4.26a16.55 16.55 0 0 1-.94 6.17 5.37 5.37 0 0 1-6.5 3.32c-2.19-.64-1.3-3.18.39-2.77s2.73.14 3.51-1.49a12.48 12.48 0 0 0 .88-4.79c0-1.68-.58-2.48-1.85-2.37-.41 0-.83.08-1.27.13A40.79 40.79 0 0 1 35 21.93c-1.32 1.88-4.2.28-2.4-1.74a26.76 26.76 0 0 0 4.89-9l-.33.06a18.79 18.79 0 0 1-3 .38A1.33 1.33 0 1 1 34.11 9c.86-.08 1.71-.06 2.71-.14l1.38-.14a28.84 28.84 0 0 0 .86-4.4c.19-1.79 3-1.63 2.79.23a36.72 36.72 0 0 1-.8 3.9zm10.18 6.23a9.83 9.83 0 0 0-4-4.76C46.83 9.07 48.05 7 49.76 8a11.48 11.48 0 0 1 4.93 5.26c.69 1.81-1.8 3.03-2.55 1.32zm-2.55-8.52c-1.44-.53-.45-2.24.85-1.83a8.86 8.86 0 0 1 2.83 1.55c1.13 1.08-.37 2.82-1.33 1.8a9.38 9.38 0 0 0-2.35-1.52zM52 3.6c-1.44-.47-.56-2.24.77-1.89a9.25 9.25 0 0 1 2.9 1.44C56.85 4.2 55.38 6 54.38 5A9.3 9.3 0 0 0 52 3.6zm11.85 11.89c-1.44.75-1.94 1-2.46 1a1.33 1.33 0 0 1-1.33-1.33 1.24 1.24 0 0 1 .8-1.13c1.08-.47 2.08-.88 3-1.36V8.3h-2.33a1.17 1.17 0 0 1-1.22-1.22 1.17 1.17 0 0 1 1.22-1.22h2.32V1.55a1.27 1.27 0 0 1 1.3-1.3 1.22 1.22 0 0 1 1.27 1.3v4.31h1.5a1.16 1.16 0 0 1 1.21 1.22 1.16 1.16 0 0 1-1.21 1.22h-1.5v3c.33-.2.67-.42 1-.64a.94.94 0 0 1 .58-.19 1.15 1.15 0 0 1 1.1 1.16c0 .66-.38 1-2.68 2.4v3.46c0 .39.09 3 .11 3.93v.11c0 1.74-1.13 3.1-3.51 3.1-1.74 0-2.49-.42-2.49-1.5a1.17 1.17 0 0 1 1.08-1.27.69.69 0 0 1 .25 0 4.71 4.71 0 0 0 .89.11c.58 0 1.13-.19 1.13-.91zM77.73 17v4.9c2.3 0 2.85 0 2.91-.91v-2.16c0-.71.63-1 1.27-1 1.3 0 1.3.89 1.3 1.75v1.93c-.06 1.47-.86 2.49-2.93 2.57-1 .06-2.44.06-3.9.06-6.14 0-6.67 0-6.67-3.9v-1.38a1.16 1.16 0 0 1 1.3-1c.61 0 1.19.31 1.19 1v1.55c0 1.57 0 1.57 2.91 1.57V17h-5.62a1.11 1.11 0 1 1 0-2.22h5.62v-1.86H70.9a1.1 1.1 0 1 1 0-2.18h11a1.09 1.09 0 1 1 0 2.18h-4.18v1.93h5.73a1.11 1.11 0 0 1 0 2.22zm-7-11.92a1.24 1.24 0 0 1-1.43-1.24 1.17 1.17 0 0 1 1.24-1.18A37.28 37.28 0 0 0 81.16 1a1.78 1.78 0 0 1 .47-.08 1.27 1.27 0 0 1 1.25 1.3A1.15 1.15 0 0 1 82 3.37a55.65 55.65 0 0 1-11.32 1.72zm1.85 5.17a1 1 0 0 1-1-.8 5.24 5.24 0 0 0-1.3-2.13 1 1 0 0 1-.33-.66 1.23 1.23 0 0 1 1.27-1.06c1.09.01 2.67 2.4 2.67 3.4a1.32 1.32 0 0 1-1.36 1.26zm4.07-.58a1 1 0 0 1-1-.88 5.16 5.16 0 0 0-1-2.16.9.9 0 0 1-.22-.58 1.17 1.17 0 0 1 1.22-1c1.19 0 2.32 2.29 2.32 3.4a1.27 1.27 0 0 1-1.37 1.23zm3.4.44a1.23 1.23 0 0 1-1.32-1 1.12 1.12 0 0 1 .27-.73 13.09 13.09 0 0 0 1.89-3.48 1 1 0 0 1 1-.64 1.48 1.48 0 0 1 1.53 1.27 10.67 10.67 0 0 1-2.3 4.07 1.38 1.38 0 0 1-1.12.52zm14.73 10.3c-1.25 2.19-4 .5-2.52-1.3.08-.11.17-.19.22-.25a52.48 52.48 0 0 0 4.12-6.17c.06-.55.09-1.07.14-1.63a10.44 10.44 0 0 0-2.1 1c-1.91 1.22-2.77-1.49-1.27-2.19 1-.47 2.32-1 3.62-1.52.19-2.07.42-3.92.55-5.14a1.28 1.28 0 0 1 2.55.27c-.19 1-.39 2.38-.58 4 .88-.11 1.66.72 1.24 2 .33-.31.67-.61 1-.86 4.29-3.51 8.3-3.26 7.94 2.24-.11 1.66-.55 4.59-.69 6.17-.28 3.15 1.35 2.82 3.21.85a1.35 1.35 0 1 1 2 1.83c-3.52 3.84-8.47 3.4-7.83-2.71.14-1.47.64-4.45.72-6.11.08-2-.33-3.46-4.21-.25a33.7 33.7 0 0 0-3.95 3.59 40.35 40.35 0 0 0 .22 8.22 1.41 1.41 0 1 1-2.79.22 44.13 44.13 0 0 1 0-5.12c-.65 1.01-1.15 2.06-1.59 2.86zm30.51-1.82l-3.68.08a1 1 0 0 1-1.08-1 1 1 0 0 1 1.1-1h3.68v-1.04c-4.06 0-4.42-.09-4.42-3.93 0-3.4.77-3.43 4.45-3.43V7.14h-4.2a1 1 0 1 1 0-2h4.2V4c-1.57.08-2.9.08-3.45.08A1.09 1.09 0 0 1 120.67 3a1.05 1.05 0 0 1 1.14-1.05h.08c.55 0 1.11.05 1.69.05a32.37 32.37 0 0 0 6.8-.77.92.92 0 0 1 .28 0 1.13 1.13 0 0 1 1.13 1.13c0 .83-.55 1.11-4.2 1.5v1.35h4.09a1 1 0 0 1 1.14 1v.19a1.17 1.17 0 0 1 .64-.16h2.26V1.83a1.19 1.19 0 0 1 1.22-1.22 1.23 1.23 0 0 1 1.32 1.22v4.31h2.07a2.84 2.84 0 0 1 3 3.07v2.46c0 5.31-.5 12.2-5.64 12.2a7.79 7.79 0 0 1-2.41-.42 1.28 1.28 0 0 1-.89-1.24 1.22 1.22 0 0 1 1.19-1.3 1.71 1.71 0 0 1 .53.08 5 5 0 0 0 1.47.28c1.18 0 3.18-.72 3.18-9.82V9.54a1 1 0 0 0-1-1.05h-1.47c-.19 5.84-1.74 12.12-6.94 15.66a1.53 1.53 0 0 1-.92.3 1.26 1.26 0 0 1-.66-2.35 14.3 14.3 0 0 0 1.19-.91A77.55 77.55 0 0 1 120.81 23a1.1 1.1 0 0 1-1.1-1.17 1 1 0 0 1 1-1.07c1.5-.11 3.07-.25 4.6-.47zm0-6H123v.5c.09.83.33.86 2.24.86zm0-2.74c-2.07 0-2.21.06-2.27 1v.28h2.27zm2.27 8.66v1.36c1.27-.23 2.43-.47 3.46-.72a.66.66 0 0 1 .24 0 .89.89 0 0 1 .89.75c2.68-3.13 3.37-7.22 3.48-11.37h-2.26a1.12 1.12 0 0 1-1.16-1.19 1.49 1.49 0 0 1 0-.36 1.51 1.51 0 0 1-.64.14h-4.09v1.1c3.62 0 4.51.06 4.51 3.54 0 3.76-.55 3.85-4.51 3.85v1l3.46-.09a.95.95 0 1 1 0 1.89zm2.24-7.77c0-.89-.36-.89-2.27-.89v1.28h2.27zm-2.27 1.85V14c1.74 0 2.24 0 2.27-.89v-.47zm27.34 7.35c-2-2.16-2.91-5.36-3.13-8.85A27.21 27.21 0 0 1 151.6 8a1.41 1.41 0 1 1 2.82 0c.06 1.08 0 1.14 0 2.41.12 2.9.64 5.64 2.19 7.14.72.69 1.08.77 1.69-.06a10.8 10.8 0 0 0 .91-1.63 1.36 1.36 0 0 1 2.52 1 12.71 12.71 0 0 1-1.08 2.14c-1.77 2.85-4.24 2.6-5.78.94zm15-4.87a8.72 8.72 0 0 0-3.07-5.36c-1.33-.91.17-3 1.83-1.72 2 1.47 3.87 4.07 4.14 6.42a1.49 1.49 0 1 1-2.94.66zm19.02-4.84a10 10 0 0 1 .89-1.43c.44-.59.3-.56-.22-.39a36.28 36.28 0 0 0-3.49 1.38 25.94 25.94 0 0 1-2.49.83c-2.43.66-3.15-2.52-.94-3 .58-.13 2.19-.44 3.07-.66 1.36-.33 3.77-.89 6.59-1.69a37.43 37.43 0 0 1 7.55-1.63 1.63 1.63 0 0 1 1.88 2.13c-.17.47-.78 1-2.71.91a12 12 0 0 0-4.12.78 7.91 7.91 0 0 0-3.54 3.23c-2.44 4.07-.58 9.88 5.61 9.66 2.9-.11 3.07 3.15.14 3.12-8.35-.02-11.23-7.68-8.22-13.24zm23.96 14.11a10.6 10.6 0 0 0-3.4-2.91 1.21 1.21 0 0 1 .56-2.32c1 0 5.39 2.44 5.39 4.32a1.53 1.53 0 0 1-1.5 1.57 1.28 1.28 0 0 1-1.05-.66zm23.43-8.02c.06 1.16.75 1.19 2.94 1.19 2.74 0 2.74-.09 2.74-3v-4.49A1 1 0 0 1 243 9a1 1 0 0 1 1.14 1v6.81a2.63 2.63 0 0 1-2.63 2.76c-.72.06-1.58.09-2.46.09-3.13 0-4.92-.06-5-2.77v-6.35a1.65 1.65 0 0 1-.47.08 1.72 1.72 0 0 1-.52-.08v10.87c0 1.82-1.22 2.87-3.1 2.87-2.41 0-2.44-1.13-2.44-1.41a1.07 1.07 0 0 1 1.08-1.1 1 1 0 0 1 .25 0 3.5 3.5 0 0 0 .8.09c.58 0 1.08-.2 1.11-1s0-2.93 0-5.25h-2.55a22.23 22.23 0 0 1-1.49 8 1.39 1.39 0 0 1-1.27.89 1.2 1.2 0 0 1-1.25-1.11 1.1 1.1 0 0 1 .11-.47c.58-1.22 1.66-4.12 1.66-12.22 0-2.52-.08-4.93-.11-6.75v-.11c0-2.37 2-2.4 3.43-2.4h1.36a2.32 2.32 0 0 1 2.4 2.56v4.33a21.76 21.76 0 0 0 3.54-7 1.09 1.09 0 0 1 1.1-.83A1.24 1.24 0 0 1 239 1.63a10.29 10.29 0 0 1-.88 2.57h7.08a2.83 2.83 0 0 1 3 3c.06 1.41.12 2.93.12 4.45 0 7.5-1.36 12.67-6.39 12.67a10.39 10.39 0 0 1-2.49-.36 1.2 1.2 0 0 1-.83-1.24 1.14 1.14 0 0 1 1-1.25 1.55 1.55 0 0 1 .33.06 8.67 8.67 0 0 0 1.88.27c1.27 0 3.85-.36 3.85-10.23 0-4.53-.09-5.09-1.16-5.09H237a21.71 21.71 0 0 1-1.71 2.8.92.92 0 0 1 1 .88v.06c0 1.24-.05 2.43-.05 3.54v2a1.06 1.06 0 0 1 .27-.69 11.23 11.23 0 0 0 1.58-2.82 10.9 10.9 0 0 0-1.25-.8.8.8 0 0 1-.44-.75.94.94 0 0 1 .89-1c.22 0 .3 0 1.44.69a15.51 15.51 0 0 0 .44-2.33.91.91 0 0 1 1-.85 1.06 1.06 0 0 1 1.1 1.08 15.25 15.25 0 0 1-.8 3.31c1 .78 1.36 1.19 1.36 1.75a1.15 1.15 0 0 1-1 1.16.79.79 0 0 1-.63-.36 6.41 6.41 0 0 0-.48-.58c-1.32 3-2.07 3.15-2.43 3.15a1 1 0 0 1-1-.94zm-5.5-8.69c0-1.27 0-2.35-.06-3.09 0-.58-.24-.86-1.27-.86-.69 0-1.19.14-1.19.86v3.09zm0 2.19h-2.49v3.59h2.49zm35.27-1.47c2.32-.19 4.1 1.16 4.21 4.26a16.76 16.76 0 0 1-.94 6.17 5.37 5.37 0 0 1-6.5 3.32c-2.19-.64-1.3-3.18.38-2.77s2.74.14 3.52-1.49a12.48 12.48 0 0 0 .88-4.79c0-1.68-.58-2.48-1.85-2.37-.42 0-.83.08-1.27.13a40.79 40.79 0 0 1-5.37 11.12c-1.33 1.88-4.21.28-2.41-1.74a26.59 26.59 0 0 0 4.9-9l-.33.06a18.79 18.79 0 0 1-3 .38A1.33 1.33 0 1 1 258.2 9c.85-.08 1.71-.06 2.71-.14l1.38-.14a30.11 30.11 0 0 0 .86-4.4c.19-1.79 3-1.63 2.79.23a36.72 36.72 0 0 1-.8 3.9zm10.18 6.23a9.85 9.85 0 0 0-4-4.76c-1.35-.75-.13-2.82 1.58-1.83a11.45 11.45 0 0 1 4.92 5.26c.74 1.82-1.73 3.04-2.5 1.33zm-2.52-8.52c-1.44-.53-.44-2.24.86-1.83a8.71 8.71 0 0 1 2.82 1.55c1.14 1.08-.36 2.82-1.33 1.8a9 9 0 0 0-2.35-1.52zm2.38-2.46c-1.44-.47-.55-2.24.78-1.89a9.36 9.36 0 0 1 2.9 1.44c1.16 1.05-.3 2.85-1.3 1.86a9.53 9.53 0 0 0-2.38-1.41zm13.64 16.34c-2-2.16-2.9-5.36-3.12-8.85a27.21 27.21 0 0 1-.14-3.09 1.41 1.41 0 1 1 2.82 0c.06 1.08-.05 1.14 0 2.41.11 2.9.64 5.64 2.19 7.14.71.69 1.08.77 1.68-.06a11.86 11.86 0 0 0 .92-1.63 1.35 1.35 0 0 1 2.51 1 12 12 0 0 1-1.07 2.14c-1.77 2.85-4.24 2.6-5.79.94zm15-4.87a8.72 8.72 0 0 0-3.07-5.36c-1.33-.91.16-3 1.82-1.72 2 1.47 3.88 4.07 4.15 6.42.19 2.02-2.55 2.59-2.93.66zm20.47 8.41c-2.19.36-2.41-2.29-.5-2.57a10.91 10.91 0 0 0 5.81-2.32c1.66-1.47 1.74-3 .91-3.93-1.19-1.36-3.37-1.33-5.17-.8a47.35 47.35 0 0 0-5.67 2.57 1.37 1.37 0 1 1-1.19-2.43 52.38 52.38 0 0 1 6.36-2.37c2.33-.58 5.51-.61 7.44 1.41 2.33 2.4 1.39 5.47-1.13 7.58a14 14 0 0 1-6.86 2.86zm21.72-1.05c-.89-2.79-.8-6.36-.44-9.71s1-6.44 1.1-8.24a1.4 1.4 0 1 1 2.8.06c-.2 1.24-.67 3.65-1 6a30.66 30.66 0 0 0-.52 5.78c.05.5.08.58.36 0 .08-.17.27-.67.33-.81.64-1.32 2.74-.38 1.74 1.69a18 18 0 0 0-.86 2.19c-.22.69-.38 1.3-.5 1.74-.21.77.14 1.55-.55 2.21s-1.99.58-2.46-.91zm8.6.58c-2.41-1.38-2.46-4.53.42-5.81a7.87 7.87 0 0 1 4.86-.33c0-.44-.05-.86-.08-1.38-.08-1.14-.14-3.27-.22-5.45a19 19 0 0 1-4.54.19c-1.91-.16-1.57-3 .56-2.62a11.69 11.69 0 0 0 3.9-.09c0-1.55-.06-3 0-3.81.05-1.8 2.76-1.55 2.65-.06-.05.78-.08 1.94-.08 3.29.47-.14 1-.25 1.41-.39 1.8-.55 3 2 .61 2.55-.66.17-1.33.33-2 .47 0 2.16.11 4.31.16 5.67 0 .69.14 1.6.17 2.49a13.05 13.05 0 0 1 3.13 2c1.57 1.44-.39 3.84-1.77 2.38a12.36 12.36 0 0 0-1.7-1.42 5.49 5.49 0 0 1-7.48 2.31zm5-3.62a5 5 0 0 0-3.81-.17.92.92 0 0 0-.17 1.63c1.33.75 3.57.17 4-1.46zm5.87-13.83a2.78 2.78 0 0 1 0-5.56 2.82 2.82 0 0 1 2.79 2.79 2.8 2.8 0 0 1-2.76 2.77zm0-4.12a1.31 1.31 0 0 0-1.3 1.35 1.26 1.26 0 0 0 1.3 1.3 1.31 1.31 0 0 0 1.35-1.3 1.36 1.36 0 0 0-1.32-1.35zM379 19.94c-2-2.16-2.9-5.36-3.12-8.85a27.21 27.21 0 0 1-.19-3.09 1.41 1.41 0 1 1 2.82 0c.06 1.08-.05 1.14 0 2.41.11 2.9.64 5.64 2.19 7.14.72.69 1.08.77 1.68-.06a10.9 10.9 0 0 0 .92-1.63 1.35 1.35 0 0 1 2.51 1 12 12 0 0 1-1.07 2.14c-1.74 2.85-4.24 2.6-5.74.94zm15-4.87a8.72 8.72 0 0 0-3.07-5.36c-1.33-.91.16-3 1.82-1.72 2 1.47 3.88 4.07 4.15 6.42.1 2.02-2.6 2.59-2.98.66zm13.42 7.31c-2.21-5.45 0-13.64.47-16.93.31-2.05 3-1.44 2.69.16-.45 2.24-2.11 8.74-1.44 11.32.08.36.19.27.3 0s.36-.69.47-.88a1.11 1.11 0 0 1 1.94 1.08 13.58 13.58 0 0 0-1.63 3.87c-.17.75.16 1.6-.53 2.21s-1.69.52-2.27-.83zm7.41-2a1.37 1.37 0 0 1 2-1.91c1.49 1.36 4.81.92 7 .47s2.38 2.46.55 2.93c-3.02.78-7.55.7-9.55-1.46zm1.58-11A1.31 1.31 0 1 1 416 6.8a16.85 16.85 0 0 1 7.28-.16 1.35 1.35 0 1 1-.47 2.65 14.11 14.11 0 0 0-6.4.09zm21.31-1.58a1.27 1.27 0 1 1 .8-2.38 7.31 7.31 0 0 0 3.79-.08 18.75 18.75 0 0 0 .55-2.8 1.33 1.33 0 0 1 2.63.25 9.72 9.72 0 0 1-.39 1.69A9 9 0 0 0 446 4c1.24-.88 3 .83 1.21 2.1a10.36 10.36 0 0 1-3 1.27 70 70 0 0 1-4.95 9.33c-1 1.65-3.68.58-2.46-1.22a54.83 54.83 0 0 0 4.54-7.55 7.7 7.7 0 0 1-3.62-.13zm4.75 15.57c-2.57-1.3-2.87-4.29 0-5.56a9 9 0 0 1 5.31-.52v-1c0-.69-.06-1.38-.09-2.08a8.77 8.77 0 0 1 .14-1.85 1.27 1.27 0 0 1 2.49.5 5.63 5.63 0 0 0-.17 1.3v2.13c0 .52.08 1.1.11 1.71a10 10 0 0 1 3.38 2.22c1.57 1.74-.67 3.7-2 2.1a7.93 7.93 0 0 0-1.58-1.44c-.78 2.24-4.24 4.18-7.59 2.49zm.89-3.62a.84.84 0 0 0 0 1.6c1.66.83 3.9 0 4.2-1.46v-.28a5.52 5.52 0 0 0-4.2.14zm6.17-10.21c-1.53.08-1.64-2.21.13-2.38a8.79 8.79 0 0 1 5.09 1c1.88 1.14.45 3.43-.91 2.57a7.12 7.12 0 0 0-4.31-1.19zM479 20c2-1.8 1.94-4.43.36-5.48s-4.43-1.16-7.22.47a6 6 0 0 0-2.33 2.01c-1 1.46-3.76-.17-2.05-1.86a97.5 97.5 0 0 0 8.35-8.93c.31-.39 0-.28-.19-.17a22.27 22.27 0 0 1-4.65 1.42c-2.18.47-2.6-2.27-.72-2.49a44 44 0 0 0 6.09-1.36c2.21-.64 4 1.33 2.65 2.88-.88 1-2 2.07-3.09 3.09s-2.22 2-3.21 3a8.46 8.46 0 0 1 7.77-.08c4 2.38 2.68 7.25-.22 9.35-2.74 2-7.05 2.07-9.16.69-2.93-1.91-1.63-5.34 1.64-5.45a3.93 3.93 0 0 1 4.37 3.73A3.76 3.76 0 0 0 479 20zm-5.89-.83c-1.22.11-1.27 1.24-.39 1.71a4.86 4.86 0 0 0 2.32.42c.02-1.3-.72-2.3-1.94-2.16zM495.4 25a3.16 3.16 0 1 1 3.15-3.16A3.15 3.15 0 0 1 495.4 25zm0-5.23a2.08 2.08 0 0 0-2.11 2.07 2.11 2.11 0 1 0 4.21 0 2.07 2.07 0 0 0-2.1-2.12z" fill="#231815" data-name="レイヤー 1"/></g></svg>