<svg xmlns="http://www.w3.org/2000/svg" viewBox="0 0 500 216.52"><path d="M15.75 10.55l-4.08-.08a12 12 0 0 0 4.23 1.71.77.77 0 0 1 .68.78.94.94 0 0 1-1 .94 8.55 8.55 0 0 1-2.73-1v1.12c0 1.48 0 2.65-1.77 2.75-.77 0-1.63.06-2.46.06-1.06 0-2.13 0-3.06-.06-1.78-.1-1.78-1.08-1.78-2.77v-1.21a11.38 11.38 0 0 1-3 1.35.83.83 0 0 1-.78-.92.78.78 0 0 1 .57-.76 16.27 16.27 0 0 0 4-2l-3.77.09a.67.67 0 0 1-.72-.71.71.71 0 0 1 .72-.75h5.44c.25-.23.49-.48.74-.75-3.81 0-4.08 0-4.08-2.46 0-1.29 0-2.31 1.92-2.39.93 0 2.2-.06 3.53-.06s2.65 0 3.73.06c1.58.06 1.71 1.12 1.71 2.26 0 1.46-.06 2.5-1.8 2.56-1 0-2.09.05-3.21.05a.3.3 0 0 1-.07.21l-.46.52h7.5a.71.71 0 0 1 .73.74.69.69 0 0 1-.72.72zm-4.5-8v.15c0 .46-.44.69-.87.69s-.88-.23-.88-.69v-.14H6.94v.15c0 .46-.43.69-.87.69a.76.76 0 0 1-.85-.69v-.15h-4a.73.73 0 1 1 0-1.46h4V.68c0-.43.43-.66.87-.66s.85.23.85.66v.42H9.5V.68c0-.43.44-.66.88-.66s.87.23.87.66v.42h4.15a.72.72 0 0 1 .78.72.72.72 0 0 1-.78.74zM4.53 6.41v.25c0 .43.21.53.76.53h6.05c.42 0 .7-.15.72-.55v-.23zm7.57-1v-.19c-.05-.61-.17-.61-3.6-.61-3.85 0-3.89 0-3.93.66v.14zm-6.79 9.08v.44c0 .45.28.57.8.57h4.44c.39 0 .72-.17.74-.59v-.42zm6-1.06v-.32c-.06-.63-.5-.63-2.64-.63-3 0-3.3 0-3.34.68v.27zm-4.4-3c-.32.29-.66.57-1 .84h4.55c-.34-.27-.66-.55-1-.84zm20.88 6.36c-1.54.3-2-1.58-.42-1.9a8.93 8.93 0 0 0 2.54-.81c2.09-1.22 2.66-2.53 2.26-3.29s-1.78-1-3.8-.13a12.53 12.53 0 0 0-2.54 1.63c-1.12 1.08-1.87.55-2.22-.11A6.59 6.59 0 0 1 23.46 9c.15-1.38.4-2.84.55-3.81.19-1.21 1.92-1.17 1.75.19-.1.8-.31 1.86-.46 2.77a4.84 4.84 0 0 0-.11 2c0 .15.15.15.32.06.38-.21 1.27-.7 2.16-1.08 5.73-2.49 9.77 2.64 3.36 6.56a10.21 10.21 0 0 1-3.24 1.1zm-.08-12.1c-.91.22-1.59-1-.8-1.43.1 0 .29-.15.16-.24a6.35 6.35 0 0 1-1.35-.9c-.82-.89.44-1.89 1.38-1.21.35.25 1 .53 1.54.89a2 2 0 0 1 1.08 1.39 1.22 1.22 0 0 1-1.19 1.32 8.27 8.27 0 0 0-.82.18zm15.88 7.73c-.07-2 .13-3.6.23-5.61.06-1.23.19-3.09.15-4.27A1 1 0 0 1 46 2.5c0 1.2-.17 3-.27 4.27a55 55 0 0 0-.34 5.58c.12 2.77 3.49 2.58 6.79 0A1.05 1.05 0 1 1 53.53 14c-3.7 3-9.77 3.55-9.94-1.58zm23.83-1.8a35 35 0 0 1 2.24 4.61 1.2 1.2 0 0 1-.57 1.63c-.5.17-1.14-.09-1.35-.93a24.58 24.58 0 0 0-2-4.59c-.46-.87-.93-1.74-1.37-2.54a13.41 13.41 0 0 1-2.7 1.2 1 1 0 1 1-.46-1.86 13.83 13.83 0 0 0 2.28-.93c-.09-.19-.17-.36-.26-.53-.18-.33-.35-.69-.52-1a7.12 7.12 0 0 1-.4-1 .93.93 0 0 1 1.79-.53 18.45 18.45 0 0 0 .74 1.86c.07.13.15.28.22.43a30.13 30.13 0 0 1 3.78-2.04c1.88-.72 3.76-1 5.22-.06s1.67 2.87.6 4.39a5.51 5.51 0 0 1-6.9 1.34.93.93 0 0 1-.27-1.33 1 1 0 0 1 1.41-.24 3.28 3.28 0 0 0 4.15-.76 1.31 1.31 0 0 0-.19-1.95c-.7-.52-1.91-.4-3.49.22a24.68 24.68 0 0 0-3.47 1.88zM67 4a1.82 1.82 0 0 0-.42-.76 5.93 5.93 0 0 0-.47-.53c-.63-.64.65-1.63 1.59-.85a3.46 3.46 0 0 1 1.12 1.55c.3 1.18-1.52 1.83-1.82.59zm21.45 9.81v2.45a.94.94 0 0 1-1.86 0v-2.45h-5.26a.78.78 0 0 1-.83-.8.77.77 0 0 1 .83-.77h5.26v-1.67h-6.15a.78.78 0 1 1 0-1.55h4.23a4.46 4.46 0 0 0-.78-1 .71.71 0 0 1-.26-.53.83.83 0 0 1 .87-.72 2.5 2.5 0 0 1 1.82 1.86.93.93 0 0 1-.11.44h2.22a8.46 8.46 0 0 0 .91-1.86.71.71 0 0 1 .72-.51c.51 0 1.06.36 1.06.85a4.33 4.33 0 0 1-.78 1.5h4.21a.78.78 0 1 1 0 1.55h-6.12v1.67h5.27a.76.76 0 0 1 .8.77.77.77 0 0 1-.8.8zm-8-7.36a.77.77 0 1 1 0-1.54h6.11V3.4h-4.37a.76.76 0 1 1 0-1.52h4.4v-.8a.92.92 0 1 1 1.84 0v.8h4.32a.78.78 0 0 1 .86.76.78.78 0 0 1-.86.76h-4.32v1.51h6.07a.8.8 0 0 1 .83.8.74.74 0 0 1-.83.74zm23.06 3.13l-3 .93c-1.5.44-2-1.58-.44-2 .85-.2 2.26-.56 3.09-.75l.53-.12v-.2c0-1.1-.09-1.88-.13-2.7a1 1 0 0 1 2-.07c0 .6 0 1.48-.06 2.37v.24c1.25-.26 2.82-.58 4.38-.85V4.86a6.61 6.61 0 0 0 0-.76v-.74a1 1 0 0 1 1.9 0c0 .64 0 1.19-.08 1.72 0 .33 0 .7-.06 1.08.18 0 .33 0 .5-.07a18 18 0 0 1 3.15-.21c1.55.09 1.25 1.95-.29 1.86a17 17 0 0 0-2.67 0l-.78.07c0 .32-.08.67-.11 1a4.29 4.29 0 0 1-1.47 3.07 1.66 1.66 0 0 1-2.33-.28 9 9 0 0 1-.74-1c-.49-.83.53-1.74 1.27-.78.55.73.88.63 1.14.23a4.62 4.62 0 0 0 .55-2c-1.57.25-3 .59-4.3.91 0 .89 0 1.8.09 2.47.15 2 .76 2.69 2.35 2.73a10.64 10.64 0 0 0 3.09-.51 1 1 0 1 1 .54 1.86 11.54 11.54 0 0 1-3.93.32c-2.49-.27-3.4-1.44-3.66-4-.08-.69-.14-1.56-.17-2.35zM128.87 6a15 15 0 0 1-3.87 7.64c-1.46 1.35-3.06.61-3.89-1-1.2-2.35.07-5.88 2.62-7.64a7.93 7.93 0 0 1 8.27-.47 5.62 5.62 0 0 1 1.77 8 7.94 7.94 0 0 1-4.63 3.13c-1.67.44-2.26-1.48-.63-1.86a5.91 5.91 0 0 0 3.49-2.15 4.1 4.1 0 0 0-1-5.81 5 5 0 0 0-2.36-.76 1 1 0 0 1 .23.92zm-4.21.36c-1.77 1.36-2.71 3.89-1.92 5.35.29.55.78.83 1.25.41a11.32 11.32 0 0 0 2.94-6.31 1.28 1.28 0 0 1 .18-.59 6.25 6.25 0 0 0-2.45 1.1zm22.59-.61c1.59-.14 2.8.79 2.88 2.92a11.13 11.13 0 0 1-.65 4.23 3.67 3.67 0 0 1-4.48 2.28c-1.5-.44-.9-2.19.26-1.9a1.82 1.82 0 0 0 2.41-1 8.38 8.38 0 0 0 .64-3.28c0-1.15-.4-1.7-1.27-1.63-.29 0-.57.06-.88.1a27.84 27.84 0 0 1-3.68 7.62c-.91 1.29-2.88.19-1.65-1.19a18.28 18.28 0 0 0 3.36-6.17h-.23a13 13 0 0 1-2 .27.92.92 0 1 1-.06-1.83c.59 0 1.17 0 1.86-.09l.95-.1a20.65 20.65 0 0 0 .58-3c.14-1.23 2.07-1.12 1.92.15a25 25 0 0 1-.55 2.67zm7 4.27a6.82 6.82 0 0 0-2.72-3.27c-.93-.51-.09-1.93 1.08-1.25A7.83 7.83 0 0 1 156 9.11c.45 1.25-1.26 2.08-1.77.89zm8.75 5.33c-.57 1.27-2.58.72-1.79-.9a56.81 56.81 0 0 0 3.32-8.23 5.49 5.49 0 0 1-2.82-.22c-1-.42-.78-2.15.65-1.64a5 5 0 0 0 2.62.12 8.84 8.84 0 0 0 0-2.05c-.08-1.08 1.7-1.14 1.89-.09a5.42 5.42 0 0 1 0 1.51 6.85 6.85 0 0 0 .72-.4.91.91 0 1 1 .74 1.64 11.89 11.89 0 0 1-1.91.75 75.48 75.48 0 0 1-3.42 9.51zm4.61-.86c-.82-.91.36-2.41 1.34-1.4s2.13.89 4.35.7a1 1 0 1 1 .24 2c-2.8.51-5.15-.37-5.98-1.3zm2.14-6.62c-1 .36-1.58-1.19-.32-1.63a7 7 0 0 1 4.55.1c1.27.45.76 2.12-.44 1.72a6.66 6.66 0 0 0-3.84-.19zm15.76 2.07a8.48 8.48 0 0 1 3.76-1.63c4-.53 5.78 3 3.39 5.82a8.38 8.38 0 0 1-5.1 2.49c-1.82.24-1.92-1.65-.5-1.82a6.41 6.41 0 0 0 3.94-1.71c1.38-1.56 1.06-3.36-1.52-3.15a5.65 5.65 0 0 0-3.34 1.75c-.34.36-.43.91-1.08 1.08-.83.22-1.48-.59-1.34-1.56s.41-3 .7-4.87a7.77 7.77 0 0 1-1.79-.06c-1.4-.23-1.25-2.14.27-1.8a4.91 4.91 0 0 0 1.8 0c.19-1.22.38-2.26.51-2.85a.94.94 0 1 1 1.83.46c-.14.43-.27 1.06-.42 1.76a7.43 7.43 0 0 0 1-.61c1.31-.93 2.51 1 .74 1.79a22.06 22.06 0 0 1-2.14.89c-.29 1.69-.58 3.36-.71 4.02zm21.28-4.19c1.59-.14 2.81.79 2.88 2.92a11.33 11.33 0 0 1-.67 4.23 3.68 3.68 0 0 1-4.46 2.28c-1.5-.44-.89-2.19.27-1.9a1.82 1.82 0 0 0 2.41-1 8.56 8.56 0 0 0 .6-3.28c0-1.15-.4-1.7-1.27-1.63-.28 0-.57.06-.87.1a27.84 27.84 0 0 1-3.68 7.59c-.91 1.29-2.88.19-1.65-1.19a18.45 18.45 0 0 0 3.36-6.17h-.23a13.3 13.3 0 0 1-2 .27.92.92 0 1 1-.06-1.83c.59 0 1.18 0 1.86-.09l1-.1a20.58 20.58 0 0 0 .59-3c.13-1.23 2.07-1.12 1.91.15a22.77 22.77 0 0 1-.55 2.67zm7 4.27a6.79 6.79 0 0 0-2.71-3.27c-.93-.51-.1-1.93 1.08-1.25a7.88 7.88 0 0 1 3.38 3.61c.46 1.25-1.26 2.08-1.77.89zM212 4.17c-1-.36-.3-1.53.59-1.25A6.16 6.16 0 0 1 214.57 4c.78.74-.25 1.94-.91 1.24A6.72 6.72 0 0 0 212 4.17zm1.64-1.68c-1-.33-.38-1.54.53-1.29a6.25 6.25 0 0 1 2 1c.8.72-.21 2-.89 1.27a6.93 6.93 0 0 0-1.6-.98zM222 16.94a.88.88 0 0 1-.89-.89.8.8 0 0 1 .84-.8 11.28 11.28 0 0 0 4.29-1.25 7.2 7.2 0 0 1-1.38-1.56 11.69 11.69 0 0 1-4.61 3 .83.83 0 0 1-.84-.83.81.81 0 0 1 .53-.74 14.12 14.12 0 0 0 5.43-4.42.92.92 0 0 1 .74-.36.83.83 0 0 1 .89.74.71.71 0 0 1-.08.34l3.08-.06c1 0 1.48.54 1.48 1.14s-.55 1.29-2.24 2.73a14.71 14.71 0 0 0 5.39.88.75.75 0 0 1 .77.81c0 .74-.57 1-1.29 1a12.69 12.69 0 0 1-6.37-1.6 14 14 0 0 1-5.74 1.87zm-1.49-8.59a.92.92 0 0 1-1-.89.78.78 0 0 1 .53-.73 7.26 7.26 0 0 0 2.64-1.95.79.79 0 0 1 .62-.28.91.91 0 0 1 .91.87.88.88 0 0 1-.21.63c-1.06 1-2.71 2.35-3.54 2.35zM230 3.72V7a2.05 2.05 0 0 1-2.19 2.22c-.53 0-1.51-.06-1.51-1a.76.76 0 0 1 .7-.83.72.72 0 0 1 .19 0 2.25 2.25 0 0 0 .55.09c.34 0 .6-.19.6-.8v-3h-1.57v.13a6.52 6.52 0 0 1-3.39 6.19 1.29 1.29 0 0 1-.63.19.92.92 0 0 1-.93-.87.86.86 0 0 1 .55-.76A4.4 4.4 0 0 0 225.14 4v-.3h-4.63a.82.82 0 0 1-.89-.82.86.86 0 0 1 .89-.85h6V.89a.89.89 0 0 1 1-.89.9.9 0 0 1 1 .89v1.16h6a.82.82 0 0 1 .86.83.82.82 0 0 1-.86.84zm-2.34 9.35a10.16 10.16 0 0 0 1.34-1.19.49.49 0 0 0 .14-.27c0-.13-.12-.17-.23-.17h-2.83a6.76 6.76 0 0 0 1.56 1.63zm6-5A8 8 0 0 0 231 6.22a.62.62 0 0 1-.43-.61 1 1 0 0 1 .91-.92A8 8 0 0 1 235 6.6a1 1 0 0 1 .32.72 1.08 1.08 0 0 1-1 1.06.87.87 0 0 1-.64-.3zm9.62 4.85c-.27.43-.55.95-.89 1.53-.78 1.37-2.58.31-1.75-.94a8.61 8.61 0 0 1 .57-.76 29.08 29.08 0 0 0 2.52-4.63v-.46a.31.31 0 0 0-.25 0 11.68 11.68 0 0 0-1.36.82c-1.37.85-2-1-.91-1.56.7-.32 1.72-.81 2.69-1.21.13-1.39.25-2.58.32-3.4.12-1.33 2-1.06 1.86.06-.09.68-.22 1.61-.36 2.71.74 0 1.25.93.4 2.15-.09.13-.38.66-.76 1.34v.1A13.37 13.37 0 0 1 247 7.66c3.38-1.8 6.4-1.17 7.76.38s1.06 4.12-1.8 6.19a11.54 11.54 0 0 1-2.69 1.38 1 1 0 1 1-.61-1.93 10.16 10.16 0 0 0 2-.93c2-1.35 2.24-2.83 1.4-3.7s-2.82-1.14-5.44.21a11 11 0 0 0-2.39 1.59 23.52 23.52 0 0 0 .15 4.51 1 1 0 0 1-.87 1.22 1 1 0 0 1-1.14-1 18.19 18.19 0 0 1 0-2.81zm22.41 2.31a8.72 8.72 0 0 0 3.3-10c-.62-1.9-2.43-1.2-3 0a6.29 6.29 0 0 0-.49 3.58c.09 1.84-1.95 1.82-2.07.46a17 17 0 0 1 .44-4.39c.21-1 .57-2.22.72-3.37a1 1 0 0 1 1.9.17 5.7 5.7 0 0 1-.5 1.76c-.24.52-.05.27.14 0 1.38-1.78 3.85-1 4.62 1.14A10.34 10.34 0 0 1 267 16.71c-1.52 1.14-2.9-.43-1.31-1.48zm20.02.34c-1.77.29-1.9-1.8-.38-2a10.1 10.1 0 0 0 5.57-2.22c1.62-1.42 1.73-3 .86-4-1.22-1.35-3.36-1.35-5.07-.82A18.94 18.94 0 0 0 284 7.64c-.85.42-1.71.86-2.64 1.29a1.06 1.06 0 1 1-.95-1.93 43.43 43.43 0 0 1 5.94-2.22c2.16-.55 5-.53 6.79 1.29 2.05 2.14 1.29 4.85-1 6.79a13.18 13.18 0 0 1-6.43 2.71zm19.96 0c-1.76.29-1.9-1.8-.38-2a10.16 10.16 0 0 0 5.58-2.22c1.61-1.42 1.72-3 .85-4-1.21-1.35-3.36-1.35-5.06-.82a19.08 19.08 0 0 0-2.72 1.11c-.85.42-1.7.86-2.63 1.29a1.06 1.06 0 1 1-.93-1.93 43.77 43.77 0 0 1 5.93-2.22c2.17-.55 5.05-.53 6.8 1.29 2 2.14 1.28 4.85-1.05 6.79a13.1 13.1 0 0 1-6.39 2.71zm19.15-1.65a15.69 15.69 0 0 1-2.07 1.29c-1.18.61-3 .31-2.77-2.23a7.42 7.42 0 0 1 3.39-5c.25-.15.52-.31.8-.46.06-.72.13-1.48.23-2.25a7.23 7.23 0 0 1-2.4-.22.88.88 0 1 1 .53-1.67 5.65 5.65 0 0 0 2.05.15c.07-.55.17-1.12.24-1.69.21-1.4 2-1.1 1.84 0-.07.47-.17 1-.24 1.38a18.35 18.35 0 0 0 2.58-.7c1.1-.41 1.93 1.2.43 1.69a23.88 23.88 0 0 1-3.28.84l-.25 1.68a7.66 7.66 0 0 1 2-.41h.22c.14-1.12 1.88-.76 1.81.15 5.54 1 5.25 8-1.22 10.11-1.71.57-2.18-1.19-.62-1.71 4.72-1.53 4.91-6 1.48-6.86a12.25 12.25 0 0 1-3.29 4.72 3.41 3.41 0 0 0 .21.38c.67 1.1-.91 2.31-1.63 1zm-.74-4.66a5.33 5.33 0 0 0-2.43 3.56c-.06.76.45.84 1 .57a15.09 15.09 0 0 0 1.68-1.1 15 15 0 0 1-.25-3.03zm3.62-1.41a8.63 8.63 0 0 0-2 .51 13.68 13.68 0 0 0 0 2.59 8.76 8.76 0 0 0 2-3.1zm21.52 5.86c1.39-1.23 1.33-3 .25-3.75a5 5 0 0 0-5 .32 4.17 4.17 0 0 0-1.59 1.42c-.69 1-2.58-.11-1.41-1.27a67.29 67.29 0 0 0 5.73-6.12c.21-.27 0-.19-.13-.12a14.54 14.54 0 0 1-3.19 1c-1.5.32-1.78-1.56-.49-1.71a29.37 29.37 0 0 0 4.17-.93c1.52-.43 2.77.91 1.82 2-.6.68-1.36 1.42-2.12 2.12s-1.52 1.39-2.2 2.05a5.83 5.83 0 0 1 5.33-.06c2.73 1.63 1.84 5-.15 6.41s-4.84 1.43-6.28.48c-2-1.31-1.12-3.66 1.12-3.74a2.68 2.68 0 0 1 3 2.56 2.43 2.43 0 0 0 1.14-.66zm-4-.56c-.83.07-.87.85-.26 1.17a3.35 3.35 0 0 0 1.59.29c-.02-.88-.55-1.54-1.37-1.46zm16.34.55a9.81 9.81 0 0 1-2.14-6.07 17.66 17.66 0 0 1-.09-2.11 1 1 0 1 1 1.93 0v1.65c.08 2 .44 3.87 1.5 4.9.49.47.74.53 1.16 0a7.91 7.91 0 0 0 .62-1.12.93.93 0 0 1 1.73.68 8.58 8.58 0 0 1-.74 1.46c-1.22 1.91-2.9 1.74-3.97.61zm10.27-3.34a6 6 0 0 0-2.11-3.68c-.91-.63.11-2 1.25-1.18a7.29 7.29 0 0 1 2.85 4.4 1 1 0 1 1-1.99.46zm13.84-4.73a16.21 16.21 0 0 1-3 .23c-1.46 0-1.53-2 .19-1.8a11.08 11.08 0 0 0 2.94-.13V1.42a1 1 0 0 1 1.94 0c-.06.69-.1 1.44-.12 2.2.4-.07.84-.19 1.29-.28 1.26-.29 1.77 1.48.12 1.75-.51.07-1 .17-1.42.24v2.11c.46-.14.93-.27 1.45-.44 1.4-.45 2.12 1.29.43 1.76-.66.19-1.27.37-1.82.5 0 .64.08 1.23.13 1.78s.12 1.2.16 1.88a8.81 8.81 0 0 1 2.35 1.35c1.27 1 0 2.77-1.16 1.67a8.13 8.13 0 0 0-1.38-1 3.89 3.89 0 0 1-5.32 1.73c-1.8-.89-1.91-3 .16-3.89a6.41 6.41 0 0 1 3.62-.32c0-.4-.06-.8-.1-1.24s-.07-1-.11-1.57a10.5 10.5 0 0 1-3.45.21A.94.94 0 1 1 383 8a8.28 8.28 0 0 0 3-.17c0-.73-.08-1.47-.1-2.21zm-2.45 8.46a.58.58 0 0 0-.05 1.09 2.1 2.1 0 0 0 2.92-1.07 4.16 4.16 0 0 0-2.87-.02zm17.6 1.26c-.57 1.27-2.58.72-1.78-.9a58 58 0 0 0 3.32-8.23 5.48 5.48 0 0 1-2.77-.22c-1-.42-.78-2.15.64-1.64a5 5 0 0 0 2.62.12 7.85 7.85 0 0 0 0-2.05c-.07-1.08 1.71-1.14 1.9-.09a5.42 5.42 0 0 1 0 1.51c.26-.13.49-.26.72-.4a.91.91 0 1 1 .74 1.64 11.66 11.66 0 0 1-1.92.75 73.93 73.93 0 0 1-3.47 9.51zm4.61-.86c-.81-.91.36-2.41 1.35-1.4s2.12.89 4.34.7a1 1 0 1 1 .25 2c-2.75.51-5.1-.37-5.94-1.3zm2.15-6.62c-1 .36-1.58-1.19-.33-1.63a7 7 0 0 1 4.56.1c1.27.45.75 2.12-.44 1.72a6.66 6.66 0 0 0-3.79-.19zm2.14-4.4c-1-.4-.21-1.55.66-1.23a5.75 5.75 0 0 1 1.88 1.14c.74.79-.38 2-1 1.21a6.69 6.69 0 0 0-1.54-1.12zm1.71-1.67c-1-.38-.29-1.53.6-1.25a6 6 0 0 1 1.97 1.1c.76.76-.32 1.94-1 1.21a6.75 6.75 0 0 0-1.57-1.06zm13.87 3.95c1.6-.14 2.81.79 2.89 2.92a11.54 11.54 0 0 1-.65 4.23 3.68 3.68 0 0 1-4.46 2.28c-1.5-.44-.89-2.19.27-1.9a1.82 1.82 0 0 0 2.41-1 8.56 8.56 0 0 0 .6-3.28c0-1.15-.39-1.7-1.27-1.63-.28 0-.57.06-.87.1a27.84 27.84 0 0 1-3.68 7.62c-.91 1.29-2.88.19-1.65-1.19a18.28 18.28 0 0 0 3.36-6.17h-.23A13.3 13.3 0 0 1 420 8a.92.92 0 1 1-.06-1.83c.59 0 1.18 0 1.86-.09l1-.1a19.34 19.34 0 0 0 .59-3c.13-1.23 2.07-1.12 1.92.15-.08.65-.33 1.78-.55 2.67zm7 4.27a6.79 6.79 0 0 0-2.71-3.27c-.93-.51-.1-1.93 1.08-1.25A7.83 7.83 0 0 1 434 9.11c.5 1.25-1.21 2.08-1.72.89zm12.91 6.77c-1.54.3-2-1.58-.42-1.9a8.93 8.93 0 0 0 2.54-.81c2.09-1.22 2.66-2.53 2.26-3.29s-1.78-1-3.79-.13a12.39 12.39 0 0 0-2.55 1.63c-1.11 1.08-1.87.55-2.21-.11a6.45 6.45 0 0 1-.16-3.18c.16-1.38.4-2.84.55-3.81.19-1.21 1.92-1.17 1.75.19-.1.8-.3 1.86-.46 2.77a5 5 0 0 0-.11 2c.06.15.15.15.32.06a24 24 0 0 1 2.17-1.08c5.72-2.49 9.76 2.64 3.35 6.56a10.12 10.12 0 0 1-3.24 1.1zm-.08-12.1c-.91.22-1.59-1-.79-1.43.09 0 .28-.15.15-.24a6.35 6.35 0 0 1-1.35-.9c-.81-.89.44-1.89 1.39-1.21.34.25 1 .53 1.53.89a2 2 0 0 1 1.08 1.39A1.22 1.22 0 0 1 446 4.51c-.3.04-.56.1-.87.18zm14.19 9.01a1 1 0 0 1 1.57-1.24c1.61 1.65 4.69 1.52 7.55.7 1.58-.43 2 1.62.49 2.09-3.75 1.18-8.3.29-9.61-1.55zm2.12-7.7c-1.5.28-1.74-1.73-.06-2a20.43 20.43 0 0 1 6.06.06c1.59.34 1.17 2.3-.36 2a14.45 14.45 0 0 0-5.64-.06zm21.4 4c.26-.4.32-.48-.08-.34a15.57 15.57 0 0 0-2 .85 1.86 1.86 0 0 1-1.65.21.93.93 0 0 1 .21-1.78 8.93 8.93 0 0 0 2.18-.71c1.55-1.36 3.26-4.3 4.38-6.05a1 1 0 1 1 1.78 1.06 34.89 34.89 0 0 1-3.85 4.52c-.21.19.06.11.13.08a3.47 3.47 0 0 1 .63-.21 17.58 17.58 0 0 1 4.21-.78 1 1 0 0 1 1 1.38c-.17.36-.64.65-1.59.53a9.3 9.3 0 0 0-2.2.19 2.23 2.23 0 0 0-1.67 1.29 2.77 2.77 0 0 0 2.68 4.4c1.82-.11 1.82 2.38-.26 2.17-4.38-.44-5.52-4.46-3.9-6.81zm-1.56-4.93a3.48 3.48 0 0 0-1.18-1.41c-.93-.57.17-1.91 1.22-1.23A4 4 0 0 1 483 4.19a1 1 0 0 1-.53 1.24.86.86 0 0 1-1.19-.38zm16.97 11.64a7.19 7.19 0 0 0-2.33-2 .83.83 0 0 1 .38-1.59c.66 0 3.7 1.67 3.7 3a1 1 0 0 1-1 1 .86.86 0 0 1-.75-.41zM63.9 47.09a1 1 0 0 1-1-1 1.12 1.12 0 0 1 .34-.78 9.6 9.6 0 0 0 2.11-3.81.9.9 0 0 1 .91-.7 1 1 0 0 1 1 .92 12.23 12.23 0 0 1-2.33 4.84 1.36 1.36 0 0 1-1.03.53zM72 50c-2 0-3.67-.25-3.67-2.5s.1-5.81.16-8.73a1 1 0 0 1 1.93 0c-.09 2.92-.17 6.32-.19 8.46 0 .82.67 1 1.88 1 1.57 0 2.66-.14 2.66-2.21a.88.88 0 0 1 .92-1 1 1 0 0 1 1.09 1.1C76.73 50 73.92 50 72 50zm1-12.54a12.85 12.85 0 0 0-3.51-1.71A.68.68 0 0 1 69 35a1 1 0 0 1 1-1 13.17 13.17 0 0 1 4.29 1.76 1 1 0 0 1 .4.78 1.09 1.09 0 0 1-1 1.08 1.08 1.08 0 0 1-.69-.19zm5.52 7.84A13.84 13.84 0 0 0 75.3 42a.86.86 0 0 1-.38-.68.94.94 0 0 1 1-.87 1.08 1.08 0 0 1 .61.19c2.18 1.42 3.94 3.15 3.94 4a1.14 1.14 0 0 1-1.1 1.12 1 1 0 0 1-.86-.49zM93 39.16a15 15 0 0 1-3.83 7.68c-1.47 1.35-3.06.61-3.89-1-1.2-2.36.07-5.89 2.62-7.65a7.93 7.93 0 0 1 8.1-.46 5.62 5.62 0 0 1 1.76 8 7.92 7.92 0 0 1-4.62 3.13c-1.67.44-2.26-1.48-.63-1.86a5.91 5.91 0 0 0 3.53-2.12A4.11 4.11 0 0 0 95 39a5 5 0 0 0-2.35-.76 1 1 0 0 1 .35.92zm-4.21.36C87 40.88 86 43.41 86.82 44.87c.29.55.78.83 1.25.41A11.39 11.39 0 0 0 91 39a1.42 1.42 0 0 1 .17-.59 6.28 6.28 0 0 0-2.43 1.11zm30.38 6.67l-5.71-.07a7.9 7.9 0 0 0 5.69 2.26.86.86 0 0 1 1 .85 1.05 1.05 0 0 1-1.14 1 9.83 9.83 0 0 1-7.15-3.68c-2 3.19-6.41 3.76-7.29 3.76a.93.93 0 0 1-1-.93.8.8 0 0 1 .78-.81c3.05-.29 4.87-1.18 5.78-2.47l-5.63.07a.73.73 0 0 1-.76-.77.78.78 0 0 1 .78-.82h6.26c0-.21.07-.42.09-.64a.86.86 0 0 1 1-.8c.46 0 .89.24.89.66a5.33 5.33 0 0 1-.09.78h6.6a.76.76 0 0 1 .8.78.77.77 0 0 1-.78.81zm-2.69-2.69v-6.34a.65.65 0 0 0-.69-.71c-1.06 0-2.42-.07-3.81-.07s-2.75 0-3.85.07a.71.71 0 0 0-.76.69v6.33c0 .5-.43.72-.89.72a.83.83 0 0 1-.93-.74v-6.64a2 2 0 0 1 2.22-1.89l2.24-.06c.09-.36.21-.78.26-1.12a1 1 0 0 1 1-.72c.51 0 1.06.3 1.06.8a2.56 2.56 0 0 1-.32 1c1.46 0 2.92 0 4.13.06s2.11.72 2.11 1.82v6.75a.84.84 0 0 1-.93.7c-.44 0-.87-.22-.87-.68zm-1.1-3.3l-2.85-.07.06 2.23a.67.67 0 0 1-.74.61c-.38 0-.76-.21-.76-.61v-1.15a6.31 6.31 0 0 1-2.75 2.06.8.8 0 0 1-.78-.77.62.62 0 0 1 .42-.61 9.8 9.8 0 0 0 2.6-1.75l-2.22.06a.59.59 0 0 1-.61-.63.61.61 0 0 1 .63-.62h.93a5.14 5.14 0 0 0-.61-.93.5.5 0 0 1-.13-.34c0-.34.39-.59.75-.59.73 0 1.31 1.48 1.31 1.61a.6.6 0 0 1-.07.27h.57v-1.6a.68.68 0 0 1 .74-.65.69.69 0 0 1 .76.65v1.6h.37a11.71 11.71 0 0 0 .68-1.56.58.58 0 0 1 .61-.43.79.79 0 0 1 .83.68 5.14 5.14 0 0 1-.66 1.29h.95a.59.59 0 0 1 .58.64.56.56 0 0 1-.56.61zm-.52 2.6a6.43 6.43 0 0 0-1.7-1.08.56.56 0 0 1-.4-.53.71.71 0 0 1 .74-.67c.28 0 2.56.67 2.56 1.65a.81.81 0 0 1-.72.84.7.7 0 0 1-.48-.21zm11.4 5.77c-1.52-3.74 0-9.36.32-11.61a.92.92 0 1 1 1.84.11c-.31 1.54-1.44 6-1 7.76.06.25.13.19.21 0s.25-.48.32-.61a.76.76 0 0 1 1.33.74 9.81 9.81 0 0 0-1.12 2.66c-.11.51.12 1.1-.36 1.51s-1.17.37-1.54-.56zm5.08-1.35a.94.94 0 0 1 1.35-1.31c1 .93 3.3.63 4.78.32s1.63 1.69.38 2c-2.03.53-5.15.47-6.51-1.01zm1.08-7.57a.89.89 0 1 1-.27-1.76 11.46 11.46 0 0 1 5-.12.93.93 0 1 1-.32 1.82 9.65 9.65 0 0 0-4.41.06zm17.32 7.47a15 15 0 0 1-2.06 1.29c-1.18.61-3 .31-2.77-2.23a7.42 7.42 0 0 1 3.39-5l.8-.46c.06-.72.13-1.48.23-2.25a7.23 7.23 0 0 1-2.37-.19.88.88 0 1 1 .53-1.67 5.65 5.65 0 0 0 2 .15c.07-.55.17-1.12.24-1.69.21-1.4 2.05-1.1 1.84 0-.07.47-.17 1-.24 1.38a18.35 18.35 0 0 0 2.56-.74c1.1-.41 1.93 1.2.43 1.69a23.88 23.88 0 0 1-3.28.84l-.25 1.68a8.09 8.09 0 0 1 2-.41h.22c.14-1.12 1.88-.76 1.81.15 5.54 1 5.25 8-1.22 10.11-1.71.57-2.18-1.19-.62-1.71 4.72-1.53 4.91-6 1.48-6.86a12.25 12.25 0 0 1-3.29 4.72 3.41 3.41 0 0 0 .21.38c.67 1.1-.91 2.32-1.63 1zm-.74-4.66a5.34 5.34 0 0 0-2.42 3.54c-.06.76.45.84.94.57a14.32 14.32 0 0 0 1.69-1.1 15.72 15.72 0 0 1-.21-3.01zm3.63-1.41a8.2 8.2 0 0 0-2 .52 13.59 13.59 0 0 0 0 2.58 8.76 8.76 0 0 0 2-3.1zm21.52 5.87c1.39-1.24 1.33-3 .25-3.76a5 5 0 0 0-5 .32 4.17 4.17 0 0 0-1.59 1.42c-.69 1-2.58-.11-1.41-1.27a64.75 64.75 0 0 0 5.73-6.12c.21-.27 0-.19-.13-.12a14.54 14.54 0 0 1-3.19 1c-1.5.32-1.78-1.56-.49-1.71a28.06 28.06 0 0 0 4.17-.93c1.52-.43 2.77.91 1.82 2-.6.68-1.36 1.42-2.12 2.12s-1.52 1.39-2.2 2a5.83 5.83 0 0 1 5.33-.06c2.73 1.63 1.84 5-.15 6.41s-4.84 1.43-6.28.48c-2-1.31-1.12-3.66 1.12-3.74a2.69 2.69 0 0 1 3 2.56 2.51 2.51 0 0 0 1.14-.6zm-4-.57c-.83.07-.87.85-.26 1.17a3.35 3.35 0 0 0 1.59.29c-.02-.88-.48-1.54-1.37-1.46zm15.48 3.56a7.29 7.29 0 0 0-2.33-2 .83.83 0 0 1 .38-1.59c.66 0 3.7 1.67 3.7 3a1.06 1.06 0 0 1-1 1 .86.86 0 0 1-.75-.41zm8.78-7.6a.76.76 0 1 1 0-1.52h4.82v-3.72h-3.93a.74.74 0 0 1-.78-.74.73.73 0 0 1 .78-.74h3.66a7.62 7.62 0 0 0-1-1.14.53.53 0 0 1-.19-.42c0-.38.47-.72.93-.72.81 0 2.06 1.69 2.06 2.28h1.75a12 12 0 0 0 .95-1.9.81.81 0 0 1 .78-.55 1 1 0 0 1 1 .86 4.33 4.33 0 0 1-.91 1.59h3.6a.72.72 0 0 1 .76.74.71.71 0 0 1-.76.74h-3.92v3.74h4.85a.76.76 0 1 1 0 1.52zm3.23-1.9a.65.65 0 0 1-.59-.36 5.86 5.86 0 0 0-1.27-1.46.57.57 0 0 1-.21-.42c0-.36.43-.68.87-.68.72 0 2.13 1.5 2.13 2a1 1 0 0 1-.93.92zm7.2 9.48h-6.27c-1.33 0-1.94-.71-2-1.6v-3.45c0-.72.55-1.52 2-1.54h6.19c1.16 0 2 .7 2 1.42.05.54.07 1.16.07 1.79s0 1.23-.07 1.78a1.84 1.84 0 0 1-1.92 1.6zm.27-4c0-1-.06-1.17-.74-1.19h-5.31c-.84 0-.84.51-.84 1.19zm-6.89 1.27v.65c.06.72.19.74 3.82.74h2.22c.71 0 .83-.44.83-1.33zm4.1-10.09H201v3.78h1.36zm3.07 3.64a.73.73 0 0 1-.77-.64.51.51 0 0 1 .17-.4 10.81 10.81 0 0 0 1.31-1.9.77.77 0 0 1 .7-.45.9.9 0 0 1 .89.87c0 .67-1.65 2.26-1.75 2.33a.84.84 0 0 1-.55.17zM218 46.27c.93 1.48 2.79 1.92 5.67 1.92 2 0 4.14-.21 5.58-.33h.1a.89.89 0 0 1 .91.91.93.93 0 0 1-.95.93c-1.2.12-3 .23-4.8.23-4.88 0-6.3-.87-7.38-2.33-1 1.06-2.13 2.26-2.87 2.26a1.08 1.08 0 0 1-1-1 .81.81 0 0 1 .48-.72 9.19 9.19 0 0 0 2.54-2c0-1.16.07-2.15.07-3.11 0-.48-.24-.54-.87-.54h-.76c-.3 0-1.06 0-1.06-.81a.81.81 0 0 1 .8-.85h1.91c1.2 0 1.77.55 1.77 1.73v.06c0 .76-.06 1.63-.08 2.48a1.15 1.15 0 0 1 .08-.15 10.88 10.88 0 0 0 1.13-5.54v-1.57c0-.72.38-1.37 1.55-1.39h6.26c1.58 0 1.79.74 1.79 1.79 0 1.38-.69 1.65-1.77 1.68h-6.24c-.06 2-.32 4.33-1.16 5.66a1 1 0 0 1-.87.47.85.85 0 0 1-.76-.4zm-1.48-8.86a5.71 5.71 0 0 0-1.86-1.65.67.67 0 0 1-.38-.59 1 1 0 0 1 1-.85c.57 0 2.94 1.46 2.94 2.43a1.1 1.1 0 0 1-1 1.06.74.74 0 0 1-.68-.4zm2.73-1.74a.71.71 0 0 1-.77-.72.77.77 0 0 1 .77-.8h9.32a.76.76 0 0 1 0 1.52zm8.29 8.84h-1v1.91a.65.65 0 0 1-.67.69.64.64 0 0 1-.64-.69v-1.91h-.82v1.91a.66.66 0 1 1-1.31 0v-1.91h-.94v2.1a.68.68 0 0 1-.67.76.73.73 0 0 1-.7-.78v-4.26c0-1 .45-1.56 1.63-1.56h4.89a1.5 1.5 0 0 1 1.69 1.57v3.34c0 1-.41 1.52-1.36 1.52s-1-.32-1-.78.17-.68.51-.68h.12c.15 0 .26-.09.26-.63zm-6.73-5.83h2.09c1.55 0 2.75 0 3.69-.05.36 0 .55-.1.55-.46s0-.48-3.16-.48h-2.64c-.44 0-.53.25-.53.61zm2.31 3.32h-.38c-.39 0-.55.19-.55.55v.78h.93zm2.13 0h-.82v1.37h.82zm2.29.57c0-.32-.13-.55-.53-.55h-.45v1.35h1zm15.2-8.42a.79.79 0 0 1 .83-.66.91.91 0 0 1 1 .85 11.31 11.31 0 0 1-.76 2.33h2.81c.86 0 2.81 0 2.94 2.24 0 .67.07 1.56.07 2.53 0 4.64-.81 8.63-4.79 8.63a8.59 8.59 0 0 1-1.85-.25 1 1 0 0 1-.75-1 .83.83 0 0 1 .85-.89 1.77 1.77 0 0 1 .3 0 6.33 6.33 0 0 0 1.45.21c1.25 0 2.94-.65 2.94-6.77 0-2.45 0-3.08-.95-3.08H243c-1 2.07-1.52 2.43-2 2.43a.92.92 0 0 1-.64-.25v5.87c0 1.7-1.67 1.78-3.09 1.78-.44 0-.88 0-1.29-.06a1.72 1.72 0 0 1-1.64-1.74v-7.99a1.64 1.64 0 0 1 1.77-1.63h.25a18.55 18.55 0 0 0 .55-2.33.81.81 0 0 1 .85-.74 1 1 0 0 1 1 .85 11.83 11.83 0 0 1-.72 2.2c2 0 2.28 1 2.3 1.58v1.1a14.7 14.7 0 0 0 2.4-5.21zm-4.1 7.25c0-2.94 0-3.19-.55-3.19h-1.56a.53.53 0 0 0-.53.53v2.66zM236 42.89v3.08c0 .41.23.57 1.26.57.81 0 1.29 0 1.32-.59 0-.86.08-1.94.08-3.06zm8.27 1.1a6.63 6.63 0 0 0-2.16-1.7.77.77 0 0 1-.47-.69.87.87 0 0 1 .89-.83c.64 0 3.38 1.42 3.38 2.56a1 1 0 0 1-1 1 .81.81 0 0 1-.66-.33zm12.39-5.42a.87.87 0 1 1 .55-1.63 5 5 0 0 0 2.6-.06 12.79 12.79 0 0 0 .38-1.92.91.91 0 0 1 1.8.18 5.89 5.89 0 0 1-.27 1.15 5.66 5.66 0 0 0 .61-.32c.86-.61 2.05.57.84 1.44a7.24 7.24 0 0 1-2 .87 47.23 47.23 0 0 1-3.4 6.4c-.7 1.14-2.52.4-1.69-.84a35.66 35.66 0 0 0 3.11-5.18 5.16 5.16 0 0 1-2.53-.09zm3.26 10.68c-1.76-.89-2-2.94 0-3.81a6.15 6.15 0 0 1 3.65-.36v-.67c0-.47 0-.95-.06-1.42a5.94 5.94 0 0 1 .09-1.27.87.87 0 0 1 1.71.34 3.59 3.59 0 0 0-.11.89v1.46c0 .36.05.76.07 1.18a6.71 6.71 0 0 1 2.32 1.52c1.08 1.19-.46 2.54-1.37 1.44a5.21 5.21 0 0 0-1.08-1 3.8 3.8 0 0 1-5.22 1.7zm.61-2.49a.58.58 0 0 0 0 1.1c1.14.57 2.67 0 2.88-1v-.19a3.83 3.83 0 0 0-2.88.09zm4.23-7c-1 .06-1.12-1.51.1-1.63a6 6 0 0 1 3.49.67c1.29.77.3 2.35-.63 1.76a4.92 4.92 0 0 0-2.96-.8zm14.16 3.7a.88.88 0 0 1-1.74 0l.07-3.9a16.45 16.45 0 0 1-2.39 2.77.88.88 0 0 1-.59.24.9.9 0 0 1-.87-.87.74.74 0 0 1 .36-.64 15.69 15.69 0 0 0 3.43-3.63h-2.25a.77.77 0 0 1-.82-.78.79.79 0 0 1 .84-.78h2.27v-1.61a.88.88 0 0 1 1.74 0s0 .67-.06 1.61h1.92a.72.72 0 0 1 .74.76.75.75 0 0 1-.72.8h-1.93v1.05a.72.72 0 0 1 .36-.1c.19 0 2.2.91 2.2 1.8a.88.88 0 0 1-.78.89.68.68 0 0 1-.53-.26 8.23 8.23 0 0 0-1.25-1.16c0 2.37.09 3.81.09 3.81zm-5.27 5.35a.82.82 0 0 1 .49-.74 4.83 4.83 0 0 0 1.73-1.82.76.76 0 0 1 .74-.53.92.92 0 0 1 .93.84c0 .79-1.79 3.18-3 3.18a.94.94 0 0 1-.89-.93zm8.23 1.24c-3.22 0-3.72-.76-3.72-2.17v-1.51c0-.8 0-1.54.93-1.54a.84.84 0 0 1 .91.8v2.06c0 .78.69.82 2 .82 1.69 0 2.43-.11 2.43-1 0-.49.39-.7.81-.7s1 .29 1 .74c-.07 2.12-1.32 2.5-4.36 2.5zm.4-3.59a5.65 5.65 0 0 0-1.61-1.35.66.66 0 0 1-.36-.55.89.89 0 0 1 .91-.79c.32 0 2.61 1 2.61 2.06a1 1 0 0 1-.93 1 .78.78 0 0 1-.62-.37zm4.89-2.52h-3.34a1.65 1.65 0 0 1-1.76-1.71v-6.19a1.65 1.65 0 0 1 1.78-1.65h3.32A1.74 1.74 0 0 1 289 36c0 .89.06 2 .06 3.15s0 2.24-.06 3.09a1.82 1.82 0 0 1-1.83 1.7zm.27-5.52h-3.85v1.34h3.85zm0-1.37v-.61c0-.72-.25-.74-2-.74-1.43 0-1.77 0-1.8.76v.59zm-3.81 4.06v.74c0 .7.41.72 1.68.72 1.9 0 2.07 0 2.09-.74v-.72zm5.37 8.08a.81.81 0 0 1-.72-.45 6.68 6.68 0 0 0-1.84-2 .71.71 0 0 1-.34-.58.85.85 0 0 1 .89-.78c.74 0 3 1.9 3 2.83a1 1 0 0 1-.99.98zm8.22-2.29a9.82 9.82 0 0 1-2.15-6.07 20.09 20.09 0 0 1-.09-2.11 1 1 0 1 1 1.94 0v1.65c.07 2 .43 3.87 1.49 4.9.5.47.74.53 1.16 0a8 8 0 0 0 .63-1.12.93.93 0 0 1 1.72.68 8.58 8.58 0 0 1-.74 1.46c-1.18 1.92-2.9 1.71-3.96.61zm10.26-3.34a6 6 0 0 0-2.1-3.68c-.91-.63.11-2 1.25-1.18a7.32 7.32 0 0 1 2.84 4.4 1 1 0 1 1-1.99.46zm8.74 5.01c-1.51-3.74 0-9.36.33-11.61a.92.92 0 1 1 1.84.11c-.31 1.54-1.45 6-1 7.76.06.25.13.19.21 0s.24-.48.32-.61a.76.76 0 0 1 1.33.74 9.49 9.49 0 0 0-1.12 2.66c-.11.51.11 1.1-.36 1.51s-1.17.37-1.55-.56zm5.09-1.35a.94.94 0 0 1 1.34-1.31c1 .93 3.3.63 4.78.32s1.64 1.69.38 2c-2.03.53-5.14.47-6.5-1.01zm1.08-7.57a.89.89 0 1 1-.27-1.76 11.46 11.46 0 0 1 5-.12.93.93 0 1 1-.32 1.82 9.65 9.65 0 0 0-4.41.06zm21.91 9.85h-2.49c-4.31 0-5.88 0-6-2.6 0-1.13-.05-3-.05-5s0-3.89.05-5.14a2.19 2.19 0 0 1 2.45-2.27c.78 0 2.43-.06 3.93-.06 1 0 2 0 2.6.06a2.21 2.21 0 0 1 2.35 2.12c0 1.21.06 3.47.06 5.62v4.61c-.06 1.84-1.06 2.58-2.9 2.66zm1.15-8.94h-7.93v2.68h7.93zm0-1.61v-1.54c-.06-1.27-.5-1.29-3.82-1.29-1 0-2 0-2.63.06-1.33.07-1.41.4-1.41 2.77zm-7.89 5.9v1.72c0 1.28.59 1.29 4 1.29h2.35c1.46-.08 1.46-.65 1.46-3zm23.76-8.75a5.65 5.65 0 0 0 .8-.34c1-.62 2.06 1 .66 1.65a10.32 10.32 0 0 1-2.09.63 17.36 17.36 0 0 1-.91 1.91A2.78 2.78 0 0 1 363 41.6c.78-.39 1.57-.79 2.31-1.12a11.44 11.44 0 0 0 1.48-.7 1 1 0 1 1 1.07 1.71c-.61.3-1.05.4-2.05.78-.8.3-1.65.68-2.41 1a18 18 0 0 1 0 2.09 1.12 1.12 0 0 1-1 1.17c-.47 0-.91-.34-.85-1.08v-1.23l-.49.28c-2.35 1.52-2.07 2.66-1 3.19s2.86.13 3.75-.15c1.67-.51 2.2 1.54.46 2-1.12.29-3.7.57-5.18-.26-2.56-1.45-2.11-4 1.33-6.26.26-.17.57-.38.93-.59-.52-1.6-2-1.41-3.21 0l-.08.07a5.06 5.06 0 0 1-.43.5c-1.05.93-2.43-.16-1.29-1.18a9.54 9.54 0 0 0 1.53-1.78 15.07 15.07 0 0 0 .9-1.69 3.89 3.89 0 0 1-2.36-.21c-1.36-.68-.43-2.47.9-1.58a2.83 2.83 0 0 0 1.78 0h.28a7.38 7.38 0 0 0 .21-1.59c.08-1.14 1.86-1 1.9-.09a3.7 3.7 0 0 1-.15 1.1zm27.17 11.38c0 1.12-.93 2.53-3.53 2.53-1.19 0-2.27-.16-2.27-1.11a.83.83 0 0 1 .87-.83 1.1 1.1 0 0 1 .25 0 6.72 6.72 0 0 0 1.25.13c.83 0 1.5-.24 1.5-1.1 0-6.39 0-7.66-.06-8 0-1.08-.42-1.27-1.35-1.29h-8.11c-1.08 0-1.38.32-1.4 1.29 0 1.72-.06 3.45-.06 5.16v5.16a.86.86 0 0 1-.93.83.87.87 0 0 1-1-.81c0-3.53 0-7.46.12-11.2a2.14 2.14 0 0 1 2.37-2.06h2.75a18 18 0 0 0 .59-2.28c0-.41.49-.6.95-.6s1.12.28 1.12.83a8.14 8.14 0 0 1-.71 2c1.71 0 3.46 0 5.16.06a2.28 2.28 0 0 1 2.32 2.22c0 2.14 0 4.23.07 6.37zM377.56 43v-1.63a1.59 1.59 0 0 1 1.54-1.63h3.68a1.72 1.72 0 0 1 1.71 1.51v3.23a1.81 1.81 0 0 1-1.77 1.78h-3.58a1.7 1.7 0 0 1-1.58-1.76c.02-.43 0-.98 0-1.5zm5.28.19v-1.37c0-.62-.53-.62-1.65-.62h-1.35c-.6 0-.62.45-.62 1.61v1.31c0 .53.24.59 1.89.59 1.27 0 1.69-.08 1.71-.61.02-.22.02-.56.02-.94zm13.39 4.48c-1.7-3.28-.83-6.88-.62-9.21.09-1.09.21-1.69.25-2.51a.92.92 0 0 1 1.84 0c0 .59-.18 1.57-.31 2.54-.23 1.6-.78 3.23-.49 5.1.06.33.17.46.32.06.1-.23.3-.61.4-.83a.75.75 0 1 1 1.4.55 10.18 10.18 0 0 0-.95 3.32c0 .2.12.75-.15 1.1a1 1 0 0 1-1.69-.12zm9.6-9.59c.42-.1.8-.18 1.12-.27 1.22-.34 2 1.31.34 1.65-.49.11-1 .23-1.49.32 0 .55 0 1.12.07 1.88.17 3.8-.81 6.55-3.77 8.63-1.1.78-2.3-.7-1.12-1.46 2.43-1.57 3.18-3.89 3.11-7.13 0-.59 0-1.12-.06-1.63a13.93 13.93 0 0 1-3.19.13c-1.27-.11-1.15-2 .31-1.73a11.32 11.32 0 0 0 2.86-.09v-.49a11.6 11.6 0 0 0-.21-2.24c-.15-1.41 1.73-1.33 2-.29a9.27 9.27 0 0 1 .09 2.26zm17.58 8.84c1.39-1.24 1.33-3 .25-3.76a5 5 0 0 0-5 .32 4.17 4.17 0 0 0-1.59 1.42c-.69 1-2.58-.11-1.41-1.27a64.75 64.75 0 0 0 5.73-6.12c.21-.27 0-.19-.13-.12a14.54 14.54 0 0 1-3.19 1c-1.5.32-1.78-1.56-.49-1.71a28.06 28.06 0 0 0 4.17-.93c1.52-.43 2.77.91 1.82 2-.6.68-1.36 1.42-2.12 2.12s-1.52 1.39-2.2 2a5.83 5.83 0 0 1 5.33-.06c2.73 1.63 1.84 5-.15 6.41s-4.84 1.43-6.28.48c-2-1.31-1.12-3.66 1.12-3.74a2.69 2.69 0 0 1 3 2.56 2.45 2.45 0 0 0 1.14-.6zm-4-.57c-.83.07-.87.85-.26 1.17a3.35 3.35 0 0 0 1.59.29c-.02-.88-.53-1.54-1.37-1.46zm14.78 3.98a2.17 2.17 0 1 1 2.17-2.16 2.16 2.16 0 0 1-2.17 2.16zm0-3.59a1.43 1.43 0 0 0-1.44 1.43 1.44 1.44 0 1 0 2.88 0 1.43 1.43 0 0 0-1.44-1.43zM37.64 76.38c.26-.4.32-.47-.08-.34a17.12 17.12 0 0 0-2 .85 1.83 1.83 0 0 1-1.65.21.93.93 0 0 1 .21-1.78 8.89 8.89 0 0 0 2.18-.7c1.55-1.37 3.26-4.31 4.38-6.06a1 1 0 1 1 1.78 1.07 35.42 35.42 0 0 1-3.85 4.51c-.21.19.06.11.13.08a3.47 3.47 0 0 1 .63-.21 17.58 17.58 0 0 1 4.21-.78 1 1 0 0 1 1 1.39c-.17.36-.64.64-1.59.53a8.35 8.35 0 0 0-2.2.19 2.18 2.18 0 0 0-1.67 1.29 2.77 2.77 0 0 0 2.67 4.42c1.82-.12 1.82 2.37-.26 2.16-4.37-.44-5.53-4.46-3.89-6.83zm-1.56-4.93A3.48 3.48 0 0 0 34.9 70c-.93-.57.17-1.91 1.22-1.23a4 4 0 0 1 1.67 1.78 1 1 0 0 1-.53 1.24.85.85 0 0 1-1.18-.34zm18.18 7.38c-.08-2 .13-3.61.22-5.62.06-1.23.19-3.09.16-4.27a1 1 0 0 1 2.06 0c0 1.19-.17 3-.26 4.26a52.28 52.28 0 0 0-.34 5.58c.11 2.77 3.49 2.58 6.79 0a1.05 1.05 0 1 1 1.31 1.65c-3.7 2.97-9.77 3.57-9.94-1.6zm22.13-5.39a7.1 7.1 0 0 1 .61-1c.3-.4.21-.38-.15-.26a23.33 23.33 0 0 0-2.39 1c-.61.22-1.14.41-1.71.57-1.67.45-2.16-1.73-.64-2 .4-.1 1.5-.31 2.1-.46.93-.23 2.58-.61 4.52-1.16a25.93 25.93 0 0 1 5.18-1.12 1.13 1.13 0 0 1 1.29 1.47c-.12.32-.54.7-1.86.62a8.06 8.06 0 0 0-2.83.53 5.51 5.51 0 0 0-2.43 2.22c-1.67 2.79-.4 6.77 3.85 6.62 2-.07 2.11 2.16.1 2.15-5.73-.11-7.7-5.37-5.64-9.18zm16.1 9.67a7.19 7.19 0 0 0-2.33-2 .83.83 0 0 1 .38-1.59c.66 0 3.7 1.67 3.7 3a1 1 0 0 1-1 1 .86.86 0 0 1-.75-.41zM112 74.58a9.8 9.8 0 0 1 1.41 3c.15 1.35-1 1.67-2 1a2.14 2.14 0 0 0-.78-.33 11.56 11.56 0 0 0-4.68-.05c-1.06.32-1.39 1.29-.38 1.88a7.57 7.57 0 0 0 3.93.68c1.74-.08 1.63 2-.17 2a9.53 9.53 0 0 1-4.75-1.12c-2.22-1.36-1.95-4.44 1.08-5a18.73 18.73 0 0 1 4.82-.14c.29 0 .36-.07.29-.32a4.64 4.64 0 0 0-.48-1.06c-.34-.59-.79-1.27-1.25-2a2.83 2.83 0 0 1-.36.07 7.43 7.43 0 0 1-5.14-.32c-1.18-.61-.59-2.33.78-1.67a5 5 0 0 0 3.68.25 18.94 18.94 0 0 1-1.1-1.94c-.7-1.53 1.42-2 1.8-.6a10.72 10.72 0 0 0 1 2l.81-.29a4.35 4.35 0 0 0 .7-.38c1.54-.78 2.2 1.06 1 1.65a14.8 14.8 0 0 1-1.58.69c.47.69.92 1.42 1.37 2zM127.48 72a17.21 17.21 0 0 1-3 .22c-1.46 0-1.54-2 .19-1.8a10.66 10.66 0 0 0 2.94-.13v-2.51a1 1 0 0 1 1.94 0c-.06.69-.1 1.45-.12 2.2.4-.07.84-.18 1.29-.28 1.25-.28 1.77 1.48.12 1.75-.52.07-1 .17-1.43.24v2.11c.46-.13.93-.27 1.44-.44 1.41-.45 2.13 1.29.44 1.77-.66.19-1.27.36-1.82.49 0 .64.07 1.23.13 1.78s.12 1.2.15 1.88a8.72 8.72 0 0 1 2.36 1.35c1.27 1 0 2.77-1.16 1.67a9 9 0 0 0-1.39-1 3.86 3.86 0 0 1-5.27 1.7c-1.8-.89-1.91-3 .15-3.89a6.45 6.45 0 0 1 3.63-.32c0-.4-.06-.8-.1-1.24s-.07-1-.11-1.57a10.52 10.52 0 0 1-3.45.21.94.94 0 1 1 .39-1.82 8.28 8.28 0 0 0 3-.17c0-.72-.07-1.46-.09-2.2zM125 80.5a.57.57 0 0 0 0 1.08 2.1 2.1 0 0 0 2.92-1.07 4.16 4.16 0 0 0-2.92-.01zm25.89-5.92a9.57 9.57 0 0 1 1.4 3c.15 1.35-1 1.67-1.95 1a2.29 2.29 0 0 0-.78-.33 11.6 11.6 0 0 0-4.69-.05c-1.06.32-1.38 1.29-.38 1.88a7.57 7.57 0 0 0 3.93.68c1.75-.08 1.63 2-.17 2a9.49 9.49 0 0 1-4.74-1.12c-2.22-1.36-2-4.44 1.08-5a18.72 18.72 0 0 1 4.82-.14c.28 0 .36-.07.28-.32a4.92 4.92 0 0 0-.47-1.06c-.34-.59-.8-1.27-1.25-2a3 3 0 0 1-.37.07 7.43 7.43 0 0 1-5.14-.32c-1.17-.61-.58-2.33.78-1.67a5 5 0 0 0 3.68.25 21.06 21.06 0 0 1-1.1-1.94c-.7-1.53 1.42-2 1.8-.6a12.15 12.15 0 0 0 1 2l.82-.29a5.4 5.4 0 0 0 .7-.38c1.53-.78 2.2 1.06 1 1.65a13.82 13.82 0 0 1-1.57.69c.43.69.92 1.42 1.32 2zm1.87-4.08a6.77 6.77 0 0 0-1.34-1.39c-.87-.57.05-1.55.87-1.08a6.28 6.28 0 0 1 1.71 1.44c.55.92-.74 1.86-1.24 1.03zm2-1.37a6.77 6.77 0 0 0-1.39-1.33c-.89-.53 0-1.53.84-1.09a6.19 6.19 0 0 1 1.7 1.4c.65.89-.62 1.89-1.13 1.02zM166.88 72a17.21 17.21 0 0 1-3 .22c-1.46 0-1.54-2 .19-1.8a10.66 10.66 0 0 0 2.94-.13v-2.51a1 1 0 0 1 1.94 0c-.06.69-.1 1.45-.12 2.2.4-.07.84-.18 1.29-.28 1.25-.28 1.77 1.48.12 1.75-.52.07-1 .17-1.43.24v2.11c.46-.13.93-.27 1.44-.44 1.41-.45 2.13 1.29.44 1.77-.66.19-1.27.36-1.82.49 0 .64.07 1.23.13 1.78s.11 1.2.15 1.88a8.72 8.72 0 0 1 2.36 1.35c1.27 1 0 2.77-1.16 1.67a9 9 0 0 0-1.39-1 3.86 3.86 0 0 1-5.27 1.7c-1.8-.89-1.91-3 .15-3.89a6.45 6.45 0 0 1 3.63-.32c0-.4-.06-.8-.1-1.24s-.07-1-.11-1.57a10.52 10.52 0 0 1-3.45.21.94.94 0 1 1 .39-1.82 8.28 8.28 0 0 0 3-.17c0-.72-.07-1.46-.09-2.2zm-2.45 8.46a.57.57 0 0 0-.06 1.08 2.1 2.1 0 0 0 2.93-1.07 4.16 4.16 0 0 0-2.87.03zm17.18-8.69a.87.87 0 1 1 .55-1.63 5 5 0 0 0 2.6-.06 12.66 12.66 0 0 0 .38-1.91.91.91 0 0 1 1.8.17 5.89 5.89 0 0 1-.27 1.15 5.66 5.66 0 0 0 .61-.32c.85-.61 2.05.57.84 1.44a7.24 7.24 0 0 1-2 .87 48.94 48.94 0 0 1-3.4 6.4c-.7 1.14-2.52.4-1.69-.84a36.58 36.58 0 0 0 3.11-5.18 5.16 5.16 0 0 1-2.53-.09zm3.26 10.68c-1.76-.89-2-2.94 0-3.81a6.2 6.2 0 0 1 3.64-.36v-.67c0-.47 0-1-.05-1.42a5.94 5.94 0 0 1 .09-1.27.87.87 0 0 1 1.71.34 3.59 3.59 0 0 0-.11.89v1.46c0 .36.06.76.08 1.18a6.85 6.85 0 0 1 2.32 1.52c1.08 1.19-.46 2.54-1.37 1.44a5.78 5.78 0 0 0-1.08-1 3.8 3.8 0 0 1-5.23 1.7zm.61-2.49a.58.58 0 0 0 0 1.1c1.14.57 2.67 0 2.88-1v-.19a3.83 3.83 0 0 0-2.88.13zm4.23-7c-1.05.06-1.12-1.51.09-1.63a6 6 0 0 1 3.49.67c1.29.77.31 2.35-.62 1.76a4.92 4.92 0 0 0-2.96-.76zm17.88-2.1a.34.34 0 0 1 0 .15c.36 4.65 3.78 8.69 6.95 9.86a1 1 0 0 1 .74.93A1.22 1.22 0 0 1 214 83c-1.61 0-5.61-3.45-7.26-7.78a12.73 12.73 0 0 1-6.83 7.9 1.29 1.29 0 0 1-.55.13 1.09 1.09 0 0 1-1.1-1 1 1 0 0 1 .7-.93c6.47-2.89 6.64-9.55 6.64-11 0-.57 0-1.21-.08-1.78v-.06a1.06 1.06 0 0 1 2.11.06c0 .66 0 1.48-.08 2.29zM226.83 77a33.72 33.72 0 0 1 2.24 4.61 1.21 1.21 0 0 1-.57 1.64c-.49.17-1.14-.1-1.35-.94a24.26 24.26 0 0 0-2-4.58c-.45-.88-.93-1.75-1.36-2.55a13.5 13.5 0 0 1-2.7 1.2 1 1 0 1 1-.45-1.86 13.83 13.83 0 0 0 2.28-.93l-.27-.53c-.17-.32-.34-.68-.51-1a6.57 6.57 0 0 1-.4-1.05.93.93 0 0 1 1.78-.53c.25.63.44 1.25.74 1.86.08.13.15.28.23.44a28.2 28.2 0 0 1 3.77-2c1.88-.72 3.76-1 5.22 0 1.61 1 1.67 2.86.61 4.38a5.52 5.52 0 0 1-6.91 1.34.91.91 0 0 1-.26-1.32.94.94 0 0 1 1.4-.25 3.29 3.29 0 0 0 4.16-.76 1.32 1.32 0 0 0-.19-2c-.71-.52-1.92-.4-3.49.23a23.25 23.25 0 0 0-3.48 1.87c.47.88 1 1.82 1.51 2.73zm-.45-6.6a2.08 2.08 0 0 0-.42-.76 5.93 5.93 0 0 0-.47-.53c-.63-.64.64-1.63 1.59-.85a3.53 3.53 0 0 1 1.12 1.55c.34 1.19-1.48 1.83-1.82.61zm14.35 6.13a.87.87 0 0 1-1-.87.86.86 0 0 1 .91-.87h4.48v-2.56h-2.77c-1.36 0-1.34-1.82.12-1.75 2 .1 5.9 0 8 0a.87.87 0 1 1 .11 1.73c-.93 0-2.24 0-3.59.06 0 .75 0 1.65-.05 2.58h5.48a.86.86 0 1 1-.13 1.72h-5.41v1.77c0 .79.36 1.32 1.37 1.42a11.52 11.52 0 0 0 3.39-.25c1.62-.36 2.17 1.73.17 2a15.64 15.64 0 0 1-4.32 0 2.62 2.62 0 0 1-2.39-2.7v-2.22c-1.6-.1-3.1-.08-4.37-.06zm19.9 4.1c3.58-1.56 7.27-6.13 8.52-10.11a1.09 1.09 0 1 1 2.1.6c-2 4.71-5.18 9.17-9.67 11.31-1.42.66-2.58-1.1-.95-1.8zm20.21 2.48a7.29 7.29 0 0 0-2.33-2 .83.83 0 0 1 .38-1.59c.66 0 3.7 1.67 3.7 3a1.06 1.06 0 0 1-1 1 .86.86 0 0 1-.75-.41zm18.26-2.44c-2 .11-5.14.13-7.09.13a1 1 0 1 1 0-2c2 .07 5.48.07 6.88 0a1.07 1.07 0 0 0 1.1-1.06c.06-1.14.06-3.08 0-4.06 0-.63-.47-1-1.19-1-1.67-.06-4.67.06-6.64.15a.94.94 0 1 1-.1-1.84c2.09-.09 5.5-.13 7.4-.09a2.27 2.27 0 0 1 2.54 2.44v4.86c0 1.69-1.46 2.39-2.9 2.47zm16.36 1.23a1 1 0 1 1-2 .08c.13-3.08.19-10.51.11-13.25a1 1 0 0 1 2 0c0 .93 0 2.58-.05 4.44a1.89 1.89 0 0 1 .32 0 11.74 11.74 0 0 1 4.55 1.65c1 .84-.09 2.49-1.18 1.69a11.65 11.65 0 0 0-3.76-1.51c-.02 2.63-.02 5.36.01 6.9zm18.68-12.6a5.65 5.65 0 0 0 .8-.34c1-.62 2.06 1 .66 1.65a10.32 10.32 0 0 1-2.09.63 17.36 17.36 0 0 1-.91 1.91 2.78 2.78 0 0 1 3.19 1.65c.78-.39 1.57-.79 2.31-1.11a13.1 13.1 0 0 0 1.48-.71 1 1 0 1 1 1.07 1.71c-.61.3-1 .4-2 .78-.8.3-1.65.68-2.41 1a18 18 0 0 1 0 2.09 1.12 1.12 0 0 1-1 1.17c-.47 0-.91-.34-.85-1.08v-1.23c-.17.1-.34.19-.49.29-2.35 1.51-2.07 2.65-1 3.18s2.86.13 3.75-.15c1.67-.51 2.2 1.54.46 2-1.12.29-3.7.57-5.18-.26-2.56-1.45-2.11-4 1.33-6.26.26-.17.56-.38.93-.59-.52-1.6-2-1.41-3.21 0l-.08.07a5.06 5.06 0 0 1-.43.5c-1.05.93-2.43-.16-1.29-1.18a9.23 9.23 0 0 0 1.53-1.78 15.07 15.07 0 0 0 .9-1.69 3.89 3.89 0 0 1-2.36-.21c-1.36-.68-.43-2.47.9-1.57a2.91 2.91 0 0 0 1.78 0 2.19 2.19 0 0 1 .28 0 7.57 7.57 0 0 0 .21-1.6c.08-1.14 1.86-1 1.9-.09a3.7 3.7 0 0 1-.15 1.1zM352.75 82c-1.76.28-1.89-1.81-.38-2a10.23 10.23 0 0 0 5.63-2.25c1.61-1.43 1.73-3 .85-4-1.21-1.38-3.35-1.34-5.06-.83a17.46 17.46 0 0 0-2.79 1.13c-.86.41-1.71.85-2.64 1.29a1.07 1.07 0 1 1-.93-1.9 44.78 44.78 0 0 1 5.94-2.22c2.16-.55 5-.53 6.79 1.29 2.05 2.14 1.29 4.86-1 6.79a13.28 13.28 0 0 1-6.41 2.7zm15.83-10.23a.87.87 0 1 1 .55-1.63 5 5 0 0 0 2.6-.06 11.53 11.53 0 0 0 .37-1.91.91.91 0 0 1 1.81.17 6.73 6.73 0 0 1-.27 1.15 5.66 5.66 0 0 0 .61-.32c.85-.61 2.05.57.83 1.44a7 7 0 0 1-2 .87 47.7 47.7 0 0 1-3.39 6.4c-.7 1.14-2.53.4-1.69-.84a36.58 36.58 0 0 0 3.11-5.18 5.16 5.16 0 0 1-2.53-.09zm3.26 10.68c-1.77-.89-2-2.94 0-3.81a6.2 6.2 0 0 1 3.64-.36v-2.09a5.36 5.36 0 0 1 .09-1.27.87.87 0 0 1 1.71.34 3.54 3.54 0 0 0-.12.89v1.46c0 .36.06.76.08 1.18a6.8 6.8 0 0 1 2.31 1.52c1.08 1.19-.45 2.54-1.36 1.44a5.78 5.78 0 0 0-1.08-1 3.8 3.8 0 0 1-5.27 1.7zm.61-2.49a.57.57 0 0 0 0 1.1c1.13.57 2.67 0 2.88-1v-.19a3.83 3.83 0 0 0-2.88.13zm4.23-7c-1.05.06-1.12-1.51.09-1.63a6 6 0 0 1 3.49.67c1.29.77.3 2.35-.63 1.76a4.89 4.89 0 0 0-2.95-.76zm19.37 2.58a5.18 5.18 0 0 1 1.23 3.46c-.19 1-1.1 1.15-1.95.66a7 7 0 0 0-5-.32c-1 .47-.59 1.48.29 1.84a5.21 5.21 0 0 0 3.07.28c1.69-.32 1.8 1.79.09 1.94a7.78 7.78 0 0 1-3.75-.65c-2.24-1-2.77-3.6-.65-4.68 1.41-.72 3.74-.57 5-.42 1 .13 1.33-.15.23-1.63-.13-.19-.29-.36-.42-.57a13.5 13.5 0 0 1-4.36.51c-1.31-.09-1.48-2 .13-1.82a9.18 9.18 0 0 0 3.26-.27c-.28-.49-.58-1-.89-1.63a14.8 14.8 0 0 1-3 .31c-1.24 0-1.62-1.84-.1-1.73a10.54 10.54 0 0 0 2.35-.11 9.51 9.51 0 0 0-1.36-2.3c-1.06-1.19.95-1.91 1.63-1a16.58 16.58 0 0 1 1.37 2.87 7.19 7.19 0 0 0 1.19-.51.89.89 0 1 1 1 1.48 14 14 0 0 1-1.52.58 14.15 14.15 0 0 0 .82 1.6 10.31 10.31 0 0 0 1.42-.61c1.33-.76 2.14 1 1.08 1.52a10.68 10.68 0 0 1-1.5.62c.05.22.21.39.34.58zm1.23-4.79a6.35 6.35 0 0 0-1.35-1.39c-.87-.57 0-1.57.86-1.1a6.52 6.52 0 0 1 1.67 1.46c.59.91-.69 1.86-1.18 1.03zm2-1.37a6.71 6.71 0 0 0-1.38-1.33c-.89-.53 0-1.53.81-1.1a6.05 6.05 0 0 1 1.71 1.39c.64.89-.62 1.85-1.13 1.04zm20.44 5.37a1.24 1.24 0 0 1-.63-.21 35.34 35.34 0 0 1-5.81-5.27c-.2-.25-.37-.38-.55-.38s-.32.13-.51.38a37.18 37.18 0 0 1-5.8 5.71 1.48 1.48 0 0 1-.86.32 1 1 0 0 1-1-1 .94.94 0 0 1 .51-.81 23.85 23.85 0 0 0 5.84-5.49 2.12 2.12 0 0 1 1.69-.89 2.51 2.51 0 0 1 1.82.88 27.79 27.79 0 0 0 6.05 5 .73.73 0 0 1 .42.68 1.21 1.21 0 0 1-1.17 1.08zm-3.69 8c-1.1 0-2.2.06-3.28.06s-2.12 0-3.18-.06a2 2 0 0 1-2.15-1.93v-2.66a1.94 1.94 0 0 1 2.11-1.88h6.6a2 2 0 0 1 2 1.71v2.81a2.06 2.06 0 0 1-2.13 1.95zm-6.33-8.55a.84.84 0 1 1 0-1.67h6.37a.84.84 0 1 1 0 1.67zm6.62 5.42c0-1.42 0-1.76-.91-1.78h-5.37c-.93 0-.89.61-.89 1.67 0 1.4.17 1.59.91 1.61s1.7 0 2.62 0h2.73c.88 0 .91-.64.91-1.5zm12.22-.3l-.89 1.54c-.78 1.36-2.58.3-1.74-1a5.88 5.88 0 0 1 .57-.76 29.08 29.08 0 0 0 2.52-4.58v-.46a.41.41 0 0 0-.25 0 12.72 12.72 0 0 0-1.37.82c-1.36.85-2-1-.91-1.56.7-.32 1.73-.81 2.7-1.21.13-1.39.24-2.58.32-3.4.11-1.32 2-1.06 1.86.06-.1.68-.23 1.61-.36 2.71.74 0 1.25.93.4 2.15-.1.13-.38.66-.76 1.34v.1a13.37 13.37 0 0 1 1.63-1c3.38-1.8 6.39-1.17 7.76.38s1.06 4.12-1.8 6.19a11.82 11.82 0 0 1-2.7 1.38 1 1 0 1 1-.61-1.93 9.74 9.74 0 0 0 2-.93c2-1.35 2.23-2.83 1.4-3.7s-2.83-1.14-5.44.21a11.36 11.36 0 0 0-2.4 1.59 24.42 24.42 0 0 0 .16 4.52 1 1 0 0 1-.88 1.21c-.51.08-1.06-.23-1.13-1a18.17 18.17 0 0 1 0-2.81zM448.77 76l-2.95.93c-1.5.44-2-1.57-.44-2 .85-.21 2.26-.57 3.09-.76l.53-.12v-.24c0-1.1-.09-1.88-.13-2.7a1 1 0 0 1 2-.07c0 .6 0 1.48-.06 2.37v.25c1.25-.27 2.82-.59 4.38-.86v-1.57a6.61 6.61 0 0 0 0-.76v-.74a1 1 0 0 1 1.9 0c0 .64 0 1.19-.08 1.72 0 .33 0 .71-.06 1.09l.5-.08a18 18 0 0 1 3.15-.21c1.55.1 1.25 2-.29 1.86a17 17 0 0 0-2.67 0l-.78.07c0 .33-.08.67-.11 1a4.3 4.3 0 0 1-1.46 3.07 1.66 1.66 0 0 1-2.34-.28 8.18 8.18 0 0 1-.74-1c-.49-.83.53-1.74 1.27-.77.55.72.88.62 1.14.22a4.49 4.49 0 0 0 .55-2c-1.57.25-3 .59-4.3.91 0 .89 0 1.8.09 2.47.15 2 .76 2.69 2.35 2.73a10.58 10.58 0 0 0 3.09-.51 1 1 0 1 1 .54 1.86 11.54 11.54 0 0 1-3.93.32c-2.49-.27-3.4-1.44-3.66-4-.08-.68-.13-1.56-.17-2.35zm18.7 7.11a7.29 7.29 0 0 0-2.33-2 .83.83 0 0 1 .38-1.59c.66 0 3.69 1.67 3.69 3a1 1 0 0 1-1 1 .85.85 0 0 1-.74-.41zm-451 24.55a7.58 7.58 0 0 0-2.2-1.21.65.65 0 0 1-.48-.63.94.94 0 0 1 .91-.91 7 7 0 0 1 2.77 1.09 1 1 0 0 1 .4.8 1 1 0 0 1-.87 1 .75.75 0 0 1-.53-.14zm-1.54 8.54a1 1 0 0 1-1-.93.88.88 0 0 1 .26-.63 14.72 14.72 0 0 0 2.81-4.53.8.8 0 0 1 .76-.49.89.89 0 0 1 .89.87 14 14 0 0 1-2.89 5.27 1.14 1.14 0 0 1-.83.44zm2.3-12.8a7.4 7.4 0 0 0-1.9-1.54.69.69 0 0 1-.36-.59 1 1 0 0 1 .95-.85c.45 0 2.9 1.21 2.9 2.27a1 1 0 0 1-1 1 .84.84 0 0 1-.59-.29zm3.47 5.67a.87.87 0 0 1 1.73 0c0 4.59-1.43 6.47-3.53 7.45a1.13 1.13 0 0 1-.48.12.93.93 0 0 1-.91-.91.7.7 0 0 1 .42-.65c2.48-1.1 2.77-3.28 2.77-5.46v-.55zm3.76-5.5c-.16.41-.59 1.48-.95 2.22 1.14-.06 2.25-.16 3.3-.27-.46-.3-.67-.47-.67-.78A.8.8 0 0 1 27 104c.61 0 3 1.63 3 2.64a.88.88 0 0 1-1.66.42 2.37 2.37 0 0 0-.28-.4 56.39 56.39 0 0 1-7.91.76.8.8 0 0 1-.87-.8.74.74 0 0 1 .79-.76h1.63c.19-.4.61-1.57.86-2.29H20a.78.78 0 0 1-.86-.78.8.8 0 0 1 .86-.79h3.54v-1.29a.86.86 0 0 1 .93-.87.88.88 0 0 1 .94.87v1.27h4.1a.77.77 0 0 1 .84.78.78.78 0 0 1-.84.78zm-1.07 5.36a.78.78 0 0 1 .84-.79.78.78 0 0 1 .83.79v6.08a.88.88 0 0 1-1.75 0zm5.79 4.39a.73.73 0 0 1 .8-.74.84.84 0 0 1 .92.87c0 2.69-1.27 2.83-2.67 2.83-1.18 0-2.05-.29-2.05-1.84v-5.62a.77.77 0 0 1 .85-.76c.86 0 .86.67.86 1.14v5.12c0 .36.15.46.51.46s.78 0 .78-1.29v-.17zm7.98-4.25c-1.47 1.15-1.82 1.21-2 1.21a.91.91 0 0 1-.89-.93.87.87 0 0 1 .5-.79 13.23 13.23 0 0 0 4.47-4.06.83.83 0 0 1 .69-.38 1 1 0 0 1 1 1c0 .27-.09.67-1.93 2.45l-.1 8.21a.88.88 0 0 1-.94.84.82.82 0 0 1-.9-.8zm-1.74-3.47a.93.93 0 0 1-.93-.91 1 1 0 0 1 .61-.9 10.34 10.34 0 0 0 3.68-3.18.9.9 0 0 1 .72-.42 1 1 0 0 1 1 1 1 1 0 0 1-.25.63c-.96 1.06-3.9 3.78-4.83 3.78zm12.14 8.21c0 1.1-.78 2.5-3.26 2.5-1.44 0-2-.21-2-1a.8.8 0 0 1 .76-.89h.15a7.1 7.1 0 0 0 1.19.13c.74 0 1.33-.25 1.33-1.08v-6.38h-4a.8.8 0 0 1-.88-.79.85.85 0 0 1 .88-.86h8a.83.83 0 0 1 .89.84.82.82 0 0 1-.89.81H47.5v4.06zm-5.2-11a.79.79 0 0 1-.87-.81.84.84 0 0 1 .87-.87h6.19a.84.84 0 1 1 0 1.68zM57 115c-1.52-3.74 0-9.35.32-11.61a.92.92 0 1 1 1.84.11c-.3 1.54-1.44 6-1 7.76.06.25.14.19.21 0s.25-.48.33-.61a.76.76 0 0 1 1.32.74 9.94 9.94 0 0 0-1.1 2.61c-.11.51.12 1.1-.36 1.52s-1.17.38-1.56-.52zm5.08-1.35a.94.94 0 0 1 1.35-1.31c1 .93 3.3.63 4.78.32s1.63 1.69.38 2c-2.02.5-5.13.44-6.5-1.04zm1.08-7.57a.89.89 0 1 1-.26-1.76 11.46 11.46 0 0 1 5-.12.93.93 0 1 1-.32 1.83 9.55 9.55 0 0 0-4.41.02zM78 115.76a.83.83 0 1 1 0-1.65h4.7v-4.17h-3.32c-1.42 2.2-3.38 4-4.25 4a1 1 0 0 1-1-.93.89.89 0 0 1 .49-.76c2.39-1.4 4.12-4.21 5.16-7h-4.29a.84.84 0 0 1-.91-.86.85.85 0 0 1 .91-.85h4.8a19.89 19.89 0 0 0 .55-2.6.86.86 0 0 1 .93-.76 1 1 0 0 1 1.06.87 21.27 21.27 0 0 1-.57 2.49h7.21a.82.82 0 0 1 .89.83.85.85 0 0 1-.89.88h-7.78a25.46 25.46 0 0 1-1.36 3.09H88a.83.83 0 0 1 .91.81.82.82 0 0 1-.91.82h-3.48v4.17h4.67a.81.81 0 0 1 .81.86.79.79 0 0 1-.85.81zm23.57-10.68a25.05 25.05 0 0 1-1.9 3.46c.31-.12.76-.19 3.89-.19h3.13a2 2 0 0 1 2 1.75c0 .7.06 1.4.06 2.11s0 1.19-.06 1.8a2.1 2.1 0 0 1-2.1 2c-.93 0-1.94.06-2.9.06-1.12 0-2.21 0-3.12-.06a2 2 0 0 1-2.14-2c0-.65-.06-1.33-.06-2s0-1.18.06-1.73v-.09c-1 1.27-2.5 2.71-3.28 2.71a1 1 0 0 1-1-.91.93.93 0 0 1 .45-.76 14.89 14.89 0 0 0 4.92-6.17h-4a.82.82 0 0 1-.89-.83.85.85 0 0 1 .89-.85h4.67A22 22 0 0 0 101 101a.86.86 0 0 1 .91-.7c.52 0 1.07.34 1.07.85a19.21 19.21 0 0 1-.69 2.26h7.42a.83.83 0 0 1 .89.83.84.84 0 0 1-.89.85zm5.31 7.35v-1.69c0-.55-.26-.74-.87-.76s-1.63 0-2.5 0h-2.41a.81.81 0 0 0-.86.78v2.82c0 .82.31.82 3.29.82h2.52c.78 0 .83-.46.83-1.97zm19.31-4.65a9.58 9.58 0 0 1 1.41 3c.15 1.35-1 1.67-2 1a2 2 0 0 0-.77-.32 11.44 11.44 0 0 0-4.69-.06c-1.06.32-1.38 1.29-.38 1.88a7.47 7.47 0 0 0 3.93.68c1.74-.08 1.63 2-.17 2a9.53 9.53 0 0 1-4.75-1.12c-2.21-1.36-2-4.44 1.09-5a18.65 18.65 0 0 1 4.81-.14c.29 0 .36-.07.29-.32a4.64 4.64 0 0 0-.48-1.06c-.34-.59-.79-1.27-1.25-2a2.53 2.53 0 0 1-.36.07 7.43 7.43 0 0 1-5.14-.32c-1.17-.61-.59-2.33.78-1.67a5 5 0 0 0 3.68.25 17.93 17.93 0 0 1-1.1-1.94c-.7-1.53 1.42-2 1.8-.6a11.39 11.39 0 0 0 1 2l.81-.29a4.91 4.91 0 0 0 .71-.38c1.53-.78 2.2 1.07 1 1.65a13.22 13.22 0 0 1-1.58.69c.51.69.97 1.37 1.36 2zm10.98 5.84c-.86 1.5-2.77.34-1.73-.89a1.47 1.47 0 0 1 .15-.17 37 37 0 0 0 2.83-4.23c0-.38.06-.74.09-1.12a7.4 7.4 0 0 0-1.44.68c-1.31.84-1.89-1-.87-1.5.68-.32 1.59-.7 2.48-1 .14-1.42.29-2.69.38-3.53a.88.88 0 0 1 1.75.19c-.13.68-.27 1.63-.4 2.73.61-.07 1.14.5.86 1.39.22-.21.45-.42.66-.59 2.94-2.41 5.69-2.24 5.44 1.54-.07 1.13-.38 3.14-.47 4.23-.19 2.16.93 1.93 2.2.58a.93.93 0 1 1 1.36 1.26c-2.4 2.63-5.8 2.33-5.36-1.86.09-1 .43-3.06.49-4.19.06-1.35-.23-2.38-2.88-.18a23.38 23.38 0 0 0-2.72 2.47 27.77 27.77 0 0 0 .16 5.63 1 1 0 1 1-1.92.16 28.25 28.25 0 0 1 0-3.51c-.42.64-.76 1.36-1.06 1.91zM157 105a.87.87 0 1 1 .55-1.63 5 5 0 0 0 2.6-.06 11.53 11.53 0 0 0 .38-1.91.91.91 0 0 1 1.8.17 5.75 5.75 0 0 1-.26 1.15 4.3 4.3 0 0 0 .61-.32c.85-.6 2 .57.83 1.44a7.27 7.27 0 0 1-2 .88 47.12 47.12 0 0 1-3.4 6.39c-.7 1.14-2.52.4-1.68-.84a36.58 36.58 0 0 0 3.11-5.18A5.2 5.2 0 0 1 157 105zm3.27 10.68c-1.77-.89-2-2.94 0-3.81a6.19 6.19 0 0 1 3.64-.36v-.67c0-.47 0-1-.06-1.42a5.36 5.36 0 0 1 .1-1.27.87.87 0 0 1 1.7.34 4.23 4.23 0 0 0-.11.89v1.46c0 .36.06.76.08 1.18a6.8 6.8 0 0 1 2.31 1.52c1.08 1.19-.45 2.54-1.37 1.44a5.5 5.5 0 0 0-1.08-1 3.79 3.79 0 0 1-5.18 1.67zm.6-2.49a.58.58 0 0 0 0 1.11c1.14.56 2.68 0 2.89-1v-.19a3.86 3.86 0 0 0-2.86.05zm4.23-7c-1 0-1.11-1.52.1-1.64a6 6 0 0 1 3.49.67c1.29.78.3 2.35-.63 1.76a4.84 4.84 0 0 0-2.93-.81zm12.33 7.11a9.81 9.81 0 0 1-2.14-6.07 17.92 17.92 0 0 1-.1-2.11 1 1 0 1 1 1.94 0v1.65c.07 2 .43 3.87 1.5 4.9.49.47.74.53 1.15 0a7.12 7.12 0 0 0 .63-1.12.93.93 0 0 1 1.73.68 9.38 9.38 0 0 1-.74 1.46c-1.22 1.92-2.91 1.75-3.97.61zm10.26-3.3a6 6 0 0 0-2.1-3.68c-.91-.63.11-2 1.25-1.18a7.27 7.27 0 0 1 2.84 4.4 1 1 0 1 1-1.99.46zm7.14 6.11a1 1 0 0 1-1-.88.93.93 0 0 1 .66-.81 4.85 4.85 0 0 0 1.8-1.73.77.77 0 0 1 .74-.49 1 1 0 0 1 .95.85c.02.95-2.14 3.06-3.15 3.06zm14.08-12.73h-3.87a17.57 17.57 0 0 0 .78 3.66 11.22 11.22 0 0 0 .91-2.18.68.68 0 0 1 .7-.53.85.85 0 0 1 .87.81 10.11 10.11 0 0 1-1.65 3.53c.36.51.87 1.08 1.29 1.08s.57-.36.72-1.29a.72.72 0 0 1 .74-.66.89.89 0 0 1 .93.87c0 .74-.63 2.87-2.3 2.87a3 3 0 0 1-2.44-1.58 8.21 8.21 0 0 1-2.18 1.61h-.06c1 .68 1.12 1.1 1.12 1.37a1 1 0 0 1-.93 1 .8.8 0 0 1-.63-.33 7.2 7.2 0 0 0-1.84-1.51.7.7 0 0 1-.36-.55.9.9 0 0 1 .91-.8 1.35 1.35 0 0 1 .61.17v-.06a.67.67 0 0 1 .42-.64 6.86 6.86 0 0 0 2.14-1.67 19.37 19.37 0 0 1-1.37-5.16h-5.12a.7.7 0 0 0-.79.77v.82c0 1.76-.21 4.72-1.77 6.72a1.11 1.11 0 0 1-.87.45 1 1 0 0 1-1-.87.92.92 0 0 1 .27-.61c1.36-1.46 1.57-3.62 1.57-5.29v-1.67a1.85 1.85 0 0 1 2-1.82h5.52c0-.36-.1-.72-.14-1.08v-.15a.79.79 0 0 1 .8-.82.9.9 0 0 1 .91.91c0 .38 0 .76.08 1.14h2.06a4.34 4.34 0 0 0-1.21-.84.44.44 0 0 1-.29-.41.82.82 0 0 1 .78-.74c.31 0 2 .6 2 1.46a.92.92 0 0 1-.19.53h.91a.71.71 0 0 1 .74.74.72.72 0 0 1-.74.76zm-10.36 2.31a.63.63 0 0 1-.68-.64.68.68 0 0 1 .68-.71h4.12a.68.68 0 0 1 0 1.35zm2.14 4.57c-2.33 0-2.6-.26-2.6-1.93 0-1.16.18-1.82 1.54-1.82H201c2.1 0 2.16.43 2.16 2 0 1.28-.16 1.75-2.47 1.75zm1.48 6.19c-2.94 0-3.73-.57-3.73-2.17v-2.22a.88.88 0 0 1 .92-.83.86.86 0 0 1 .91.82v2c0 .66.43.81 2 .81 1.8 0 2.45-.15 2.45-1 0-.5.4-.71.83-.71s1 .29 1 .74c-.03 2.11-1.21 2.56-4.38 2.56zm-2.65-7.78c0 .25.11.32 1.25.32.89 0 1-.06 1-.64s0-.63-1.14-.63c-.87 0-1.08 0-1.1.29zm9.16 6.51a7.09 7.09 0 0 0-2-1.9.76.76 0 0 1-.38-.63.86.86 0 0 1 .91-.78c.68 0 3.13 1.75 3.13 2.74a1 1 0 0 1-1 1 .83.83 0 0 1-.66-.43zm9.11-2.81l-2.52.06a.68.68 0 0 1-.74-.67.7.7 0 0 1 .76-.66h2.52v-.74c-2.78 0-3-.06-3-2.7 0-2.33.53-2.35 3.05-2.35v-.77h-2.88a.71.71 0 0 1-.76-.69.7.7 0 0 1 .76-.68h2.88v-.8c-1.08.06-2 .06-2.37.06a.74.74 0 0 1-.79-.76.72.72 0 0 1 .78-.72h1.21a22.07 22.07 0 0 0 4.67-.53.58.58 0 0 1 .19 0 .78.78 0 0 1 .77.77c0 .57-.38.76-2.88 1v.93h2.81a.71.71 0 0 1 .78.68v.14a.73.73 0 0 1 .43-.12h1.56v-3a.81.81 0 0 1 .87-.83.84.84 0 0 1 .91.83v3h1.43a2 2 0 0 1 2 2.11v1.68c0 3.65-.34 8.37-3.87 8.37a5.39 5.39 0 0 1-1.65-.28.9.9 0 0 1-.6-.86.84.84 0 0 1 .81-.89 1.18 1.18 0 0 1 .36.06 3.7 3.7 0 0 0 1 .19c.81 0 2.18-.5 2.18-6.74v-1.31a.65.65 0 0 0-.7-.72h-1c-.13 4-1.19 8.31-4.76 10.74a1 1 0 0 1-.62.21.89.89 0 0 1-.9-.87.9.9 0 0 1 .44-.74 8.87 8.87 0 0 0 .82-.63 52.51 52.51 0 0 1-6.91 1.22.76.76 0 0 1-.76-.8.69.69 0 0 1 .67-.74c1-.08 2.1-.17 3.15-.32zm0-4.1h-1.55v.34c.06.57.23.59 1.53.59zm0-1.88c-1.42 0-1.51 0-1.55.69v.19h1.55zm1.56 5.94v.93c.87-.15 1.67-.32 2.37-.49a.5.5 0 0 1 .17 0 .62.62 0 0 1 .61.51c1.84-2.14 2.31-5 2.39-7.8h-1.56a.76.76 0 0 1-.79-.81 2.13 2.13 0 0 1 0-.25.91.91 0 0 1-.43.1h-2.81v.75c2.49 0 3.09 0 3.09 2.43 0 2.58-.38 2.64-3.09 2.64v.72l2.37-.06a.65.65 0 1 1 0 1.29zm1.54-5.33c0-.61-.25-.61-1.56-.61v.88h1.56zm-1.56 1.27v.93c1.2 0 1.54 0 1.56-.61v-.32zm23.02-5.77a5.65 5.65 0 0 0 .8-.34c1-.62 2.06 1 .66 1.65a10.32 10.32 0 0 1-2.09.63 17.36 17.36 0 0 1-.91 1.91A2.78 2.78 0 0 1 244 108c.78-.4 1.58-.8 2.32-1.12a15 15 0 0 0 1.48-.71 1 1 0 1 1 1.06 1.71c-.61.3-1.05.4-2.05.78-.8.3-1.65.68-2.41 1a14.44 14.44 0 0 1 0 2.09 1.13 1.13 0 0 1-1 1.18c-.47 0-.91-.35-.85-1.09v-1.23c-.17.1-.35.19-.5.29-2.35 1.51-2.06 2.65-1 3.18s2.86.14 3.75-.15c1.67-.51 2.2 1.54.46 2-1.12.29-3.7.57-5.18-.26-2.56-1.44-2.11-4 1.33-6.26.26-.17.57-.38.93-.59-.52-1.59-2-1.4-3.21 0a.46.46 0 0 0-.07.07 5 5 0 0 1-.44.5c-1 .93-2.43-.15-1.29-1.18a9.63 9.63 0 0 0 1.54-1.78 16.85 16.85 0 0 0 .89-1.69 3.85 3.85 0 0 1-2.35-.21c-1.37-.68-.44-2.47.89-1.57a2.92 2.92 0 0 0 1.78 0h.28a7 7 0 0 0 .21-1.6c.08-1.13 1.86-1 1.9-.09a3.7 3.7 0 0 1-.15 1.1zM261 115.18c-1.77.28-1.9-1.81-.38-2a10.17 10.17 0 0 0 5.57-2.21c1.62-1.43 1.73-3 .86-4-1.22-1.38-3.36-1.34-5.07-.83a17.88 17.88 0 0 0-2.71 1.12c-.85.41-1.71.85-2.64 1.29a1.07 1.07 0 1 1-.93-1.9 44.78 44.78 0 0 1 5.94-2.22c2.16-.55 5.05-.53 6.79 1.29 2.05 2.14 1.29 4.86-1 6.79a13.28 13.28 0 0 1-6.43 2.67zm21.83.55a34.81 34.81 0 0 0-4-6.17c-1.25-1.46-1.25-2.81.23-4.34a46.87 46.87 0 0 0 3.89-4.29 1.06 1.06 0 1 1 1.69 1.29c-.95 1.16-3 2.81-4.14 4-.81.82-.85 1.39-.23 2.17 1.9 2.37 3.51 4.15 4.44 6.18.57 1.25-1.27 2.37-1.88 1.16zm15.82-.9a8.74 8.74 0 0 0 3.3-10c-.63-1.9-2.43-1.2-3 0a6.3 6.3 0 0 0-.5 3.58c.1 1.84-2 1.82-2.06.46a16.92 16.92 0 0 1 .43-4.38c.21-1 .57-2.22.72-3.38a1 1 0 0 1 1.9.17 5.63 5.63 0 0 1-.49 1.76c-.25.52-.06.27.13 0 1.39-1.78 3.85-1 4.63 1.14a10.36 10.36 0 0 1-3.76 12.1c-1.51 1.17-2.9-.4-1.3-1.45zm15.59 1.48a7.19 7.19 0 0 0-2.33-2 .83.83 0 0 1 .38-1.59c.66 0 3.7 1.67 3.7 3a1 1 0 0 1-1 1 .86.86 0 0 1-.75-.41zm10.76-5.52a8.14 8.14 0 0 1-2.29.76.86.86 0 0 1-.89-.89.82.82 0 0 1 .62-.81c.93-.29 1.79-.55 2.58-.84v-3.57h-1c-.48 2.64-.82 3-1.58 3a.71.71 0 0 1-.79-.65.91.91 0 0 1 .09-.37 14.27 14.27 0 0 0 1-5.24c0-.47.41-.7.85-.7a.76.76 0 0 1 .85.7c0 .34-.15 1.5-.15 1.56h.76v-3.15a.91.91 0 0 1 1.82 0v3.15h.76a.83.83 0 0 1 0 1.66h-.78v2.87a13 13 0 0 0 1.18-.55.69.69 0 0 1 .32-.08.74.74 0 0 1 .7.78.86.86 0 0 1-.53.78c-.49.26-1.06.51-1.67.8v5.84a.92.92 0 0 1-1.83 0zm8.12-6.16A12 12 0 0 1 329 112a1.28 1.28 0 0 1-.77.3.85.85 0 0 1-.88-.8 1 1 0 0 1 .46-.77 9.16 9.16 0 0 0 3.59-6.13h-.8c-1.08 2.29-1.37 2.52-2 2.52a.8.8 0 0 1-.88-.72.92.92 0 0 1 .19-.51 17 17 0 0 0 2.39-5.54.76.76 0 0 1 .8-.59.88.88 0 0 1 .95.8 14.12 14.12 0 0 1-.84 2.5H336a1.94 1.94 0 0 1 2.08 2c0 .78.06 1.71.06 2.69 0 4.2-.59 8.48-4.44 8.48a6.87 6.87 0 0 1-1.55-.2.92.92 0 0 1-.69-.92.79.79 0 0 1 .8-.83 1.47 1.47 0 0 1 .27 0 5.54 5.54 0 0 0 1.13.17c.8 0 2.66-.1 2.66-6.87 0-2.62 0-2.9-.57-3-.32 3.51-1.5 8.29-6 10.87a1.23 1.23 0 0 1-.62.19.89.89 0 0 1-.89-.91.75.75 0 0 1 .38-.67c4.23-2.54 5.18-6.54 5.38-9.52zm9.88-.13a.77.77 0 0 1-.87-.76.83.83 0 0 1 .87-.84h5.39a.8.8 0 1 1 0 1.6zm4.08 11.61h-2.98a1.48 1.48 0 0 1-1.46-1.5v-2.81a1.41 1.41 0 0 1 1.42-1.44h3.08a1.54 1.54 0 0 1 1.57 1.34v2.89a1.57 1.57 0 0 1-1.64 1.52zm-3.45-14.21a.75.75 0 0 1-.84-.74.81.81 0 0 1 .84-.82h3.94a.76.76 0 0 1 .8.78.77.77 0 0 1-.8.78zm0 5.06a.74.74 0 0 1-.83-.74.8.8 0 0 1 .83-.81h4a.75.75 0 0 1 .8.77.77.77 0 0 1-.8.78zm0 2.45a.74.74 0 0 1-.83-.74.81.81 0 0 1 .83-.82h4a.76.76 0 0 1 .8.78.77.77 0 0 1-.8.78zm3.4 3.81v-1c0-.49-.46-.51-1.42-.51h-.82c-.55 0-.55.36-.55 1.42v1c0 .31.38.46 1.35.46s1.4-.12 1.42-.48.04-.57.04-.89zm2.64-4.27a.76.76 0 0 1-.82-.76.78.78 0 0 1 .82-.77h2c.17-.67.34-1.5.51-2.32h-1.33a.71.71 0 0 1-.78-.74.79.79 0 0 1 .81-.79h1.65c.12-.55.21-1 .27-1.41h-2.37c-.59 0-.86-.36-.86-.72a.81.81 0 0 1 .86-.8h7.09a.76.76 0 1 1 0 1.52h-3c-.08.38-.18.86-.29 1.41h1.31c1.21 0 1.78.57 1.78 1.79v2h1a.77.77 0 1 1 0 1.53zm6.35 7.23c-.51 0-1.18.06-1.84.06-2.46 0-3.93 0-4-1.8v-2.64a1.76 1.76 0 0 1 1.82-1.69h4a1.89 1.89 0 0 1 1.9 1.67v2.61a1.84 1.84 0 0 1-1.9 1.79zm.11-3.24c0-1.12-.07-1.39-.72-1.41h-2.77c-.72 0-.74.34-.74 1.77v.78c0 .62.8.62 2.11.62 1.65 0 2.05-.11 2.09-.62.05-.33.05-.74.05-1.14zm-.58-5.52v-1.48c0-.61-.11-.82-.58-.82h-1.14c-.19.82-.36 1.65-.53 2.32zm15.02-4.92a5 5 0 0 0 .79-.34c1.05-.62 2.07 1 .67 1.65a10.53 10.53 0 0 1-2.09.63 19.4 19.4 0 0 1-.91 1.91 2.78 2.78 0 0 1 3.19 1.66c.77-.4 1.57-.8 2.31-1.12a13.1 13.1 0 0 0 1.48-.71 1 1 0 1 1 1.06 1.71c-.6.3-1 .4-2.05.78-.79.3-1.65.68-2.4 1a16.07 16.07 0 0 1 0 2.09 1.12 1.12 0 0 1-1 1.18c-.48 0-.91-.35-.86-1.09v-1.23c-.17.1-.34.19-.49.29-2.35 1.51-2.07 2.65-1 3.18s2.87.14 3.76-.15c1.67-.51 2.2 1.54.46 2-1.12.29-3.7.57-5.18-.26-2.56-1.44-2.11-4 1.32-6.26.27-.17.57-.38.93-.59-.51-1.59-2-1.4-3.2 0l-.08.07a5.06 5.06 0 0 1-.43.5c-1.05.93-2.43-.15-1.29-1.18a9.59 9.59 0 0 0 1.53-1.78 15 15 0 0 0 .89-1.69 3.87 3.87 0 0 1-2.35-.21c-1.36-.68-.43-2.47.89-1.57a3 3 0 0 0 1.79 0h.28a8.28 8.28 0 0 0 .21-1.6c.08-1.13 1.86-1 1.9-.09a3.7 3.7 0 0 1-.15 1.1zm11.91 12.81a.78.78 0 0 1-.83-.72 1 1 0 0 1 .17-.51 9 9 0 0 0 1.12-3.27.72.72 0 0 1 .76-.66.84.84 0 0 1 .87.83 10.8 10.8 0 0 1-1.25 3.87 1 1 0 0 1-.84.46zm2.51.4l.05-6.6c-1.13.17-2.25.28-2.33.28a.71.71 0 0 1-.7-.76.66.66 0 0 1 .61-.7c.22 0 .49 0 .79-.06a17.58 17.58 0 0 0 1.14-1.42 18.69 18.69 0 0 0-2.14-1.75.73.73 0 0 1 .38-1.36 1.09 1.09 0 0 1 .55.19 13.12 13.12 0 0 0 1.44-3.24.71.71 0 0 1 .74-.54.89.89 0 0 1 1 .78c0 .76-1.65 3.49-1.91 3.87.3.25.59.49.85.74a19.73 19.73 0 0 0 1.44-2.71.74.74 0 0 1 .71-.48.92.92 0 0 1 .94.84c0 .76-2.46 4.15-3 4.89l1.76-.19c-.43-.62-.43-.62-.43-.83a.68.68 0 0 1 .72-.61c.93 0 1.88 2.14 1.88 2.64a.88.88 0 0 1-.84.91.68.68 0 0 1-.66-.59c0-.11-.06-.25-.1-.36-.26.06-.64.11-1.08.19v6.87a.87.87 0 0 1-.91.89.83.83 0 0 1-.87-.87zm3.47-2.18a.65.65 0 0 1-.69-.65 6.15 6.15 0 0 0-.62-2.11.7.7 0 0 1-.1-.32c0-.34.35-.55.72-.55a.88.88 0 0 1 .67.31 5.62 5.62 0 0 1 1 2.42.92.92 0 0 1-.98.9zm9.69-9.07l-4.25-.06c0 .68-.07 1.37-.13 2h2.31a1.78 1.78 0 0 1 1.88 2c0 3.34-.36 7.85-4 7.85a5.13 5.13 0 0 1-2-.42.91.91 0 0 1-.6-.87 1 1 0 0 1 .85-1 1 1 0 0 1 .38.1 3.14 3.14 0 0 0 1.35.36c.87 0 2.18-.57 2.18-5.77a.62.62 0 0 0-.68-.68h-1.9c-.5 3.32-1.63 6.11-4.36 8.25a1.05 1.05 0 0 1-.67.25 1 1 0 0 1-1-.93.84.84 0 0 1 .39-.7c3.5-2.6 4.08-6.44 4.12-10.4h-2.41a.88.88 0 0 1 0-1.75h2.88v-2a.94.94 0 0 1 1.86 0v2h3.74a.88.88 0 0 1 0 1.75zm7.71 8.84a9.81 9.81 0 0 1-2.14-6.07 17.92 17.92 0 0 1-.1-2.11 1 1 0 1 1 1.94 0v1.65c.07 2 .43 3.87 1.5 4.9.49.47.74.53 1.15 0a7.12 7.12 0 0 0 .63-1.12.93.93 0 0 1 1.73.68 9.38 9.38 0 0 1-.74 1.46c-1.22 1.92-2.91 1.75-3.97.61zm10.26-3.3a6 6 0 0 0-2.1-3.68c-.91-.63.11-2 1.25-1.18a7.23 7.23 0 0 1 2.84 4.4 1 1 0 1 1-1.99.46zm12.55-3.36a7.67 7.67 0 0 1 .6-1c.31-.4.21-.38-.15-.26a23.33 23.33 0 0 0-2.39 1c-.61.22-1.14.41-1.7.57-1.67.45-2.19-1.73-.67-2 .4-.1 1.5-.31 2.11-.46.93-.23 2.6-.61 4.53-1.16a25.75 25.75 0 0 1 5.16-1.12 1.12 1.12 0 0 1 1.29 1.47c-.11.32-.53.7-1.86.62a8.17 8.17 0 0 0-2.81.53 5.49 5.49 0 0 0-2.44 2.22c-1.67 2.79-.4 6.77 3.85 6.62 2-.07 2.12 2.16.11 2.15-5.73-.11-7.7-5.37-5.63-9.18zm5.84 1.25c-1-.43-.25-1.61.68-1.27a6.05 6.05 0 0 1 2 1.2c.78.83-.39 2-1.06 1.27a6.9 6.9 0 0 0-1.62-1.2zm1.92-1.65c-1-.4-.29-1.61.64-1.31a6.34 6.34 0 0 1 2 1.14c.8.8-.32 2.05-1 1.29a7 7 0 0 0-1.64-1.12zm9.47 7.06a9.82 9.82 0 0 1-2.15-6.07 19.9 19.9 0 0 1-.09-2.11 1 1 0 1 1 1.93 0v1.65c.08 2 .44 3.87 1.5 4.9.5.47.74.53 1.16 0a8 8 0 0 0 .63-1.12.93.93 0 0 1 1.72.68 8.58 8.58 0 0 1-.74 1.46c-1.21 1.92-2.86 1.75-3.96.61zm10.26-3.3a6 6 0 0 0-2.1-3.68c-.92-.63.11-2 1.25-1.18a7.32 7.32 0 0 1 2.84 4.4 1 1 0 1 1-1.99.46zm15.15 5.73a34.83 34.83 0 0 0-4-6.17c-1.25-1.46-1.25-2.81.23-4.34a46.87 46.87 0 0 0 3.89-4.29 1.06 1.06 0 1 1 1.69 1.29c-.95 1.16-3 2.81-4.14 4-.81.82-.85 1.39-.22 2.17 1.89 2.37 3.51 4.15 4.43 6.18.56 1.25-1.28 2.37-1.88 1.16zm12.17 1a2.16 2.16 0 1 1 2.16-2.16 2.16 2.16 0 0 1-2.16 2.16zm0-3.58a1.42 1.42 0 0 0-1.44 1.42 1.44 1.44 0 0 0 2.88 0 1.42 1.42 0 0 0-1.44-1.42zm-340.62 32.57c-.27.44-.55.95-.9 1.54-.77 1.36-2.58.3-1.74-.95a8.61 8.61 0 0 1 .57-.76 29.08 29.08 0 0 0 2.52-4.63v-.45a.34.34 0 0 0-.25 0 13.26 13.26 0 0 0-1.36.82c-1.37.85-2-1-.91-1.56.7-.32 1.72-.81 2.69-1.21.13-1.38.25-2.58.32-3.39.12-1.33 2-1.07 1.86.05-.09.68-.23 1.61-.36 2.71.74 0 1.25.93.4 2.15-.09.13-.38.66-.76 1.34v.1a12.13 12.13 0 0 1 1.63-1c3.38-1.81 6.39-1.18 7.76.38s1.06 4.11-1.8 6.18a11.54 11.54 0 0 1-2.69 1.38 1 1 0 1 1-.61-1.93 9.87 9.87 0 0 0 2-.93c2-1.35 2.24-2.83 1.4-3.7s-2.82-1.14-5.44.21a11.4 11.4 0 0 0-2.39 1.59 23.66 23.66 0 0 0 .15 4.52 1 1 0 0 1-.87 1.21c-.51.08-1.06-.23-1.14-1a18.17 18.17 0 0 1 0-2.81zm19.5 2.43c-.57 1.27-2.58.72-1.79-.89a58.74 58.74 0 0 0 3.32-8.24 5.49 5.49 0 0 1-2.77-.26c-1-.42-.78-2.14.65-1.63a5.09 5.09 0 0 0 2.61.11 8.28 8.28 0 0 0 0-2.05c-.08-1.08 1.7-1.14 1.89-.09a5.49 5.49 0 0 1 0 1.52l.72-.4a.91.91 0 1 1 .74 1.63 12.87 12.87 0 0 1-1.91.76 75.82 75.82 0 0 1-3.46 9.54zm4.6-.85c-.81-.91.37-2.41 1.35-1.41s2.13.89 4.35.7a1 1 0 1 1 .24 2c-2.75.51-5.1-.37-5.9-1.29zm2.15-6.62c-1 .36-1.58-1.2-.32-1.64a7 7 0 0 1 4.55.1c1.27.45.76 2.12-.44 1.73a6.57 6.57 0 0 0-3.79-.19zm13.53 4.55c-.07-2 .13-3.61.23-5.62.06-1.23.19-3.09.15-4.26a1 1 0 0 1 2.07 0c0 1.19-.17 3-.27 4.26a55.21 55.21 0 0 0-.34 5.58c.12 2.77 3.49 2.58 6.79 0a1.05 1.05 0 1 1 1.31 1.65c-3.7 2.96-9.77 3.51-9.94-1.61zm19.12 2.92c-.57 1.27-2.58.72-1.78-.89a60 60 0 0 0 3.32-8.26 5.47 5.47 0 0 1-2.77-.26c-1-.42-.78-2.14.64-1.63a5.14 5.14 0 0 0 2.62.11 8.32 8.32 0 0 0 0-2.05c-.08-1.08 1.71-1.14 1.9-.09a6.39 6.39 0 0 1 0 1.52l.72-.4a.9.9 0 1 1 .74 1.63 13 13 0 0 1-1.92.76 75.82 75.82 0 0 1-3.47 9.56zm4.61-.85c-.82-.91.36-2.41 1.34-1.41s2.13.89 4.35.7a1 1 0 1 1 .25 2c-2.76.51-5.11-.37-5.94-1.29zm2.14-6.62c-1 .36-1.57-1.2-.32-1.64a7 7 0 0 1 4.55.1c1.27.45.76 2.12-.43 1.73a6.61 6.61 0 0 0-3.8-.19zm15.81 2.06a8.53 8.53 0 0 1 3.76-1.63c4-.53 5.78 3 3.39 5.82a8.33 8.33 0 0 1-5.1 2.49c-1.82.25-1.92-1.65-.49-1.82a6.41 6.41 0 0 0 3.94-1.71c1.39-1.55 1.07-3.36-1.51-3.15a5.65 5.65 0 0 0-3.34 1.75c-.34.36-.44.91-1.08 1.08-.84.23-1.48-.59-1.35-1.56s.42-3 .7-4.87a6.71 6.71 0 0 1-1.78-.06c-1.41-.23-1.26-2.14.26-1.8a4.91 4.91 0 0 0 1.8 0c.19-1.22.38-2.26.52-2.85a.94.94 0 1 1 1.82.46c-.14.44-.27 1.06-.42 1.76a9.57 9.57 0 0 0 1-.6c1.3-.93 2.5 1 .74 1.78a22.15 22.15 0 0 1-2.15.89c-.29 1.69-.58 3.36-.71 4.02zm15.58 5.47a17.06 17.06 0 0 1-.3-6.66c.24-2.3.66-4.42.76-5.66a1 1 0 1 1 1.91 0c-.13.86-.45 2.51-.7 4.12a20.42 20.42 0 0 0-.36 4c0 .35.06.4.25 0 0-.11.19-.45.22-.55.44-.91 1.88-.26 1.2 1.16a10.56 10.56 0 0 0-.59 1.5c-.15.47-.27.89-.34 1.19-.15.53.09 1.07-.38 1.52s-1.35.4-1.67-.62zm5.9.39a2.14 2.14 0 0 1 .28-4 5.49 5.49 0 0 1 3.34-.23v-.95c-.06-.77-.1-2.23-.16-3.73a13.37 13.37 0 0 1-3.11.13.93.93 0 1 1 .38-1.8 8.09 8.09 0 0 0 2.68-.06v-2.62c0-1.23 1.9-1.06 1.82 0 0 .53-.06 1.32-.06 2.25l1-.26c1.23-.38 2 1.34.42 1.74-.46.12-.91.23-1.37.33 0 1.48.08 3 .12 3.88 0 .48.09 1.1.11 1.71a8.77 8.77 0 0 1 2.14 1.39c1.08 1-.26 2.63-1.21 1.63a8.34 8.34 0 0 0-1.18-1 3.76 3.76 0 0 1-5.2 1.59zm3.45-2.48a3.39 3.39 0 0 0-2.62-.11.63.63 0 0 0-.11 1.11 2 2 0 0 0 2.75-1zm9.66-4.48a.84.84 0 1 1 0-1.67h6.22v-2.31h-3c-1 1.82-1.58 2.12-2.11 2.12a.9.9 0 0 1-1-.79 1 1 0 0 1 .34-.67 10.09 10.09 0 0 0 2.43-4.21.65.65 0 0 1 .68-.45c.51 0 1.1.37 1.1.87A7.16 7.16 0 0 1 263 136h2.14v-2.13a.86.86 0 0 1 1-.83.89.89 0 0 1 1 .83V136h4.42a.84.84 0 1 1 0 1.67H267v2.31h6.24a.84.84 0 1 1 0 1.67zm10.53 7.74c-1.1 0-2.28.06-3.42.06s-2.27 0-3.34-.06c-1.38-.06-2.1-.79-2.16-1.84v-2.43c0-.85.61-1.74 2.13-1.78h6.92a2 2 0 0 1 2 1.63v2.56a2 2 0 0 1-2.13 1.86zm.26-3c0-1.14 0-1.48-.89-1.5h-5.61c-.89 0-.87.6-.87 1.4 0 1 0 1.42.89 1.46s1.78 0 2.77 0h2.86c.86 0 .85-.6.85-1.35zm20.07-10.5a2.34 2.34 0 0 1 2.39 2.14c0 1.14.06 2.75.06 4.36 0 1.79 0 3.53-.06 4.52a2.36 2.36 0 0 1-2.45 2.27c-1.23 0-2.6.06-3.91.06-1.15 0-2.29 0-3.26-.06-1.71-.07-2.56-.85-2.62-2.22 0-1.19-.05-2.92-.05-4.68 0-1.56 0-3.15.05-4.38s1-2 2.47-2l1.78-.06a13.58 13.58 0 0 0 .42-2.07.89.89 0 0 1 1-.78c.55 0 1.13.33 1.13.86a9.67 9.67 0 0 1-.56 2c1.33-.04 2.64 0 3.61.04zm.59 5.34v-2.52c-.06-1.31-.34-1.31-4.27-1.31s-4.25 0-4.31 1.31c0 .7-.05 1.58-.05 2.52zm-8.67 1.64c0 1.29 0 2.52.05 3.37 0 1.26.44 1.31 4.29 1.31 3.59 0 4.23 0 4.29-1.36 0-.92.06-2.09.06-3.32zm19.82 2.37c-.07-2 .14-3.61.23-5.62.06-1.23.19-3.09.15-4.26a1 1 0 0 1 2.07 0c0 1.19-.17 3-.27 4.26a55.21 55.21 0 0 0-.34 5.58c.12 2.77 3.49 2.58 6.79 0a1.05 1.05 0 1 1 1.31 1.65c-3.7 2.96-9.77 3.51-9.94-1.61zm23.36-6.79a17.21 17.21 0 0 1-3 .22c-1.46 0-1.54-2 .19-1.8a10.66 10.66 0 0 0 2.94-.13v-2.51a1 1 0 0 1 1.93 0c-.05.68-.09 1.44-.11 2.2l1.29-.29c1.25-.28 1.76 1.48.11 1.75-.51.07-1 .17-1.42.24v2.11c.46-.13.93-.27 1.44-.44 1.41-.45 2.13 1.29.44 1.77-.67.19-1.27.36-1.82.49 0 .65.07 1.23.13 1.78s.11 1.2.15 1.88a8.5 8.5 0 0 1 2.35 1.35c1.27 1 0 2.77-1.15 1.67a9.46 9.46 0 0 0-1.39-1 3.86 3.86 0 0 1-5.31 1.73c-1.8-.89-1.92-3 .15-3.89a6.42 6.42 0 0 1 3.62-.32c0-.4-.05-.8-.09-1.24s-.08-1-.11-1.57a10.29 10.29 0 0 1-3.46.21.94.94 0 1 1 .4-1.82 8.28 8.28 0 0 0 3-.17c0-.72-.07-1.46-.09-2.2zm-2.45 8.46a.57.57 0 0 0-.06 1.08 2.09 2.09 0 0 0 2.92-1.06 4.08 4.08 0 0 0-2.86-.02zm19.88-3.08a2.61 2.61 0 0 1 1.52-3.56 3.7 3.7 0 0 1 1.63-.17c0-.42 0-1-.05-1.54-1.6.15-3.17.38-4.16.53-1.36.21-2.26.46-2.83.55a1 1 0 1 1-.15-1.91c.76-.14 2-.27 2.79-.4s2.66-.36 4.33-.51v-.35c0-1.17-.1-1.25-.1-1.86a1 1 0 0 1 2 0c0 .43 0 1.31-.07 1.82v.28c.55 0 1-.05 1.46-.05h2.88c1.6 0 1.52 2 0 1.93-1.34-.11-1.8-.11-3-.13h-1.38v1.74c0 .27 0 .67.05 1.08 1.69 2.66-.32 6.68-2.33 8.29-1.27 1-2.92-.34-1.27-1.52a6.64 6.64 0 0 0 2.16-2.78 2.43 2.43 0 0 1-3.48-1.44zm3.19-2a1.22 1.22 0 0 0-1.21-.07 1.15 1.15 0 0 0-.55 1.44 1.13 1.13 0 0 0 2.18-.32.85.85 0 0 0-.12-.72 2.35 2.35 0 0 0-.3-.32zm13.17 8.11a2.16 2.16 0 1 1 2.16-2.16 2.16 2.16 0 0 1-2.16 2.16zm0-3.58a1.42 1.42 0 0 0-1.44 1.42 1.44 1.44 0 1 0 2.88 0 1.42 1.42 0 0 0-1.44-1.42zM50.79 176c.27-.4.33-.47-.07-.34a17.12 17.12 0 0 0-2 .85 1.83 1.83 0 0 1-1.65.21.93.93 0 0 1 .21-1.78 8.89 8.89 0 0 0 2.18-.7c1.55-1.37 3.26-4.31 4.38-6.05a1 1 0 1 1 1.78 1.06 34.74 34.74 0 0 1-3.85 4.51c-.21.19.06.12.13.08a4.51 4.51 0 0 1 .63-.21 17.58 17.58 0 0 1 4.21-.78 1 1 0 0 1 1 1.39c-.17.36-.65.64-1.6.53a8.43 8.43 0 0 0-2.2.19 2.21 2.21 0 0 0-1.66 1.29 2.77 2.77 0 0 0 2.67 4.42c1.82-.12 1.82 2.37-.27 2.16-4.36-.46-5.5-4.48-3.89-6.83zm-1.55-4.93a3.39 3.39 0 0 0-1.18-1.4c-.93-.57.17-1.92 1.22-1.24A4.08 4.08 0 0 1 51 170.2a1 1 0 0 1-.54 1.23.84.84 0 0 1-1.22-.38zm16.24 10.34a17.06 17.06 0 0 1-.3-6.66c.25-2.3.66-4.42.76-5.66a1 1 0 1 1 1.91 0c-.13.86-.45 2.51-.7 4.12a21.32 21.32 0 0 0-.36 4c0 .35.06.4.25 0 0-.11.19-.45.22-.55.44-.91 1.88-.26 1.2 1.16a10.56 10.56 0 0 0-.59 1.5c-.15.47-.26.89-.34 1.19-.15.54.1 1.07-.38 1.52s-1.35.4-1.67-.62zm5.9.39a2.14 2.14 0 0 1 .29-4 5.46 5.46 0 0 1 3.33-.23v-1c-.06-.77-.1-2.23-.15-3.73a12.87 12.87 0 0 1-3.11.13.93.93 0 1 1 .37-1.8 8.09 8.09 0 0 0 2.68-.06v-2.62a1 1 0 0 1 1.73-.47.76.76 0 0 1 1.06-.61 6 6 0 0 1 1.78 1.08c.7.74-.34 1.84-.93 1.14a6.32 6.32 0 0 0-1.48-1.06 1 1 0 0 1-.34-.25v.14c0 .53-.06 1.32-.06 2.25l1-.26c1.23-.38 2 1.34.42 1.74-.46.12-.91.23-1.37.33 0 1.48.08 3 .12 3.88 0 .48.09 1.1.11 1.71a8.59 8.59 0 0 1 2.14 1.39c1.09 1-.26 2.63-1.21 1.63a8.34 8.34 0 0 0-1.18-1 3.76 3.76 0 0 1-5.2 1.67zm3.45-2.48a3.36 3.36 0 0 0-2.61-.11.63.63 0 0 0-.12 1.11 2 2 0 0 0 2.75-1zm3.65-12.24c-.93-.36-.29-1.46.57-1.17a5.57 5.57 0 0 1 1.83 1c.73.72-.28 1.86-.91 1.18a6.28 6.28 0 0 0-1.49-1.01zm7.76 14.29c-1.51-3.74 0-9.35.32-11.61a.93.93 0 1 1 1.85.11c-.31 1.54-1.45 6-1 7.76.06.25.13.19.21 0s.24-.47.32-.61a.76.76 0 0 1 1.33.74 9.61 9.61 0 0 0-1.12 2.66c-.12.51.11 1.1-.36 1.52s-1.17.36-1.55-.57zm5.09-1.37a.94.94 0 0 1 1.34-1.31c1 .93 3.3.63 4.78.32s1.63 1.69.38 2c-2.03.55-5.14.49-6.5-1.01zm1.08-7.57a.89.89 0 1 1-.27-1.76 11.46 11.46 0 0 1 5-.12.93.93 0 1 1-.32 1.83 9.5 9.5 0 0 0-4.41.07zM107 179.7a9.76 9.76 0 0 1-2.15-6.07 19.9 19.9 0 0 1-.09-2.11 1 1 0 1 1 1.93 0v1.65c.08 2 .44 3.87 1.5 4.9.49.47.74.53 1.16 0a6.62 6.62 0 0 0 .62-1.12.93.93 0 0 1 1.73.68 8.22 8.22 0 0 1-.7 1.37c-1.25 2-2.94 1.84-4 .7zm10.26-3.34a5.94 5.94 0 0 0-2.11-3.68c-.91-.63.12-2 1.26-1.18a7.31 7.31 0 0 1 2.84 4.41 1 1 0 1 1-1.99.45zm16.94 3.36c1.39-1.23 1.33-3 .25-3.76a5 5 0 0 0-4.95.32 4.11 4.11 0 0 0-1.59 1.43c-.69 1-2.58-.12-1.41-1.27a67.55 67.55 0 0 0 5.73-6.13c.21-.27 0-.19-.13-.11a15.45 15.45 0 0 1-3.19 1c-1.5.33-1.78-1.55-.49-1.7a30.82 30.82 0 0 0 4.17-.93c1.52-.44 2.77.91 1.82 2-.61.68-1.36 1.42-2.12 2.12s-1.52 1.39-2.2 2a5.8 5.8 0 0 1 5.33 0c2.73 1.63 1.84 5-.15 6.41s-4.84 1.42-6.28.47c-2-1.31-1.12-3.66 1.12-3.74a2.69 2.69 0 0 1 3 2.56 2.51 2.51 0 0 0 1.09-.67zm-4-.57c-.83.07-.87.85-.26 1.17a3.35 3.35 0 0 0 1.59.29c-.02-.87-.53-1.54-1.37-1.46zm13.9-3.41a1 1 0 1 1 0-2.05h14.4a1 1 0 0 1 1 1 1 1 0 0 1-1 1.05zm28.18-5.28a.36.36 0 0 1 0 .15c.35 4.65 3.77 8.69 6.94 9.87a1 1 0 0 1 .74.93 1.21 1.21 0 0 1-1.25 1.15c-1.62 0-5.62-3.45-7.27-7.77a12.74 12.74 0 0 1-6.83 7.89 1.29 1.29 0 0 1-.55.13 1.09 1.09 0 0 1-1.1-1 1 1 0 0 1 .7-.93c6.47-2.89 6.64-9.54 6.64-11 0-.57 0-1.21-.07-1.78v-.1a1.05 1.05 0 0 1 2.1.06c0 .66 0 1.48-.07 2.3zm13.2 7.54c-.18-3.41 1.66-5.92 2.39-7.21.07-.11.17-.26 0-.22a8.61 8.61 0 0 1-1.42.17c-1.5.07-1.4-2 .1-2a6.94 6.94 0 0 0 3.6-.72 1 1 0 1 1 .84 1.77c-1.33.66-4.2 4.44-3.78 8.17.32 2.87 2.9 3.11 4.88 1.27 2.41-2.24 2.33-6.58 1.8-7.79-.12-.25-.31-.71-.5-1-.77-1.35 1.14-2.33 1.94-.78a7.86 7.86 0 0 0 3.68 3.57 1 1 0 1 1-1.14 1.75 9 9 0 0 1-2-1.9c-.11-.15-.17-.19-.11 0a9 9 0 0 1-2.45 7.72c-2.73 2.67-7.59 2.35-7.83-2.8zm21.95-8.17c-1-1.21.88-2.23 1.64-1.15a19.63 19.63 0 0 1 2.22 4.42 35.4 35.4 0 0 1 3.33-2.09c1.29-.72 2.28 1.1.82 1.84a28.66 28.66 0 0 0-5.39 3.36c-1.88 1.59-1.93 3-.45 3.74 1.32.66 4 .17 5.18-.25 1.59-.61 2.16 1.57.47 2.05-1.5.42-4.67.79-6.55-.15-2.73-1.39-2.61-4.46.46-6.91.19-.15.36-.3.55-.43a15.31 15.31 0 0 0-2.28-4.43zm21.66 11.41a8.74 8.74 0 0 0 3.3-10c-.62-1.9-2.43-1.2-3 0a6.3 6.3 0 0 0-.49 3.58c.1 1.84-1.95 1.82-2.07.46a16.89 16.89 0 0 1 .44-4.38c.21-1 .57-2.22.72-3.38a1 1 0 0 1 1.9.17 5.77 5.77 0 0 1-.5 1.77c-.24.51 0 .26.14 0 1.38-1.78 3.85-1 4.62 1.14a10.36 10.36 0 0 1-3.75 12.11c-1.52 1.14-2.9-.43-1.31-1.47zm22.26-9.24a14.91 14.91 0 0 1-3.83 7.68c-1.46 1.35-3.05.61-3.89-1-1.19-2.35.08-5.88 2.62-7.65a7.9 7.9 0 0 1 8.19-.43 5.61 5.61 0 0 1 1.77 8 7.87 7.87 0 0 1-4.63 3.13c-1.67.44-2.26-1.48-.63-1.85a5.89 5.89 0 0 0 3.53-2.13 4.08 4.08 0 0 0-1-5.8 4.8 4.8 0 0 0-2.35-.76.93.93 0 0 1 .22.81zm-4.21.36c-1.76 1.37-2.71 3.89-1.92 5.35.29.55.78.83 1.26.42a11.45 11.45 0 0 0 2.94-6.32 1.28 1.28 0 0 1 .17-.59 6.25 6.25 0 0 0-2.45 1.1zm15.32 7.53a1 1 0 0 1-1-.95 1.12 1.12 0 0 1 .34-.78 9.58 9.58 0 0 0 2.1-3.81.92.92 0 0 1 .91-.7 1 1 0 0 1 1 .93 12.1 12.1 0 0 1-2.34 4.83 1.29 1.29 0 0 1-1.01.48zm8 2.88c-1.95 0-3.66-.24-3.66-2.5s.1-5.81.15-8.73a1 1 0 0 1 1.94 0c-.1 2.92-.17 6.32-.19 8.46 0 .82.66 1 1.88 1 1.57 0 2.65-.13 2.65-2.2a.89.89 0 0 1 .93-1 1 1 0 0 1 1.08 1.1c.04 3.87-2.77 3.87-4.74 3.87zm1-12.54a12.48 12.48 0 0 0-3.5-1.7.71.71 0 0 1-.54-.69 1 1 0 0 1 1-1 13.17 13.17 0 0 1 4.29 1.76 1 1 0 0 1 .4.78 1.1 1.1 0 0 1-1.05 1.08 1 1 0 0 1-.52-.23zm5.52 7.84a13.8 13.8 0 0 0-3.2-3.27.82.82 0 0 1-.38-.68 1 1 0 0 1 1-.87 1.11 1.11 0 0 1 .6.19c2.19 1.42 3.95 3.15 3.95 4a1.14 1.14 0 0 1-1.1 1.12 1 1 0 0 1-.79-.49zm13.02-6.32c1.6-.13 2.81.8 2.89 2.92a11.1 11.1 0 0 1-.65 4.23 3.68 3.68 0 0 1-4.46 2.28c-1.49-.44-.89-2.18.27-1.9a1.81 1.81 0 0 0 2.41-1 8.41 8.41 0 0 0 .61-3.28c0-1.16-.4-1.71-1.28-1.64-.28 0-.56.06-.87.1a28 28 0 0 1-3.68 7.63c-.91 1.28-2.88.19-1.65-1.2a18.18 18.18 0 0 0 3.36-6.17h-.23a13 13 0 0 1-2.05.27.91.91 0 1 1 0-1.82c.58-.06 1.17 0 1.86-.1l.94-.09a19.72 19.72 0 0 0 .59-3c.14-1.23 2.07-1.12 1.92.15a25.17 25.17 0 0 1-.55 2.68zm7 4.27a6.72 6.72 0 0 0-2.71-3.26c-.93-.52-.09-1.94 1.08-1.26a7.88 7.88 0 0 1 3.38 3.61c.43 1.25-1.27 2.09-1.75.89zm12.89 6.77c-1.54.3-2-1.57-.42-1.9a9 9 0 0 0 2.55-.81c2.08-1.22 2.65-2.52 2.25-3.28s-1.78-1.05-3.79-.14a11.87 11.87 0 0 0-2.54 1.64c-1.12 1.08-1.88.54-2.22-.12a6.43 6.43 0 0 1-.15-3.22c.15-1.39.39-2.85.55-3.82.19-1.21 1.91-1.17 1.74.19-.09.8-.3 1.86-.45 2.77a5 5 0 0 0-.12 2c.06.15.15.15.32 0 .38-.21 1.28-.7 2.17-1.08 5.73-2.48 9.77 2.64 3.35 6.56a10.12 10.12 0 0 1-3.24 1.21zm-.07-12.1c-.92.23-1.6-1-.8-1.42.09-.06.28-.16.15-.25a7 7 0 0 1-1.35-.89c-.81-.89.44-1.9 1.39-1.22.34.25 1 .54 1.53.89a2 2 0 0 1 1.09 1.39 1.24 1.24 0 0 1-1.2 1.33 7.89 7.89 0 0 0-.81.17zm14.67 12.03a7.1 7.1 0 0 0-2.33-2 .83.83 0 0 1 .38-1.59c.66 0 3.7 1.67 3.7 3a1 1 0 0 1-1 1 .87.87 0 0 1-.75-.41zm20.98-9.3v3c0 1.71-1.41 1.8-3 1.8-1.78 0-2.92-.09-2.94-1.78v-3H337v2.5c0 1.39 0 2.58.05 3.3.06 1.12.65 1.16 4.77 1.16 1.65 0 3.43 0 4.91-.09h.06a.78.78 0 0 1 .79.83.87.87 0 0 1-.85.91c-1.46.08-3.13.1-4.71.1s-2.88 0-4-.08c-1.67-.07-2.88-.74-2.92-2.58v-6.05h-2.18a.81.81 0 0 1-.91-.8.88.88 0 0 1 .91-.89h2.18v-3.53a.85.85 0 0 1 1-.81c.48 0 1 .26 1 .79 0 .93 0 2.18-.05 3.53h2.44v-4.14a.85.85 0 0 1 .93-.77.78.78 0 0 1 .87.76v4.14h2.42v-3.91a.91.91 0 0 1 1.81 0v3.91h2.75a.84.84 0 0 1 .87.87.82.82 0 0 1-.87.82zm-4.2 0V176c0 .58.33.64 1.12.64s1.2-.11 1.24-.64 0-1.5 0-2.58zm20.51-1.42a14.91 14.91 0 0 1-3.83 7.68c-1.46 1.35-3.05.61-3.89-1-1.19-2.35.08-5.88 2.62-7.65a7.9 7.9 0 0 1 8.19-.43 5.61 5.61 0 0 1 1.77 8 7.87 7.87 0 0 1-4.63 3.13c-1.67.44-2.26-1.48-.63-1.85a5.86 5.86 0 0 0 3.53-2.13 4.08 4.08 0 0 0-1-5.8 4.8 4.8 0 0 0-2.35-.76.93.93 0 0 1 .22.81zm-4.21.36c-1.76 1.37-2.71 3.89-1.91 5.35.28.55.77.83 1.25.42a11.45 11.45 0 0 0 2.94-6.32 1.28 1.28 0 0 1 .17-.59 6.32 6.32 0 0 0-2.45 1.1zm21.98 4.78c-1.48 0-2.94 0-4.26-.1a2 2 0 0 1-2.09-1.91v-3.4a2 2 0 0 1 2.05-1.95c1.31 0 2.79-.06 4.3-.06V167a.88.88 0 0 1 .95-.84.89.89 0 0 1 1 .84v2.69c1.54 0 3 0 4.42.06a2.08 2.08 0 0 1 1.95 1.8c0 .45.06 1 .06 1.61s0 1.35-.06 1.92a2.06 2.06 0 0 1-2 1.93c-1.38.06-2.84.1-4.32.1v5.06c0 .52-.48.78-1 .78a.85.85 0 0 1-.95-.78zm0-5.71c-1.32 0-2.58 0-3.6.06a.86.86 0 0 0-.93.79v1.25c0 1.2 0 1.79 1 1.83s2.29.09 3.58.09zm1.92 4l3.64-.07c.91 0 .95-.46.95-1.94s0-1.92-1-1.93-2.31-.06-3.62-.06zm18.53-3.79a17.21 17.21 0 0 1-3 .22c-1.46 0-1.54-2 .19-1.8a10.66 10.66 0 0 0 2.94-.13v-2.5a1 1 0 0 1 1.93 0c0 .68-.09 1.44-.11 2.2l1.29-.29c1.25-.28 1.76 1.48.11 1.75-.51.07-1 .17-1.42.24v2.11c.46-.13.93-.27 1.44-.44 1.41-.45 2.13 1.29.44 1.77-.67.19-1.27.36-1.82.49 0 .65.07 1.23.13 1.78s.11 1.2.15 1.88a8.76 8.76 0 0 1 2.35 1.35c1.27 1 0 2.77-1.15 1.67a9.46 9.46 0 0 0-1.39-1 3.86 3.86 0 0 1-5.31 1.73c-1.8-.89-1.92-3 .15-3.89a6.42 6.42 0 0 1 3.62-.32c0-.4 0-.8-.09-1.23s-.08-1-.11-1.58a10.29 10.29 0 0 1-3.46.21.94.94 0 1 1 .4-1.82 8.28 8.28 0 0 0 3-.17c0-.72-.07-1.46-.09-2.2zm-2.45 8.46a.57.57 0 0 0-.06 1.08 2.09 2.09 0 0 0 2.92-1.06 4.08 4.08 0 0 0-2.85-.02zm20.63-7.1a6.76 6.76 0 0 1 .61-1c.3-.39.21-.37-.15-.26a22.45 22.45 0 0 0-2.39 1c-.61.23-1.14.41-1.71.57-1.67.45-2.18-1.73-.66-2.05.39-.1 1.49-.31 2.1-.46.93-.23 2.6-.6 4.53-1.15a24.57 24.57 0 0 1 5.16-1.12A1.12 1.12 0 0 1 427 170c-.11.32-.53.7-1.86.62a8.36 8.36 0 0 0-2.8.53 5.52 5.52 0 0 0-2.45 2.22c-1.67 2.79-.4 6.78 3.85 6.62 2-.07 2.13 2.17.11 2.15-5.76-.03-7.74-5.29-5.67-9.14zm5.84 1.25c-1-.43-.24-1.61.69-1.27a6.16 6.16 0 0 1 2 1.2c.78.83-.4 2.05-1.06 1.27a7.17 7.17 0 0 0-1.65-1.16zm1.92-1.65c-1-.4-.28-1.61.64-1.31a6.23 6.23 0 0 1 2 1.14c.8.8-.32 2.05-1 1.29a6.76 6.76 0 0 0-1.64-1.08zm14.17-3.69a6.31 6.31 0 0 0 .8-.35c1-.62 2.07.95.66 1.65a10.41 10.41 0 0 1-2.08.63 20.69 20.69 0 0 1-.91 1.92 2.75 2.75 0 0 1 3.18 1.65c.78-.4 1.58-.8 2.32-1.12.45-.19 1-.42 1.48-.7a1 1 0 1 1 1.06 1.7 20.5 20.5 0 0 1-2.05.78c-.8.3-1.65.68-2.41 1a14.44 14.44 0 0 1 0 2.09 1.13 1.13 0 0 1-1 1.18c-.47 0-.91-.35-.85-1.08v-1.24l-.5.29c-2.35 1.51-2.06 2.65-1 3.18s2.86.14 3.75-.15c1.67-.51 2.21 1.54.46 2-1.12.29-3.7.57-5.18-.26-2.56-1.44-2.1-4 1.33-6.26.27-.17.57-.38.93-.59-.51-1.59-2-1.4-3.21 0l-.07.08a4.71 4.71 0 0 1-.44.49c-1 .93-2.43-.15-1.29-1.18a9.63 9.63 0 0 0 1.54-1.78 16.85 16.85 0 0 0 .89-1.69 3.78 3.78 0 0 1-2.35-.21c-1.37-.68-.44-2.46.89-1.57a3 3 0 0 0 1.78 0h.29a7.6 7.6 0 0 0 .2-1.6c.08-1.13 1.86-1 1.9-.09a3.4 3.4 0 0 1-.15 1.1zm14.2 13.81a7.2 7.2 0 0 0-2.33-2 .83.83 0 0 1 .38-1.59c.66 0 3.7 1.67 3.7 3a1 1 0 0 1-1 1 .87.87 0 0 1-.75-.41zm-353.4 31.41h.17c5.29 0 8.8-1.78 10.68-6.43a.82.82 0 0 1 .82-.55 1.11 1.11 0 0 1 1.14 1c0 .38-2.39 8-12.77 8a1.05 1.05 0 0 1-1.14-1 1 1 0 0 1 1.08-1zm-1-6.71a1 1 0 0 1 .49-.8 8.77 8.77 0 0 0 3.13-3.58.81.81 0 0 1 .76-.52 1.07 1.07 0 0 1 1 1c0 .85-3.07 4.91-4.38 4.91a1.05 1.05 0 0 1-1.02-1.01zm9.16.6a2.72 2.72 0 0 1-3 2.7c-1.8 0-2.18-.61-2.18-1.14a.92.92 0 0 1 .87-1 .78.78 0 0 1 .21 0 5 5 0 0 0 1.07.17c.64 0 1.06-.29 1.06-1.23v-7.27a.94.94 0 0 1 1-1 .91.91 0 0 1 1 1v5.46zm5-1.12a9.56 9.56 0 0 0-2.92-2.88.83.83 0 0 1-.44-.72.91.91 0 0 1 .91-.87c.84 0 4.31 2.73 4.31 3.91a1.1 1.1 0 0 1-1.06 1.06.89.89 0 0 1-.87-.5zm9.49 4.73c-.08-2 .13-3.61.22-5.62.06-1.23.19-3.09.15-4.26a1 1 0 0 1 2.07 0c0 1.19-.17 3-.26 4.27a49.62 49.62 0 0 0-.34 5.57c.11 2.77 3.49 2.58 6.79 0a1.05 1.05 0 1 1 1.3 1.65c-3.69 2.96-9.76 3.51-9.93-1.61zm21.23-1.41a2.61 2.61 0 0 1 1.51-3.56 3.73 3.73 0 0 1 1.64-.17c0-.42 0-1-.06-1.54-1.6.15-3.17.38-4.16.53-1.36.21-2.25.46-2.82.55a1 1 0 1 1-.15-1.91c.75-.14 2-.27 2.78-.4.95-.15 2.66-.36 4.33-.51v-.35c0-1.17-.1-1.25-.1-1.85a1 1 0 0 1 2-.06c0 .43 0 1.31-.08 1.82v.28c.55 0 1.05-.05 1.46-.05h2.89c1.59 0 1.51 2.05 0 1.93-1.35-.11-1.81-.11-3-.13h-1.39v1.74c0 .27 0 .67.06 1.08 1.69 2.66-.32 6.68-2.34 8.29-1.27 1-2.92-.34-1.27-1.51a6.84 6.84 0 0 0 2.17-2.79 2.43 2.43 0 0 1-3.47-1.39zm3.18-2a1.25 1.25 0 0 0-1.21-.07 1.15 1.15 0 0 0-.55 1.44 1.13 1.13 0 0 0 2.18-.32.86.86 0 0 0-.11-.72 2.42 2.42 0 0 0-.28-.32zm4.57-5.91a6.11 6.11 0 0 0-1.32-1.37c-.88-.57 0-1.58.85-1.1a6.18 6.18 0 0 1 1.67 1.46c.59.92-.74 1.85-1.2 1.02zm2.32-1.11a11.63 11.63 0 0 0-1.39-1.34c-.89-.53 0-1.56.82-1.12a6.5 6.5 0 0 1 1.73 1.4.79.79 0 0 1-1.16 1.07zm11.59 13.58c-1.77.28-1.9-1.8-.38-2a10.25 10.25 0 0 0 5.57-2.22c1.62-1.42 1.73-3 .86-4-1.22-1.38-3.36-1.34-5.07-.83a17.88 17.88 0 0 0-2.71 1.12c-.85.42-1.71.85-2.64 1.29a1.07 1.07 0 1 1-.93-1.9 44.78 44.78 0 0 1 5.94-2.22c2.16-.55 5-.53 6.79 1.29 2.05 2.15 1.29 4.86-1 6.79a13.28 13.28 0 0 1-6.43 2.68zm19.14-1.65a15.45 15.45 0 0 1-2.07 1.29c-1.17.6-3 .3-2.77-2.24a7.43 7.43 0 0 1 3.4-5c.25-.15.51-.3.8-.45.05-.72.13-1.48.22-2.26a7 7 0 0 1-2.37-.19.88.88 0 1 1 .53-1.67 5.67 5.67 0 0 0 2 .15c.08-.55.17-1.12.25-1.69.21-1.4 2.05-1.1 1.84 0-.08.48-.17.95-.25 1.39a19.37 19.37 0 0 0 2.56-.74c1.1-.42 1.94 1.19.44 1.68a22.53 22.53 0 0 1-3.28.84c-.1.61-.17 1.16-.25 1.69a7.7 7.7 0 0 1 2-.42h.23c.13-1.12 1.88-.76 1.8.15 5.54 1 5.26 8-1.21 10.11-1.71.57-2.18-1.19-.63-1.7 4.73-1.54 4.92-6 1.48-6.87a12.15 12.15 0 0 1-3.28 4.72 2 2 0 0 0 .21.38c.66 1.1-.91 2.32-1.63 1zm-.74-4.67a5.38 5.38 0 0 0-2.43 3.57c0 .76.46.83 1 .57a17.4 17.4 0 0 0 1.69-1.1 15.12 15.12 0 0 1-.26-3.04zm3.63-1.4a7.49 7.49 0 0 0-2 .51 12.8 12.8 0 0 0 0 2.58 9 9 0 0 0 2-3.09zm14.18 7.49c-.57 1.27-2.58.72-1.78-.89a58.51 58.51 0 0 0 3.32-8.23 5.59 5.59 0 0 1-2.77-.27c-1-.42-.78-2.14.64-1.63a5.14 5.14 0 0 0 2.62.11 7.86 7.86 0 0 0 0-2c-.07-1.08 1.71-1.13 1.9-.09a5.49 5.49 0 0 1 0 1.52l.72-.4a.9.9 0 1 1 .74 1.63 11.64 11.64 0 0 1-1.92.76 74.26 74.26 0 0 1-3.47 9.49zm4.61-.85c-.81-.91.36-2.41 1.35-1.41s2.12.89 4.34.7a1 1 0 1 1 .25 2c-2.75.51-5.1-.36-5.94-1.29zm2.15-6.62c-1 .36-1.58-1.2-.33-1.64a7.11 7.11 0 0 1 4.56.1c1.27.46.75 2.12-.44 1.73a6.57 6.57 0 0 0-3.79-.19zm13.11 7.47c-.57 1.27-2.58.72-1.78-.89a59.76 59.76 0 0 0 3.32-8.23 5.58 5.58 0 0 1-2.77-.27c-1-.42-.78-2.14.64-1.63a5.14 5.14 0 0 0 2.62.11 8.32 8.32 0 0 0 0-2c-.08-1.08 1.71-1.13 1.9-.09a6.39 6.39 0 0 1 0 1.52l.72-.4a.9.9 0 1 1 .74 1.63 12 12 0 0 1-1.92.7 74.26 74.26 0 0 1-3.47 9.55zm4.61-.85c-.82-.91.36-2.41 1.35-1.41s2.12.89 4.34.7a1 1 0 1 1 .25 2c-2.75.51-5.08-.36-5.94-1.29zm2.14-6.62c-1 .36-1.57-1.2-.32-1.64a7.08 7.08 0 0 1 4.55.1c1.27.46.76 2.12-.43 1.73a6.61 6.61 0 0 0-3.8-.19zm16.43 4.92c-2.24 2.41-4.23 1.57-4.75-.82a6.1 6.1 0 0 1 2.09-5.4c-.13-.4-.26-.82-.36-1.24s-.28-1.25-.36-1.65c-.32-1.57 1.82-1.55 1.9-.21a11.05 11.05 0 0 0 .19 1.58 3.52 3.52 0 0 0 .09.42 3.59 3.59 0 0 1 .38-.21 7.91 7.91 0 0 1 3.25-.8 11.65 11.65 0 0 0 .24-2c0-1.33 2-1.17 1.88.21a12.22 12.22 0 0 1-.27 2 4.83 4.83 0 0 1 3.82 3.44c1 3.51-1.35 6.12-4.63 7.3-1.44.53-2.37-1.27-.72-1.77 3.3-1 4-3.18 3.58-5a3.36 3.36 0 0 0-2.44-2.55c-.06.17-.12.36-.19.55a21.65 21.65 0 0 1-1.94 3.84c.08.05.15.13.25.19a.81.81 0 0 1 .13 1.17.91.91 0 0 1-1.25.19l-.15-.09c-.25.29-.45.57-.74.85zm-2.07-4.63a4.17 4.17 0 0 0-1.06 3.19c.28 1.48 1.17 1.06 1.7.51a9.85 9.85 0 0 0 .91-1.08 10.73 10.73 0 0 1-1.55-2.63zm1.84-1.55a2.64 2.64 0 0 0-.55.34 8.28 8.28 0 0 0 1.29 2.31 14.53 14.53 0 0 0 1.48-3.07c0-.08.05-.17.07-.27a6 6 0 0 0-2.29.68zm19.75.42a6.18 6.18 0 0 1 .61-1c.3-.4.21-.38-.15-.27a22.45 22.45 0 0 0-2.39.95 17.12 17.12 0 0 1-1.71.57c-1.67.45-2.16-1.73-.65-2 .4-.1 1.5-.31 2.11-.46.93-.22 2.58-.6 4.52-1.15a25.16 25.16 0 0 1 5.17-1.12 1.12 1.12 0 0 1 1.29 1.46c-.11.32-.53.7-1.86.62a8.48 8.48 0 0 0-2.82.53 5.51 5.51 0 0 0-2.43 2.22c-1.67 2.79-.4 6.78 3.85 6.62 2-.07 2.11 2.17.1 2.15-5.73-.05-7.71-5.31-5.64-9.12zm16.96 6.66a9.81 9.81 0 0 1-2.14-6.07 17.52 17.52 0 0 1-.09-2.11 1 1 0 1 1 1.93 0v1.66c.08 2 .44 3.86 1.5 4.89.49.47.74.53 1.16 0a7.4 7.4 0 0 0 .62-1.12.94.94 0 0 1 1.73.69 9 9 0 0 1-.74 1.46c-1.22 1.91-2.9 1.7-3.97.6zm10.27-3.34a6 6 0 0 0-2.11-3.68c-.91-.62.11-2 1.25-1.18a7.28 7.28 0 0 1 2.85 4.41 1 1 0 1 1-1.99.45zm9.54 4.12c-1.71-3.28-.83-6.89-.62-9.22.09-1.08.21-1.69.24-2.51a.92.92 0 0 1 1.84 0 25.14 25.14 0 0 1-.3 2.54c-.23 1.6-.78 3.23-.49 5.11.05.32.17.45.32.05.09-.22.3-.6.4-.83a.75.75 0 1 1 1.4.55 9.94 9.94 0 0 0-.95 3.32c0 .21.12.76-.15 1.1a1 1 0 0 1-1.69-.11zm9.6-9.6c.42-.1.8-.17 1.12-.27 1.21-.34 1.95 1.31.34 1.65q-.74.18-1.5.33c0 .55 0 1.11.08 1.87.17 3.8-.82 6.55-3.78 8.64-1.1.77-2.29-.71-1.12-1.46 2.43-1.58 3.19-3.89 3.12-7.14 0-.59 0-1.12-.06-1.63a13.93 13.93 0 0 1-3.19.13c-1.27-.11-1.16-1.95.31-1.72a11.39 11.39 0 0 0 2.86-.1v-.49a11.6 11.6 0 0 0-.21-2.24c-.15-1.4 1.73-1.33 2-.28a8.66 8.66 0 0 1 .1 2.25zm17.6 8.84c1.39-1.23 1.33-3 .25-3.76a5 5 0 0 0-4.95.33 4.11 4.11 0 0 0-1.6 1.42c-.68 1-2.58-.12-1.4-1.27a67.55 67.55 0 0 0 5.73-6.13c.21-.27 0-.19-.13-.11a15.66 15.66 0 0 1-3.19 1c-1.5.33-1.78-1.55-.49-1.7a30.82 30.82 0 0 0 4.17-.93c1.52-.44 2.77.91 1.82 2-.61.68-1.37 1.42-2.12 2.12s-1.52 1.39-2.2 2.05a5.8 5.8 0 0 1 5.33-.05c2.73 1.63 1.83 5-.16 6.41s-4.83 1.42-6.28.47c-2-1.31-1.11-3.66 1.12-3.74a2.7 2.7 0 0 1 3 2.57 2.64 2.64 0 0 0 1.1-.68zm-4-.57c-.83.07-.87.85-.26 1.18a3.47 3.47 0 0 0 1.59.28c-.02-.87-.53-1.54-1.37-1.46zm16.52 2.71c-1.82-1-1.85-3.11.33-3.92a7.55 7.55 0 0 1 3.77-.16 11.07 11.07 0 0 0 0-1.17c-.22-3.8-.43-5.6-.41-8.31a1 1 0 0 1 2 0c-.06.93-.08 1.8-.06 2.73a7 7 0 0 0 .7 0 4.07 4.07 0 0 0 1.4-.43c1.2-.69 2.43 1 1.14 1.68a4 4 0 0 1-1.19.4c-.42.08-.84.12-1.16.16a4.58 4.58 0 0 1-.83 0c0 1.07.09 2.24.13 3.63v1.8a7.9 7.9 0 0 1 2.58 1.42c1.35 1.16 0 3.09-1.33 1.71a7.31 7.31 0 0 0-1.54-1.2 4 4 0 0 1-5.53 1.66zm.86-2.5a.54.54 0 0 0 0 1 2.15 2.15 0 0 0 3-1 4.91 4.91 0 0 0-3 0zm20.48 2.22c3.4-2.39 4.44-5.75 3.66-7.95-.53-1.48-2-1.56-3.26-.78a11 11 0 0 1-1.84.87 1 1 0 1 1-.59-2c.5-.17 1.1-.38 1.63-.61 1.94-.85 4.73-.77 5.73 1.41 1.46 3.17-.15 7.66-3.94 10.45-1.26.96-2.51-.6-1.39-1.39zm-.4-13.57c-1.08-.6-.28-2.08 1-1.47a13.07 13.07 0 0 0 2.94.83c1.55.27.93 2.18-.48 1.92a12.15 12.15 0 0 1-3.46-1.28zm16.12 13.36c-1.52-3.74 0-9.35.32-11.61.21-1.4 2-1 1.84.11-.3 1.54-1.44 6-1 7.76.05.25.13.19.21 0s.24-.47.32-.61a.76.76 0 0 1 1.33.74 9.3 9.3 0 0 0-1.12 2.66c-.12.51.11 1.1-.36 1.52s-1.16.36-1.54-.57zm5.08-1.35a.94.94 0 0 1 1.35-1.31c1 .93 3.3.63 4.78.33s1.63 1.68.38 2c-2.03.52-5.14.46-6.51-1.02zm1.09-7.57a.89.89 0 1 1-.27-1.76 11.3 11.3 0 0 1 5-.11.93.93 0 1 1-.32 1.82 9.64 9.64 0 0 0-4.36.05zM398 216.33a2.16 2.16 0 1 1 2.17-2.16 2.16 2.16 0 0 1-2.17 2.16zm0-3.58a1.42 1.42 0 0 0-1.44 1.42 1.44 1.44 0 1 0 2.88 0 1.42 1.42 0 0 0-1.44-1.42z"/></svg>