<svg xmlns="http://www.w3.org/2000/svg" viewBox="0 0 397.37 24.32"><g data-name="レイヤー 2"><path d="M6.65 7.56a24.78 24.78 0 0 1-4.34.33C.18 7.84.07 5 2.59 5.26a15.63 15.63 0 0 0 4.28-.19V1.42a1.41 1.41 0 0 1 2.82 0c-.08 1-.13 2.1-.16 3.21.58-.11 1.22-.28 1.88-.42 1.82-.41 2.57 2.16.16 2.55-.74.11-1.43.25-2.07.36v3.07c.66-.19 1.35-.39 2.1-.64 2-.66 3.1 1.88.64 2.58-1 .27-1.86.52-2.66.72.06.94.11 1.79.19 2.6s.17 1.74.23 2.73a12.89 12.89 0 0 1 3.42 2c1.86 1.52.06 4-1.68 2.43a12.73 12.73 0 0 0-2-1.49A5.63 5.63 0 0 1 2 23.57c-2.63-1.3-2.8-4.39.22-5.67a9.45 9.45 0 0 1 5.28-.47c0-.58-.08-1.16-.14-1.79s-.11-1.44-.17-2.3a15 15 0 0 1-5 .31A1.38 1.38 0 1 1 2.75 11a11.61 11.61 0 0 0 4.32-.25C7 9.69 7 8.61 6.93 7.53zM3.08 19.9A.83.83 0 0 0 3 21.47c1.69.83 3.85 0 4.26-1.55a6 6 0 0 0-4.18-.02zM30 19.31c-2-2.15-2.9-5.36-3.13-8.85a26.67 26.67 0 0 1-.13-3.07 1.41 1.41 0 1 1 2.82 0c.05 1.08-.06 1.13 0 2.4.11 2.91.63 5.65 2.18 7.14.72.69 1.08.77 1.69-.06a10.8 10.8 0 0 0 .91-1.63 1.36 1.36 0 0 1 2.52 1 13.54 13.54 0 0 1-1.08 2.13C34 21.22 31.58 21 30 19.31zm15-4.86a8.67 8.67 0 0 0-3.07-5.37c-1.32-.91.17-3 1.83-1.71 2 1.46 3.87 4.06 4.15 6.41.21 2.02-2.53 2.58-2.91.67zm13.5 7.3c-2.21-5.45 0-13.64.47-16.93a1.34 1.34 0 1 1 2.68.18c-.44 2.24-2.1 8.74-1.44 11.31.09.36.2.28.31 0s.36-.69.47-.89a1.11 1.11 0 0 1 1.93 1.08 14.21 14.21 0 0 0-1.63 3.87c-.16.75.17 1.61-.52 2.22s-1.72.51-2.27-.84zm7.41-2a1.37 1.37 0 0 1 2-1.91c1.5 1.35 4.82.91 7 .47s2.38 2.46.56 2.93c-3.03.76-7.57.7-9.56-1.45zm1.58-11a1.3 1.3 0 1 1-.39-2.57A16.66 16.66 0 0 1 74.37 6a1.36 1.36 0 1 1-.47 2.66 13.92 13.92 0 0 0-6.41.09zm26 5.09A12.46 12.46 0 0 1 99 11.46c5.81-.77 8.44 4.34 5 8.49a12.12 12.12 0 0 1-7.44 3.62c-2.66.36-2.79-2.4-.72-2.65a9.34 9.34 0 0 0 5.75-2.49c2-2.27 1.55-4.9-2.21-4.59a8.32 8.32 0 0 0-4.87 2.54c-.49.53-.63 1.33-1.57 1.58-1.22.33-2.16-.86-2-2.27.22-1.57.61-4.4 1-7.11a10 10 0 0 1-2.6-.08c-2-.33-1.83-3.12.38-2.63a6.8 6.8 0 0 0 2.63 0c.28-1.77.55-3.29.75-4.15a1.37 1.37 0 1 1 2.65.66c-.19.64-.38 1.55-.61 2.58a10.65 10.65 0 0 0 1.47-.89c1.91-1.35 3.65 1.41 1.08 2.6A32.13 32.13 0 0 1 94.54 8c-.44 2.44-.85 4.87-1.05 5.84zM118 21.75c-2.21-5.45 0-13.64.47-16.93a1.34 1.34 0 1 1 2.68.17c-.44 2.24-2.1 8.74-1.44 11.31.09.36.2.28.31 0s.36-.69.47-.89a1.11 1.11 0 0 1 1.93 1.08 14.21 14.21 0 0 0-1.63 3.87c-.16.75.17 1.61-.52 2.22s-1.74.52-2.27-.83zm7.41-2a1.37 1.37 0 0 1 2-1.91c1.49 1.35 4.81.91 7 .47s2.38 2.46.56 2.93c-3.05.76-7.59.7-9.58-1.45zm1.58-11a1.3 1.3 0 1 1-.39-2.57 16.66 16.66 0 0 1 7.25-.18 1.36 1.36 0 1 1-.47 2.66 13.92 13.92 0 0 0-6.38.09zm20.51 14.96a10.61 10.61 0 0 0-3.41-2.9 1.25 1.25 0 0 1-.74-1.11 1.23 1.23 0 0 1 1.3-1.21c1 0 5.39 2.43 5.39 4.31a1.53 1.53 0 0 1-1.49 1.52 1.24 1.24 0 0 1-1.05-.61zm23.35-1.77a1.51 1.51 0 1 1-3 .11c.19-4.48.27-15.32.16-19.3a1.44 1.44 0 0 1 2.88 0c0 1.35-.05 3.76-.08 6.47a2.69 2.69 0 0 1 .47 0c1.55.24 5.14 1.13 6.64 2.4s-.14 3.62-1.72 2.46a17.39 17.39 0 0 0-5.39-2.24c-.02 3.88-.02 7.86.04 10.1zm4-16.23c-1.46-.53-.44-2.3.92-1.88a9.18 9.18 0 0 1 2.9 1.55c1.16 1.13-.39 2.93-1.38 1.87a10.64 10.64 0 0 0-2.44-1.54zm2.47-2.57c-1.5-.48-.53-2.27.83-1.91a9.57 9.57 0 0 1 2.95 1.43c1.22 1.08-.3 3-1.32 1.94a9.81 9.81 0 0 0-2.46-1.46zm25.73 9.29c2.24-.64 4.48-1.27 6.16-1.72 2.16-.55 2.52 2.11.81 2.49s-3.85 1-6.2 1.66c.88 2.8 1.69 5.4 2.21 7a1.56 1.56 0 0 1-.91 2 1.28 1.28 0 0 1-1.74-1c-.45-1.71-1.22-4.42-2.1-7.3-2.47.75-4.87 1.49-6.56 2.07s-2.65-2-.58-2.6c1.6-.49 3.93-1.21 6.39-1.93-.31-1-.61-1.94-.89-2.85-1.71.47-3.4.94-4.84 1.27-2 .47-2.51-2.05-.69-2.46 1.52-.33 3.15-.75 4.79-1.19-.56-1.77-1.08-3.29-1.41-4.31-.64-1.89 2.18-2.33 2.62-.81.28 1 .78 2.58 1.33 4.4 1.58-.44 3.07-.94 4.37-1.35a1.28 1.28 0 1 1 .69 2.46c-1.24.38-2.74.85-4.31 1.3zm25.06 9.51a1.51 1.51 0 1 1-3 .11c.2-4.48.28-15.32.17-19.3-.06-1.88 2.93-1.86 2.88 0 0 1.35-.06 3.76-.09 6.47a2.58 2.58 0 0 1 .47 0c1.55.24 5.15 1.13 6.64 2.4s-.14 3.62-1.71 2.46a17.35 17.35 0 0 0-5.4-2.24c-.01 3.88-.01 7.86.04 10.1zm4-16.23c-1.46-.53-.44-2.3.91-1.88a9.22 9.22 0 0 1 2.91 1.55c1.16 1.13-.39 2.93-1.38 1.87a10.64 10.64 0 0 0-2.43-1.54zm2.46-2.57c-1.49-.48-.52-2.27.83-1.91a9.51 9.51 0 0 1 3 1.43c1.22 1.08-.3 3-1.33 1.94a9.64 9.64 0 0 0-2.49-1.46zm25.19 9.29c2.24-.64 4.48-1.27 6.17-1.72 2.15-.55 2.51 2.11.8 2.49s-3.85 1-6.2 1.66c.89 2.8 1.69 5.4 2.22 7a1.56 1.56 0 0 1-.92 2 1.28 1.28 0 0 1-1.74-1c-.44-1.71-1.22-4.42-2.1-7.3-2.46.75-4.87 1.49-6.56 2.07s-2.65-2-.58-2.6c1.61-.49 3.93-1.21 6.39-1.93-.3-1-.61-1.94-.88-2.85-1.72.47-3.41.94-4.84 1.27-2 .47-2.52-2.05-.7-2.46 1.53-.33 3.16-.75 4.79-1.19-.55-1.77-1.08-3.29-1.41-4.31-.64-1.89 2.19-2.33 2.63-.81.27 1 .77 2.58 1.33 4.4 1.57-.44 3.07-.94 4.37-1.35a1.28 1.28 0 1 1 .69 2.46c-1.25.38-2.74.85-4.32 1.3zm28.41-8.85a9.55 9.55 0 0 0 1.16-.5c1.52-.91 3 1.38 1 2.4a15 15 0 0 1-3 .92A28.07 28.07 0 0 1 286 9.19a4 4 0 0 1 4.65 2.41c1.13-.58 2.29-1.16 3.37-1.63a20.74 20.74 0 0 0 2.16-1 1.47 1.47 0 1 1 1.55 2.49c-.89.45-1.52.58-3 1.14-1.16.44-2.4 1-3.51 1.52a21.8 21.8 0 0 1 0 3 1.62 1.62 0 0 1-1.46 1.71c-.69 0-1.33-.49-1.25-1.57 0-.58.06-1.22.06-1.8-.25.14-.5.28-.72.42-3.43 2.21-3 3.87-1.47 4.64s4.18.2 5.48-.22c2.43-.75 3.21 2.24.66 2.9-1.63.42-5.39.83-7.55-.38-3.73-2.1-3.07-5.84 1.94-9.13.39-.25.83-.55 1.36-.86-.75-2.32-2.88-2-4.68 0l-.11.11a5.51 5.51 0 0 1-.64.72c-1.52 1.36-3.54-.22-1.88-1.71a14 14 0 0 0 2.24-2.6 22.24 22.24 0 0 0 1.3-2.47 5.55 5.55 0 0 1-3.43-.3c-2-1-.63-3.6 1.3-2.3a4.22 4.22 0 0 0 2.6.06c.11 0 .28 0 .42-.06a11.36 11.36 0 0 0 .3-2.32c.11-1.66 2.71-1.49 2.77-.14a5.17 5.17 0 0 1-.22 1.61zm27.47 14.68c.17 4 4.48 3.79 5.92.72 1-2.07.2-3.9-1.35-5.58s.94-3.05 2.16-1.64c2.15 2.49 2.93 5.12 1.87 7.91-2 5.26-10.81 6.17-11-1.21a22.64 22.64 0 0 1 0-2.46 14.65 14.65 0 0 1-2.13-.34c-2.24-.6-1.39-3.23.19-2.71a9.69 9.69 0 0 0 2.13.42c.11-1.22.25-2.44.39-3.68a12.71 12.71 0 0 1-2.3-.47c-2.1-.72-.88-3.27.58-2.66a7.68 7.68 0 0 0 2 .53c0-.33.09-.69.11-1 .17-1.75.23-2.8.31-4.1.14-1.93 2.76-1.49 2.76.14a33.36 33.36 0 0 1-.47 4c0 .34-.08.67-.11 1a5.1 5.1 0 0 0 .7-.14 1.3 1.3 0 1 1 .6 2.48 9.32 9.32 0 0 1-1.69.28c-.16 1.24-.3 2.43-.41 3.59a9 9 0 0 0 1.33-.25 1.32 1.32 0 1 1 .88 2.49 9.58 9.58 0 0 1-2.46.44c-.03.81-.03 1.55-.01 2.24zm29 4.6c-2.19.35-2.41-2.3-.5-2.58A10.86 10.86 0 0 0 350 18c1.66-1.47 1.74-3 .91-3.93-1.19-1.35-3.38-1.33-5.17-.8A49 49 0 0 0 340 15.8a1.36 1.36 0 1 1-1.19-2.43 50.15 50.15 0 0 1 6.38-2.37c2.32-.58 5.5-.61 7.44 1.41 2.37 2.4 1.37 5.47-1.13 7.59a14 14 0 0 1-6.86 2.86zm23.62-17.93c-1.44-1.77 1.27-3.26 2.38-1.68a27.7 27.7 0 0 1 3.24 6.44 52.17 52.17 0 0 1 4.86-3c1.89-1.05 3.33 1.6 1.2 2.68a41.25 41.25 0 0 0-7.86 4.9c-2.74 2.32-2.82 4.39-.66 5.44 1.93 1 5.89.25 7.55-.36 2.32-.88 3.15 2.3.69 3-2.19.61-6.8 1.16-9.54-.22-4-2-3.82-6.5.66-10.07.28-.22.52-.44.8-.63a22.56 22.56 0 0 0-3.32-6.5zm25.95 19.39a3.15 3.15 0 1 1 3.16-3.15 3.15 3.15 0 0 1-3.16 3.15zm0-5.23a2.09 2.09 0 1 0 2.11 2.08 2.08 2.08 0 0 0-2.11-2.08z" fill="#231815" data-name="レイヤー 1"/></g></svg>