<svg xmlns="http://www.w3.org/2000/svg" viewBox="0 0 314.3 500"><path d="M298.3 439.6c-7.6 3.5-15.4 6.5-23.3 9-24.6 7.6-50.3 10.7-76 9-60.6-4.2-125.3-38-140.5-108.6-.6-2.8-1.1-5.5-1.6-8.4-1.1-6.9-1.7-13.9-1.8-21-.1-7 .1-14 .8-21l-27.6 20.9-27.6 21c-10.1 105.3 69.4 153.7 143 158.8 40.4 2.8 91.8-6.7 131.1-37.3l27.6-21c4-3.2 7.9-6.5 11.7-10.1-5 3.3-10.3 6.2-15.8 8.7zm-73.6-310l27.6-21 27.6-21H109.1l6.9-45.7L122.4 0 67.1 41.9l-13.2 87.6h170.8zm4 100.5H163l7.1-59.1-55.3 42-7 59.1h65.7c33.9 0 80.1 11.5 76.3 67.1-.6 11.5-3.5 22.8-8.3 33.3 6.3-1.4 12.4-3.5 18.2-6.1 24.1-11 42.9-32.8 45.4-69.1 3.8-55.6-42.4-67.2-76.4-67.2z" fill="#040000"/></svg>